<?xml version="1.0" encoding="utf-8"?>
<!-- Generator: Adobe Illustrator 25.2.1, SVG Export Plug-In . SVG Version: 6.00 Build 0)  -->
<svg version="1.1" id="Layer_1" xmlns="http://www.w3.org/2000/svg" xmlns:xlink="http://www.w3.org/1999/xlink" x="0px" y="0px"
	 viewBox="0 0 880.2 1133.3" style="enable-background:new 0 0 880.2 1133.3;" xml:space="preserve">
<style type="text/css">
	.st0{fill:#0044AA;fill-opacity:0;}
	.st1{fill:#01130E;}
	.st2{fill:#1EEFBA;}
	.st3{fill:#10DCA8;}
	.st4{fill:#4FFFD2;}
	.st5{fill:#BE0000;}
	.st6{fill:#9D0000;}
	.st7{fill:#445500;fill-opacity:0;}
	.st8{fill:#F3F3F3;}
	.st9{fill:#FFFFFF;}
	.st10{opacity:0.29;enable-background:new    ;}
	.st11{fill:#140000;}
	.st12{fill:#FF2A2A;}
	.st13{fill:#9C2222;}
	.st14{fill:#FF8A8A;}
	.st15{fill:#D31111;}
	.st16{fill:#0B070D;}
	.st17{fill:#9165A8;}
	.st18{fill:#DAAAF3;}
	.st19{fill:#070D0C;}
	.st20{fill:#8FD5D7;}
	.st21{opacity:0.4823;fill:#108E93;enable-background:new    ;}
	.st22{fill:#76ECF0;}
	.st23{opacity:0.8407;fill:#20A5A9;enable-background:new    ;}
	.st24{opacity:0.3319;enable-background:new    ;}
	.st25{fill:#614370;}
	.st26{fill:#110505;}
	.st27{fill:#A02C2C;}
	.st28{fill:#C43636;}
	.st29{fill:#752020;}
	.st30{opacity:0.3186;fill:#0D0D07;enable-background:new    ;}
	.st31{fill:#A0A000;}
</style>
<path id="rect11304" class="st0" d="M0,870.9h440.4"/>
<g id="g17915">
	<g id="g17917">
		<g id="g17919">
			<g id="g17921">
				<path id="path17925" class="st1" d="M558.8,685.7c57.1-25.4,56.7,55.1,83.1,91.9s62.7,35.8,92.2,69.9
					c19.5,22.6,30.8,54.4,15.1,88.7c-14,30.4-46.1,34.1-67.7,19.6c-19.5-13.1-5.3-28-27.4-53.6c-21.7-25.2-44.4-13.8-69.7-41.7
					c-30.1-33.2-55.1-84-62.9-115.3c-3.8-15.2-2.4-24,1.4-29.6C535.2,697.4,558.8,685.7,558.8,685.7L558.8,685.7z"/>
				<path id="path17927" class="st2" d="M596.7,724.1c15,32.3,21.3,77.6,59.7,97.9c24.1,14,47,22.2,61.8,36.7
					c17.9,16.4,28.2,53.6,11,73.3c-13.8,14.9-43.3,11.3-43.1-21.2c-12.8-25.8-24.8-35.6-74.4-55c-40.3-18-61.2-73.1-76.1-107.5
					c-18.5-29.3-10.5-50.2,10.1-61.5C575.3,669.9,588.2,703.6,596.7,724.1z"/>
				<path id="path17929" class="st3" d="M525.9,711c2.5,8.7,6.7,21.2,13.9,39.4c17.2,43.2,54.9,90.1,93.3,99.9
					c25.2,6.4,58.4,26.2,61.7,29.8s1,26.3,7.6,33.3c6,6.3,19.3,12.8,35.3-12.5c1,11.5-1.3,22.9-8.5,31.1
					c-13.8,14.9-43.3,11.4-43.1-21.1c-12.8-25.8-24.9-35.7-74.5-55.1c-40.3-18-61.2-72.6-76.1-107.1
					C528.7,734.1,524.6,721.4,525.9,711z"/>
				<path id="path17931" class="st4" d="M545.8,686.8c29.5-16.8,42.4,16.8,51,37.3c15,32.3,21.3,77.5,59.6,97.8
					c24.1,14,47.1,22.3,61.9,36.7c16.2,14.8,26,46.5,15.2,67c2.3-10.3,3.4-33.2-22.7-57.3c-32.1-29.5-56.5-20.2-92.5-58.2
					S580.6,701,570,692.6c-9.4-7.5-29.9-1.2-33-0.6C537.6,691.7,545.1,687.3,545.8,686.8L545.8,686.8z"/>
			</g>
		</g>
	</g>
	<g id="g18027">
		<g id="g18029">
			<path id="path18031" class="st0" d="M387.7,763.3h228v304.9h-228V763.3z"/>
			<path id="path18033" class="st1" d="M508.8,776.5c-15.3,0.4-34.6,11.6-34.6,32.2c-2.7,41.9,1.9,53.8,4.7,94.1
				c3.7,32.5-6.9,84.2-9.3,116.2c-0.5,14.8,1.5,37.5,26.5,46.1c10.9,4.6,39.5-0.3,44.5-20.4c17.3-53.9,14.7-95.7,16.9-145.6
				c0.4-28.2-1.5-53.5-4-95.4C551,778.3,523.4,774.2,508.8,776.5L508.8,776.5z"/>
			<path id="path18035" class="st5" d="M511.2,773.1c-17.4,4-23,27.3-22.1,42.4c0.9,51.9,11.5,124.3-0.8,175.3
				c-2,19.2-5.3,54,15.5,58.1c15.4,2.9,21.7-13.5,23.4-29c9.5-39.8,13.9-80.6,13.3-121.5c0.9-33,4.2-77.1-2.5-109.4
				C535.9,770.3,518.6,771.3,511.2,773.1z"/>
			<path id="path18037" class="st6" d="M541.9,854.5c-1.7,8.1-1.7,43.2-3.8,68.5c-2.5,30.4-12.6,85.9-19,96.9
				c-5.8,10.1-20.6,27.5-30.8,10.1c2,9.5,6.4,17.2,15.4,18.9c15.4,2.9,21.7-13.6,23.4-29c9.5-39.8,13.9-80.6,13.3-121.4
				C540.8,885.2,541.6,869.9,541.9,854.5z"/>
			<path id="path18039" class="st6" d="M506.4,774.9c-13.6,6.8-18,27-17.2,40.6c0.9,51.9,11.6,124.3-0.8,175.4
				c-2,19.2-5.4,54,15.4,58.1c5,1.1,10.2-0.4,13.9-4c-2.7,0.3-5.9,0.8-9.3,1.3c-10.8,1.4-13.4-9.1-15.3-27.8s17.8-69.8,14.6-103.8
				C504.7,882.9,488.8,816.2,506.4,774.9z"/>
		</g>
	</g>
	<g id="g18041">
		<g id="g18043">
			<path id="path18047" class="st1" d="M565.9,740.6c-12.3,4.8-18.8,15.4-22.7,28.2c0.3,31.1,10.4,61.2,19.9,90.4
				c18.2,45.8,38.6,91.4,44,141.6c0.1,19.6,15.5,36,33.4,33.8c18.3,0.5,41.5-5.3,48.3-25.2c5.1-31.6-9-61.8-17.5-91.2
				c-17-51.8-33.5-104.2-43.1-158.3c-5-21.6-29.2-27.8-47.2-23.9C576,737.1,570.7,738,565.9,740.6L565.9,740.6z"/>
			<path id="path18049" class="st5" d="M573.2,727.5c-16.8,8.2-15.1,32.5-11.4,47.5c11.5,66.2,60,151.8,66,219.6
				c1.5,9.8,7.3,24.4,29.9,16.4c21-5.8,5.6-37.3,2.9-54.7c-13.5-54.9-43.7-144.7-49.3-201.8c-1.8-16.5-10.2-22.4-23.3-27.7
				C583.2,725.9,577.7,724.7,573.2,727.5z"/>
			<path id="path18051" class="st6" d="M564,749.4c-4.4,10.8-2.8,25.2-0.2,35.3c11.5,66.2,58.1,142.2,64.1,209.9
				c1.5,9.8,7.4,24.3,29.9,16.2c3-0.7,5.6-2.4,7.5-4.8c-6.3,0.6-12.6-0.2-18.6-2.3c-10.1-3.5-7.7-15.1-12.5-36s-17-62.6-35-99.4
				C582,833.2,566,794.9,564,749.4z"/>
			<path id="path18053" class="st6" d="M620.5,807.7c-0.3,49.2,25.8,127.1,34.1,151.1c7.8,22.7,9.6,40.9,7.3,50.4
				c14.6-8.8,1.3-36.9-1.3-52.9C650.2,914.3,631.3,857.6,620.5,807.7z"/>
		</g>
	</g>
	<g id="g18055">
		<g id="g18057">
			<g id="g18059">
				<path id="path18061" class="st7" d="M311.5,652.1L519,761.9l-123.8,277.4L187.8,929.5L311.5,652.1z"/>
				<path id="path18063" class="st1" d="M425.8,722.3c-16.4-8.5-38.3-15.1-49.6,3.5c-16.4,22.8-17.7,58.5-43.5,72.7
					c-15.3,12.6-36.5,10.2-56.1,11.7c-14.8-0.7-26.5,5.6-37.5,14.8c-20.1,17.8-32.8,50.7-19.6,76.8c9.1,21.4,36.9,31.4,56.3,22.7
					c7.5-2.6,13.9-13.7,20.8-19.8c12-8.3,29.9-7,44.1-12.3c33.7-8.3,68.3-26,84.7-61c12.1-24.1,25.4-49.3,27.5-77
					c-2.3-12.5-9.1-23.8-20.5-29.1C430.3,723.9,427.9,723.3,425.8,722.3L425.8,722.3z"/>
				<path id="path18065" class="st5" d="M426.5,721.3c-15.5-9.6-30.3,4.6-37.2,19.7c-14.2,25-26.9,73.8-57.7,82.9
					c-36,9.8-40.2,7.5-59.8,9.9c-19.9,0.6-40.4,25.2-35.3,47.6c1.7,10.9,15.3,23.5,27.8,20.1c14.5-2.5,11.1-12.5,19.4-17.2
					c10.1-5.2,30.6-9.2,52.7-13c61.9-13.6,93.6-78.4,104.9-129.2C440.9,733.9,435.7,723.4,426.5,721.3L426.5,721.3z"/>
				<path id="path18067" class="st6" d="M441,740.6c-2.1,4-6.2,12.4-13.6,31.1c-11.2,28.6-39.5,73.9-88.7,83.2
					c-40.5,7.7-59,9.1-60,13.5s-6.8,16.4-14.9,19.1c-7.6,2.5-23.9-1.9-23.6-31.3c-4,7.7-5.8,16.6-3.9,25.1
					c1.7,10.9,15.3,23.5,27.7,20.2c14.5-2.5,11.2-12.5,19.5-17.2c10.1-5.3,30.6-9.2,52.6-13C398,857.7,429.7,792.8,441,742
					C441.1,741.5,441,741.1,441,740.6z"/>
				<path id="path18069" class="st5" d="M419.9,718.7c-13.1-2.9-24.7,9.4-30.7,22.3c-14.2,25-27,73.7-57.8,82.8
					c-36,9.8-40.1,7.6-59.7,9.9c-19.2,0.6-38.8,23.3-35.7,44.9c2.4-9.4,8.9-23.1,23.4-29.8c21.2-9.8,57.3,3.4,89.7-22.6
					s39.3-74.7,51.7-91.3C409.8,722.8,415.8,719.2,419.9,718.7z"/>
			</g>
		</g>
	</g>
	<g id="g18071">
		<g id="g18073">
			<path id="path18077" class="st1" d="M409.3,771.2c-14.7-0.2-32,5.2-34.8,22.7c-4.3,28.1-1.4,56.8-1.4,85.1
				c-1.8,28.5-10.4,56.5-26.2,79.3c-4.8,9.2-16.7,16.7-17.9,29.5c-6.5,28.9,7.9,63.5,35.8,69.6c19.9,6.4,46.2,7.5,59.5-12.7
				c14.3-16.6,9.9-41.3,12.1-62.2c16.6-41.8,28.9-87.1,24.4-133.1c-2.3-19.7-2.7-39.9-6.1-59.2C447.9,771.9,425.2,770.4,409.3,771.2
				L409.3,771.2z"/>
			<path id="path18079" class="st5" d="M407.9,769.4c-16.6,1.6-19.1,23.6-17,38.1c-0.6,50.5,6.5,104.1-17.7,149.3
				c-5,13.4-22.3,25.4-20.5,55.4c-0.3,24.5,41.9,35.8,54,15.7c8.3-17.9,0-23.9,11.2-57.3c12.4-37,24-66.7,27.4-97.7
				c2.8-27.5-3-59.5-5.3-88.1C439.9,771,415.1,767.8,407.9,769.4L407.9,769.4z"/>
			<path id="path18081" class="st6" d="M442.6,811.9c0.6,15.3-0.4,45-4.2,63.3c-4.5,21.5-34.3,85.1-36.9,99.6s5.7,51.3-8.2,53.4
				c-12.8,1.9-35,1.9-40.2-28c-0.5,4-0.6,8-0.4,12c-0.3,24.5,41.9,35.9,54,15.7c8.3-17.9,0-24,11.2-57.4c12.4-37,24-66.6,27.3-97.6
				C447.2,854,444.9,832.7,442.6,811.9L442.6,811.9z"/>
			<path id="path18083" class="st6" d="M394.7,778.5c-4.5,8.1-5.1,20-3.8,29c-0.6,50.5,6.5,104.1-17.6,149.3
				c-5,13.4-22.3,25.3-20.5,55.4c-0.1,9.3,5.9,16.7,14.1,21.2c-1.7-1.3-3.3-2.8-4.7-4.4c-5.7-6.9-8.8-20.1,2.6-40.1
				s43.1-69.2,38.7-110C399.4,842.4,388,811.3,394.7,778.5z"/>
		</g>
	</g>
	<g id="g18085">
		<path id="path18087" class="st1" d="M362.9,862.7C222,627.3,310.5,396.6,325,335s-30.7-128.5,55-195.4s218-7.1,250.4,59.9
			s-40.4,227.1-9.7,336.3s63.5,109.1,64.4,216.6C686.5,921.7,451.6,1000.6,362.9,862.7L362.9,862.7z"/>
		<path id="path18089" class="st5" d="M382.8,841.6C263.5,642.3,326,410.8,344.9,336.7c20.4-80.4-19.5-115.9,53-172.5
			s182.3-11.9,208.4,45.4c33.8,74.3-48.8,197.6-8.2,342.8c25.8,92.5,63.2,104.7,63.9,195.7C663.2,891.6,457.8,958.3,382.8,841.6z"/>
		<path id="path18091" class="st6" d="M593.3,189.5c4.2,11.1,7.2,22.6,9,34.4c8,51-16.1,64.8-41.2,181.8s46,204.5,61.1,246.5
			c17.2,47.6,46.8,194.4-78.3,220.3c-72.6,15-146.9-12.2-197.8-106.8c9.9,26.3,22.2,51.7,36.6,75.9c75,116.7,280.4,50,279.2-93.4
			c-0.8-91-38.2-103.3-64-195.8c-40.5-145.2,42.2-268.5,8.3-342.8C602.9,202.3,598.5,195.6,593.3,189.5z"/>
		<path id="path18093" class="st6" d="M480.9,138c-33.7,4.2-77.5,27.9-98.9,40c-27.6,27-30.6,49.9-30.6,77.3c2.8,1.1,5.6,2,8.5,2.7
			c0,0,15.4,27.3,54.2,24.6s50-31.7,50-31.7s24.3,10.6,42.1,8.9c17.8-1.7,30-34.4,30-34.4s-0.7,13.2,2.5,20.3s2.3,9.6,2.3,9.6
			s-5.1,5.1-6.2,15.6c-2.8,0.2-5.5,0.9-8,2.2c-28.6,29.9-9.1,68.5,11.5,59.8c8.1-3.4,13.6-10.5,16.8-18.8
			c9.6,7.5,21.1,11.8,31.2,11.8c18.6,0,21.8-28.9,21.8-33.3s2.5-39.7,2.5-39.7c0.9-8.8,1.3-17.6,1.2-26.4
			c-1.2-5.8-3.1-11.4-5.5-16.8C589.2,171.9,536,139.7,480.9,138z"/>
		<path id="path18095" class="st6" d="M335.3,375.9c-9.2,39.4-19.9,94.5-22.8,157.5c37.3,9.1,61.2-11.2,61.2-11.2s24,32.2,70.8,22.3
			s58.3-99.5,56-113.2S389.6,384,367.9,379C360.5,377.3,348.7,376,335.3,375.9z"/>
	</g>
	<g id="g18097">
		<path id="path18099" class="st1" d="M560.2,350.9c-27.5,11.9-24.7,58.6-8.8,64.6s27.9-21.8,28.9-39S571.2,346.6,560.2,350.9
			L560.2,350.9z"/>
		<path id="path18101" class="st6" d="M554.2,367.6c-13.1,14.3-8.6,29.9,0,28.6s14.3-19.3,10.3-29.3S554.2,367.6,554.2,367.6z"/>
	</g>
	<g id="g18103">
		<path id="path18105" class="st1" d="M551.2,486.8c-12.7,20.7-4.4,57.8,14.1,59.4s16-32.8,13.6-45.6c-2.4-12.7-11.7-21.2-19-19.6
			S551.2,486.8,551.2,486.8z"/>
		<path id="path18107" class="st6" d="M549.2,507.1c-4,13.7,5.1,29.3,11.4,26.1s6.3-26.1-1.7-32.4S549.2,507.1,549.2,507.1
			L549.2,507.1z"/>
	</g>
	<g id="g18109">
		<path id="path18111" class="st1" d="M575.4,601.4c-6.4,30.1,12.8,60.7,25.2,56.4c12.3-4.3,6.9-38.7-1-51.6s-15.3-13.4-19.2-10.7
			C578.1,596.9,576.4,599,575.4,601.4L575.4,601.4z"/>
		<path id="path18113" class="st6" d="M579.7,629.9c2.3,12.9,9.9,20.8,13.7,17.9s-0.7-20-7.8-29.2
			C578.4,609.4,579.7,629.9,579.7,629.9z"/>
	</g>
	<g id="g18115">
		<g id="g18117">
			<path id="path18119" class="st1" d="M425.2,376.2c18,46.2,21.8,95-21.1,120.1c-33.6,19.7-80,6.9-98-39.3s-6.9-101.2,23.5-121.8
				S407.1,330,425.2,376.2L425.2,376.2z"/>
			<path id="path18121" class="st8" d="M422.5,377.8c12.2,31.2,10.7,79.9-19.6,101c-29.4,20.5-65.6,6.3-80.5-31.9
				s-8.9-76.1,20.7-96.1S408,340.6,422.5,377.8L422.5,377.8z"/>
			<path id="path18123" class="st9" d="M353.2,345.2c-3.6,1.5-7,3.4-10.2,5.5c-29.6,20.1-35.5,57.9-20.6,96.1
				c12.5,32.1,40,47.3,66,39.1c-7.4-0.4-16.6-1.9-28.8-5.8C324.9,469.3,308.9,387.6,353.2,345.2z"/>
		</g>
		<g id="g18125">
			<path id="path18127" class="st1" d="M390.7,408.4c0,62.3,36.2,105.5,80.8,105.5s80.8-43.3,80.8-105.5s-24.8-112.8-69.5-112.8
				S390.7,346.1,390.7,408.4L390.7,408.4z"/>
			<path id="path18129" class="st8" d="M408.7,409.3c0,40.7,25.2,87,66.4,87c42.1,0,77.8-34.6,77.8-84.5s-28.6-90.2-70.6-90.2
				S408.7,360.8,408.7,409.3z"/>
			<path id="path18131" class="st10" d="M552.3,400.7c-1.9,17.2-6.9,35-15,50.2c-9.2,17.2-24.9,35.4-43.7,42.9
				c33.5-8.5,59.2-39.8,59.2-82C552.8,408,552.6,404.3,552.3,400.7L552.3,400.7z M422.5,461.5c1.3,2.2,2.5,4.4,4,6.5
				c0.1,0.1,0.2,0.2,0.3,0.3c0.7,1,1.4,1.9,2.2,2.9s1.5,2.1,2.3,3.1s1.9,2.1,2.8,3.1s2.1,2.1,3.2,3.1c0.8,0.8,1.6,1.5,2.5,2.2
				s1.9,1.5,2.8,2.2c0.6,0.4,1.1,1,1.7,1.5c1,0.7,2,1.4,3,2c0.2,0.1,0.3,0.3,0.5,0.4c1.2,0.7,2.6,1.2,3.8,1.8
				C441.9,484.9,432.2,475.6,422.5,461.5L422.5,461.5z"/>
			<path id="path18133" class="st9" d="M424.8,353.7c-10.2,15.1-16,34.5-16,55.6c0,40.7,25.1,86.9,66.3,86.9c3.7,0,7.3-0.3,10.9-0.8
				c-10.7-0.8-24-4.4-37.9-14.7C424.8,463.6,400.2,408.9,424.8,353.7z"/>
		</g>
		<g id="g18135">
			<path id="path18137" d="M500.5,419c0,12.8-9.5,23.2-21.3,23.2s-21.3-10.4-21.3-23.2s9.5-23.2,21.3-23.2S500.5,406.3,500.5,419z"
				/>
			<path id="path18139" class="st9" d="M478.3,405.5c0,5.9-4.4,10.6-9.8,10.6s-9.8-4.8-9.8-10.6s4.4-10.6,9.8-10.6
				S478.3,399.6,478.3,405.5z"/>
		</g>
		<path id="path18141" class="st1" d="M501.7,239c-79.7,27-113,118.2-108.5,128.8s7.1,16.4,13.3,22.2s71.7-51.1,93.9-69.5
			s34.5-26.1,39-38.6S516.4,230.9,501.7,239z"/>
		<path id="path18143" class="st1" d="M322.4,270.5c61.7,20.9,90.5,86.6,87.1,94.9s-5.5,12.7-10.3,17.2s-55.5-39.6-72.7-53.8
			s-22.7-16.6-26.1-26.4S313.3,270.5,322.4,270.5L322.4,270.5z"/>
		<g id="g18145">
			<path id="path18147" d="M364.4,425.7c0,11.3-8.4,20.4-18.8,20.4s-18.8-9.1-18.8-20.4s8.4-20.4,18.8-20.4S364.4,414.4,364.4,425.7
				z"/>
			<path id="path18149" class="st9" d="M344.9,413.8c0,5.2-3.9,9.4-8.6,9.4s-8.6-4.2-8.6-9.4s3.9-9.4,8.6-9.4
				S344.9,408.6,344.9,413.8z"/>
		</g>
	</g>
	<g id="g18151">
		<g id="g18153">
			<g id="g18155">
				<path id="path18159" class="st1" d="M401,788.1c-18.3-3.3-41.4-3.2-47.7,18.5c-10.2,27.4-2.4,62.8-24,84.4
					c-11.8,16.9-33.1,21.1-51.9,28.5c-14.7,3.8-24.5,13.6-33,25.9c-15.1,23.5-19.1,59.6,0.5,81.2c14.4,18.2,44.2,19.6,61,5.1
					c6.7-4.8,10.1-17.6,15.3-25.7c9.6-11.8,27.5-15.9,40-25.4c30.9-18.3,60.3-46.2,67.3-85.5c5.7-27.2,6.2-48.1,1.2-75.8
					c-3.8-12.8-9-28.4-21.5-30.2C405.9,788.3,403.4,788.4,401,788.1L401,788.1z"/>
				<path id="path18161" class="st5" d="M402.5,783.4c-20.2-0.3-34.9,2.5-33.5,29.7c-7.5,28.8-6.5,84.8-34.4,103.1
					c-32.8,20.6-37.5,19.6-56.1,27.9c-19.4,6.6-33.1,37-22.4,57.3c4.5,10.2,21,18.4,32.4,11.3c13.6-6.9,7.7-15.6,14.6-22.7
					c8.6-8.2,27.6-18.3,48.3-28.8c57.2-32.1,74.7-107.3,72.8-160.5C429.1,791.8,414.7,785.7,402.5,783.4L402.5,783.4z"/>
				<path id="path18163" class="st6" d="M420.5,801.4c-1,4.5-2.9,14-5.4,34.6c-3.7,31.4-19.8,84.5-65.6,108.5
					c-37.8,19.8-55.5,26.9-55.3,31.4s-2.5,18.2-9.7,23.3c-6.8,4.8-23.9,5.4-31.1-23.5c-2,8.8-1.4,18,2.6,25.8
					c4.5,10.2,21,18.4,32.3,11.3c13.6-6.9,7.8-15.6,14.7-22.7c8.6-8.2,27.6-18.4,48.2-28.8c57.2-32.1,71.6-105.3,69.7-158.6
					C420.9,802.3,420.7,801.8,420.5,801.4z"/>
				<path id="path18165" class="st5" d="M390,785.2c-12.6-0.1-22.1,6.7-21,27.8c-7.3,28-6.6,81.4-32,101.3c-0.8,0.7-1.6,1.3-2.5,1.9
					c-8.1,5.1-14.5,8.9-19.9,11.8c-2.7,1.5-5.1,2.8-7.4,3.9s-4.1,2-6,2.8c-3.9,1.7-7.2,3-10.8,4.4c-3.6,1.4-7.3,3-12,5.1
					c-1.2,0.4-2.3,0.9-3.4,1.4c0,0-0.1-0.1-0.1,0c-1.1,0.6-2.1,1.3-3.2,2c-0.1,0.1-0.2,0-0.3,0.1c-1,0.7-2,1.4-2.9,2.2l-0.4,0.3
					c-0.9,0.8-1.6,1.6-2.4,2.4s-1.9,2-2.7,3.1c-0.9,1.1-1.7,2.2-2.4,3.3c-0.8,1.2-1.5,2.5-2.2,3.7c-0.5,0.9-1,1.8-1.4,2.7
					c-0.3,0.6-0.6,1.1-0.9,1.7c-0.1,0.2-0.2,0.4-0.3,0.6c-0.4,0.9-0.6,1.8-0.9,2.7c-0.4,1.2-0.7,2.4-1,3.6c-0.1,0.3-0.2,0.5-0.3,0.8
					c-0.3,1.3-0.6,2.5-0.8,3.8c-0.1,1-0.2,1.9-0.3,2.9c-0.1,1.1-0.2,2.3-0.2,3.4s0,2.2,0.1,3.3c0.1,0.9,0.1,1.8,0.2,2.6
					c0,0.2,0.2,0.5,0.2,0.7c0.2,1.1,0.5,2.2,0.7,3.2c0.1,0.4,0.3,0.8,0.4,1.3c0.3,1,0.6,2,0.9,2.9c-0.1-9.9,2.9-25.2,15.3-36.1
					c18.3-16.1,57.1-14.2,82.2-49.5c25.1-35.3,19.3-85.1,27.1-105.2c5.8-14.7,10.8-20.1,14.7-21.8C393,785.9,391.5,785.6,390,785.2
					L390,785.2z"/>
			</g>
		</g>
	</g>
	<g id="g18167">
		<g id="g18169">
			<path id="path18173" class="st1" d="M602.5,823.3c-10.1,11.2-13.2,23-13.5,34.8c8.5,22.7,25.8,38.7,42.2,54.3
				c28.9,22.4,59.8,43.4,78,77c5.3,14.4,33.5,25.7,49.5,12.9c17.1-11,32-26.1,28.3-57.5c-3.6-26.4-24.6-39.9-40.2-56.4
				c-29.3-27.7-58.4-56-81.6-89.9c-10.3-12.8-34.2-2.4-49.9,11.7C610.9,814.4,606.3,818.3,602.5,823.3L602.5,823.3z"/>
			<path id="path18175" class="st5" d="M605.8,809.1c-13.4,16.5-5.4,33.3,2,42.1c28.1,41.6,95.6,74.6,119,120.8
				c4,6.3,13.2,13.4,31.9-6.5c17.9-17.4-4.7-31-11.8-42.1c-27-32.1-78.6-79.5-98.9-118.1c-6-11-15.3-10.2-28.8-5.9
				C614.6,801.8,609.2,804.3,605.8,809.1z"/>
			<path id="path18177" class="st6" d="M603.2,831c-1.2,10.7,4.1,20.3,9.1,26.2c28.1,41.6,91.2,68.7,114.6,114.9
				c4,6.3,13.2,13.3,31.9-6.6c2.5-2.3,4.4-5.1,5.7-8.2c-5.4,4.2-11.4,7.5-17.8,9.9c-10.3,3.7-11.1-6.3-21-18.8s-32.3-35.6-58.6-51.5
				C641.8,881.6,617,863.3,603.2,831z"/>
			<path id="path18179" class="st5" d="M670.6,838.9c12.7,36.5,57.4,77.7,71.4,90.2c13.2,11.8,19.7,24.2,20.1,32.7
				c11.1-15.5-8.6-28-15.2-38.2C726.3,899,693.8,868.9,670.6,838.9z"/>
		</g>
	</g>
	<g id="g18181">
		<g id="g18183">
			<path id="path18187" class="st1" d="M591.4,719.9c-11.1,17.2-2.4,47.5,10.5,60.6c25,36.9,41.7,64.7,83,77.3
				c22.1,3.2,46.8-3.2,68,5.4c11.3,11.4,14.6,31.3,28.5,40.4c17.3,15,42.9,1.9,59.9-14.5c17.8-16.1,28-46.8,12.4-65.7
				c-14.5-23.6-34.2-44.2-60-50.5c-28.6-7.3-60.6,0.4-87-12.2c-27-15.6-32.4-42.2-53.1-65.1c-16.7-12.4-45.4-3.4-60,12.8
				c-3.3,3.6-0.2,3.5-2.9,7.8L591.4,719.9z"/>
			<path id="path18189" class="st5" d="M599.6,761.3c25.6,31.4,58.1,68.3,96.7,72.4c25.6,5.6,42.5,1.9,62.8,5.6
				c15.6-2.3,25.5,72.8,72,28.5c19.7-20.6-3.3-43.5-9.3-51.2c-27.2-26.6-52.7-25.2-76.4-25.9c-16.6-3.4-39.1-1.1-53.2-13.1
				c-25.8-17.4-37-69.8-59.5-91C591.2,673.8,561.9,733.4,599.6,761.3z"/>
			<path id="path18191" class="st5" d="M614.4,685.4c-8.2,1.8-15.5,6.2-20.9,12.5l9.7,0.5c43.5,1.8,46.8,66.2,73.4,88.3
				c30.4,25.3,69.3,7,105,15.1c13.9,3.1,22.7,4.8,29.5,5.7c-3-2.2-6-4.3-9.3-6.1c-1.2-0.7-2.4-1.2-3.5-1.8c-0.5-0.2-1-0.4-1.5-0.6
				c-1.6-0.7-3-1.4-4.6-2c-0.1,0-0.1-0.1-0.2-0.1c-2.2-0.8-4.4-1.5-6.5-2.1s-4.2-1.1-6.4-1.6l-1.8-0.3c-1.5-0.3-3-0.5-4.5-0.7
				c-0.2,0-0.3,0-0.5-0.1c-3-0.4-5.9-0.7-8.8-0.8c-6.1-0.4-12.2-0.5-18.1-0.7c-10.4-2.1-23-1.9-34.6-4.5c-3.4-0.7-6.7-1.8-9.9-3.2
				c-2.1-0.9-4.1-2-6-3.3c-0.9-0.6-1.9-1.3-2.7-2v-0.2c-1.6-1.1-3.2-2.3-4.6-3.6c-22.6-20.1-33.8-67.5-54.9-87.4
				C626.9,684.7,620.6,684.3,614.4,685.4L614.4,685.4z"/>
			<path id="path18193" class="st6" d="M625,781.9c20.1,25,42.4,48.7,71.4,51.7c25.6,5.7,42.5,1.8,62.8,5.5
				c15.6-2.3,25.5,72.8,72,28.6c8.5-8.9,9-18.2,6.4-26.6c-1.3,0.9-3.1,2.8-2,6.7c1.6,5.7-6.4,32.1-30.4,16s-19.8-38.6-39.5-45.5
				C749.2,812.6,690.4,839.4,625,781.9z"/>
		</g>
	</g>
	<g id="g18195">
		<g id="g18197">
			<path id="path18201" class="st1" d="M533.5,814.8c-14.2,6.3-19.7,27.7-12.8,47c6.3,27.9,15.2,46.7,19.5,58.2
				c10.2,34.3,11.8,67.2-0.9,103.4c-12.2,24.6,10,66.4,36.9,70.2c11.4,3,52.7-1,63.3-28.3c12.3-30.3-6.6-52.2-7.7-70.5
				c4-100.7-21-127.7-42.2-178.1C578.9,793.8,546.4,806.9,533.5,814.8L533.5,814.8z"/>
			<path id="path18203" class="st5" d="M532.2,805.7c-15,8-5.5,33.2,1.2,45.8c16.1,47.6,40.3,94.9,32.5,146.7
				c-0.2,14.5-12.5,32.5-0.9,59.9c7.7,23,51,17.2,55.7-6.4c1.9-20-7.9-22.4-8.4-58.1c-0.5-39.5,0.5-71.8-6.5-102.2
				c-6.5-26.9-15.4-61.5-26.9-87.4c-7-21.2-36.5-7.3-42.8-2.9L532.2,805.7z"/>
			<path id="path18205" class="st6" d="M583.3,835.5c5.6,14.1,14.5,42.3,16.9,60.9c2.9,21.8-4.1,93.1-1.7,107.7s22.3,45.8,9.9,53.2
				c-11.3,6.8-32.1,15.5-46.9-10.5c0.8,3.9,2,7.7,3.6,11.3c7.7,23,51,17.2,55.7-6.4c1.9-20-7.8-22.4-8.4-58.1
				c-0.5-39.5,0.5-71.8-6.6-102.1C601.3,872.9,592.2,854,583.3,835.5L583.3,835.5z"/>
			<path id="path18207" class="st5" d="M527.4,822.9c-1.6,9.4,1.8,20.8,6,28.7c16.1,47.6,40.4,94.9,32.6,146.7
				c-0.2,14.4-12.6,32.4-1,59.8c2.9,8.8,11,13.3,20.2,14.3c-2-0.5-4-1.3-5.9-2.3c-7.6-4.2-14.9-15.3-10.8-38.6s17.6-81.6,0-118.1
				C552.9,880.8,532,856.3,527.4,822.9z"/>
		</g>
	</g>
	<g id="g18209">
		<g id="g18211">
			<g id="g18213">
				<path id="path18217" class="st1" d="M456.2,795.2c-36.5,33.8-14.1,81.3-21.5,121.9c-8,44.1-32.7,65.1-39.6,109.6
					c-4.6,29.5,2,61.5,31.4,79.8c26.1,16.2,53.6,0.4,63.8-23.7c9.2-21.9-9.4-25.5-4.3-58.9c5-32.7,28.8-36.8,35.4-73.9
					c7.8-44,3-99.3-6.1-129c-4.4-14.3-9.8-20.6-15.6-22.9C480.8,790.8,456.2,795.1,456.2,795.2L456.2,795.2z"/>
				<path id="path18219" class="st5" d="M444.6,848c3.8,34.6,20.9,74.5,0.2,113.1c-12.4,25.2-26.8,45.1-31.5,65.3
					c-6.3,23.6,3.7,59.3,27.1,65.1c18.4,3.9,40.2-16.1,24.2-42c-2.4-28.1,2.4-43,32.6-87.3c23.5-37.8,13.2-94.2,8.2-130.4
					c0.4-34.2-16.2-46.3-38.2-43.4C435.2,792.2,441.4,826.6,444.6,848z"/>
				<path id="path18221" class="st6" d="M495,796.3c2.3,8.4,5,20.8,8.2,39.6c7.4,44.6,0.2,104-25.7,134.2
					c-17,19.8-33.9,55-34.8,59.7s12,21.6,10.2,31.1c-1.7,8.5-9.2,21.5-34.4,10.6c4.9,9.8,12.2,17.6,22,20
					c18.4,3.9,40.2-16.1,24.1-42c-2.4-28.1,2.4-43.1,32.6-87.4c23.5-37.8,13.4-93.8,8.5-130C504,816.4,501.1,803.9,495,796.3
					L495,796.3z"/>
				<path id="path18223" class="st5" d="M467.2,788.5c-31.9,3.7-25.8,38.1-22.5,59.5c3.8,34.6,20.9,74.4,0.2,113
					c-12.4,25.2-26.8,45.2-31.5,65.4c-5.7,21.3,2,52.4,20.7,62.5c-6.9-6.9-19-24.6-9.9-59.1c11.2-42.2,35.3-49.1,45.5-100.4
					c10.3-51.4-23.2-109.3-18.9-122.2c3.9-11.4,23.3-18.4,26.1-19.7C476.2,787.6,467.9,788.5,467.2,788.5L467.2,788.5z"/>
			</g>
		</g>
	</g>
	<path id="path18243" class="st6" d="M502.7,254.8c-44.6,22.4-88.6,85.9-92,100.9s4,13.7,8,8.1s80-62.3,94.9-76.6s5.7-13.7,1.7-21.2
		S502.7,254.8,502.7,254.8L502.7,254.8z"/>
	<path id="path18245" class="st6" d="M318.6,302.1c29.7,14.9,70.9,63.5,71.4,59.1s4.6-10,4.6-10s-32-39.2-50.9-49.8
		s-18.3-13.1-21.7-8.7C320,295.4,318.8,298.7,318.6,302.1z"/>
	<path id="path18247" class="st1" d="M614.2,374.3c16.2-1.8,38.8,8.8,29.1,12.3s-34,7-34,7L614.2,374.3z"/>
	<path id="path18249" class="st1" d="M602,495.8c19.4-3.5,38.8-6.2,33.9-1.8s-25,22.9-25,22.9L602,495.8z"/>
	<path id="path18251" class="st1" d="M625.5,581.2c16.2-8.8,27.5-14.1,25.1-7.9s-13.7,27.3-13.7,27.3L625.5,581.2z"/>
	<g id="g18447">
		<path id="path18449" class="st1" d="M558.9,501.8c-7.7,11.6-1.7,27.9,3.1,26.8s62.3-10.3,49.5-20.6
			C602.8,501,558.9,502.8,558.9,501.8z"/>
		<path id="path18451" class="st5" d="M565,511.8c-1.7,7.5,1.4,7.5,1.4,7.5s38.9-5.6,35.4-7.5C598.4,509.9,565,511.8,565,511.8z"/>
	</g>
	<g id="g18453">
		<path id="path18455" class="st1" d="M560.4,369.6c-10.8,8.2-10.1,25.7-5.2,26.5s61.9,12.6,53-1.7
			C602.1,384.6,560,370.6,560.4,369.6z"/>
		<path id="path18457" class="st5" d="M563,381.2c-3.9,6.4-0.9,7.6-0.9,7.6s38.4,8.6,35.7,5.6S563,381.2,563,381.2z"/>
	</g>
	<g id="g18459">
		<path id="path18461" class="st1" d="M587.4,616c-2.1,14.1,9.9,25.8,13.8,22.5c3.9-3.3,51.4-39.6,35.8-42.6
			C626.4,593.9,587.9,617,587.4,616z"/>
		<path id="path18463" class="st5" d="M596.9,622c1.5,7.5,4.4,6,4.4,6s32.4-24,28.6-24S596.9,622,596.9,622z"/>
	</g>
</g>
<g id="g30006" transform="matrix(10.249334,0,0,10.249334,3461.9942,-2848.9742)">
	<g id="g30008" transform="matrix(-0.39999883,-1.0077653,-1.0077653,0.39999883,-77.555714,38.628081)">
		<path id="path30010" class="st11" d="M-146.8,268.2c2.7,0,5.1,0.7,6.2-1.1c0.5-0.8,0.5-1.8,1-2.6c0.5-0.6,1.6-1.4,2.7-1.5
			c2.4-0.3,4.7,4.9,4.3,8c-0.1,0.9-0.2,1.5-0.7,1.8c-0.5,0.4-1.5,0.5-2.1,0.5c-0.8-0.1-1.5-0.5-1.9-0.5c-1,0-3.4,0.1-5.2,1.2
			c-1.8,1.2-4.4,2.3-5.7,1.1c-1.1-1.3-0.7-6.5,0.8-7L-146.8,268.2z"/>
		<path id="path30012" class="st12" d="M-147.4,270c0.6,0,3.3,0.4,5.4-0.2c2.7-0.8,2.8-1.5,3.2-2.3c0.2-0.9,0.7-1.8,1-2
			c0.1-0.1,0.9-0.7,1.4-0.4c0.3,0.2,0.7,0.8,1.1,1.4c1.5,2.3,1.2,4.9,0.8,5c-0.6,0.1-0.7,0.3-1.6-0.1c-1.1-0.4-1.1-0.3-1.8-0.3
			c-1.4,0-3.9,1-5,1.7c-1.1,0.7-4.4,1.8-5.5,1.3C-150.7,272.7-148.6,270.1-147.4,270L-147.4,270z"/>
		<path id="path30014" class="st13" d="M-134.4,268.7c0,0.3,0.1,0.8,0.1,1.2c0,0.5-0.3,1.1-0.7,1.1c-0.4,0-1.3-0.6-2-0.7
			c-0.6,0-2.4,0.1-3.3,0.5c-0.9,0.4-3.9,1.9-5.7,2.1c-1.6,0.2-3-0.3-3.4-0.6c0,0,0,0.1,0,0.1c0,0.3,0.1,0.7,0.5,1.3
			c0.1,0.1,0.3,0.2,0.4,0.3c1.1,0.5,4.4-0.6,5.5-1.3c1.1-0.7,3.6-1.7,5-1.7c0.7,0,0.7-0.1,1.8,0.3c1,0.4,1.1,0.2,1.6,0.1
			C-134.3,271.4-134.1,270.2-134.4,268.7z"/>
		<path id="path30016" class="st14" d="M-136.9,265c-0.5,0-0.9,0.4-1,0.5c-0.3,0.2-0.8,1.1-0.9,2c-0.4,0.8-0.5,1.6-3.2,2.3
			c-2.1,0.6-4.8,0.2-5.4,0.2c-0.6,0-1.3,0.7-1.7,1.4c0.3-0.2,1.2-1,1.5-0.9c0.3,0,2.6,0.7,5.8-0.1c3.3-0.9,3.8-3,3.9-3.5
			c0.2-0.8,1.1-1.3,1.4-1.1c0,0,0.9,0.6,1.6,1.8c0,0.1,0.1,0.1,0.1,0.2c-0.2-0.4-0.4-0.9-0.6-1.3c-0.4-0.6-0.8-1.2-1.1-1.4
			C-136.6,265-136.7,265-136.9,265z"/>
	</g>
	<g id="g30018" transform="matrix(-0.10295796,-1.0793469,1.0793469,-0.10295796,-298.93196,90.763495)">
		<path id="path30020" class="st11" d="M-186.4-19.5c2.7,0.1,5.2,0.8,6.2-1c0.5-0.8,0.4-1.8,1-2.5c0.5-0.6,1.5-1.4,2.7-1.5
			c2.4-0.2,4.8,4.9,4.5,8.1c-0.1,0.9-0.2,1.5-0.7,1.8c-0.5,0.3-1.5,0.5-2.2,0.4c-0.8-0.1-1.5-0.5-1.9-0.5c-1,0-3.4,0-5.2,1.1
			c-1.8,1.2-4.4,2.2-5.7,1c-1.1-1.3-0.8-6.5,0.7-7L-186.4-19.5z"/>
		<path id="path30022" class="st12" d="M-187-17.8c0.6,0,3.3,0.5,5.4-0.1c2.7-0.7,2.8-1.4,3.2-2.2c0.2-0.9,0.7-1.7,0.9-2
			c0.1-0.1,0.8-0.7,1.4-0.3c0.3,0.2,0.7,0.8,1.1,1.4c1.5,2.3,1.4,4.8,0.9,4.9c-0.6,0.1-0.6,0.3-1.7-0.1c-1.1-0.5-1.1-0.4-1.8-0.4
			c-1.4-0.1-3.9,0.9-5,1.6c-1.1,0.6-4.3,1.7-5.5,1.2C-190.2-15.1-188.2-17.7-187-17.8L-187-17.8z"/>
		<path id="path30024" class="st13" d="M-173.9-18.7c0,0.3,0.1,0.8,0.1,1.2c0,0.5-0.3,1.1-0.7,1.1c-0.4,0-1.3-0.6-2-0.8
			c-0.6,0-2.4,0-3.3,0.4c-0.9,0.4-3.8,1.8-5.7,2c-1.6,0.1-3-0.4-3.4-0.7c0,0,0,0.1,0,0.1c0,0.3,0.1,0.7,0.5,1.3
			c0.1,0.1,0.3,0.2,0.5,0.3c1.1,0.5,4.4-0.5,5.5-1.1c1.1-0.7,3.6-1.6,5-1.6c0.7,0,0.7-0.1,1.8,0.4c1,0.4,1.1,0.2,1.7,0.1
			C-173.7-16.1-173.5-17.3-173.9-18.7z"/>
		<path id="path30026" class="st14" d="M-176.5-22.5c-0.5,0-0.9,0.4-1,0.5c-0.3,0.2-0.7,1.1-0.9,2c-0.4,0.8-0.5,1.5-3.2,2.3
			c-2.1,0.5-4.8,0.1-5.4,0.1c-0.6,0-1.3,0.6-1.7,1.4c0.3-0.1,1.2-0.9,1.5-0.9c0.3,0,2.6,0.8,5.9,0c3.3-0.8,3.7-2.9,3.9-3.4
			c0.1-0.8,1.1-1.3,1.4-1c0,0,1,0.6,1.6,1.9c0,0.1,0.1,0.1,0.1,0.2c-0.2-0.4-0.4-0.9-0.7-1.3c-0.4-0.7-0.8-1.2-1.1-1.4
			C-176.2-22.5-176.3-22.5-176.5-22.5z"/>
	</g>
	<g id="g30028" transform="matrix(0.9329122,-0.55250778,0.55250778,0.9329122,-83.463895,36.366701)">
		<path id="path30030" class="st11" d="M-283.4,107.9c2.6,0,5,0.7,6-1.2c0.5-0.9,0.5-1.9,1-2.6c0.5-0.6,1.5-1.5,2.6-1.6
			c2.4-0.3,4.5,5,4.1,8.2c-0.1,0.9-0.2,1.6-0.7,1.9c-0.5,0.4-1.4,0.6-2.1,0.5c-0.8-0.1-1.5-0.5-1.8-0.5c-1,0-3.7-1.2-5.8-1.1
			c-1.7,0-4.3,1.9-5.5,1.2c-1.1-1.3,0.1-4.3,1.6-4.8L-283.4,107.9z"/>
		<path id="path30032" class="st12" d="M-284.2,107.9c0.6,0,3.4,2.2,5.5,1.6c2.6-0.8,2.7-1.6,3.1-2.4c0.2-0.9,0.7-1.8,0.9-2.1
			c0.1-0.1,0.8-0.8,1.4-0.4c0.3,0.2,0.6,0.8,1.1,1.4c1.4,2.3,1.2,5,0.7,5.1c-0.6,0.1-0.6,0.3-1.6-0.1c-1.1-0.4-1.1-0.3-1.8-0.3
			c-1.4,0-4-0.8-5.1-0.1c-1.1,0.7-4.2,1.9-5.3,1.3C-287.4,110.8-285.4,108-284.2,107.9z"/>
		<path id="path30034" class="st13" d="M-271.4,108.4c0,0.3,0.1,0.8,0,1.2c0,0.6-0.3,1.1-0.7,1.1s-1.3-0.6-1.9-0.8
			c-0.6,0-2.3,0.1-3.2,0.5c-0.9,0.4-4.5-0.5-6.2-0.3c-1.5,0.2-2.9-0.3-3.3-0.6c0,0,0,0.1,0,0.1c0,0.3,0.1,0.7,0.4,1.4
			c0.1,0.1,0.3,0.2,0.4,0.3c1.1,0.5,4.3-0.6,5.3-1.3c1.1-0.7,4.2,0.7,5.6,0.7c0.7,0,0.7-0.1,1.8,0.3c1,0.4,1,0.2,1.6,0.1
			C-271.2,111.1-271.1,109.9-271.4,108.4z"/>
		<path id="path30036" class="st14" d="M-273.8,104.5c-0.4,0-0.9,0.4-1,0.5c-0.3,0.2-0.8,1.2-0.9,2c-0.4,0.9-0.5,1.6-3.1,2.4
			c-2,0.6-4.6,0.2-5.2,0.2c-0.5,0-1.3,0.7-1.7,1.5c0.3-0.2,1.2-1,1.4-1c0.3,0,2.5,0.7,5.7-0.2c3.2-0.9,3.7-3.1,3.8-3.6
			c0.2-0.9,1.1-1.4,1.4-1.1c0,0,0.9,0.6,1.5,1.9c0,0.1,0.1,0.1,0.1,0.2c-0.2-0.4-0.3-0.9-0.6-1.3c-0.4-0.7-0.7-1.2-1-1.4
			C-273.5,104.6-273.6,104.5-273.8,104.5z"/>
	</g>
	<g id="g30038" transform="matrix(0.10295796,-1.0793469,-1.0793469,-0.10295796,3.9615826,90.807082)">
		<path id="path30040" class="st11" d="M-211.8,246.4c2.7,0.1,5.2,0.8,6.2-1c0.5-0.8,0.4-1.8,1-2.5c0.5-0.6,1.5-1.4,2.7-1.5
			c2.4-0.2,4.8,4.9,4.5,8.1c-0.1,0.9-0.2,1.5-0.7,1.8c-0.5,0.3-1.5,0.5-2.2,0.4c-0.8-0.1-1.5-0.5-1.9-0.5c-1,0-3.4,0-5.2,1.1
			c-1.8,1.2-4.4,2.2-5.7,1c-1.1-1.3-0.8-6.5,0.7-7L-211.8,246.4z"/>
		<path id="path30042" class="st12" d="M-212.4,248.2c0.6,0,3.3,0.5,5.4-0.1c2.7-0.7,2.8-1.4,3.2-2.2c0.2-0.9,0.7-1.7,0.9-2
			c0.1-0.1,0.8-0.7,1.4-0.3c0.3,0.2,0.7,0.8,1.1,1.4c1.5,2.3,1.4,4.8,0.9,4.9c-0.6,0.1-0.6,0.3-1.7-0.1c-1.1-0.5-1.1-0.4-1.8-0.4
			c-1.4-0.1-3.9,0.9-5,1.6c-1.1,0.6-4.3,1.7-5.5,1.2C-215.6,250.8-213.6,248.2-212.4,248.2L-212.4,248.2z"/>
		<path id="path30044" class="st13" d="M-199.3,247.2c0,0.3,0.1,0.8,0.1,1.2c0,0.5-0.3,1.1-0.7,1.1c-0.4,0-1.3-0.6-2-0.8
			c-0.6,0-2.4,0-3.3,0.4c-0.9,0.4-3.8,1.8-5.7,2c-1.6,0.1-3-0.4-3.4-0.7c0,0,0,0.1,0,0.1c0,0.3,0.1,0.7,0.5,1.3
			c0.1,0.1,0.3,0.2,0.5,0.3c1.1,0.5,4.4-0.5,5.5-1.1c1.1-0.7,3.6-1.6,5-1.6c0.7,0,0.7-0.1,1.8,0.4c1,0.4,1.1,0.2,1.7,0.1
			C-199.1,249.8-199,248.7-199.3,247.2z"/>
		<path id="path30046" class="st14" d="M-201.9,243.4c-0.5,0-0.9,0.4-1,0.5c-0.3,0.2-0.7,1.1-0.9,2c-0.4,0.8-0.5,1.5-3.2,2.3
			c-2.1,0.5-4.8,0.1-5.4,0.1c-0.6,0-1.3,0.6-1.7,1.4c0.3-0.1,1.2-0.9,1.5-0.9c0.3,0,2.6,0.8,5.9,0c3.3-0.8,3.7-2.9,3.9-3.4
			c0.1-0.8,1.1-1.3,1.4-1c0,0,1,0.6,1.6,1.9c0,0.1,0.1,0.1,0.1,0.2c-0.2-0.4-0.4-0.9-0.7-1.3c-0.4-0.7-0.8-1.2-1.1-1.4
			C-201.6,243.5-201.8,243.4-201.9,243.4z"/>
	</g>
	<g id="g30048" transform="matrix(0.79912536,0.52267196,-0.43346268,0.88930796,21.233832,210.57483)">
		<path id="path30050" class="st11" d="M-263.4,235.2c-5.3,2.8-3.9,7.6-1.1,8.4c2.8,0.8,7.3-2.5,8.2-4.6c1.1-1.9,1.4-4.1-0.4-5.1
			c-1.9-1.1-4.6,0.1-6.3,1L-263.4,235.2z"/>
		<path id="path30052" class="st11" d="M-265.9,242.7c2.4,2.3,5.6,1.7,6.3,2.2s0.4,1.5,0.7,2c0.3,0.5,0.6,2,3,1.2s3.9-2.9,3.8-4.3
			c0-1.7-1.7-1-2.7-2c-0.1-2.7,0.1-5.9-1-7S-265.9,242.7-265.9,242.7L-265.9,242.7z"/>
		<path id="path30054" class="st12" d="M-262,236.7c-3.8,2-3.1,5.5-1.1,5.8c2.3,0.4,5.6-1.9,6.2-3.4c0.6-1.5,0.5-2.2-0.9-3.2
			C-259.2,235.1-260.9,236.1-262,236.7z"/>
		<path id="path30056" class="st12" d="M-258.5,239.6c-0.4,2.5-2.4,3.3-2.1,3.4c0.3,0.1,1.7,0.2,2.8,0.8c1,0.6,0.7,3,1.2,3.2
			c0.5,0.2,2.1,0.4,3-0.1c0.9-0.5,0.6-2.6,0.3-3c-0.3-0.5-2-0.2-2.6-1c-0.7-0.8,0-3-0.3-3.2c-0.3-0.1-1.4,0.4-1.8,0.4
			C-258.4,240.1-258.5,239.6-258.5,239.6z"/>
		<path id="path30058" class="st14" d="M-262.7,237.1c-0.1,0.1-0.3,0.2-0.4,0.3c-0.1,0-0.1,0.1-0.2,0.1c0,0-0.1,0.1-0.1,0.1
			c-0.1,0.1-0.2,0.1-0.2,0.2c-0.1,0.1-0.1,0.1-0.2,0.2c0,0-0.1,0.1-0.1,0.1c-0.1,0.1-0.1,0.2-0.2,0.3c-0.1,0.1-0.2,0.2-0.2,0.4
			c-0.1,0.1-0.1,0.3-0.2,0.4c0,0,0,0.1,0,0.1c-0.1,0.2-0.1,0.3-0.1,0.5c0,0.1,0,0.3,0,0.4c0,0,0,0.1,0,0.1c0,0,0,0,0,0.1
			c0,0.1,0,0.2,0,0.3c0,0.1,0,0.2,0.1,0.4c0,0.1,0.1,0.2,0.1,0.3c0,0.1,0.1,0.1,0.1,0.2c0,0.1,0.1,0.1,0.1,0.2c0,0,0,0,0,0
			c0.1,0.1,0.1,0.2,0.2,0.2c0,0,0,0,0,0c0,0,0,0,0,0.1c0.1,0.1,0.2,0.1,0.2,0.2c-1.6-3.1,2.1-5.5,4.8-6.1c0.8-0.2,1.3-0.1,1.8,0.2
			c0,0,0-0.1-0.1-0.1c0,0,0,0,0,0c0,0-0.1-0.1-0.2-0.1c-0.1-0.1-0.2-0.1-0.3-0.2c0,0,0,0,0,0c-0.1,0-0.2-0.1-0.2-0.1c0,0,0,0,0,0
			c-0.3-0.1-0.5-0.2-0.8-0.2c-0.2,0-0.4,0-0.6,0.1s-0.4,0.1-0.6,0.1c0,0-0.1,0-0.1,0c-0.1,0-0.3,0.1-0.4,0.1c0,0,0,0,0,0
			c0,0-0.1,0-0.1,0.1c-0.1,0.1-0.3,0.1-0.4,0.2c-0.1,0-0.2,0.1-0.2,0.1c-0.2,0.1-0.5,0.3-0.7,0.4
			C-262.3,236.8-262.5,237-262.7,237.1L-262.7,237.1z M-260.5,238.3c-1.7,1.1-2,1.5-1.6,1.7c0.3,0.2,0.8,0.3,2.1-0.6
			c1.3-0.9,1.3-1.4,1-1.6C-259.4,237.7-260.5,238.3-260.5,238.3z"/>
		<path id="path30060" class="st11" d="M-260.8,238.4c-1.3,0.9-1.7,1.4-1,1.4c0.7,0,2.5-1.3,2.5-1.7
			C-259.3,237.7-260.4,238.1-260.8,238.4L-260.8,238.4z"/>
		<path id="path30062" class="st13" d="M-256.4,239.7c-0.2,0-0.6,0.1-0.9,0.2c-0.4,0.3-1.7,1.3-1.8,1.5c0,0.1-0.1,0.1-0.2,0.2
			c-0.7,1-1.5,1.4-1.3,1.5c0.3,0.1,1.7,0.2,2.8,0.8c1,0.6,0.7,3,1.2,3.2c0.5,0.2,2.1,0.4,3-0.1c0.2-0.1,0.3-0.3,0.4-0.5
			c-0.1,0-0.1,0.1-0.2,0.1c-0.5,0.2-1.8,0.1-2.4-0.2c-0.6-0.2-0.7-2.2-1-2.8c-0.4-0.6-0.5-1.1,0-1.7c0.2-0.2,0.4-0.2,0.6,0
			c0-0.9,0.2-1.9,0-2C-256.3,239.7-256.4,239.7-256.4,239.7L-256.4,239.7z"/>
	</g>
	<g id="g30064" transform="matrix(0.93921054,0,0,0.93921054,-10.593715,125.95087)">
		<path id="path30066" class="st11" d="M-317.2,168.3c-5.3,3-4,7.8-1.2,8.5c2.8,0.7,7.3-2.7,8.2-4.9c1.2-2,1.5-4.1-0.3-5.1
			c-1.9-1.1-4.6,0.2-6.2,1.1L-317.2,168.3z"/>
		<path id="path30068" class="st11" d="M-319.8,175.9c2.3,2.2,5.5,1.6,6.2,2c0.6,0.5,0.4,1.5,0.7,2c0.3,0.5,0.5,2,2.9,1.2
			c2.4-0.9,3.9-3,3.9-4.5c0-1.7-1.6-0.9-2.7-1.9c-0.1-2.8,0.2-6-0.9-7.1S-319.8,175.9-319.8,175.9L-319.8,175.9z"/>
		<path id="path30070" class="st12" d="M-315.9,169.8c-3.8,2.1-3.2,5.6-1.2,5.9c2.3,0.3,5.6-2.1,6.2-3.6c0.6-1.5,0.6-2.3-0.8-3.2
			C-313.1,168.1-314.8,169.1-315.9,169.8z"/>
		<path id="path30072" class="st12" d="M-312.6,172.7c-0.5,2.6-2.4,3.4-2.1,3.5c0.3,0.1,1.7,0.1,2.7,0.7c1,0.6,0.6,3,1.1,3.2
			s2.1,0.3,2.9-0.2c0.9-0.5,0.6-2.6,0.4-3.1c-0.3-0.5-1.9-0.2-2.6-1c-0.6-0.8,0-3-0.2-3.2c-0.3-0.1-1.4,0.4-1.8,0.4
			S-312.6,172.7-312.6,172.7z"/>
		<path id="path30074" class="st14" d="M-312.8,168.6c-0.2,0-0.4,0-0.6,0.1c0,0-0.1,0-0.1,0c-0.1,0-0.1,0-0.2,0
			c-0.1,0-0.2,0.1-0.3,0.1c-0.3,0.1-0.6,0.3-0.9,0.4c0,0,0,0-0.1,0c-0.3,0.2-0.6,0.3-0.9,0.5c-0.2,0.1-0.4,0.2-0.6,0.4
			c0,0,0,0-0.1,0.1c-0.2,0.1-0.4,0.3-0.5,0.4c0,0,0,0,0,0c-0.2,0.1-0.3,0.3-0.4,0.4c-0.1,0.1-0.1,0.1-0.2,0.2
			c-0.1,0.1-0.1,0.2-0.2,0.2c-0.1,0.2-0.2,0.3-0.3,0.5c-0.1,0.2-0.2,0.3-0.2,0.5c-0.1,0.3-0.2,0.6-0.2,0.9c0,0,0,0,0,0.1
			c0,0.1,0,0.3,0,0.4c0,0.1,0,0.3,0.1,0.4c0,0,0,0,0,0.1c0,0.1,0.1,0.2,0.1,0.3c0.1,0.1,0.1,0.2,0.2,0.3s0.1,0.2,0.2,0.3
			c0.1,0.1,0.2,0.1,0.3,0.2c-1.5-3.1,2.2-5.6,4.8-6.3c0.8-0.2,1.3-0.1,1.7,0.1c0,0,0-0.1-0.1-0.1c-0.1-0.1-0.3-0.2-0.5-0.4
			c-0.2-0.1-0.3-0.2-0.5-0.2C-312.5,168.6-312.6,168.6-312.8,168.6L-312.8,168.6z M-313.2,170.9c-0.4,0-1.3,0.5-1.3,0.5
			c-1.7,1.1-2,1.5-1.6,1.8c0.3,0.2,0.8,0.3,2.1-0.6c1.3-0.9,1.3-1.5,1-1.6C-313.1,170.9-313.2,170.9-313.2,170.9z"/>
		<path id="path30076" class="st11" d="M-314.8,171.5c-1.3,0.9-1.7,1.4-1,1.4c0.7,0,2.5-1.3,2.5-1.8
			C-313.3,170.7-314.4,171.2-314.8,171.5L-314.8,171.5z"/>
		<path id="path30078" class="st13" d="M-310.5,172.7c-0.2,0-0.6,0.1-0.9,0.3c-0.4,0.3-1.7,1.4-1.8,1.6c0,0.1-0.1,0.1-0.2,0.2
			c-0.7,1-1.5,1.4-1.3,1.5c0.3,0.1,1.7,0.1,2.7,0.7s0.6,3,1.1,3.2s2.1,0.3,2.9-0.2c0.2-0.1,0.3-0.3,0.4-0.5c-0.1,0-0.1,0.1-0.2,0.1
			c-0.5,0.2-1.8,0.1-2.4-0.1c-0.6-0.2-0.6-2.2-0.9-2.9s-0.5-1.1,0.1-1.7c0.2-0.2,0.4-0.2,0.6-0.1c0-0.9,0.2-2,0.1-2.1
			C-310.4,172.7-310.4,172.7-310.5,172.7L-310.5,172.7z"/>
	</g>
	<g id="g30080" transform="matrix(0.64684398,0.63832782,-0.64452864,0.81288036,17.610765,237.6184)">
		<path id="path30082" class="st11" d="M-240,246.9c-5.4,2.8-3.9,7.5-1,8.3c2.8,0.8,7.4-2.5,8.2-4.6c1.1-1.9,1.4-4-0.4-5
			c-2-1.1-4.7,0.1-6.3,1L-240,246.9z"/>
		<path id="path30084" class="st11" d="M-242.5,254.2c2.4,2.2,5.7,1.7,6.3,2.1c0.7,0.5,0.4,1.5,0.7,2c0.3,0.5,0.6,2,3,1.2
			c2.4-0.8,3.9-2.9,3.9-4.3c0-1.7-1.7-0.9-2.8-2c-0.2-2.7,0-5.9-1.1-7C-233.5,245.2-242.5,254.2-242.5,254.2L-242.5,254.2z"/>
		<path id="path30086" class="st12" d="M-238.6,248.3c-3.8,2-3.1,5.4-1,5.8c2.4,0.4,5.6-1.9,6.2-3.4c0.6-1.5,0.5-2.2-1-3.2
			C-235.8,246.8-237.5,247.7-238.6,248.3z"/>
		<path id="path30088" class="st12" d="M-235.1,251.2c-0.4,2.5-2.4,3.2-2.1,3.4c0.3,0.1,1.8,0.2,2.8,0.8s0.7,2.9,1.2,3.2
			s2.1,0.4,3-0.1c0.9-0.5,0.6-2.5,0.3-3c-0.3-0.5-2-0.2-2.7-1c-0.7-0.8,0-3-0.3-3.1c-0.3-0.1-1.4,0.4-1.8,0.4
			C-235,251.7-235.1,251.2-235.1,251.2z"/>
		<path id="path30090" class="st14" d="M-239.9,249.2c-0.1,0.1-0.3,0.3-0.4,0.4c-0.1,0.1-0.3,0.3-0.4,0.5s-0.2,0.3-0.3,0.5
			c-0.1,0.2-0.1,0.3-0.2,0.5c-0.1,0.2-0.1,0.3-0.1,0.4c0,0.1,0,0.3-0.1,0.4c0,0,0,0,0,0.1c0,0.1,0,0.3,0,0.4c0,0.1,0,0.1,0,0.2
			c0,0.1,0,0.2,0.1,0.2c0,0.1,0.1,0.2,0.2,0.4c0.1,0.1,0.1,0.2,0.2,0.3c0,0,0,0,0,0c0.1,0.1,0.1,0.2,0.2,0.3c0,0,0,0,0,0
			c0.1,0.1,0.1,0.1,0.2,0.2c-1.6-3.1,2.1-5.4,4.8-6.1c0.8-0.2,1.4-0.1,1.8,0.2c0,0-0.1-0.1-0.1-0.1c-0.1-0.1-0.3-0.2-0.5-0.4
			c-0.1,0-0.2-0.1-0.3-0.1c0,0,0,0,0,0c-0.4-0.2-0.8-0.2-1.2-0.1c0,0-0.1,0-0.1,0c-0.1,0-0.2,0-0.3,0.1c-0.1,0-0.2,0-0.3,0.1
			c0,0-0.1,0-0.1,0c0,0,0,0-0.1,0c-0.4,0.1-0.8,0.3-1.1,0.5c-0.2,0.1-0.5,0.3-0.7,0.4c-0.2,0.1-0.4,0.2-0.6,0.3
			c-0.1,0.1-0.3,0.2-0.4,0.3C-239.7,249-239.8,249.1-239.9,249.2L-239.9,249.2z M-238.5,250.8c-0.5,0.4-0.5,0.6-0.3,0.7
			c0.3,0.2,0.8,0.3,2.1-0.6c1.3-0.9,1.3-1.4,0.9-1.5c-0.3-0.1-1.4,0.4-1.4,0.4C-237.8,250.3-238.2,250.6-238.5,250.8z"/>
		<path id="path30092" class="st11" d="M-237.4,250c-1.3,0.9-1.7,1.4-1,1.4c0.7,0,2.5-1.2,2.5-1.7C-235.9,249.3-237,249.7-237.4,250
			L-237.4,250z"/>
		<path id="path30094" class="st13" d="M-233,251.3c-0.2,0-0.6,0.1-0.9,0.2c-0.4,0.3-1.7,1.3-1.8,1.5c0,0.1-0.1,0.1-0.2,0.1
			c-0.7,1-1.5,1.3-1.3,1.4c0.3,0.1,1.8,0.2,2.8,0.8c1,0.6,0.7,3,1.2,3.2s2.1,0.4,3-0.1c0.2-0.1,0.3-0.3,0.4-0.5
			c-0.1,0-0.1,0.1-0.2,0.1c-0.5,0.2-1.8,0.1-2.4-0.1s-0.7-2.2-1-2.8s-0.5-1.1,0-1.7c0.2-0.2,0.4-0.2,0.6,0c0-0.9,0.2-1.9,0-2
			C-232.9,251.3-232.9,251.3-233,251.3L-233,251.3z"/>
	</g>
	<g id="g30096" transform="matrix(1.0206655,0,0,1.0206655,1.3437777,104.91563)">
		<path id="path30098" class="st11" d="M-274.2,189.8c2.6,0.1,4.9,0.9,5.9-1c0.5-0.9,0.4-1.9,0.9-2.6c0.5-0.6,1.5-1.5,2.5-1.6
			c2.3-0.2,4.6,5.2,4.3,8.4c-0.1,0.9-0.2,1.6-0.6,1.9c-0.5,0.4-1.4,0.5-2.1,0.5c-0.8-0.1-1.5-0.6-1.8-0.6c-0.9,0-3.3,0-5,1.2
			c-1.7,1.2-4.2,2.3-5.4,1.1c-1.1-1.3-0.7-6.8,0.7-7.3L-274.2,189.8z"/>
		<path id="path30100" class="st12" d="M-274.8,191.7c0.6,0,3.2,0.5,5.2-0.1c2.6-0.8,2.7-1.5,3-2.4c0.2-0.9,0.6-1.8,0.9-2.1
			c0.1-0.1,0.8-0.8,1.4-0.4c0.3,0.2,0.7,0.8,1.1,1.5c1.4,2.4,1.3,5.1,0.8,5.2c-0.6,0.1-0.6,0.3-1.6-0.1c-1.1-0.5-1-0.4-1.7-0.4
			c-1.4,0-3.7,1-4.8,1.7c-1,0.7-4.1,1.8-5.2,1.2C-277.8,194.5-275.9,191.7-274.8,191.7L-274.8,191.7z"/>
		<path id="path30102" class="st13" d="M-262.3,190.6c0,0.3,0.1,0.8,0.1,1.2c0,0.6-0.3,1.1-0.7,1.1c-0.4,0-1.3-0.6-1.9-0.8
			c-0.6,0-2.3,0-3.1,0.5c-0.8,0.4-3.7,1.9-5.4,2.1c-1.5,0.1-2.9-0.4-3.2-0.7c0,0,0,0.1,0,0.1c0,0.3,0.1,0.7,0.5,1.4
			c0.1,0.1,0.3,0.2,0.4,0.4c1.1,0.6,4.2-0.6,5.2-1.2c1.1-0.7,3.4-1.7,4.8-1.7c0.7,0,0.7-0.1,1.7,0.4c1,0.4,1,0.2,1.6,0.1
			C-262.1,193.4-262,192.1-262.3,190.6z"/>
		<path id="path30104" class="st14" d="M-264.8,186.6c-0.4,0-0.9,0.4-0.9,0.5c-0.2,0.2-0.7,1.2-0.9,2.1c-0.4,0.9-0.5,1.6-3,2.4
			c-2,0.6-4.6,0.1-5.2,0.1c-0.5,0-1.3,0.7-1.6,1.4c0.2-0.2,1.2-1,1.4-0.9c0.3,0,2.5,0.8,5.6,0c3.1-0.8,3.6-3.1,3.7-3.6
			c0.1-0.9,1-1.4,1.4-1.1c0,0,0.9,0.6,1.6,2c0,0.1,0.1,0.1,0.1,0.2c-0.2-0.4-0.4-0.9-0.6-1.3c-0.4-0.7-0.8-1.3-1.1-1.5
			C-264.5,186.7-264.6,186.6-264.8,186.6z"/>
	</g>
	<g id="g30106" transform="matrix(1.0842463,0,0,1.1748077,36.032407,83.82475)">
		<path id="path30108" class="st11" d="M-295.7,173.5c-6,0.8-5.6,6.1-1.6,7.7c4.7,1.6,6.9-0.3,7.5-3.8c0.6-3.5-1.9-3.1-3-3.6
			C-293.7,173.4-295.2,173.4-295.7,173.5z"/>
		<path id="path30110" class="st15" d="M-295.4,173.1c-4.1,0.5-4.4,4.9-2.1,6.4c2.3,1.4,4.6,0.7,5.6-0.4c1-1.1,0.8-4-0.2-5
			C-293.3,173-294.7,173.1-295.4,173.1L-295.4,173.1z"/>
		<path id="path30112" class="st13" d="M-297.8,174.1c-1.7,1.5-1.5,4.3,0.2,5.4c2.3,1.4,4.6,0.7,5.6-0.4c0.5-0.6,0.7-1.7,0.7-2.7
			c0,1.1-0.4,2.8-2.8,3C-297.6,179.7-299.6,177.5-297.8,174.1z"/>
		<path id="path30114" class="st14" d="M-294.8,173.1c-0.2,0-0.5,0-0.6,0c-2.8,0.3-3.8,2.5-3.5,4.3c0.4-2.9,2.6-4.2,5.6-3.3
			c1.9,0.5,2,2.7,1.7,4.3c0.5-1.3,0.3-3.5-0.6-4.4C-293,173.3-294,173.1-294.8,173.1L-294.8,173.1z M-296,176
			c-1.2,0.2-0.7,1.8,1,1.9c1.6,0,1.9-0.9,1.4-1.5C-293.7,176.1-296,176-296,176z"/>
		<g id="g30116" transform="translate(-20.480304,-0.62822695)">
			<path id="path30118" class="st11" d="M-273.9,176.5c-1.9-0.4-2.3,0.5-1.5,1.2c0.9,0.7,2,0.1,2.2-0.4
				C-272.9,176.8-273.9,176.5-273.9,176.5L-273.9,176.5z"/>
		</g>
	</g>
	<g id="g30120" transform="matrix(0.24566797,0.92273212,-0.91656952,0.37236928,-4.5528169,329.36513)">
		<path id="path30122" class="st11" d="M-145.7,253.3c-5.5,2.8-4,7.4-1.1,8.1c2.9,0.7,7.6-2.5,8.5-4.6c1.2-1.9,1.5-3.9-0.4-4.9
			c-2-1-4.8,0.1-6.5,1L-145.7,253.3z"/>
		<path id="path30124" class="st11" d="M-148.3,260.5c2.5,2.2,5.3,1.7,6,2.2c0.7,0.5,0.4,1.4,0.7,1.9s1.1,1.8,3.5,1
			c2.4-0.8,4-2.9,4-4.2c0-1.6-1.7-0.9-2.8-1.9c-0.1-2.6,0.1-5.7-1-6.8C-139,251.7-148.3,260.5-148.3,260.5z"/>
		<path id="path30126" class="st12" d="M-144.3,254.7c-3.9,2-3.2,5.3-1.1,5.6c2.4,0.3,5.8-1.9,6.4-3.4c0.6-1.4,0.6-2.2-0.9-3.1
			C-141.4,253.2-143.1,254.1-144.3,254.7z"/>
		<path id="path30128" class="st14" d="M-147,257.3c0,0.1-0.1,0.3-0.1,0.4c0,0.1-0.1,0.3-0.1,0.4c0,0.1,0,0.1,0,0.2
			c0,0.1,0,0.1,0,0.2c0,0,0,0,0,0c0,0,0,0.1,0,0.1c0,0.2,0.1,0.4,0.2,0.6c0.2,0.3,0.4,0.6,0.7,0.8c-1.6-3,2.2-5.3,4.9-6
			c0.8-0.2,1.4-0.1,1.9,0.2c-0.2-0.1-0.4-0.3-0.6-0.4c-0.5-0.3-1-0.3-1.5-0.2c0,0-0.1,0-0.1,0c0,0,0,0-0.1,0c-0.2,0-0.3,0.1-0.5,0.1
			c0,0,0,0,0,0c0,0-0.1,0-0.1,0c0,0-0.1,0-0.1,0c-0.4,0.1-0.8,0.3-1.1,0.5c-0.3,0.1-0.5,0.3-0.7,0.4c-0.2,0.1-0.3,0.2-0.5,0.3
			c0,0,0,0,0,0c-0.1,0-0.1,0.1-0.1,0.1c-0.1,0.1-0.2,0.1-0.3,0.2c-0.1,0.1-0.2,0.1-0.3,0.2c-0.1,0-0.1,0.1-0.1,0.1c0,0,0,0-0.1,0.1
			c-0.1,0.1-0.2,0.2-0.3,0.3c-0.1,0.1-0.1,0.1-0.1,0.2c-0.1,0.1-0.2,0.2-0.2,0.3C-146.6,256.7-146.8,257-147,257.3
			C-146.9,257.3-147,257.3-147,257.3L-147,257.3z M-144.6,257.6c0,0,0,0.1,0,0.1c0,0.1,0,0.2,0.1,0.2c0.4,0.2,0.8,0.3,2.2-0.6
			c1.4-0.9,1.3-1.4,1-1.5c-0.3-0.1-1.5,0.4-1.5,0.4C-143.9,256.9-144.5,257.3-144.6,257.6L-144.6,257.6z"/>
		<path id="path30130" class="st12" d="M-140.7,257.5c-0.4,2.4-2.5,3.2-2.2,3.3c0.3,0.1,1.8,0.2,2.9,0.7c1.1,0.6,0.7,2.9,1.2,3.1
			c0.5,0.2,2.2,0.3,3.1-0.1c0.9-0.5,0.6-2.5,0.3-3c-0.3-0.5-2-0.2-2.7-0.9c-0.7-0.7,0-2.9-0.3-3c-0.3-0.1-1.5,0.4-1.8,0.4
			C-140.6,258-140.7,257.5-140.7,257.5z"/>
		<path id="path30132" class="st11" d="M-143.1,256.3c-1.4,0.8-1.7,1.4-1,1.4c0.7,0,2.6-1.2,2.6-1.7
			C-141.5,255.6-142.7,256-143.1,256.3L-143.1,256.3z"/>
		<path id="path30134" class="st13" d="M-138.6,257.5c-0.2,0-0.6,0.1-0.9,0.2c-0.4,0.3-1.7,1.3-1.9,1.5c0,0.1-0.1,0.1-0.2,0.1
			c-0.7,1-1.6,1.3-1.3,1.4c0.3,0.1,1.8,0.1,2.9,0.7c1.1,0.6,0.7,2.9,1.2,3.1c0.5,0.2,2.2,0.3,3.1-0.2c0.2-0.1,0.3-0.3,0.4-0.5
			c-0.1,0-0.1,0.1-0.2,0.1c-0.5,0.2-1.9,0.1-2.5-0.1c-0.6-0.2-0.7-2.1-1-2.7s-0.5-1.1,0-1.6c0.2-0.2,0.4-0.2,0.6,0
			c0-0.9,0.2-1.9,0-2C-138.4,257.6-138.5,257.5-138.6,257.5L-138.6,257.5z"/>
	</g>
	<g id="g30136" transform="matrix(1.0842463,0,0,1.0842463,38.406716,99.957647)">
		<path id="path30138" class="st11" d="M-293,184.4c-6,0.8-5.6,6.1-1.6,7.7c4.7,1.6,6.9-0.3,7.5-3.8c0.6-3.5-1.9-3.1-3-3.6
			C-291,184.3-292.5,184.2-293,184.4z"/>
		<path id="path30140" class="st15" d="M-292.7,184c-4.1,0.5-4.4,4.9-2.1,6.4c2.3,1.4,4.6,0.7,5.6-0.4c1-1.1,0.8-4-0.2-5
			C-290.5,183.8-292,184-292.7,184L-292.7,184z"/>
		<path id="path30142" class="st13" d="M-295,185c-1.7,1.5-1.5,4.3,0.2,5.4c2.3,1.4,4.6,0.7,5.6-0.4c0.5-0.6,0.7-1.7,0.7-2.7
			c0,1.1-0.4,2.8-2.8,3C-294.8,190.5-296.8,188.3-295,185z"/>
		<path id="path30144" class="st14" d="M-292,184c-0.2,0-0.5,0-0.6,0c-2.8,0.3-3.8,2.5-3.5,4.3c0.4-2.9,2.6-4.2,5.6-3.3
			c1.9,0.5,2,2.7,1.7,4.3c0.5-1.3,0.3-3.5-0.6-4.4C-290.3,184.1-291.3,184-292,184L-292,184z M-293.3,186.9c-1.2,0.2-0.7,1.8,1,1.9
			c1.6,0,1.9-0.9,1.4-1.5C-291,187-293.3,186.9-293.3,186.9z"/>
		<g id="g30146" transform="translate(-20.480304,-0.62822695)">
			<path id="path30148" class="st11" d="M-271.1,187.3c-1.9-0.4-2.3,0.5-1.5,1.2c0.9,0.7,2,0.1,2.2-0.4
				C-270.1,187.6-271.1,187.3-271.1,187.3L-271.1,187.3z"/>
		</g>
	</g>
	<g id="g30150" transform="matrix(1.0252868,-0.06228574,0.06652561,0.95994214,-3.1424377,1.8072175)">
		<path id="path30152" class="st11" d="M-308.4,285.3c-4.8-4-9.9-1-10.5-0.4c-0.5,0.5-0.7,4.9,0,5.6c0.7,0.7,3.9-1.9,5.3-1.1
			c1.4,0.7,2,2.3,3.7,2.1c1.7-0.2,2.5-3.6,2.2-4.5C-307.9,286-308.2,285.5-308.4,285.3L-308.4,285.3z"/>
		<path id="path30154" class="st15" d="M-320.1,287.2c3.5-2.5,5.7-3.5,9.3-1.8c3.6,1.7,3.1,3.2,3.1,4.3c0,1.1-1.5,2.1-1.9,1.2
			c-0.6-0.8-1.9-2.3-3.8-2.9c-1.4-0.5-2.8,0.9-3.1,1C-316.8,289-320.1,287.2-320.1,287.2z"/>
		<path id="path30156" class="st14" d="M-314.4,284.5c-1.8,0.1-3.5,1.1-5.7,2.7c0,0,0.5,0.3,0.7,0.4c2.6-2.3,5.2-3.1,8.4-1.5
			c2.9,1.4,3.2,3.3,3.2,4c0.1-0.1,0.1-0.3,0.1-0.4c0-1.1,0.5-2.6-3.1-4.3C-312.1,284.7-313.3,284.4-314.4,284.5z"/>
		<path id="path30158" class="st13" d="M-314.2,286.8c-1.2,0.1-2.5,0.5-3.8,1.5c0.7,0.4,1.4,0.7,1.5,0.6c0.4-0.1,1.7-1.5,3.1-1
			c1.8,0.6,3.1,2.2,3.8,2.9c0.1,0.1,0.2,0.2,0.3,0.3c0.1-1,0.1-2-0.6-2.8C-310.8,287.4-312.4,286.7-314.2,286.8z"/>
		<path id="path30160" class="st11" d="M-313.9,288.3c0.6,6.3-5.4,6.6-7.5,2.7c-2.3-4.6-1.2-7.1,1.5-8.4c2.7-1.3,4.5,0.8,5.1,1.9
			C-314.3,285.4-313.9,287.8-313.9,288.3L-313.9,288.3z"/>
		<path id="path30162" class="st15" d="M-315.2,287.6c0.5,4.3-3.1,5.4-4.7,3.4c-1.6-2.1-1.5-4.6-0.8-5.9s3-1.6,4.1-0.7
			C-315.5,285.4-315.3,286.9-315.2,287.6L-315.2,287.6z"/>
		<path id="path30164" class="st14" d="M-318.2,284c-1,0-2.1,0.4-2.5,1.2c-0.4,0.7-0.7,2-0.4,3.3c-0.1-2.9,1.9-3.9,3.5-3.3
			c2,0.6,2.2,2.3,2.4,3.1c0-0.2,0-0.4,0-0.6c-0.1-0.7-0.3-2.2-1.4-3.2C-317,284.1-317.6,284-318.2,284z M-319,286.7
			c-0.9,1.8-0.1,3.2,0.9,2.8c0.9-0.3,0.9-1.4,0.7-1.9c-0.1-0.5-1-0.7-1-0.7l-0.4-0.2L-319,286.7L-319,286.7z"/>
		<g id="g30166" transform="matrix(-0.2088378,-0.9779503,-0.84974231,0.18145944,-88.939051,63.335267)">
			<path id="path30168" class="st11" d="M-170.9,311.3c-1.9-0.3-2.6,1-1.7,1.7c0.9,0.6,2.1,0.1,2.3-0.4
				C-169.9,312.1-170.6,311.3-170.9,311.3L-170.9,311.3z"/>
		</g>
		<path id="path30170" class="st13" d="M-315.4,286.6c0,0,0.7,3.6-1.2,4.4c-1.7,0.8-3.7,0.3-4.6-3.2c0.1,1,0.5,2.2,1.3,3.2
			c1.6,2.1,5.2,0.9,4.7-3.4C-315.3,287.4-315.3,287-315.4,286.6L-315.4,286.6z"/>
	</g>
	<g id="g30172" transform="matrix(1.0664633,-0.16049324,0.1225457,1.0544974,-22.544147,-34.950117)">
		<path id="path30174" class="st11" d="M-291.1,268.7c-6,0.9-5.6,6.2-1.6,7.8c4.7,1.6,6.9-0.3,7.5-3.8s-1.9-3.1-3-3.6
			C-289.1,268.6-290.6,268.5-291.1,268.7L-291.1,268.7z"/>
		<path id="path30176" class="st15" d="M-290.8,268.3c-4.1,0.5-4.4,5-2.2,6.4s4.6,0.7,5.6-0.5c1-1.1,0.9-4-0.2-5
			C-288.7,268.1-290.1,268.3-290.8,268.3z"/>
		<path id="path30178" class="st13" d="M-293.2,269.3c-1.7,1.5-1.5,4.3,0.2,5.4c2.3,1.4,4.6,0.7,5.6-0.5c0.5-0.6,0.8-1.7,0.7-2.7
			c0,1.1-0.4,2.8-2.9,3.1C-293,274.9-295,272.7-293.2,269.3L-293.2,269.3z"/>
		<path id="path30180" class="st14" d="M-290.2,268.3c-0.2,0-0.5,0-0.6,0c-2.8,0.3-3.8,2.5-3.5,4.3c0.4-2.9,2.6-4.2,5.6-3.4
			c1.9,0.5,2,2.6,1.7,4.3c0.5-1.3,0.3-3.5-0.6-4.4C-288.4,268.4-289.4,268.3-290.2,268.3L-290.2,268.3z M-291.4,271.2
			c-1.2,0.2-0.7,1.9,1,1.9c1.6,0,2-0.9,1.4-1.5C-289.1,271.3-291.4,271.2-291.4,271.2L-291.4,271.2z"/>
		<g id="g30182" transform="translate(-1.0233334,106.50571)">
			<path id="path30184" class="st11" d="M-288.8,164.5c-1.9-0.4-2.3,0.5-1.5,1.2c0.9,0.7,2,0.1,2.2-0.4
				C-287.7,164.8-288.8,164.5-288.8,164.5L-288.8,164.5z"/>
		</g>
	</g>
	<g id="g30186" transform="matrix(1.0907981,0,0,1.0907981,12.882757,-20.924034)">
		<path id="path30188" class="st11" d="M-278.9,287.1c-6,0.8-5.6,6.1-1.6,7.7c4.7,1.6,6.9-0.3,7.5-3.8s-1.9-3.1-3-3.6
			C-276.9,287-278.5,286.9-278.9,287.1L-278.9,287.1z"/>
		<path id="path30190" class="st15" d="M-278.6,286.7c-4.1,0.5-4.4,4.9-2.1,6.4s4.6,0.7,5.6-0.4c1-1.1,0.8-4-0.2-5
			S-278,286.7-278.6,286.7z"/>
		<path id="path30192" class="st13" d="M-281,287.7c-1.7,1.5-1.5,4.3,0.2,5.4c2.3,1.4,4.6,0.7,5.6-0.4c0.5-0.6,0.7-1.7,0.7-2.7
			c0,1.1-0.4,2.8-2.8,3C-280.8,293.2-282.8,291-281,287.7L-281,287.7z"/>
		<path id="path30194" class="st14" d="M-278,286.7c-0.2,0-0.5,0-0.6,0c-2.8,0.3-3.8,2.5-3.5,4.3c0.4-2.9,2.6-4.2,5.6-3.3
			c1.9,0.5,2,2.7,1.7,4.3c0.5-1.3,0.3-3.5-0.6-4.4C-276.2,286.8-277.2,286.7-278,286.7L-278,286.7z M-279.2,289.6
			c-1.2,0.2-0.7,1.8,1,1.9c1.6,0,1.9-0.9,1.4-1.5C-276.9,289.7-279.2,289.6-279.2,289.6L-279.2,289.6z"/>
		<g id="g30196" transform="translate(-1.0233334,106.50571)">
			<path id="path30198" class="st11" d="M-276.6,182.9c-1.9-0.4-2.3,0.5-1.5,1.2c0.9,0.7,2,0.1,2.2-0.4S-276.6,182.9-276.6,182.9
				L-276.6,182.9z"/>
		</g>
	</g>
</g>
<g id="g17933" transform="matrix(0.86016532,0,0,0.86016532,-56.126598,107.5297)">
	<path id="path17935" class="st1" d="M418.7,530.4c-18.2,49.2-75.2,59.2-101.9,57.5c-28.5-1.8-30.7,72,0.7,80.3
		c48.2,12.7,80,11.3,108.1-10.1c32-24.4,52.1-62,56.3-82.2C492.7,525.2,439,477.1,418.7,530.4L418.7,530.4z"/>
	<path id="path17937" class="st5" d="M334.6,603.8c-21.8-1.5-26.2,26.6-17.3,40.7c6.7,11.1,44.1,14,78.7,4.4s61.4-56.2,74.3-81.3
		c12.8-25.1,7.3-45.8-1.1-54.7c-8.4-8.9-26.8,3.7-34.1,22.2c-7.3,18.5-33.5,53.2-54.7,65.8C359.2,613.4,334.6,603.8,334.6,603.8z"/>
</g>
<g id="g17939" transform="translate(47.414472,70.723744)">
	<g id="g17941" transform="matrix(0.88031879,0,0,0.88031879,-80.823945,29.897053)">
		<g id="g17943" transform="translate(-29.335572,0)">
			<path id="path17945" class="st16" d="M289.9,457.3c31.6-17.8,35.5-45.5,41.1-48.6c5.5-3.1,36.3,4.7,37.9,8.9
				c1.6,4.2,8.7,54.4,7.9,60.7c-0.8,6.3-49.8,1-59.2,0S289.9,457.3,289.9,457.3z"/>
			<path id="path17947" class="st17" d="M306.5,462.5c23.7-8.4,26.5-38.2,28.8-39.2c2.4-1,25.7,5.2,26.5,7.3
				c0.8,2.1,4.3,32.9,4.3,32.9L306.5,462.5z"/>
			<path id="path17949" class="st18" d="M335.3,423.2c-2.1,0.9-4.5,24.4-21.6,35.6c19.4-6,23.2-26.7,25.5-26.2
				c2.4,0.5,17,3.7,17,3.7s5.4,12.5,9.2,21.6c-0.9-7.5-3-25.7-3.7-27.4C360.9,428.5,337.7,422.2,335.3,423.2z"/>
		</g>
		<g id="g17951" transform="matrix(0.64789871,0,0,-0.64789871,-83.77413,399.42246)">
			<path id="path17953" class="st19" d="M263.9-262.9c-10-0.4-26.5,2-24.7,19.5c-1,14.8-0.3,29.7,1.7,44.3
				c23.3,5.1,46.9,1.2,70.3,2.9c6.4,16.1,5.6,40,17.4,48.9c16.6,1.2,37.7,2.9,49.1-14.9c2.8-20.6-11.6-34.8-16.4-52.5
				c-7.6-17-16.5-35.8-30.5-43.3C308.8-263.7,286.2-264,263.9-262.9L263.9-262.9z"/>
			<path id="path17955" class="st20" d="M257.8-241.6c-3.1,10.4-2.2,20.7-0.6,21.8c1.7,1.1,60,0.7,63.1,2.6
				c3.1,1.8,18.4,60.3,20.1,63.6c1.7,3.3,25.1-1.5,25.7-3.7c0.6-2.2-34.3-75.1-38.8-80.6c-4.5-5.5-66.5-5.9-67.9-5.5
				C258.1-243.1,257.8-241.6,257.8-241.6L257.8-241.6z"/>
			<path id="path17957" class="st21" d="M255.8-230.3c-0.3,5.6,0.5,9.8,1.5,10.5c1.7,1.1,60,0.7,63.1,2.6
				c3.1,1.8,18.4,60.2,20.1,63.6c0.3,0.6,1.6,0.9,3.1,1.1c-1.5-7.6-16.9-67.3-18.5-68.7c-1.7-1.5-63.3-3.3-65.2-3.3
				C258.6-224.7,257.1-225.6,255.8-230.3z"/>
			<path id="path17959" class="st9" d="M259.5-243.5c-1.4,0.4-1.6,1.8-1.6,1.8c-2.5,8.5-2.4,17-1.4,20.4c0.9-6.7,3.7-16.4,5.3-17.8
				c1.7-1.5,61.4,1.5,64.2,5.9c2.3,3.6,26.8,49.8,36.9,67.7c-8.4-19.3-31.9-67.9-35.5-72.4C322.9-243.5,260.9-243.9,259.5-243.5z"/>
		</g>
		<g id="g17961" transform="matrix(0.64789871,0,0,0.64789871,-83.882781,89.965948)">
			<path id="path17963" class="st19" d="M261.8,561c-10-0.4-26.5,2-24.7,19.5c-1,14.8-0.3,29.7,1.7,44.3c23.3,5.1,46.9,1.2,70.3,2.9
				c6.4,16.1,5.6,40,17.4,48.9c16.6,1.2,37.7,2.9,49.1-14.9c2.8-20.6-11.6-34.8-16.4-52.5c-7.6-17-16.5-35.8-30.5-43.3
				C306.7,560.2,284,559.9,261.8,561L261.8,561z"/>
			<path id="path17965" class="st20" d="M255.7,582.3c-3.1,10.4-2.2,20.7-0.6,21.8c1.7,1.1,60,0.7,63.1,2.6
				c3.1,1.8,18.4,60.3,20.1,63.6c1.7,3.3,25.1-1.5,25.7-3.7c0.6-2.2-34.3-75.1-38.8-80.6c-4.5-5.5-66.5-5.9-67.9-5.5
				C256,580.8,255.7,582.3,255.7,582.3L255.7,582.3z"/>
			<path id="path17967" class="st21" d="M253.7,593.6c-0.3,5.6,0.5,9.8,1.5,10.5c1.7,1.1,60,0.7,63.1,2.6
				c3.1,1.8,18.4,60.2,20.1,63.6c0.3,0.6,1.6,0.9,3.1,1.1c-1.5-7.6-16.9-67.3-18.5-68.7c-1.7-1.5-63.3-3.3-65.2-3.3
				C256.5,599.2,255,598.3,253.7,593.6z"/>
			<path id="path17969" class="st9" d="M257.3,580.4c-1.4,0.4-1.6,1.8-1.6,1.8c-2.5,8.5-2.4,17-1.4,20.4c0.9-6.7,3.7-16.4,5.3-17.8
				c1.7-1.5,61.4,1.5,64.2,5.9c2.3,3.6,26.8,49.8,36.9,67.7c-8.4-19.3-31.9-67.9-35.5-72.4C320.8,580.4,258.7,580,257.3,580.4z"/>
		</g>
		<g id="g17971" transform="translate(0.05448456,-0.37106726)">
			<path id="path17973" class="st19" d="M183.2,456.4c-19.7-1.8-45.4,3.4-48.2,9.3c-4.7,9.9-7.4,84.6,4.7,97
				c10.7,9.3,45.2,10.2,45.2,10.2L183.2,456.4z"/>
			<path id="path17975" class="st22" d="M177.9,470.5c-13.7-0.1-28.7,3.4-30.6,7.3c-3.6,7.4-5.6,63.7,3.4,73c8.1,7,34,7.8,34,7.8
				l-0.2-19.5h-29.8c-2.2,0-4-2.3-4-5.2s1.8-5.3,4-5.3h29.5l-0.1-7.8h-34.1c-2.5,0-4.6-2.7-4.6-6.1c0-2.9,1.6-5.4,3.7-5.9
				c0.3-0.1,0.6,0,0.9,0h34l-0.1-8.1h-29.6c-2.2,0-3.9-2.4-3.9-5.3c0-2.9,1.7-5.2,3.9-5.2h29.4l-0.2-19.5
				C181.7,470.7,179.9,470.6,177.9,470.5L177.9,470.5z M162.9,478.8h17.3c1.2,0,2.2,1.3,2.2,2.9c0,1.6-1,2.9-2.2,2.9h-17.3
				c-1.2,0-2.2-1.3-2.2-2.9C160.7,480,161.7,478.8,162.9,478.8z M162.9,546.3h17.3c1.2,0,2.2,1.3,2.2,2.9c0,1.6-1,2.7-2.2,2.7h-17.3
				c-1.2,0-2.2-1.1-2.2-2.7C160.7,547.6,161.7,546.3,162.9,546.3z"/>
			<path id="path17977" class="st9" d="M177.9,470.5c-13.7-0.1-28.7,3.4-30.6,7.3c-2.1,4.4-3.6,25.9-2.6,44.7
				c0.1-27.9,5.1-42.9,5.1-42.9c11.2-6.3,27.7-4.6,27.7-4.6s0.6,1.8,0.9,3.7h1.7c1.2,0,2.2,1.3,2.2,2.9c0,1.6-1,2.9-2.2,2.9h-17.3
				c-1.2,0-2.2-1.3-2.2-2.9c0-0.3,0-0.6,0.1-0.9c-1.4,3.3,0.8,6.6,2.8,6.2c2-0.4,14.2-0.8,14.2-0.8s0.5,2.2,0.9,4.1h2.8
				c1-7.9,1.9-15.4,2-19.5C181.6,470.7,179.9,470.6,177.9,470.5L177.9,470.5z M150.7,493.8c-0.1,0.1-0.2,0.2-0.2,0.5
				c-0.8,3.3,0.5,7.8,3,8.2c2.4,0.4,24.8,0,26.3,0c0.1-0.6,0.1-1.1,0.2-1.7h-25.6c-2.2,0-3.9-2.4-3.9-5.3
				C150.5,494.9,150.6,494.3,150.7,493.8L150.7,493.8z M179.8,502.5c-0.3,2.3-0.6,4.3-0.9,6.4h0.7l1-6.4
				C180.6,502.5,179.8,502.5,179.8,502.5z M145.7,516c-0.1,2.9,1.3,6,3.1,6.8c2.2,1.1,27.9,0,27.9,0s0.3-1.6,0.3-2h-26.9
				C147.9,520.9,146.1,518.8,145.7,516L145.7,516z"/>
			<path id="path17979" class="st23" d="M144.7,523.8c0.7,12.4,2.5,23.4,6.1,27.1c8.1,7,34,7.8,34,7.8l-0.2-19.5h-29.8
				c-2.2,0-4-2.3-4-5.2s1.8-5.3,4-5.3h29.5v-2.3C169.4,525.6,152.6,524.1,144.7,523.8z M162.9,546.3h17.3c1.2,0,2.2,1.3,2.2,2.9
				c0,1.6-1,2.7-2.2,2.7h-17.3c-1.2,0-2.2-1.1-2.2-2.7C160.7,547.6,161.7,546.3,162.9,546.3z"/>
		</g>
		<g id="g17981" transform="translate(-5.0053324,0.36800727)">
			<path id="path17983" class="st16" d="M274.9,575c20.1,66.6,9.1,115.5,19.8,124.6c8.6,7.2,39,4.4,54.2,0.7
				c12.2-1.8,12.6-24.2,7-32.5c-4.2-9.3-9.2-22.8-10.9-27.8c-9.3-27.9-15.1-42.4-14.3-53.1c1.1-14.8-21.2-45.8-42.4-38.5
				C267.1,555.8,274.9,575,274.9,575L274.9,575z"/>
			<path id="path17985" class="st17" d="M286,580.4c12.7,41.9,10.5,101,17.2,106.7c5.4,4.6,26.2,3.5,35.8,1.2
				c5.2-0.4,11.2-4.7,6-16.3c-5.2-12.9-7.1-17.8-8.2-21c-5.8-17.6-16-56.3-15.4-63.1c0.7-9.3-13.6-28.9-27-24.2
				C281.1,568.3,286,580.4,286,580.4L286,580.4z"/>
			<path id="path17987" class="st24" d="M296.9,563c-0.8,0.1-1.6,0.3-2.4,0.6c-13.4,4.7-8.5,16.7-8.5,16.7c3,9.9,4.6,16,6.2,26.8
				c9.8-2,25.8-1.2,26.6-0.4c0.6,0.6,5.4,8.4,9.6,14.9c-4-15.1-7.3-30-7-33.9C322.1,579.1,309.5,561.4,296.9,563L296.9,563z"/>
			<path id="path17989" class="st25" d="M292.8,599.5c0,0-0.7,0.6-1.8,1.4c7.3,38.5,6.6,81.4,12.3,86.2c5.4,4.6,26.2,3.4,35.8,1.1
				c5.2-0.4,11.1-4.7,6-16.3c-2.8-6.9-4.6-11.3-5.9-14.6c1.2,6.4,3.8,17.3,2.2,20.2c-2,3.7-29.7,2.1-34,0
				C303,675.5,302.6,647.1,292.8,599.5z"/>
		</g>
		<g id="g17991" transform="matrix(1.5210765,-0.2048454,0,1.8467493,93.097808,-249.46835)">
			<path id="path17993" class="st26" d="M166,402.2c29.5,11.4,27,40.1,20.1,50.1c-6.9,10.1-26.4,12.5-26.4,12.5v-64.2L166,402.2z"/>
			<path id="path17995" class="st27" d="M166.3,412.9c20.8,7.4,19,26.2,14.1,32.8c-4.9,6.6-18.6,8.3-18.6,8.3v-42.1L166.3,412.9z"/>
			<path id="path17997" class="st28" d="M161.9,411.9v9.9c1.8,0.1,3.6,0.1,4.8-0.2c3.3-0.8,15.4,2.2,16.1,18.7
				c2.2-8.4,0-21.5-16.5-27.4L161.9,411.9z"/>
			<path id="path17999" class="st29" d="M161.9,436.4V454c0,0,13.6-1.7,18.5-8.3c1.3-1.7,2.2-4.3,2.8-7.2
				C182.2,439.1,171.9,441.1,161.9,436.4z"/>
		</g>
		<g id="g18001" transform="translate(-5.2895924,-0.1436597)">
			<path id="path18003" class="st16" d="M208.4,576.9c0,23.7,6.1,53.6,11.7,55.1c5.6,1.5,60.1,14.4,77.4,15.5
				c5.6,0.4,6.1-27.4-3.9-30.3c-10.1-3-57.3-9.2-57.3-9.2l-6.1-30.3C230.5,572,207.8,570.2,208.4,576.9L208.4,576.9z"/>
			<path id="path18005" class="st17" d="M215,576c2.3,29.2,7.5,45.2,9.4,47.1c2.2,2.2,68.5,15.5,68.5,15.5c4.7-2.2,2.2-9.6,0.8-11.1
				c-1.4-1.5-63.5-9.6-63.5-9.6s-5.6-32.2-6.1-42.5C224.5,568.3,213.8,568.2,215,576L215,576z"/>
			<path id="path18007" class="st18" d="M221.4,570.6c3.1,23.7,5.7,48.6,7.7,49.9c2.2,1.4,63.4,10.1,66.2,10.5
				c-0.4-1.6-1.1-3-1.6-3.5c-1.4-1.5-63.5-9.6-63.5-9.6s-5.5-32.1-6.1-42.4C224.3,573,223,571.3,221.4,570.6z"/>
		</g>
		<path id="path18009" class="st16" d="M186.3,435.3l149.3,13.6c30.8,0,32.5,129.7,0,129.7l-149.3,12.5
			C158.5,591.1,153.9,435.3,186.3,435.3z"/>
		<path id="path18011" class="st17" d="M193.9,454.1l132.7,11.2c25.4,0,26.8,96.6,0,96.6l-132.7,10.4
			C170.9,572.3,167.1,454.1,193.9,454.1z"/>
		<path id="path18013" class="st18" d="M193.8,454.1c-16.6,0-21.4,45.2-17.2,79.7c1.5-18.4,6.4-61.8,14-68.2
			c24.1-2.6,131.9,0,143,15.1c9.1,12.5,12.1,37.8,11.4,51.4c4.1-28.4-2.3-66.8-18.4-66.8L193.8,454.1z"/>
		<path id="path18015" class="st30" d="M177.8,541.1c3,17.7,8.4,31.2,16.1,31.2L326.6,562c7.1,0,12.2-7,15.4-17
			c-10.7-0.2-161-2.4-162.9-2.9C178.7,541.9,178.3,541.6,177.8,541.1L177.8,541.1z"/>
		<path id="path18017" class="st18" d="M175.3,514.7c0.2,6.7,0.6,13.5,1.4,19.8c0.1-0.2,0.1-0.3,0.1-0.8c0-4.7,1.6-6.4,1.6-6.4
			l116.8,1.7c0,0,8.3,19.3,20.1,15.7c11.8-3.7,15.5-13.1,15.5-13.1l14.4-1.4c0.4-3.3,0.7-6.7,0.8-10.2
			C335,520.4,210.7,516,175.3,514.7L175.3,514.7z"/>
		<g id="g18019" transform="translate(-29.335572,0)">
			<path id="path18021" class="st16" d="M199.4,512.2c4.3,0,180.1,6.8,180.1,6.8l-0.8,7.3L199,521.6L199.4,512.2z"/>
			<path id="path18023" class="st16" d="M358.2,517.6c0,12-7.3,21.7-16.4,21.7c-9.1,0-16.4-9.7-16.4-21.7s7.3-21.7,16.4-21.7
				C350.9,495.9,358.2,505.7,358.2,517.6z"/>
			<path id="path18025" class="st31" d="M350.9,517.4c0,6.6-4.1,12-9.1,12s-9.1-5.4-9.1-12s4.1-12,9.1-12S350.9,510.7,350.9,517.4z"
				/>
		</g>
	</g>
</g>
</svg>
