<?xml version="1.0" encoding="utf-8"?>
<!-- Generator: Adobe Illustrator 25.2.1, SVG Export Plug-In . SVG Version: 6.00 Build 0)  -->
<svg version="1.1" id="Layer_1" xmlns="http://www.w3.org/2000/svg" xmlns:xlink="http://www.w3.org/1999/xlink" x="0px" y="0px"
	 viewBox="0 0 900 1600" style="enable-background:new 0 0 900 1600;" xml:space="preserve">
<style type="text/css">
	.st0{fill:#031111;}
	.st1{fill:#24C3C4;}
	.st2{fill:#1FA7A7;}
	.st3{fill:#120502;}
	.st4{fill:#981212;}
	.st5{fill:#C71818;}
	.st6{fill:#FF2A2A;}
	.st7{fill:#30EAEC;}
	.st8{opacity:0.3392;fill:#27FFFF;enable-background:new    ;}
	.st9{opacity:0.7621;fill:#20B7B7;enable-background:new    ;}
	.st10{fill:#27FFFF;}
	.st11{fill:#E3E3E3;}
	.st12{fill:#FFFFFF;}
	.st13{fill:#20B7B7;}
	.st14{fill:#54FFFF;}
	.st15{fill:#0B3E3E;}
	.st16{opacity:0.4978;fill:#AA0000;enable-background:new    ;}
	.st17{opacity:0.5841;fill:#802AFF;enable-background:new    ;}
	.st18{opacity:0.4978;fill:#6B7979;enable-background:new    ;}
	.st19{fill:#12B9BB;}
	.st20{fill:#21E7EA;}
	.st21{fill:#4CDDDE;fill-opacity:0;}
	.st22{opacity:0.1903;enable-background:new    ;}
	.st23{fill:#A4982F;}
	.st24{opacity:0.4425;fill:#A4982F;enable-background:new    ;}
</style>
<g id="g33959" transform="translate(2.6458334,-3.1750001)">
	<g id="g33419_2_" transform="translate(-215.90994,-16.506876)">
		<g id="g33421_2_" transform="matrix(11.179406,-0.39667889,0.39667889,11.179406,3290.6085,-1248.6084)">
			<path id="path33423_2_" class="st0" d="M-242,210.7c2.5,0.2,4.2,2.4,4.7,4.9c0.5,2.9-0.1,6-1.1,9.4c-0.7,2.5-2.3,4.5-4.8,4.3
				c-2.5-0.2-4.8-2.5-4.1-5c0.8-2.9,1.5-5.6,1.1-9.2C-246.5,212-244.5,210.5-242,210.7L-242,210.7z"/>
			<path id="path33425_2_" class="st1" d="M-242,210.1c1.2,0.1,1.8,1.2,2,2.4c0,0,1.1,3.8,0.7,6.9c-0.1,2-1,7.4-3.7,7.4
				c-1.2-0.1-2.7-1.2-2-2.9c0,0,0.8-3,1.1-4.8c0.5-2.7-0.3-6.9-0.3-6.9C-244.2,211-243.2,210-242,210.1L-242,210.1z"/>
			<path id="path33427_2_" class="st2" d="M-244.3,212.2c0,0,0.8,4.2,0.3,6.9c-0.3,1.8-1.1,4.8-1.1,4.8c-0.6,1.6,0.8,2.8,2,2.9
				c1.1,0,1.9-0.8,2.5-2c-0.6,1-1.2,1.1-2.2,1c-1.6-0.1-1.5-2-1-3.2s1.1-4.3,0.8-6.2c-0.2-1.9-1.1-3.2-1.2-4.1
				c-0.1-0.9,0.2-0.7,0.3-1.1c0-0.1,0-0.1-0.1-0.2C-244.1,211.3-244.3,211.8-244.3,212.2z"/>
		</g>
	</g>
	<g id="g33419" transform="translate(-215.90994,-16.506876)">
		<g id="g33421" transform="matrix(11.179406,-0.39667889,0.39667889,11.179406,3290.6085,-1248.6084)">
			<path id="path33423" class="st0" d="M-255.4,208.6c2.5,0,4.4,1.6,3.9,4.7c-0.6,3.6-0.2,6.3,0.5,9.3c0.5,2.5-2,4.7-4.5,4.7
				c-2.5,0-3.9-2.1-4.4-4.7c-0.7-3.4-1.1-6.6-0.4-9.4C-259.7,210.7-257.8,208.6-255.4,208.6L-255.4,208.6z"/>
			<path id="path33425" class="st1" d="M-255.4,208c1.2,0,2.2,1,2.2,2.3c0,0-1.1,4.1-0.8,6.9c0.2,1.8,0.7,4.9,0.7,4.9
				c0.5,1.7-1,2.7-2.2,2.7c-2.8-0.2-3.2-5.6-3.2-7.6c-0.2-3.1,1.2-6.8,1.2-6.8C-257.3,209.1-256.6,208.1-255.4,208L-255.4,208z"/>
			<path id="path33427" class="st2" d="M-253.6,209c-0.1,0-0.1,0.1-0.1,0.2c0,0.4,0.3,0.2,0.2,1.1c-0.1,0.9-1.1,2.1-1.5,4
				c-0.4,1.9-0.1,5,0.4,6.3c0.5,1.2,0.4,3.1-1.2,3.1c-1,0-1.6-0.2-2.1-1.2c0.5,1.2,1.2,2.1,2.3,2.2c1.2,0,2.7-1,2.2-2.7
				c0,0-0.5-3.1-0.7-4.9c-0.3-2.7,0.8-6.9,0.8-6.9C-253.2,209.8-253.3,209.4-253.6,209z"/>
		</g>
	</g>
	<g id="g33249" transform="matrix(0.70708172,0.54020561,0.54020561,-0.70708172,-155.8697,436.3318)">
		<path id="path33251" class="st3" d="M1069.8-77.4c33.9,8.1,40,25.2,53.9,33.2c13.9,8,35.1,11.1,49.2,2.6c8.8-4.6,17.6-8.1,28.6-3
			c7.2,3.3,16.6-8.1,11.5-18.8c-5.1-10.7-19.1-23.6-40.3-19.1c-5.4,1.1-24.9,4.1-28.2-14.4c-3.2-8.3-11-32.7-35.5-45.9
			c-24.5-13.2-35.5,1.5-46.3,17.5C1052.2-109.6,1060-78.4,1069.8-77.4z"/>
		<path id="path33253" class="st4" d="M1088.9-129.7c-33.6,6.5-18.9,38.4-9.6,37.1c4.3-0.6,18.4-0.1,30.9,9.8s23.1,27.2,39.1,29.2
			c16,2,28.6-6.8,35.3-6.9c6.7-0.2,9.7,1.8,10-0.6c0.4-2.4-5.2-7-14.3-5.4c-8.7,1.6-25.2,7.4-37.1,0.2c-11.9-7.2-14.3-29-28-45.1
			C1101.8-127,1092.2-129.5,1088.9-129.7z"/>
		<path id="path33343" class="st5" d="M1074.7-94.2c-6.5-5.1-11.6-20.9,0.6-30c0.1,8.9,5.2,22.6,5.2,22.6s11.8-1.4,25.1,6.2
			c13.3,7.5,28.4,32.1,39.7,34.6c11.3,2.5,24.4-4.8,36.2-1.9c2.9,0.7,5.2,1.5,7.2,2.4c-1.2-0.1-2.5-0.2-4.1-0.2
			c-6.7,0.2-19.3,8.9-35.3,6.9c-16-2-26.6-19.4-39.1-29.2c-12.5-9.9-26.5-10.3-30.9-9.8C1077.8-92.4,1076.2-93,1074.7-94.2z"/>
	</g>
	<g id="g33243" transform="matrix(0.82978059,0,0,-0.82978059,-56.46919,500.59175)">
		<path id="path33245" class="st3" d="M722.2-658.7c-62.8,15.4-25.1,81.3-2.8,85.7c22.3,4.4,25.2-16.6,53.8-15.6
			c32.8,1.1,41.3,14,78.5,8.4c8.6-1.3,24.8-7.3,29.6-15.7c3.9-6.7,0.6-23.9-11.9-26.2c-10.5-1.9-22.8,4-49.8-5.8
			c-18.9-6.9-27.5-24.8-48.4-29.2C750.2-661.4,739.2-662.1,722.2-658.7z"/>
		<path id="path33247" class="st4" d="M691.3-597.7c-0.5-33.7,40.7-51.2,66.2-44.9c25.6,6.3,24,16.2,44,25.3
			c19.3,10.5,39.1,9.9,50,9.5c11.7-0.3,9.6,7.7,2.9,9.7c-5.9,1.7-21.7,2.1-32.3,1.1c-32.2-2.9-43.8-18.2-71.5-16.1
			c-24.8,1.9-36.4,25.8-47.1,23.7C692.9-591.6,691.3-597.7,691.3-597.7L691.3-597.7z"/>
		<path id="path33346" class="st5" d="M704.6-589.3c-0.3,0-0.7-0.1-1-0.1c-10.7-2.2-12.3-8.3-12.3-8.3c-0.1-5.1,0.9-9.9,2.5-14.3
			c5.3,20,18.2,16.1,21.2,11.1c3.5-5.9,30.3-30.3,55.7-21.4c25.4,8.9,50,21.4,67.6,20c11.1-0.9,17.7-1.6,20.9-3.2
			c1.9,2.5-0.5,6.2-4.7,7.4c-5.9,1.7-21.7,2.1-32.3,1.2c-32.2-2.9-43.8-18.2-71.5-16.1C726.6-611.2,715-588.7,704.6-589.3z"/>
	</g>
	<g id="g33231" transform="matrix(0.82978059,0,0,0.82978059,-55.222854,38.162485)">
		<path id="path33227" class="st3" d="M724.9,1031.3c-62.8,15.4-25.1,81.3-2.8,85.7c22.3,4.4,25.2-16.6,53.8-15.6
			c32.8,1.1,41.3,14,78.5,8.4c8.6-1.3,24.8-7.3,29.6-15.7c3.9-6.7,0.6-23.9-11.9-26.2c-10.5-1.9-22.8,4-49.8-5.8
			c-18.9-6.9-27.5-24.8-48.4-29.2C753,1028.5,741.9,1027.9,724.9,1031.3z"/>
		<path id="path33229" class="st4" d="M694,1092.3c-0.5-33.7,40.7-51.2,66.2-44.9c25.6,6.3,24,16.2,44,25.3
			c19.3,10.5,39.1,9.9,50,9.5c11.7-0.3,9.6,7.7,2.9,9.7c-5.9,1.7-21.7,2.1-32.3,1.1c-32.2-2.9-43.8-18.2-71.5-16.1
			c-24.8,1.9-36.4,25.8-47.1,23.7C695.7,1098.4,694,1092.3,694,1092.3L694,1092.3z"/>
		<path id="path33349" class="st5" d="M750,1046.1c-25-0.4-56.4,16.7-56,46.1c0,0,0.4,1.5,2.1,3.3c1.9-10.7,13.9-33.1,47-38
			c35.2-5.2,47.9,21.4,64.8,28.1s47.9-2.9,51.4,1.5c0.7,0.9,1.2,1.8,1.6,2.6c3.1-3.1,2.3-7.7-6.7-7.5c-10.9,0.4-30.8,1-50-9.5
			c-20-9-18.4-18.9-44-25.3C757,1046.6,753.6,1046.2,750,1046.1z"/>
	</g>
	<g id="g33221" transform="matrix(0.80120266,0.3871188,0.3871188,-0.80120266,-126.4108,365.63568)">
		<path id="path33223" class="st3" d="M914.9-118c33.6,8.3,39.7,25.6,53.6,33.8c13.8,8.2,34.8,11.3,48.7,2.8
			c8.7-4.6,17.5-8.1,28.3-2.9c7.2,3.3,16.4-8.1,11.3-19c-5.1-10.8-19-23.9-40-19.4c-5.3,1.1-24.7,4-28-14.7
			c-3.2-8.4-11-33-35.4-46.5c-24.3-13.4-35.2,1.4-45.8,17.4C897.3-150.6,905.2-119.1,914.9-118z"/>
		<path id="path33225" class="st4" d="M933.5-170.7c-33.3,6.5-18.6,38.6-9.3,37.4c4.3-0.6,18.2,0,30.6,10c12.4,10,23,27.6,38.9,29.7
			c15.9,2.1,28.3-6.7,34.9-6.8c6.6-0.1,9.6,1.9,10-0.5c0.4-2.4-5.2-7.1-14.2-5.5c-8.6,1.5-25,7.3-36.8,0s-14.3-29.3-28-45.6
			C946.4-167.9,936.9-170.5,933.5-170.7z"/>
		<path id="path33352" class="st5" d="M985.3-96.3c-11.5-5.8-20.4-18.9-30.5-27c-12.4-10-26.4-10.5-30.7-10c-7.3,1-18-18.9-5.8-30.4
			c-1.6,10.2,2.7,19.8,8.2,19.9c6.5,0.1,28.1,5.2,37.9,15.2s9.4,22.9,24.5,27.9s29.4-0.4,41.5-2.9c2.5-0.5,4.8-0.4,7,0
			c0.9,0.9,1.4,1.9,1.3,2.6c-0.4,2.4-3.3,0.4-10,0.5c-6.6,0.1-19.1,8.9-34.9,6.8C990.8-94.1,988-95,985.3-96.3z"/>
	</g>
	<g id="g33358" transform="matrix(0.88982395,0,0,0.88982395,-109.25063,30.16672)">
		<g id="g33217" transform="matrix(1.0338903,0,0,1.0360029,66.141625,0.91352411)">
			<path id="path21330" class="st3" d="M678.8,790.2c33.5,9,39.8,26.6,53.7,35.1c13.9,8.5,34.7,12.1,48.4,3.8
				c8.5-4.5,17.2-7.8,28-2.3c7.2,3.5,16.1-7.9,10.9-18.9c-5.3-11-19.3-24.5-40-20.4c-5.3,1-24.4,3.6-28-15.4
				c-3.3-8.5-11.5-33.5-35.9-47.6c-24.4-14.1-34.9,0.7-45.1,16.7C660.7,757,669.1,789,678.8,790.2z"/>
			<path id="path33215" class="st4" d="M696.3,737.4c-32.9,5.9-17.7,38.6-8.5,37.6c4.2-0.5,18.1,0.3,30.6,10.7
				c12.5,10.3,23.3,28.3,39.1,30.7c15.8,2.4,27.9-6.2,34.5-6.2s9.5,2.1,9.9-0.3c0.3-2.4-5.3-7.2-14.1-5.9
				c-8.5,1.4-24.6,6.9-36.5-0.7s-14.7-29.8-28.6-46.6C709.1,740.5,699.6,737.7,696.3,737.4z"/>
			<path id="path33355" class="st5" d="M696.3,737.4c-18.2,3.2-21.7,14.8-19.6,24.2c12.8-17.1,28-14.4,35.3-5
				c8.3,10.7,17,49.5,40,53.9c20.7,4,37.5-4,42-2.6c1.2,0.4,2.8,1.5,4.6,2.9c1.9,0.3,3,0.4,3.2-1c0.3-2.4-5.3-7.3-14.1-5.9
				c-8.5,1.4-24.6,6.9-36.5-0.7c-11.8-7.6-14.7-29.8-28.6-46.6C709.1,740.5,699.6,737.7,696.3,737.4z"/>
		</g>
	</g>
	<g id="g33205" transform="translate(-89.175027,-16.340973)">
		<path id="path21474" class="st3" d="M864.3,371.1c-2.5,11-8.5,16.8-11.1,20.1c-2.6,3.2-3.6,3.4-5.8,3.6
			c-4.3,0.4-15.7-8.7-29.4-23.1c-14.1-14.9-21.8-25.8-36.3-33.4c-44-19.6-65.6,2.4-84.3,37.2c-11.6,26.1,19.3,48.5,27.4,53.2
			c8.2,4.7,21.7,1.3,25.8-7.5c13.5-27,27.1-4.7,44.7,13.9c17.2,18.1,38.8,27.1,60.7,25.1c10.9-1,21.7-7.2,29.2-16.5
			c7.5-9.3,12.5-25.9,15.9-40.5c5-21.6,13.3-29.5,20-33.6c19.9-4.4,30.1-10.3,30.6-24.1c0-9.5-9.1-21-22.9-21.4
			C883.6,317.7,870.6,345.3,864.3,371.1L864.3,371.1z"/>
		<path id="path33200" class="st4" d="M922,341.8c-5.5-0.1-13.2,2-22.9,8.3c-26,16.6-14.9,72.2-51.6,69.3
			c-36.7-2.9-52.5-64.4-90.1-66.8c-34.4,0.1-69.8,39.4-59,60c4.2,5.9,15.3,16.6,25.6,15.6c10.2-1,11.1-2.9,12.1-12.7
			c0.7-7.3-3.8-13.4,8.4-24.4c19.3-13.4,24.5-11.6,40.9,3.9c15.8,22.4,57.9,54.9,78,45.4c27.9-13.2,19.5-44.4,32.5-69.3
			c13-24.9,30.2-15.1,35.3-20C934.3,348,931.1,341.9,922,341.8L922,341.8z"/>
		<path id="path33374" class="st6" d="M920.9,341.8c-5.4,0.2-12.7,2.4-21.9,8.3c-11.9,7.6-16.1,23.4-20.6,38.1
			c3.5-4.6,6.7-9.2,9.7-13c-1.1,2-2,4.1-2.5,6.4c-2.8,11.8-2.2,19.5,0.4,24.1c2.4-11.4,4-23.6,9.7-34.6c13-24.9,30.2-15.1,35.3-20
			c3.2-3,0-9.1-9.1-9.2C921.6,341.8,921.3,341.8,920.9,341.8z"/>
	</g>
	<g id="g33186" transform="matrix(0.96195372,0.27321243,-0.27321243,0.96195372,-14.20123,95.290373)">
		<path id="path21478" class="st3" d="M518.3-160c-12.7-0.8-21.6,15.2-14.7,26.5c4.8,9,0.3,20.6-8.1,24.9
			c-14.6,10.6-36.9,22-40.9,41.5c-3.1,16,1.1,33.2,9.5,46.9c10.3,16,22.8,24.7,39.5,30.2c8.3,2.3,12.4,8.3,10.6,18.6
			c0.4,9.7-7.1,16.8-5.8,26.5c2.5,16.3,48,19.2,57.1,10c4.4-8.8,4-18,6-27.3c3-18-8.6-38.9-23.2-51c-13.7-12.6-30.8-14.4-46.2-23.3
			c-8-4.4-9.9-15.9-7.8-23.8c6.4-9.9,18.5-13.1,26.5-21.4c15-12.8,22-34.5,17.5-54.6c-1.9-9.6-5.8-21.4-16.4-23.5
			C522.8-160,517.1-159.8,518.3-160L518.3-160z"/>
		<path id="path33184" class="st4" d="M534.4,71.3c-14.5-5.5-8.1-13.7-5.5-32.6c2.6-18.9,2.9-25.2-4.2-34.1
			c-7.1-8.8-34.1-5.8-49.4-34.7s-4.3-42.8,3.6-49.5c7.8-6.7,28.7-12.7,36.9-32.1c8.2-19.3-5-27.8-1.3-31.6c3.7-3.8,7.5,2,9.5,12.3
			c2,10.2,3.6,28.7-11.2,39.7c-14.8,11-38.5,19.4-32.6,42.3c5.9,22.9,15.3,29.8,37.3,36.9s30.9,12.6,34,30.6c3,18,0.5,43.7-2.2,49.1
			C546.6,72.9,540.5,73.8,534.4,71.3L534.4,71.3z"/>
		<path id="path33380" class="st6" d="M516.9-144.4c-0.8,0-1.6,0.3-2.4,1.2c-3.7,3.8,9.5,12.3,1.3,31.6
			c-8.2,19.3-29.1,25.4-36.9,32.1c-5.2,4.4-11.7,11.9-11.2,24.8c12.4-30.7,28.6-27.6,37.8-35.5c11.1-9.5,11.6-17.7,11.7-15
			c0,1.9-1.7,7.9-3.5,13.2c13.8-11.1,12.2-28.9,10.2-39C522.4-139,519.8-144.3,516.9-144.4z"/>
	</g>
	<path id="path21356" class="st0" d="M161.8,717.2c19.3,175.6-40.3,302.6,4.9,443.9c26.2,81.9,177.1,159.8,325.6,95.4
		c155.4-67.3,103.6-348.6,108.6-456.7c5.7-124.1,150.4-187.9,120.4-388.2c-30-200.3-233.2-229.7-396.1-195.9
		c-162.9,33.8-157.3,205.3-178.2,227.9c-26.4,28.6-27.9,103.7-19.3,144.2C136.2,628.3,161.8,717.2,161.8,717.2z"/>
	<path id="path21358" class="st7" d="M198,663.6c15.7,142.6-33.1,369.2,3.6,484c21.3,66.5,152.2,134.8,272.9,82.5
		c126.2-54.7,83.9-361.4,87.9-449.2C567,680,711,581.7,686.6,419c-24.4-162.7-221.8-195.3-354.2-167.8
		c-132.4,27.4-140.6,200.4-149.4,206.3c-30.3,20.5-25.9,82.1-16.4,111C177.2,600.4,198,663.6,198,663.6L198,663.6z"/>
	<path id="path21360" class="st8" d="M471.8,251.9C247.4,267.4,212,372.8,232.7,403.8c20.7,31,227.3,43.4,301.1-21.7
		C607.6,317,471.8,251.9,471.8,251.9L471.8,251.9z"/>
	<path id="path21362" class="st9" d="M688.6,438.2c-2.5,36.2-26,116.7-100,207.3c-19.1,23.3-32.1,43.2-41,61.5
		c-13.9-13.5-42.3-8.2-43.8,31.8c-0.8,21.1,13.7,29.5,27.5,28.6c-2.8,35.9,4.1,74.4,5.6,132.3c1.4,53.9,3.4,120.9-8.4,178.3
		c-4.9,3.6-9.2,9.2-9.2,9.2c-8.7,12.2-7.3,26.3-1.9,30.2c-6.6,17.5-15.3,33.4-26.6,46.4c10-13.8,12.4-33.7-12.9-51.8
		c-31.1-22.3-115,50-48.9,87.4c-86.4,19-192.1-0.8-238.3-108.9c2.2,20.9,5.6,40,10.9,56.8c21.3,66.5,152.2,134.8,272.9,82.5
		c126.2-54.7,84-361.3,88-449.2C566.8,684,699.4,589.5,688.6,438.2L688.6,438.2z M490.2,800.6c-5.7,0-9.4,1.4-9.4,1.4
		c-59,17-26.5,102.4,14.8,83.8c41.3-18.6,32.3-65.1,16.1-77.5C503.6,802,496,800.6,490.2,800.6L490.2,800.6z M485.7,942.1
		c-9.2,0-16.5,8.4-16.5,18.7c0,10.3,7.3,18.7,16.5,18.7c9.2,0,16.7-8.4,16.7-18.7C502.5,950.5,495,942.1,485.7,942.1z M503.8,1022.8
		c-6.9,0.5-12.7,3.8-12.7,3.8c-35.4,31-10.3,65.1,11.8,49.6c22.1-15.5,22.1-44.7,11.8-50.9c-2.6-1.6-5.2-2.3-7.9-2.5
		C505.8,1022.7,504.7,1022.7,503.8,1022.8L503.8,1022.8z M417.9,1032c-11,0-19.7,9.2-19.7,20.7c0,11.5,8.8,21,19.7,21
		c11,0,20-9.5,20-21C437.9,1041.3,428.8,1032,417.9,1032z M256.2,1093.3c-8.1,0-14.6,9.8-14.6,21.9c0,12.1,6.5,22.1,14.6,22.1
		c8.1,0,14.6-10,14.6-22.1C270.8,1103.1,264.3,1093.3,256.2,1093.3z M365.3,1117.4c-0.9,0.1-1.7,0.4-2.6,0.7
		c-13.3,4.6-19.9,6.2-23.6,14c-16.2,23.2,25.2,40.2,39.9,20.1C392.9,1133.3,378.1,1115.7,365.3,1117.4L365.3,1117.4z"/>
	<path id="path21364" class="st10" d="M412.1,242.6c-27.8,0.5-54.8,3.4-79.6,8.6C200.1,278.6,191.8,451.6,183,457.6
		c-30.3,20.5-25.8,82-16.3,110.9c10.5,31.9,31.3,95.1,31.3,95.1c0.5,4.5,0.9,8.9,1.3,13.5c17.6-74-22.6-79-14.2-133.6
		c10.4-67.9,29.3-74.7,62.7-61.5c33.4,13.1,45.9,21.9,35.4,6.5C272.9,473.1,229,447,229,447s-8.2-153.5,148.3-168.8
		c157.4-15.4,271.4,59.1,273.5,188.4c1.4,88.4-23.4,152.7-39.3,196.1c40.9-67.2,90.2-143,75.1-243.6
		C666.9,286.8,532.7,240.6,412.1,242.6L412.1,242.6z"/>
	<path id="path21366" class="st0" d="M143.7,497.3c24-47.1,71-41.6,83.5-35.1c12.5,6.6,14.6,13.1,11.5,5.5
		c-3.1-7.7-23-29.6-42.8-35.1c-19.8-5.5-23,3.3-31.3,13.1C156.2,455.6,143.7,497.3,143.7,497.3L143.7,497.3z"/>
	<g id="g21368" transform="matrix(15.120422,0,0,15.120422,1203.2088,-769.59772)">
		<path id="path21370" class="st0" d="M-48.1,97.4c0,6-4,10.9-9,10.9s-9-4.9-9-10.9c0-6,4-10.3,9-10.3S-48.1,91.3-48.1,97.4
			L-48.1,97.4z"/>
		<path id="path21372" class="st11" d="M-47.8,97.7c0,4.6-3.5,8.8-7.8,8.8c-4.3,0-7.8-4.2-7.8-8.8c0-4.6,3.5-7.9,7.8-7.9
			S-47.8,93-47.8,97.7z"/>
		<path id="path21374" class="st12" d="M-59.9,91c-2.1,1.4-3.6,3.8-3.6,6.7c0,4.6,3.5,8.8,7.8,8.8c2.9,0,5.5-1.9,6.8-4.5
			c-0.9,1.2-2,2.2-5.5,3.1C-60.1,105.9-66.3,97.8-59.9,91z"/>
	</g>
	<g id="g21376" transform="matrix(13.581817,-0.05366175,0.22353345,15.868403,1804.7154,-1987.8271)">
		<path id="path21378" d="M-106.8,170c0,1.7-1.3,3.1-2.9,3.1s-2.9-1.4-2.9-3.1c0-1.7,1.3-3.1,2.9-3.1S-106.8,168.4-106.8,170z"/>
		<path id="path21380" class="st12" d="M-110.9,167.7c0,0.5-0.4,0.9-0.8,0.9s-0.8-0.4-0.8-0.9s0.4-0.9,0.8-0.9
			C-111.2,166.8-110.9,167.2-110.9,167.7z"/>
	</g>
	<path id="path21402" class="st13" d="M469.1,582.8c-18.8,19.7,10.4,52.6,33.4,32.9c23-19.7,0-48.2-16.7-46
		C469.1,571.8,469.1,582.8,469.1,582.8z"/>
	<g id="g21404" transform="matrix(9.2246127,0,0,9.2246127,2597.9045,-887.11858)">
		<path id="path21406" class="st14" d="M-230.2,145c-4.7,4.2-9,19.7,2.9,21.8c11.9,2.1,15.7-18.8,8.9-22.7S-230.2,145-230.2,145z"/>
		<path id="path21408" class="st15" d="M-228.5,147.8c-3.4,3.2-6.5,14.9,2.1,16.5c8.6,1.6,11.3-14.2,6.4-17.2
			C-225,144.1-228.5,147.8-228.5,147.8L-228.5,147.8z"/>
	</g>
	<path id="path21418" class="st10" d="M338.4,413.9c-13.9-0.3-8.8,17.4-8.8,17.4c-3,18.6,20.6,34.1,33.9,23.2
		c13.3-10.8-4.4-37.2-22.1-40.3C340.3,413.9,339.3,413.9,338.4,413.9L338.4,413.9z M503.4,451.1c-9.3,0.4-14.4,3.4-14.4,3.4
		c-36.9,7.7-38.4,66.7,13.3,51.2c51.7-15.5,44.3-43.4,22.1-51.2C516.2,451.6,509,450.9,503.4,451.1L503.4,451.1z M434.3,866.7
		c-9.4-0.4-13.1,14-13.1,14c-17.7,32.5,1.4,46.5,19.1,38.8c17.7-7.7,16.3-38.7,1.5-49.6C439.1,867.8,436.5,866.8,434.3,866.7z"/>
	<path id="path21450" class="st16" d="M411.6,341.5c-48,24.1-55.2,52.8-36.4,68.2c18.8,15.3,33.5-14.5,60.8-22.9
		c31.8-9.7,52.6-11.7,48.5-33.6c-4.2-21.9-15.1-27.5-40.8-21.9C423.9,334.9,411.6,341.5,411.6,341.5L411.6,341.5z"/>
	<path id="path21452" class="st16" d="M525.5,713c-14.6,32.9-12.5,87.7,6.3,96.4c18.8,8.8,28.4-8.8,24.2-24.1
		c-2.5-22.2,3.5-31.2,7.7-57.5c4.2-26.3-6.5-27.8-14.6-30.8C538.5,693.9,528.3,703.6,525.5,713L525.5,713z"/>
	<path id="path21454" class="st17" d="M433.1,964.4c-18.8,28.5,4.2,61.4,25,43.8c20.9-17.5,14.6-54.8,0-57
		C443.6,949,433.1,964.4,433.1,964.4z"/>
	<path id="path21456" class="st18" d="M270.8,370.8c-23,26.3-2.1,62.9,29.2,54.2c31.3-8.8,14.6-50.4,0-57
		C285.4,361.4,277.2,365.8,270.8,370.8z"/>
	<g id="g21410" transform="matrix(9.2246127,0,0,9.2246127,2600.3669,-872.20773)">
		<path id="path21412" class="st0" d="M-257.1,148.9c-3.4,3.7-1.9,10.7,0.2,12.4c2.1,1.7,26.3,3.4,29.3,1.3
			c3.1-2.1,2.7-11.5-0.1-12.8C-230.4,148.7-255.5,146.7-257.1,148.9L-257.1,148.9z"/>
		<path id="path21414" class="st19" d="M-254.2,152c-2.7,3-1.3,5.8,0.4,7.2c1.7,1.4,20.7,3,23.1,1.4c2.5-1.7,2.6-6.5,0.4-7.5
			C-232.5,152.2-252.9,150.3-254.2,152z"/>
		<path id="path21416" class="st20" d="M-246.4,151.7c-4.1-0.3-7.4-0.3-7.9,0.3c-2,2.2-1.7,4.2-0.8,5.7c0.1-2,1.1-4.4,1.9-4.4
			c0.9,0,20.6,0.8,22.4,1.6c1.4,0.6,1.7,2,1.8,3.1c0.5-2,0.1-4.3-1.3-4.9C-231.7,152.5-239.6,152.3-246.4,151.7L-246.4,151.7z"/>
	</g>
	<path id="path21485" class="st3" d="M338.1,112.4c-30,38.4-11.8,68.9,13.2,98.3c25.1,29.4,3.8,42.7-0.6,53.6
		c-4.3,11.1,17.2,32.8,45,28.4c26.2-0.9,23.5-33.8,24.9-47.8c1.5-27.1-11.5-42.8-37.3-65.8c-19.6-17.4-19-28.5-13.5-42.6
		c7.5-17.6-0.8-31.6-5.9-34.1C355.4,97.7,347.5,101.4,338.1,112.4L338.1,112.4z"/>
	<g id="g33190">
		<path id="path21462" class="st3" d="M147.4,99.7c-11.4,1.4-16.5,12.7-16.4,23.2c-1.7,16.6-1.2,31.1,9.3,44.8
			c10.6,15.6,21.2,18.5,36.4,26.8c11.2,4.9-8,13.1-12.9,16.3c-19.4,10.4-38.1,15.4-49.8,36.3c-9.1,14.9-2.6,43,9.5,55
			c21.2,24.5,40.1,23.8,60.8,29.6c9.8,3,21,11.2,23.9,23.3c16.9,19.9,38.3-8.3,44.1-16.2c16.2-16.9,12.8-40.3,5.7-49.3
			c-14.6-19.7-51.1-4.6-73.2-9.1c-8.7-3.2-16.3-5-20.5-14.6c4.1-9,14-11.4,22.1-16.3c18.4-8.9,28.7-15.4,37.9-36.1
			c8.1-16.5-1.8-41.5-16.6-51.2c-12.2-8.7-27.1-6.8-38.5-23.3c-2.7-7.1-4.7-12.4-3.4-23.1C166,105.1,157.4,97.8,147.4,99.7
			L147.4,99.7z"/>
		<path id="path32672" class="st4" d="M244.7,351.2c-34.2,9-16.6-21.9-27.1-34.3c-10.5-12.4-63.7-5.5-80.2-33.1
			c-16.4-27.6,3.3-42.8,21-51.7c17.7-9,36.8-4.8,38.1-33.1c1.3-28.3-32.9-24.1-44-38.6c-11.2-14.5-10.5-42.8-5.3-44.8
			c5.3-2.1,1.3,17.2,4.6,26.2c3.3,9,14.5,20,33.5,26.9s23.7,26.2,17.7,42.8c-5.9,16.6-30.4,22.9-42.1,27.6
			c-17.1,6.9-26.9,33.1-8.5,45.5s58.5,17.9,71,22.8c12.5,4.8,28.9,2.8,34.2,9c5.3,6.2,2.8,17.9-1.1,24.1
			C252.6,346.5,246.5,351,244.7,351.2z"/>
		<path id="path33386" class="st6" d="M147.8,115.3c-0.1,0-0.3,0.1-0.5,0.1c-5.3,2.1-5.9,30.3,5.3,44.8c11.2,14.5,45.3,10.3,44,38.6
			c-0.3,6.4-1.5,11.1-3.4,14.7c1.7-1.8,3-3.9,4-6.4c5.9-15.2-1.3-24.1,0.7-21.4c0.9,1.3,4,7.4,7.6,13.2c0.4-12.9-5.7-25.2-20.1-30.4
			c-19.1-6.9-30.2-17.9-33.5-26.9C148.7,133,152.3,114.6,147.8,115.3z"/>
	</g>
	<path id="path33182" class="st4" d="M341.2,135.4c6.5-18.5,18.1-18.7,18.2-9.9c0,4.6-8.6,21.3-5.8,34c2.8,12.7,28.6,33.2,40.2,49.3
		c11.6,16.1,8.7,35.1,6.9,50.2c-1.9,15.1-4.9,27.2-7,30.7c-3.3,5.6-18.1,7.4-24.6,0.5c-5.6-6-3.1-13.2,3.9-23.4
		c7-10.2,13.6-34.6,6.2-49.7c-7.4-15.1-32.9-36.6-38.4-51.7C335.1,150.3,341.2,135.4,341.2,135.4L341.2,135.4z"/>
	<g id="g33194" transform="matrix(0.09272631,1.0484651,-1.1468586,0.1975613,16.194651,231.11295)">
		<path id="path33196" class="st3" d="M88.3-689.2c-12,1.3-18.5,16.1-18.3,26.1c-1.6,15.8-0.4,26.5,9.7,39.5
			c8.5,10.1,14.5,14.8,30.5,22.8c11.8,4.8,10.3,19.2-13.4,25.5c-20.2,9.9-32.2,10.1-44.3,30c-9.4,14.2-4.7,38.8,8.1,50.3
			c22.5,23.5,42.4,21.3,64.1,26.9c10.3,2.9,21.8,12.3,25,23.9c17.9,19,44.7-9.1,50.7-16.6c16.9-16,6.5-34.2-1-42.8
			c-15.5-18.9-41.3-15.5-64.4-19.9c-21.3,0.4-23.3-12.8-4-20.8c19.2-8.4,29.5-16.6,38.9-36.3c8.3-15.7-3.6-36-19.2-45.2
			c-12.9-8.4-21.5-1-37.7-20.2c-10.4-14.2-6.6-17.6-5.3-27.9C107.8-684,98.8-691,88.3-689.2L88.3-689.2z"/>
		<path id="path33198" class="st4" d="M191.2-448.7c-23.4,15.9-20.4-9.1-31.5-21c-11.1-11.9-69.2-15.8-86.6-42.2
			c-17.5-26.4,8.4-38.6,26.6-48.8c11.9-6.7,35.3-7.1,36.5-34.1c1.1-27-30.1-22.8-41.9-36.6s-11.4-40.8-5.9-42.8
			c5.5-2,1.5,16.4,5.1,25c3.5,8.6,15.3,19.1,35.4,25.8c20,6.7,25,25.1,19,40.8c-6.1,15.8-26.5,23.1-37.5,29.5
			c-18.7,10.9-30.5,25.2-11.1,37.1c19.4,11.9,59.9,13.1,73.2,17.4c16.3,5.3,24.6,3.5,29.8,18.7C204.1-466.9,207.6-461.9,191.2-448.7
			L191.2-448.7z"/>
		<path id="path33377" class="st6" d="M85.1-667.5c-1.5,9.3,0.7,26.1,9.2,36c11.8,13.9,43.1,9.7,41.9,36.6
			c-1.1,27-24.5,27.4-36.5,34.1c-18.3,10.3-44.1,22.5-26.7,48.8c12.8,19.3,47.3,26.6,69.2,33.7c-24.7-17.1-58.6-29.2-60.8-47.8
			c-3.2-28.3,31.3-30.1,51-47.2s8.8-35.2-1.4-45.1c-6.5-6.2-16.2-6.1-22.1-14.5c-8.2-5.4-13.5-11.3-15.6-16.5
			c-3.5-8.6,0.4-27-5.1-25C86.8-673.6,85.7-671.1,85.1-667.5L85.1-667.5z"/>
	</g>
	<path id="path33366" class="st6" d="M354.7,119.8c-4,0-9.7,4.6-13.5,15.6c0,0-6.1,14.9-0.5,30c2.8,7.7,10.8,17,18.9,26.3
		c-7.8-13.1-14.4-26.4-13.2-34.9c2.6-17.9,6.6-20,4.6-16.6c-2,3.4-5.3,14.5,3.3,29.7s17.7,20.7,30.9,32.4c4.2,3.7,7.7,6.9,10.8,9.8
		c-0.7-1.1-1.4-2.2-2.1-3.3c-11.6-16.1-37.4-36.6-40.2-49.3c-2.8-12.7,5.9-29.4,5.8-34C359.4,122,357.5,119.8,354.7,119.8z"/>
	<g id="g33594" transform="translate(-85.580799,-10.47697)">
		
			<rect id="rect33596" x="114.2" y="684.4" transform="matrix(0.3021 -0.9533 0.9533 0.3021 -626.0185 744.3281)" class="st21" width="162.3" height="230.6"/>
		<g id="g33598" transform="matrix(0.98402266,-0.17804326,0.17804326,0.98402266,-134.07798,13.275417)">
			<g id="g33600" transform="matrix(11.179406,-0.39667889,0.39667889,11.179406,3290.6085,-1248.6084)">
				<path id="path33602" class="st0" d="M-277.8,183c-1.7,1.8-4.5,1.9-6.8,0.6c-2.6-1.4-4.7-3.8-6.8-6.6c-1.5-2.1-2.1-4.6-0.5-6.4
					c1.7-1.8,5-2.3,6.5-0.2c1.8,2.4,3.5,4.6,6.6,6.5C-276,178.7-276.2,181.2-277.8,183L-277.8,183z"/>
				<path id="path33604" class="st1" d="M-277.4,183.4c-0.8,0.9-2.1,0.7-3.2,0.1c0,0-3.7-1.4-5.9-3.6c-1.5-1.3-5.3-5.3-3.5-7.4
					c0.8-0.9,2.6-1.3,3.5,0.1c0,0,1.9,2.4,3.1,3.8c1.8,2,5.6,4,5.6,4C-276.7,181.1-276.6,182.5-277.4,183.4L-277.4,183.4z"/>
				<path id="path33606" class="st22" d="M-277.6,180.3c0,0-3.8-1.9-5.6-4c-1.2-1.3-3.1-3.8-3.1-3.8c-0.9-1.5-2.7-1-3.5-0.1
					c-0.7,0.9-0.5,2,0,3.1c-0.4-1.1-0.2-1.6,0.6-2.3c1.1-1.1,2.5,0,3.2,1.2s2.7,3.4,4.4,4.4c1.7,1,3.3,1.1,4,1.6
					c0.8,0.5,0.4,0.6,0.7,0.9c0,0,0.1,0.1,0.2,0C-277,181-277.3,180.6-277.6,180.3z"/>
			</g>
		</g>
	</g>
	<path id="path33628" class="st23" d="M346.6,874.2c-14.7,11-7.9,30.4,8.9,24.3s16.8-26.5,9.5-29.8
		C357.6,865.4,346.6,874.2,346.6,874.2z"/>
	<path id="path33630" class="st24" d="M287.6,1029.9c4.2,38.6,44.1,33,51.9,47.1s-3.4,31.1-25.5,30.6c-22.1-0.4-64-26.8-67.3-71
		c-3.3-44.1,23.2-37.2,33-25.3C289.5,1023.2,287.6,1029.9,287.6,1029.9L287.6,1029.9z"/>
	<g id="g33594_1_" transform="translate(-85.580799,-10.47697)">
		
			<rect id="rect33596_1_" x="607.2" y="725.6" transform="matrix(0.9533 -0.3021 0.3021 0.9533 -209.9572 255.9333)" class="st21" width="230.6" height="162.3"/>
		<g id="g33598_1_" transform="matrix(0.98402266,-0.17804326,0.17804326,0.98402266,-134.07798,13.275417)">
			<g id="g33600_1_" transform="matrix(11.179406,-0.39667889,0.39667889,11.179406,3290.6085,-1248.6084)">
				<path id="path33602_1_" class="st0" d="M-246.8,190.4c-0.8-2.4,0.1-4.7,3.3-5.1c3.6-0.4,6.1-1.7,8.7-3.2
					c2.2-1.3,5.1,0.5,5.9,2.9c0.8,2.4-0.8,4.4-3.1,5.6c-3,1.7-5.9,3-8.9,3.2C-243.4,194-246,192.8-246.8,190.4L-246.8,190.4z"/>
				<path id="path33604_1_" class="st1" d="M-247.4,190.6c-0.4-1.1,0.3-2.4,1.5-2.7c0,0,4.3-0.2,6.8-1.3c1.7-0.7,4.4-2.1,4.4-2.1
					c1.4-1,2.9,0.2,3.3,1.3c0.7,2.7-4.4,4.7-6.3,5.3c-2.9,1.1-6.8,0.9-6.8,0.9C-245.8,192.1-247,191.7-247.4,190.6L-247.4,190.6z"/>
				<path id="path33606_1_" class="st22" d="M-247,188.6c0.1,0,0.1,0.1,0.2,0c0.4-0.1,0.1-0.4,1-0.5s2.4,0.4,4.3,0.2
					c1.9-0.2,4.8-1.4,5.8-2.2c1-0.8,2.8-1.3,3.4,0.2c0.3,1,0.3,1.5-0.5,2.4c1-0.8,1.6-1.8,1.3-2.8c-0.4-1.1-1.8-2.3-3.3-1.3
					c0,0-2.8,1.4-4.4,2.1c-2.5,1.1-6.8,1.3-6.8,1.3C-246.3,188-246.7,188.3-247,188.6z"/>
			</g>
		</g>
	</g>
</g>
</svg>
