<svg id="Layer_1" data-name="Layer 1" xmlns="http://www.w3.org/2000/svg" viewBox="0 0 861.38 1113.2"><defs><style>.cls-1{fill:#04a;}.cls-1,.cls-8{fill-opacity:0;}.cls-2{fill:#01130e;}.cls-3{fill:#1eefba;}.cls-4{fill:#10dca8;}.cls-5{fill:#fb0;}.cls-6{fill:#ffde00;}.cls-7{fill:#ff0;}.cls-8{fill:#450;}.cls-9{fill:#0a8667;}.cls-10{fill:#f3f3f3;}.cls-11{fill:#fff;}.cls-12{opacity:0.29;isolation:isolate;}.cls-13{fill:#130113;}.cls-14{fill:#ffa5ff;}.cls-15{fill:#d34ad3;}.cls-16{fill:#ffceff;}.cls-17{fill:#f472f4;}</style></defs><path id="rect11304" class="cls-1" d="M0,870.9H440.4" transform="translate(0 0.1)"/><g id="g17915"><g id="g17917"><g id="g17919"><g id="g17921"><path id="path17925" class="cls-2" d="M558.8,685.7c57.1-25.4,56.7,55.1,83.1,91.9s62.7,35.8,92.2,69.9c19.5,22.6,30.8,54.4,15.1,88.7-14,30.4-46.1,34.1-67.7,19.6-19.5-13.1-5.3-28-27.4-53.6-21.7-25.2-44.4-13.8-69.7-41.7-30.1-33.2-55.1-84-62.9-115.3-3.8-15.2-2.4-24,1.4-29.6,12.3-18.2,35.9-29.9,35.9-29.9Z" transform="translate(0 0.1)"/><path id="path17927" class="cls-3" d="M596.7,724.1c15,32.3,21.3,77.6,59.7,97.9,24.1,14,47,22.2,61.8,36.7,17.9,16.4,28.2,53.6,11,73.3-13.8,14.9-43.3,11.3-43.1-21.2-12.8-25.8-24.8-35.6-74.4-55-40.3-18-61.2-73.1-76.1-107.5-18.5-29.3-10.5-50.2,10.1-61.5C575.3,669.9,588.2,703.6,596.7,724.1Z" transform="translate(0 0.1)"/><path id="path17929" class="cls-4" d="M525.9,711c2.5,8.7,6.7,21.2,13.9,39.4,17.2,43.2,54.9,90.1,93.3,99.9,25.2,6.4,58.4,26.2,61.7,29.8s1,26.3,7.6,33.3c6,6.3,19.3,12.8,35.3-12.5,1,11.5-1.3,22.9-8.5,31.1-13.8,14.9-43.3,11.4-43.1-21.1-12.8-25.8-24.9-35.7-74.5-55.1-40.3-18-61.2-72.6-76.1-107.1C528.7,734.1,524.6,721.4,525.9,711Z" transform="translate(0 0.1)"/><path id="path17931" class="cls-5" d="M545.8,686.8c29.5-16.8,42.4,16.8,51,37.3,15,32.3,21.3,77.5,59.6,97.8,24.1,14,47.1,22.3,61.9,36.7,16.2,14.8,26,46.5,15.2,67,2.3-10.3,3.4-33.2-22.7-57.3-32.1-29.5-56.5-20.2-92.5-58.2S580.6,701,570,692.6c-9.4-7.5-29.9-1.2-33-.6.6-.3,8.1-4.7,8.8-5.2Z" transform="translate(0 0.1)"/></g></g></g><g id="g18027"><g id="g18029"><path id="path18031" class="cls-1" d="M387.7,763.3h228v304.9h-228Z" transform="translate(0 0.1)"/><path id="path18033" class="cls-2" d="M508.8,776.5c-15.3.4-34.6,11.6-34.6,32.2-2.7,41.9,1.9,53.8,4.7,94.1,3.7,32.5-6.9,84.2-9.3,116.2-.5,14.8,1.5,37.5,26.5,46.1,10.9,4.6,39.5-.3,44.5-20.4,17.3-53.9,14.7-95.7,16.9-145.6.4-28.2-1.5-53.5-4-95.4-2.5-25.4-30.1-29.5-44.7-27.2Z" transform="translate(0 0.1)"/><path id="path18035" class="cls-6" d="M511.2,773.1c-17.4,4-23,27.3-22.1,42.4.9,51.9,11.5,124.3-.8,175.3-2,19.2-5.3,54,15.5,58.1,15.4,2.9,21.7-13.5,23.4-29a492,492,0,0,0,13.3-121.5c.9-33,4.2-77.1-2.5-109.4C535.9,770.3,518.6,771.3,511.2,773.1Z" transform="translate(0 0.1)"/><path id="path18037" class="cls-5" d="M541.9,854.5c-1.7,8.1-1.7,43.2-3.8,68.5-2.5,30.4-12.6,85.9-19,96.9-5.8,10.1-20.6,27.5-30.8,10.1,2,9.5,6.4,17.2,15.4,18.9,15.4,2.9,21.7-13.6,23.4-29a491.77,491.77,0,0,0,13.3-121.4C540.8,885.2,541.6,869.9,541.9,854.5Z" transform="translate(0 0.1)"/><path id="path18039" class="cls-7" d="M506.4,774.9c-13.6,6.8-18,27-17.2,40.6.9,51.9,11.6,124.3-.8,175.4-2,19.2-5.4,54,15.4,58.1a15.22,15.22,0,0,0,13.9-4c-2.7.3-5.9.8-9.3,1.3-10.8,1.4-13.4-9.1-15.3-27.8s17.8-69.8,14.6-103.8C504.7,882.9,488.8,816.2,506.4,774.9Z" transform="translate(0 0.1)"/></g></g><g id="g18041"><g id="g18043"><path id="path18047" class="cls-2" d="M565.9,740.6c-12.3,4.8-18.8,15.4-22.7,28.2.3,31.1,10.4,61.2,19.9,90.4,18.2,45.8,38.6,91.4,44,141.6.1,19.6,15.5,36,33.4,33.8,18.3.5,41.5-5.3,48.3-25.2,5.1-31.6-9-61.8-17.5-91.2-17-51.8-33.5-104.2-43.1-158.3-5-21.6-29.2-27.8-47.2-23.9-5,1.1-10.3,2-15.1,4.6Z" transform="translate(0 0.1)"/><path id="path18049" class="cls-6" d="M573.2,727.5c-16.8,8.2-15.1,32.5-11.4,47.5,11.5,66.2,60,151.8,66,219.6,1.5,9.8,7.3,24.4,29.9,16.4,21-5.8,5.6-37.3,2.9-54.7-13.5-54.9-43.7-144.7-49.3-201.8-1.8-16.5-10.2-22.4-23.3-27.7C583.2,725.9,577.7,724.7,573.2,727.5Z" transform="translate(0 0.1)"/><path id="path18051" class="cls-5" d="M564,749.4c-4.4,10.8-2.8,25.2-.2,35.3,11.5,66.2,58.1,142.2,64.1,209.9,1.5,9.8,7.4,24.3,29.9,16.2a13.43,13.43,0,0,0,7.5-4.8,43.61,43.61,0,0,1-18.6-2.3c-10.1-3.5-7.7-15.1-12.5-36s-17-62.6-35-99.4C582,833.2,566,794.9,564,749.4Z" transform="translate(0 0.1)"/><path id="path18053" class="cls-5" d="M620.5,807.7c-.3,49.2,25.8,127.1,34.1,151.1,7.8,22.7,9.6,40.9,7.3,50.4,14.6-8.8,1.3-36.9-1.3-52.9C650.2,914.3,631.3,857.6,620.5,807.7Z" transform="translate(0 0.1)"/></g></g><g id="g18055"><g id="g18057"><g id="g18059"><path id="path18061" class="cls-8" d="M311.5,652.1,519,761.9,395.2,1039.3,187.8,929.5Z" transform="translate(0 0.1)"/><path id="path18063" class="cls-2" d="M425.8,722.3c-16.4-8.5-38.3-15.1-49.6,3.5-16.4,22.8-17.7,58.5-43.5,72.7-15.3,12.6-36.5,10.2-56.1,11.7-14.8-.7-26.5,5.6-37.5,14.8-20.1,17.8-32.8,50.7-19.6,76.8,9.1,21.4,36.9,31.4,56.3,22.7,7.5-2.6,13.9-13.7,20.8-19.8,12-8.3,29.9-7,44.1-12.3,33.7-8.3,68.3-26,84.7-61,12.1-24.1,25.4-49.3,27.5-77-2.3-12.5-9.1-23.8-20.5-29.1-2.1-1.4-4.5-2-6.6-3Z" transform="translate(0 0.1)"/><path id="path18065" class="cls-6" d="M426.5,721.3c-15.5-9.6-30.3,4.6-37.2,19.7-14.2,25-26.9,73.8-57.7,82.9-36,9.8-40.2,7.5-59.8,9.9-19.9.6-40.4,25.2-35.3,47.6,1.7,10.9,15.3,23.5,27.8,20.1,14.5-2.5,11.1-12.5,19.4-17.2,10.1-5.2,30.6-9.2,52.7-13,61.9-13.6,93.6-78.4,104.9-129.2-.4-8.2-5.6-18.7-14.8-20.8Z" transform="translate(0 0.1)"/><path id="path18067" class="cls-5" d="M441,740.6c-2.1,4-6.2,12.4-13.6,31.1-11.2,28.6-39.5,73.9-88.7,83.2-40.5,7.7-59,9.1-60,13.5s-6.8,16.4-14.9,19.1c-7.6,2.5-23.9-1.9-23.6-31.3-4,7.7-5.8,16.6-3.9,25.1,1.7,10.9,15.3,23.5,27.7,20.2,14.5-2.5,11.2-12.5,19.5-17.2,10.1-5.3,30.6-9.2,52.6-13C398,857.7,429.7,792.8,441,742A6.55,6.55,0,0,0,441,740.6Z" transform="translate(0 0.1)"/><path id="path18069" class="cls-7" d="M419.9,718.7c-13.1-2.9-24.7,9.4-30.7,22.3-14.2,25-27,73.7-57.8,82.8-36,9.8-40.1,7.6-59.7,9.9-19.2.6-38.8,23.3-35.7,44.9,2.4-9.4,8.9-23.1,23.4-29.8,21.2-9.8,57.3,3.4,89.7-22.6s39.3-74.7,51.7-91.3C409.8,722.8,415.8,719.2,419.9,718.7Z" transform="translate(0 0.1)"/></g></g></g><g id="g18071"><g id="g18073"><path id="path18077" class="cls-2" d="M409.3,771.2c-14.7-.2-32,5.2-34.8,22.7-4.3,28.1-1.4,56.8-1.4,85.1-1.8,28.5-10.4,56.5-26.2,79.3-4.8,9.2-16.7,16.7-17.9,29.5-6.5,28.9,7.9,63.5,35.8,69.6,19.9,6.4,46.2,7.5,59.5-12.7,14.3-16.6,9.9-41.3,12.1-62.2,16.6-41.8,28.9-87.1,24.4-133.1-2.3-19.7-2.7-39.9-6.1-59.2-6.8-18.3-29.5-19.8-45.4-19Z" transform="translate(0 0.1)"/><path id="path18079" class="cls-6" d="M407.9,769.4c-16.6,1.6-19.1,23.6-17,38.1-.6,50.5,6.5,104.1-17.7,149.3-5,13.4-22.3,25.4-20.5,55.4-.3,24.5,41.9,35.8,54,15.7,8.3-17.9,0-23.9,11.2-57.3,12.4-37,24-66.7,27.4-97.7,2.8-27.5-3-59.5-5.3-88.1-.1-13.8-24.9-17-32.1-15.4Z" transform="translate(0 0.1)"/><path id="path18081" class="cls-5" d="M442.6,811.9c.6,15.3-.4,45-4.2,63.3-4.5,21.5-34.3,85.1-36.9,99.6s5.7,51.3-8.2,53.4c-12.8,1.9-35,1.9-40.2-28a68.82,68.82,0,0,0-.4,12c-.3,24.5,41.9,35.9,54,15.7,8.3-17.9,0-24,11.2-57.4,12.4-37,24-66.6,27.3-97.6,2-18.9-.3-40.2-2.6-61Z" transform="translate(0 0.1)"/><path id="path18083" class="cls-7" d="M394.7,778.5c-4.5,8.1-5.1,20-3.8,29-.6,50.5,6.5,104.1-17.6,149.3-5,13.4-22.3,25.3-20.5,55.4-.1,9.3,5.9,16.7,14.1,21.2a32.66,32.66,0,0,1-4.7-4.4c-5.7-6.9-8.8-20.1,2.6-40.1s43.1-69.2,38.7-110C399.4,842.4,388,811.3,394.7,778.5Z" transform="translate(0 0.1)"/></g></g><g id="g18085"><path id="path18087" class="cls-2" d="M362.9,862.7C222,627.3,310.5,396.6,325,335s-30.7-128.5,55-195.4,218-7.1,250.4,59.9S590,426.6,620.7,535.8s63.5,109.1,64.4,216.6c1.4,169.3-233.5,248.2-322.2,110.3Z" transform="translate(0 0.1)"/><path id="path18089" class="cls-6" d="M382.8,841.6C263.5,642.3,326,410.8,344.9,336.7c20.4-80.4-19.5-115.9,53-172.5s182.3-11.9,208.4,45.4c33.8,74.3-48.8,197.6-8.2,342.8,25.8,92.5,63.2,104.7,63.9,195.7C663.2,891.6,457.8,958.3,382.8,841.6Z" transform="translate(0 0.1)"/><path id="path18091" class="cls-6" d="M593.3,189.5a169.12,169.12,0,0,1,9,34.4c8,51-16.1,64.8-41.2,181.8s46,204.5,61.1,246.5c17.2,47.6,46.8,194.4-78.3,220.3-72.6,15-146.9-12.2-197.8-106.8a477.58,477.58,0,0,0,36.6,75.9c75,116.7,280.4,50,279.2-93.4-.8-91-38.2-103.3-64-195.8-40.5-145.2,42.2-268.5,8.3-342.8A85,85,0,0,0,593.3,189.5Z" transform="translate(0 0.1)"/><path id="path18093" class="cls-5" d="M480.9,138c-33.7,4.2-77.5,27.9-98.9,40-27.6,27-30.6,49.9-30.6,77.3a64.51,64.51,0,0,0,8.5,2.7s15.4,27.3,54.2,24.6,50-31.7,50-31.7,24.3,10.6,42.1,8.9,30-34.4,30-34.4-.7,13.2,2.5,20.3,2.3,9.6,2.3,9.6-5.1,5.1-6.2,15.6a20.34,20.34,0,0,0-8,2.2c-28.6,29.9-9.1,68.5,11.5,59.8,8.1-3.4,13.6-10.5,16.8-18.8,9.6,7.5,21.1,11.8,31.2,11.8,18.6,0,21.8-28.9,21.8-33.3s2.5-39.7,2.5-39.7a233.23,233.23,0,0,0,1.2-26.4,82.59,82.59,0,0,0-5.5-16.8C589.2,171.9,536,139.7,480.9,138Z" transform="translate(0 0.1)"/><path id="path18095" class="cls-6" d="M335.3,375.9c-9.2,39.4-19.9,94.5-22.8,157.5,37.3,9.1,61.2-11.2,61.2-11.2s24,32.2,70.8,22.3,58.3-99.5,56-113.2S389.6,384,367.9,379C360.5,377.3,348.7,376,335.3,375.9Z" transform="translate(0 0.1)"/></g><g id="g18097"><path id="path18099" class="cls-2" d="M560.2,350.9c-27.5,11.9-24.7,58.6-8.8,64.6s27.9-21.8,28.9-39-9.1-29.9-20.1-25.6Z" transform="translate(0 0.1)"/><path id="path18101" class="cls-9" d="M554.2,367.6c-13.1,14.3-8.6,29.9,0,28.6s14.3-19.3,10.3-29.3S554.2,367.6,554.2,367.6Z" transform="translate(0 0.1)"/></g><g id="g18103"><path id="path18105" class="cls-2" d="M551.2,486.8c-12.7,20.7-4.4,57.8,14.1,59.4s16-32.8,13.6-45.6-11.7-21.2-19-19.6S551.2,486.8,551.2,486.8Z" transform="translate(0 0.1)"/><path id="path18107" class="cls-5" d="M549.2,507.1c-4,13.7,5.1,29.3,11.4,26.1s6.3-26.1-1.7-32.4-9.7,6.3-9.7,6.3Z" transform="translate(0 0.1)"/></g><g id="g18109"><path id="path18111" class="cls-2" d="M575.4,601.4c-6.4,30.1,12.8,60.7,25.2,56.4s6.9-38.7-1-51.6-15.3-13.4-19.2-10.7a12.48,12.48,0,0,0-5,5.9Z" transform="translate(0 0.1)"/><path id="path18113" class="cls-5" d="M579.7,629.9c2.3,12.9,9.9,20.8,13.7,17.9s-.7-20-7.8-29.2S579.7,629.9,579.7,629.9Z" transform="translate(0 0.1)"/></g><g id="g18115"><g id="g18117"><path id="path18119" class="cls-2" d="M425.2,376.2c18,46.2,21.8,95-21.1,120.1-33.6,19.7-80,6.9-98-39.3s-6.9-101.2,23.5-121.8,77.5-5.2,95.6,41Z" transform="translate(0 0.1)"/><path id="path18121" class="cls-10" d="M422.5,377.8c12.2,31.2,10.7,79.9-19.6,101-29.4,20.5-65.6,6.3-80.5-31.9s-8.9-76.1,20.7-96.1,64.9-10.2,79.4,27Z" transform="translate(0 0.1)"/><path id="path18123" class="cls-11" d="M353.2,345.2a62.48,62.48,0,0,0-10.2,5.5c-29.6,20.1-35.5,57.9-20.6,96.1,12.5,32.1,40,47.3,66,39.1-7.4-.4-16.6-1.9-28.8-5.8C324.9,469.3,308.9,387.6,353.2,345.2Z" transform="translate(0 0.1)"/></g><g id="g18125"><path id="path18127" class="cls-2" d="M390.7,408.4c0,62.3,36.2,105.5,80.8,105.5s80.8-43.3,80.8-105.5-24.8-112.8-69.5-112.8-92.1,50.5-92.1,112.8Z" transform="translate(0 0.1)"/><path id="path18129" class="cls-10" d="M408.7,409.3c0,40.7,25.2,87,66.4,87,42.1,0,77.8-34.6,77.8-84.5s-28.6-90.2-70.6-90.2S408.7,360.8,408.7,409.3Z" transform="translate(0 0.1)"/><path id="path18131" class="cls-12" d="M552.3,400.7c-1.9,17.2-6.9,35-15,50.2-9.2,17.2-24.9,35.4-43.7,42.9,33.5-8.5,59.2-39.8,59.2-82,0-3.8-.2-7.5-.5-11.1ZM422.5,461.5c1.3,2.2,2.5,4.4,4,6.5l.3.3c.7,1,1.4,1.9,2.2,2.9s1.5,2.1,2.3,3.1,1.9,2.1,2.8,3.1,2.1,2.1,3.2,3.1a26.22,26.22,0,0,0,2.5,2.2l2.8,2.2c.6.4,1.1,1,1.7,1.5,1,.7,2,1.4,3,2,.2.1.3.3.5.4,1.2.7,2.6,1.2,3.8,1.8-9.7-5.7-19.4-15-29.1-29.1Z" transform="translate(0 0.1)"/><path id="path18133" class="cls-11" d="M424.8,353.7c-10.2,15.1-16,34.5-16,55.6,0,40.7,25.1,86.9,66.3,86.9a78.79,78.79,0,0,0,10.9-.8c-10.7-.8-24-4.4-37.9-14.7C424.8,463.6,400.2,408.9,424.8,353.7Z" transform="translate(0 0.1)"/></g><g id="g18135"><path id="path18137" d="M490.7,368.4c0,12.8-9.5,23.2-21.3,23.2s-21.3-10.4-21.3-23.2,9.5-23.2,21.3-23.2S490.7,355.7,490.7,368.4Z" transform="translate(0 0.1)"/><path id="path18139" class="cls-11" d="M479.2,357c0,5.9-4.4,10.6-9.8,10.6s-9.8-4.8-9.8-10.6,4.4-10.6,9.8-10.6S479.2,351.1,479.2,357Z" transform="translate(0 0.1)"/></g><path id="path18141" class="cls-2" d="M594,351.4c-4.5-12.5-16.8-20.2-39-38.6s-87.7-75.3-93.9-69.5-8.8,11.6-13.3,22.2,28.8,101.8,108.5,128.8C571,402.4,598.5,363.9,594,351.4Z" transform="translate(0 0.1)"/><path id="path18143" class="cls-2" d="M286.5,386.1c-9.1,0-25.4-22.1-22-31.9s8.9-12.2,26.1-26.4,67.9-58.3,72.7-53.8,6.9,8.9,10.3,17.2-25.4,74-87.1,94.9Z" transform="translate(0 0.1)"/><g id="g18145"><path id="path18147" d="M377.5,375.9c0,11.3-8.4,20.4-18.8,20.4s-18.8-9.1-18.8-20.4,8.4-20.4,18.8-20.4S377.5,364.6,377.5,375.9Z" transform="translate(0 0.1)"/><path id="path18149" class="cls-11" d="M367.3,365c0,5.2-3.9,9.4-8.6,9.4s-8.6-4.2-8.6-9.4,3.9-9.4,8.6-9.4S367.3,359.8,367.3,365Z" transform="translate(0 0.1)"/></g></g><g id="g18151"><g id="g18153"><g id="g18155"><path id="path18159" class="cls-2" d="M401,788.1c-18.3-3.3-41.4-3.2-47.7,18.5-10.2,27.4-2.4,62.8-24,84.4-11.8,16.9-33.1,21.1-51.9,28.5-14.7,3.8-24.5,13.6-33,25.9-15.1,23.5-19.1,59.6.5,81.2,14.4,18.2,44.2,19.6,61,5.1,6.7-4.8,10.1-17.6,15.3-25.7,9.6-11.8,27.5-15.9,40-25.4,30.9-18.3,60.3-46.2,67.3-85.5,5.7-27.2,6.2-48.1,1.2-75.8-3.8-12.8-9-28.4-21.5-30.2-2.3-.8-4.8-.7-7.2-1Z" transform="translate(0 0.1)"/><path id="path18161" class="cls-6" d="M402.5,783.4c-20.2-.3-34.9,2.5-33.5,29.7-7.5,28.8-6.5,84.8-34.4,103.1-32.8,20.6-37.5,19.6-56.1,27.9-19.4,6.6-33.1,37-22.4,57.3,4.5,10.2,21,18.4,32.4,11.3,13.6-6.9,7.7-15.6,14.6-22.7,8.6-8.2,27.6-18.3,48.3-28.8,57.2-32.1,74.7-107.3,72.8-160.5,4.9-8.9-9.5-15-21.7-17.3Z" transform="translate(0 0.1)"/><path id="path18163" class="cls-5" d="M420.5,801.4c-1,4.5-2.9,14-5.4,34.6-3.7,31.4-19.8,84.5-65.6,108.5-37.8,19.8-55.5,26.9-55.3,31.4s-2.5,18.2-9.7,23.3c-6.8,4.8-23.9,5.4-31.1-23.5-2,8.8-1.4,18,2.6,25.8,4.5,10.2,21,18.4,32.3,11.3,13.6-6.9,7.8-15.6,14.7-22.7,8.6-8.2,27.6-18.4,48.2-28.8,57.2-32.1,71.6-105.3,69.7-158.6A3.26,3.26,0,0,0,420.5,801.4Z" transform="translate(0 0.1)"/><path id="path18165" class="cls-7" d="M390,785.2c-12.6-.1-22.1,6.7-21,27.8-7.3,28-6.6,81.4-32,101.3a23.48,23.48,0,0,1-2.5,1.9c-8.1,5.1-14.5,8.9-19.9,11.8-2.7,1.5-5.1,2.8-7.4,3.9s-4.1,2-6,2.8c-3.9,1.7-7.2,3-10.8,4.4s-7.3,3-12,5.1a34.54,34.54,0,0,0-3.4,1.4s-.1-.1-.1,0c-1.1.6-2.1,1.3-3.2,2-.1.1-.2,0-.3.1a31.55,31.55,0,0,0-2.9,2.2l-.4.3c-.9.8-1.6,1.6-2.4,2.4a28.58,28.58,0,0,0-2.7,3.1,34.33,34.33,0,0,0-2.4,3.3c-.8,1.2-1.5,2.5-2.2,3.7-.5.9-1,1.8-1.4,2.7-.3.6-.6,1.1-.9,1.7l-.3.6c-.4.9-.6,1.8-.9,2.7-.4,1.2-.7,2.4-1,3.6-.1.3-.2.5-.3.8-.3,1.3-.6,2.5-.8,3.8-.1,1-.2,1.9-.3,2.9s-.2,2.3-.2,3.4,0,2.2.1,3.3c.1.9.1,1.8.2,2.6,0,.2.2.5.2.7.2,1.1.5,2.2.7,3.2.1.4.3.8.4,1.3.3,1,.6,2,.9,2.9-.1-9.9,2.9-25.2,15.3-36.1,18.3-16.1,57.1-14.2,82.2-49.5s19.3-85.1,27.1-105.2c5.8-14.7,10.8-20.1,14.7-21.8-1.1-.4-2.6-.7-4.1-1.1Z" transform="translate(0 0.1)"/></g></g></g><g id="g18167"><g id="g18169"><path id="path18173" class="cls-2" d="M602.5,823.3c-10.1,11.2-13.2,23-13.5,34.8,8.5,22.7,25.8,38.7,42.2,54.3,28.9,22.4,59.8,43.4,78,77,5.3,14.4,33.5,25.7,49.5,12.9,17.1-11,32-26.1,28.3-57.5-3.6-26.4-24.6-39.9-40.2-56.4-29.3-27.7-58.4-56-81.6-89.9-10.3-12.8-34.2-2.4-49.9,11.7-4.4,4.2-9,8.1-12.8,13.1Z" transform="translate(0 0.1)"/><path id="path18175" class="cls-6" d="M605.8,809.1c-13.4,16.5-5.4,33.3,2,42.1,28.1,41.6,95.6,74.6,119,120.8,4,6.3,13.2,13.4,31.9-6.5,17.9-17.4-4.7-31-11.8-42.1-27-32.1-78.6-79.5-98.9-118.1-6-11-15.3-10.2-28.8-5.9C614.6,801.8,609.2,804.3,605.8,809.1Z" transform="translate(0 0.1)"/><path id="path18177" class="cls-5" d="M603.2,831c-1.2,10.7,4.1,20.3,9.1,26.2,28.1,41.6,91.2,68.7,114.6,114.9,4,6.3,13.2,13.3,31.9-6.6a23.32,23.32,0,0,0,5.7-8.2,67.54,67.54,0,0,1-17.8,9.9c-10.3,3.7-11.1-6.3-21-18.8s-32.3-35.6-58.6-51.5C641.8,881.6,617,863.3,603.2,831Z" transform="translate(0 0.1)"/><path id="path18179" class="cls-7" d="M670.6,838.9c12.7,36.5,57.4,77.7,71.4,90.2,13.2,11.8,19.7,24.2,20.1,32.7,11.1-15.5-8.6-28-15.2-38.2C726.3,899,693.8,868.9,670.6,838.9Z" transform="translate(0 0.1)"/></g></g><g id="g18181"><g id="g18183"><path id="path18187" class="cls-2" d="M591.4,719.9c-11.1,17.2-2.4,47.5,10.5,60.6,25,36.9,41.7,64.7,83,77.3,22.1,3.2,46.8-3.2,68,5.4,11.3,11.4,14.6,31.3,28.5,40.4,17.3,15,42.9,1.9,59.9-14.5,17.8-16.1,28-46.8,12.4-65.7-14.5-23.6-34.2-44.2-60-50.5-28.6-7.3-60.6.4-87-12.2-27-15.6-32.4-42.2-53.1-65.1-16.7-12.4-45.4-3.4-60,12.8-3.3,3.6-.2,3.5-2.9,7.8Z" transform="translate(0 0.1)"/><path id="path18189" class="cls-6" d="M599.6,761.3c25.6,31.4,58.1,68.3,96.7,72.4,25.6,5.6,42.5,1.9,62.8,5.6,15.6-2.3,25.5,72.8,72,28.5,19.7-20.6-3.3-43.5-9.3-51.2-27.2-26.6-52.7-25.2-76.4-25.9-16.6-3.4-39.1-1.1-53.2-13.1-25.8-17.4-37-69.8-59.5-91C591.2,673.8,561.9,733.4,599.6,761.3Z" transform="translate(0 0.1)"/><path id="path18191" class="cls-7" d="M614.4,685.4a38.3,38.3,0,0,0-20.9,12.5l9.7.5c43.5,1.8,46.8,66.2,73.4,88.3,30.4,25.3,69.3,7,105,15.1,13.9,3.1,22.7,4.8,29.5,5.7a82.72,82.72,0,0,0-9.3-6.1c-1.2-.7-2.4-1.2-3.5-1.8l-1.5-.6c-1.6-.7-3-1.4-4.6-2-.1,0-.1-.1-.2-.1-2.2-.8-4.4-1.5-6.5-2.1s-4.2-1.1-6.4-1.6l-1.8-.3c-1.5-.3-3-.5-4.5-.7a.9.9,0,0,1-.5-.1c-3-.4-5.9-.7-8.8-.8-6.1-.4-12.2-.5-18.1-.7-10.4-2.1-23-1.9-34.6-4.5a49.73,49.73,0,0,1-9.9-3.2,35.06,35.06,0,0,1-6-3.3,26.93,26.93,0,0,1-2.7-2v-.2a40.56,40.56,0,0,1-4.6-3.6c-22.6-20.1-33.8-67.5-54.9-87.4a40.26,40.26,0,0,0-18.3-1Z" transform="translate(0 0.1)"/><path id="path18193" class="cls-5" d="M625,781.9c20.1,25,42.4,48.7,71.4,51.7,25.6,5.7,42.5,1.8,62.8,5.5,15.6-2.3,25.5,72.8,72,28.6,8.5-8.9,9-18.2,6.4-26.6-1.3.9-3.1,2.8-2,6.7,1.6,5.7-6.4,32.1-30.4,16s-19.8-38.6-39.5-45.5C749.2,812.6,690.4,839.4,625,781.9Z" transform="translate(0 0.1)"/></g></g><g id="g18195"><g id="g18197"><path id="path18201" class="cls-2" d="M533.5,814.8c-14.2,6.3-19.7,27.7-12.8,47,6.3,27.9,15.2,46.7,19.5,58.2,10.2,34.3,11.8,67.2-.9,103.4-12.2,24.6,10,66.4,36.9,70.2,11.4,3,52.7-1,63.3-28.3,12.3-30.3-6.6-52.2-7.7-70.5,4-100.7-21-127.7-42.2-178.1-10.7-22.9-43.2-9.8-56.1-1.9Z" transform="translate(0 0.1)"/><path id="path18203" class="cls-6" d="M532.2,805.7c-15,8-5.5,33.2,1.2,45.8,16.1,47.6,40.3,94.9,32.5,146.7-.2,14.5-12.5,32.5-.9,59.9,7.7,23,51,17.2,55.7-6.4,1.9-20-7.9-22.4-8.4-58.1-.5-39.5.5-71.8-6.5-102.2-6.5-26.9-15.4-61.5-26.9-87.4-7-21.2-36.5-7.3-42.8-2.9Z" transform="translate(0 0.1)"/><path id="path18205" class="cls-5" d="M583.3,835.5c5.6,14.1,14.5,42.3,16.9,60.9,2.9,21.8-4.1,93.1-1.7,107.7s22.3,45.8,9.9,53.2c-11.3,6.8-32.1,15.5-46.9-10.5a55.1,55.1,0,0,0,3.6,11.3c7.7,23,51,17.2,55.7-6.4,1.9-20-7.8-22.4-8.4-58.1-.5-39.5.5-71.8-6.6-102.1-4.5-18.6-13.6-37.5-22.5-56Z" transform="translate(0 0.1)"/><path id="path18207" class="cls-6" d="M527.4,822.9c-1.6,9.4,1.8,20.8,6,28.7,16.1,47.6,40.4,94.9,32.6,146.7-.2,14.4-12.6,32.4-1,59.8,2.9,8.8,11,13.3,20.2,14.3a26.71,26.71,0,0,1-5.9-2.3c-7.6-4.2-14.9-15.3-10.8-38.6s17.6-81.6,0-118.1C552.9,880.8,532,856.3,527.4,822.9Z" transform="translate(0 0.1)"/></g></g><g id="g18209"><g id="g18211"><g id="g18213"><path id="path18217" class="cls-2" d="M456.2,795.2c-36.5,33.8-14.1,81.3-21.5,121.9-8,44.1-32.7,65.1-39.6,109.6-4.6,29.5,2,61.5,31.4,79.8,26.1,16.2,53.6.4,63.8-23.7,9.2-21.9-9.4-25.5-4.3-58.9,5-32.7,28.8-36.8,35.4-73.9,7.8-44,3-99.3-6.1-129-4.4-14.3-9.8-20.6-15.6-22.9-18.9-7.3-43.5-3-43.5-2.9Z" transform="translate(0 0.1)"/><path id="path18219" class="cls-6" d="M444.6,848c3.8,34.6,20.9,74.5.2,113.1-12.4,25.2-26.8,45.1-31.5,65.3-6.3,23.6,3.7,59.3,27.1,65.1,18.4,3.9,40.2-16.1,24.2-42-2.4-28.1,2.4-43,32.6-87.3,23.5-37.8,13.2-94.2,8.2-130.4.4-34.2-16.2-46.3-38.2-43.4C435.2,792.2,441.4,826.6,444.6,848Z" transform="translate(0 0.1)"/><path id="path18221" class="cls-5" d="M495,796.3c2.3,8.4,5,20.8,8.2,39.6,7.4,44.6.2,104-25.7,134.2-17,19.8-33.9,55-34.8,59.7s12,21.6,10.2,31.1c-1.7,8.5-9.2,21.5-34.4,10.6,4.9,9.8,12.2,17.6,22,20,18.4,3.9,40.2-16.1,24.1-42-2.4-28.1,2.4-43.1,32.6-87.4,23.5-37.8,13.4-93.8,8.5-130-1.7-15.7-4.6-28.2-10.7-35.8Z" transform="translate(0 0.1)"/><path id="path18223" class="cls-7" d="M467.2,788.5c-31.9,3.7-25.8,38.1-22.5,59.5,3.8,34.6,20.9,74.4.2,113-12.4,25.2-26.8,45.2-31.5,65.4-5.7,21.3,2,52.4,20.7,62.5-6.9-6.9-19-24.6-9.9-59.1,11.2-42.2,35.3-49.1,45.5-100.4s-23.2-109.3-18.9-122.2c3.9-11.4,23.3-18.4,26.1-19.7-.7.1-9,1-9.7,1Z" transform="translate(0 0.1)"/></g></g></g><path id="path18243" class="cls-5" d="M553.9,373.4s8.6-3.7,12.6-11.2,13.2-6.9-1.7-21.2-90.9-71-94.9-76.6-11.4-6.9-8,8.1,47.4,78.5,92,100.9Z" transform="translate(0 0.1)"/><path id="path18245" class="cls-5" d="M286.1,363.9c3.4,4.4,2.8,1.9,21.7-8.7s50.9-49.8,50.9-49.8-4.1-5.6-4.6-10-41.7,44.2-71.4,59.1A17.61,17.61,0,0,0,286.1,363.9Z" transform="translate(0 0.1)"/><path id="path18247" class="cls-2" d="M614.2,374.3c16.2-1.8,38.8,8.8,29.1,12.3s-34,7-34,7Z" transform="translate(0 0.1)"/><path id="path18249" class="cls-2" d="M602,495.8c19.4-3.5,38.8-6.2,33.9-1.8s-25,22.9-25,22.9Z" transform="translate(0 0.1)"/><path id="path18251" class="cls-2" d="M625.5,581.2c16.2-8.8,27.5-14.1,25.1-7.9s-13.7,27.3-13.7,27.3Z" transform="translate(0 0.1)"/><g id="g18253"><g id="g18255"><path id="path18257" class="cls-13" d="M497.6,162.4c-10.8-27.7-27.7-50-13.6-69.1,6.3-8.6,16.5-12.5,21.4-21.2,4.3-7.6,8-22,4.8-34.2-7-26.2-67.3-28.3-97.3-11.7-8.5,4.7-14.4,8.9-15.6,14.9-1.4,7.2.5,17.4,3.7,24.2,3.8,7.9,11.2,13.6,12.7,17.6,3.7,10.3,13,35.4,8.3,59.4s-5.1,55.2,11.4,63.1c17.1,6.2,68-20,67.2-37.6Z" transform="translate(0 0.1)"/><path id="path18259" class="cls-14" d="M482.6,176.3c-2.3-6.4-17.3-32.6-19.6-56.6-3-31.2,3.9-35.3,10.6-42.8,8-5.4,14.9-14.4,16.2-18.1.5-1.5,4.1-11.9-1.9-16.2-3.2-2.3-10.2-3.8-18.4-5.5-28.4-6-53.5,7-52.7,12.3,1.2,6.5-.2,7.9,7.6,16.6,8.8,9.8,7.6,9.9,10.6,17.4,5.8,14.6,5.5,44.4,3.1,58.9-2.3,14.1-.8,52.5,9,62,20.8,16.9,39.3-15.1,35.5-28Z" transform="translate(0 0.1)"/><path id="path18261" class="cls-15" d="M443.7,36.5a100.75,100.75,0,0,0-12,4.3c-5.4,2.3-9.5,7.7-7.9,12.1s11,11.4,15.4,17.8c2.5,6.1,8.9,25.3,8.1,36.2s-3.6,47.8,1.6,67.2c4.6,17.2,15.2,29.9,19.5,32.2a11.73,11.73,0,0,0-1.1.5,35,35,0,0,1-15.1.6,23.65,23.65,0,0,1-5-3.2c-9.7-9.5-11.3-47.9-9-62.1,2.3-14.4,2.8-44.2-3.1-58.7-3-7.5-1.9-7.7-10.7-17.4-7.8-8.7-6.4-10.2-7.6-16.7C416.4,45.7,427.6,38.9,443.7,36.5Z" transform="translate(0 0.1)"/><path id="path18263" class="cls-16" d="M490.7,46.7c1.5,4.8-.6,11-1,12.2-1.3,3.7-8.1,12.5-16.1,18-6.7,7.5-13.7,11.6-10.7,42.9,2.3,24,17.2,50.2,19.5,56.6,1.8,6-1.3,16.4-7.3,23.8.5-3.3,4.8-16.7,3.4-19.2-1.5-2.8-17.4-23.6-21.9-61.1s15-51.3,19.6-55.3c7.8-5.1,8.9-16.9,5.1-19.3,0,0-9.5-7.3-24.8-9a23.81,23.81,0,0,0-2.6-.5,72.29,72.29,0,0,1,15.4,1.3c8.1,1.7,15.1,3.1,18.4,5.4A7.23,7.23,0,0,1,490.7,46.7Z" transform="translate(0 0.1)"/></g><g id="g18265"><path id="path18267" class="cls-13" d="M382.2,163.2c-1.9-30.1,3.7-58.2-16.7-68.3-9.2-4.5-19.9-3-27.9-8.2-7-4.6-16.3-15.6-18.5-28.1C314.4,31.8,367.1,0,400.9-.1c9.5,0,16.6.8,20.2,5.5,4.3,5.7,6.9,15.7,6.8,23.4,0,8.9-4.3,17.7-3.9,22,1,11,3.3,38,17.5,57s27.6,46.6,16.3,61.9c-12.6,14.1-68.9,16-75.5-.2Z" transform="translate(0 0.1)"/><path id="path18269" class="cls-14" d="M401.4,168.2c-.6-6.9,1.8-37.6-6.2-60.1C384.8,78.8,377,78.6,367.9,75.3c-9.4-.9-19.3-5.4-22-8.1-1.1-1-8.6-8.6-5.1-15.4,1.9-3.7,7.5-8.4,14-14,22.8-19.4,50.5-20.3,52.1-15.2,1.6,6.4,3.5,6.9.1,18.5-3.7,13-2.7,12.6-2.2,20.8.9,15.9,13.7,42.3,21.8,53.9,7.9,11.4,22.6,46.4,17.9,59.7-11.3,25.4-41.2,6-43.1-7.3Z" transform="translate(0 0.1)"/><path id="path18271" class="cls-15" d="M377.5,24.4A88.16,88.16,0,0,1,390,22.3c5.8-.6,11.7,2.1,12.1,6.8s-5,15.6-6.3,23.5c.3,6.6,2.7,26.9,7.9,36.2s23.2,40.8,26.7,60.7c3.1,17.6-1.1,34.1-3.9,38.4.4,0,.8-.1,1.2-.1a36.94,36.94,0,0,0,13.7-6.9,24.34,24.34,0,0,0,3.1-5.4c4.7-13.3-10-48.3-17.9-59.7-8.1-11.7-20.9-38-21.8-53.8-.5-8.1-1.5-7.8,2.2-20.8,3.3-11.6,1.4-12.2-.2-18.6C405.7,19,392.8,18.6,377.5,24.4Z" transform="translate(0 0.1)"/><path id="path18273" class="cls-16" d="M339.9,56.8c.7,5,5.1,9.6,5.9,10.3,2.7,2.7,12.5,7.1,21.8,8,9.1,3.3,17,3.6,27.4,32.9,8,22.5,5.7,53.2,6.3,60,.9,6.2,8,13.9,16.4,17.6-1.8-2.7-11.2-12.5-11-15.4.2-3.2,5.6-29.7-6-65.2s-34.9-38.1-40.6-39.4c-9.1-.7-15-10.6-12.6-14.6a59.36,59.36,0,0,1,18.3-20.3l2.1-1.8a73.2,73.2,0,0,0-13.1,8.8c-6.5,5.6-12.2,10.3-14.1,14A9,9,0,0,0,339.9,56.8Z" transform="translate(0 0.1)"/></g><g id="g18275"><path id="path18277" class="cls-13" d="M507.3,160.1c24.1-14.7,50-21.1,49.6-45.5-.2-11-6-20.9-5.1-31,.8-8.9,6-22.7,15.4-30.2,20.3-16.1,69.1,22.4,83.5,55.6,4.1,9.3,6.4,16.6,4,22.2-2.9,6.6-10.1,13.5-16.6,16.7-7.4,3.7-16.5,3.3-19.9,5.5-8.7,5.6-40.8,9.8-60.1,22.4-15.6,10.2-29.1,42.8-44.5,42.4-17-6.5-22.4-42.1-11.8-55.4Z" transform="translate(0 0.1)"/><path id="path18279" class="cls-14" d="M499.2,165c5.5-3.5,44.1,1.9,59.4-15.6,19.9-22.7,16.8-30.6,15.7-40.9-3.2-9.6-3.7-21.4-2.6-25.1.4-1.5,3.5-12.1,10.6-11.6,3.8.3,10.2,3.8,17.6,7.8,25.8,14.2,38.4,41.2,34.8,44.9-4.6,4.3-4.3,6.4-15.3,8-12.4,1.9-11.6,2.7-18.2,6.7-12.8,7.6-41.4,15.4-47.6,28.3-6.1,12.7-28.9,42.1-41.9,43.1C485.6,210.3,489,172.6,499.2,165Z" transform="translate(0 0.1)"/><path id="path18281" class="cls-15" d="M620.6,96.4a94.67,94.67,0,0,1,7.1,11.4c3,5.5,3.2,12.4-.6,14.8s-15.1,1.7-22.2,3.8c-5.4,3.1-21.2,14.1-26.7,23.2s-44.2,21.2-59.3,33c-13.3,10.5-28.8,13.5-33.6,12.5.2.4.4.7.6,1.1a37.16,37.16,0,0,0,11.5,10.5,22.55,22.55,0,0,0,5.8.8c13-1,35.9-30.4,42-43.1,6.2-13,42.8-17.7,55.7-25.3,6.6-3.9,5.8-4.8,18.2-6.7,11.1-1.7,10.7-3.8,15.4-8.1C637,121.9,631.9,109,620.6,96.4Z" transform="translate(0 0.1)"/><path id="path18283" class="cls-16" d="M577.7,73.1c-3.9,2.8-5.8,9.1-6.1,10.3-1.1,3.8-.6,15.3,2.6,24.9,1.1,10.4,4.3,18.3-15.6,41-15.3,17.5-41.8,28.2-47.2,31.7-4.8,3.6-8.2,13.8-7.6,23.7,1.5-3,5.6-16.4,8.1-17.4,2.8-1.2,27.1-7.1,51.6-33.7S580.4,103,579,96.8c-3.3-9.2,2.5-19.3,6.8-18.7,0,0,11.6.6,24.6,9.4.8.4,1.5.8,2.3,1.3a77.61,77.61,0,0,0-12.9-9.2c-7.4-4.1-13.7-7.6-17.6-7.9A6.71,6.71,0,0,0,577.7,73.1Z" transform="translate(0 0.1)"/></g><g id="g18285"><path id="path18287" class="cls-13" d="M550.4,164.3c1.9-30.1-3.7-58.2,16.7-68.3,9.2-4.5,19.9-3,27.9-8.2,7-4.6,16.3-15.6,18.5-28.1,4.7-26.8-48-58.6-81.8-58.7-9.5,0-16.6.8-20.2,5.5-4.3,5.7-6.9,15.7-6.8,23.4,0,8.9,4.3,17.7,3.9,22-1,11-3.3,38-17.5,57s-27.6,46.6-16.3,61.9c12.6,14.1,68.9,16,75.5-.2Z" transform="translate(0 0.1)"/><path id="path18289" class="cls-14" d="M531.3,169.3c.6-6.9-1.8-37.6,6.2-60.1,10.4-29.3,18.2-29.5,27.3-32.9,9.4-.9,19.3-5.4,22-8.1,1.1-1,8.6-8.6,5.1-15.4-1.9-3.7-7.5-8.4-14-14-22.8-19.5-50.6-20.4-52.1-15.3-1.6,6.4-3.5,6.9-.1,18.5,3.7,13,2.7,12.6,2.2,20.8-.9,15.9-13.7,42.3-21.8,53.9-7.9,11.4-22.6,46.4-17.9,59.7,11.3,25.5,41.1,6.1,43.1-7.1Z" transform="translate(0 0.1)"/><path id="path18291" class="cls-15" d="M555.1,25.5a105.43,105.43,0,0,0-12.5-2.2c-5.8-.6-11.7,2.1-12.1,6.8s5,15.6,6.3,23.5c-.3,6.6-2.7,26.9-7.9,36.2s-23.2,40.8-26.7,60.7c-3.1,17.6,1.1,34.1,3.9,38.4-.4,0-.8-.1-1.2-.1a36.94,36.94,0,0,1-13.7-6.9,24.34,24.34,0,0,1-3.1-5.4c-4.7-13.3,10-48.3,17.9-59.7,8.1-11.7,20.9-38,21.8-53.8.5-8.1,1.5-7.8-2.2-20.8-3.3-11.6-1.4-12.2.2-18.6C527,20.1,539.8,19.6,555.1,25.5Z" transform="translate(0 0.1)"/><path id="path18293" class="cls-16" d="M592.7,57.9c-.7,5-5.1,9.6-5.9,10.3-2.7,2.6-12.5,7.1-21.8,8-9.1,3.3-17,3.6-27.4,32.9-8,22.5-5.7,53.2-6.3,60-.9,6.2-8,13.9-16.4,17.6,1.8-2.7,11.2-12.5,11-15.4-.2-3.2-5.6-29.7,6-65.2s34.8-38.2,40.6-39.5c9.1-.7,15-10.6,12.6-14.6a59.36,59.36,0,0,0-18.3-20.3l-2.1-1.8a73.2,73.2,0,0,1,13.1,8.8c6.5,5.6,12.2,10.3,14.1,14A8.47,8.47,0,0,1,592.7,57.9Z" transform="translate(0 0.1)"/></g><g id="g18295"><path id="path18297" class="cls-13" d="M477.4,41.9C422.8,39,414,90.6,432.8,113s69,16.3,84.9,1.7c17.3-11.4,28.7-29.5,18.6-48.6C525.5,45.7,499.2,42,482.4,41.4Z" transform="translate(0 0.1)"/><path id="path18299" class="cls-13" d="M425.8,96.4c9.1,33.5,37.4,45.5,40.4,53.5s-3.2,15.5-2.8,22.1-4.1,21.8,18.1,27.3,43.3-5.8,49.2-18.9c7-15.7-9.2-17.7-13.2-32.9,10.6-25.7,26-53.8,22.2-69.7S425.8,96.5,425.8,96.4Z" transform="translate(0 0.1)"/><path id="path18301" class="cls-14" d="M481.8,62.6c-38.6-2-48.1,33.6-33.5,47.5,16.9,16.1,52.6,12.5,63.8,2.2s13.8-17.7,6.6-34.5C511,63.3,493.7,63,481.8,62.6Z" transform="translate(0 0.1)"/><path id="path18303" class="cls-14" d="M496.8,108c-14.1,20.9-33.2,17.1-31.3,20.2s13,11,18.6,21.9-7.2,31-4.3,36,15.1,14.8,24.1,14.9,15.7-20.3,15.5-26.2S504.9,162,503,151.4s12.8-27.6,11.2-30.4-12.9-4-15.7-6S496.8,108,496.8,108Z" transform="translate(0 0.1)"/><path id="path18305" class="cls-16" d="M475,62.6c-1.5.1-3,.3-4.5.5a11.63,11.63,0,0,0-1.8.4,10.38,10.38,0,0,0-1.3.4,26.81,26.81,0,0,0-2.7.7l-2.7.9c-.5.2-1,.3-1.5.5-1,.5-2,1-3,1.6-1.2.7-2.4,1.4-3.5,2.2a24.84,24.84,0,0,0-3,2.5l-.7.7a25.5,25.5,0,0,0-5,6.7c-.2.4-.5.7-.7,1.1-.1.2-.1.4-.2.6-.4.9-.8,1.9-1.2,2.9-.4,1.2-.7,2.4-1,3.6s-.4,2.3-.5,3.4a14.5,14.5,0,0,0,0,4.8v.6a18.63,18.63,0,0,0,.7,3.4v.2c.1.2.1.5.2.7a14.76,14.76,0,0,0,1.2,2.9c1.1-36.8,40.5-38.4,64.2-30.2,7.1,2.4,11,6.7,13.1,11.4-.1-.4,0-.7-.2-1.1,0-.1-.1-.2-.2-.4a15.87,15.87,0,0,0-.7-2c-.5-1.2-1.1-2.4-1.7-3.8v-.2a15.76,15.76,0,0,0-1.5-2.4V75a21,21,0,0,0-5.7-5.8,26.4,26.4,0,0,0-4.7-2.5,42.43,42.43,0,0,0-5-1.8c-.4-.1-.8-.3-1.2-.4-1.3-.3-2.5-.7-3.8-.9h-.2c-.4-.1-.8-.1-1.2-.2-1.3-.2-2.7-.2-4-.4-.9-.1-1.6-.1-2.5-.2-2.5-.2-4.9-.3-7.1-.4-1.9.1-4.2.1-6.4.2Zm11.6,22.5c-17.9.8-22,2.8-20.3,6.9s5,7.2,19.3,6,16.3-6.4,14.3-9.2S486.6,85.1,486.6,85.1Z" transform="translate(0 0.1)"/><path id="path18307" class="cls-13" d="M484.2,84.6c-14.1.9-19.3,3.6-13.9,7.5s25.2,1.9,26.9-2-8.7-6.2-13-5.5Z" transform="translate(0 0.1)"/><path id="path18309" class="cls-15" d="M513.2,119.9c-1.7-1.1-5-1.9-8.1-2.7-4.1.7-19.1,3.3-21.1,4.1a6.53,6.53,0,0,1-2,.5c-9.7,5.3-17.8,4.4-16.5,6.4,1.9,3.1,13.1,11,18.7,21.8s-7.3,31.1-4.3,36.1,15.2,14.8,24.1,14.8a8,8,0,0,0,5.2-2.5l-1.8-.3c-4.9-1.2-14.8-8.9-18.5-14.4s4.2-23.7,4.2-31.5.7-12.8,7.5-15.4c2.4-.9,3.8.4,4.8,2.7,3.7-8.4,10-16.8,8.9-18.6a11,11,0,0,0-1.1-1Z" transform="translate(0 0.1)"/></g><g id="g18311"><path id="path18313" class="cls-13" d="M305.2,61.9c-49.8,28.9-37.1,75.3-11.5,82.4s68-26.3,76.3-47.1c10.9-18.9,13.8-40-2.8-49.5-17.7-10.2-42.6,1.9-57.9,11Z" transform="translate(0 0.1)"/><path id="path18315" class="cls-13" d="M280.9,135.1c21.5,21.6,51.4,15.1,57.4,19.8s3.4,14.2,6.3,19.3,5.1,19.8,27,11.5,36.3-29.4,36.3-43.2c0-16.5-15.3-9-24.9-18.8-.8-26.6,1.7-57.9-8-68.4s-94.1,79.7-94.1,79.8Z" transform="translate(0 0.1)"/><path id="path18317" class="cls-14" d="M317.3,76c-35.2,20.4-29.5,54.4-11,57.1,21.5,3.2,51.8-20,57.7-34.7s5.3-22-7.9-31.3C343.6,59.9,328,69.5,317.3,76Z" transform="translate(0 0.1)"/><path id="path18319" class="cls-14" d="M348.8,103.8c-4.2,24.8-22.8,32.6-19.8,34s16,1.4,25.3,6.9,5.9,28.9,10.5,31.2,19.4,3.2,27.4-1.9,5.9-25.3,3.4-29.9-18.1-1.8-24-9.2.4-29.4-2.1-30.8-13.1,4.1-16.4,4.1S348.8,103.8,348.8,103.8Z" transform="translate(0 0.1)"/><path id="path18321" class="cls-16" d="M346.3,64.6a30.52,30.52,0,0,0-5.2.5c-.4.1-.9.3-1.3.4-.7.2-1.3.2-2,.4-1,.3-2,.7-3,1.1a61.38,61.38,0,0,0-8.6,4c-.2.1-.3.1-.5.2-3,1.6-5.9,3.4-8.5,4.9-1.9,1.1-3.8,2.2-5.5,3.4-.2.2-.5.4-.7.6a62.55,62.55,0,0,0-5,4c-.1.1-.2.3-.3.4a43.67,43.67,0,0,0-4.2,4.4,19.17,19.17,0,0,0-1.8,2.2c-.5.8-1.1,1.6-1.7,2.4q-1.5,2.25-2.7,4.5a44.26,44.26,0,0,0-2,4.5,30.09,30.09,0,0,0-1.8,8.3v.5a19.72,19.72,0,0,0,.2,4.2,22.26,22.26,0,0,0,.5,3.6c.1.2.1.5.2.7a16.59,16.59,0,0,0,1.2,3.1,18.69,18.69,0,0,0,1.7,3.1,14.42,14.42,0,0,0,2.2,2.7,24.33,24.33,0,0,0,2.5,2C286.5,100.6,320.8,77,345,70c7.1-2,12.3-1,16.1,1.4a4.62,4.62,0,0,0-.7-.7,45.8,45.8,0,0,0-4.3-3.4,16.84,16.84,0,0,0-4.8-2,17.73,17.73,0,0,0-5-.7Zm-3.8,21.9c-4,.4-12,4.7-12,4.7-15.6,10.9-18.4,14.7-15.3,17s7.4,2.9,19.6-6.2,12-14.4,9-15.6a5.7,5.7,0,0,0-1.3.1Z" transform="translate(0 0.1)"/><path id="path18323" class="cls-13" d="M328.2,92.2c-12.2,8.7-15.7,13.9-9.4,13.9S342,93.2,342,89.1s-10.2.1-13.8,3.1Z" transform="translate(0 0.1)"/><path id="path18325" class="cls-15" d="M368.2,104c-2,.1-5.2,1.3-8.3,2.5-3.4,2.9-15.7,13.5-17.2,15.3a7.52,7.52,0,0,1-1.6,1.5c-6.5,9.7-14.1,13.6-12.1,14.6,3,1.4,16,1.3,25.3,6.8s5.9,29.1,10.6,31.4,19.4,3.2,27.4-1.9a10.33,10.33,0,0,0,3.6-4.9c-.6.3-1.2.5-1.7.8-4.9,1.8-16.7,1.4-22.2-.9s-5.7-21.4-8.8-27.6-4.5-10.7.5-16.6c1.8-2.1,3.5-1.8,5.4-.6-.1-8.9,2.2-19.1.5-20a2.5,2.5,0,0,0-1.4-.4Z" transform="translate(0 0.1)"/></g><g id="g18327"><path id="path18329" class="cls-13" d="M422.4,72.4c-52.5-11.8-73,37.7-59.8,62.9S426,162.8,444.8,151c19.4-8.3,34.7-24.4,29.3-44.9-5.8-21.9-30.5-30-46.7-33.4Z" transform="translate(0 0.1)"/><path id="path18331" class="cls-13" d="M359.5,117.8c1.2,34.6,25.9,51.2,27.1,59.6s-6.6,14.8-7.8,21.4-9,20.8,11.4,29.9,43.5,1.5,52.2-10.5c10.4-14.3-4.9-19.1-5.3-34.7,16.2-23.7,37.6-48.9,37.6-65.2s-115.2-.5-115.2-.5Z" transform="translate(0 0.1)"/><path id="path18333" class="cls-14" d="M421.8,93.6c-37.1-8.4-54.6,25.2-43.5,41.3,12.8,18.7,48.3,21.1,61.6,12.8s17.5-15.2,14.3-33C450.1,99.2,433.3,96,421.8,93.6Z" transform="translate(0 0.1)"/><path id="path18335" class="cls-14" d="M426,141c-18.5,18.4-36.2,11.4-35.1,14.8s10.2,13.1,13.1,24.7-14.2,29.4-12.4,34.8,11.3,17.1,20,18.7,20-17.5,21.1-23.3-11.3-15-10.8-25.8,18.8-25.1,17.9-28.2-11.6-6.1-13.9-8.6S426,141,426,141Z" transform="translate(0 0.1)"/><path id="path18337" class="cls-16" d="M408.2,92.3a40.13,40.13,0,0,0-5,.7,31.55,31.55,0,0,0-5.3,1.3,25.54,25.54,0,0,0-4.8,2,35.82,35.82,0,0,0-10.6,8.3c-.1.1-.2.4-.3.5a30.72,30.72,0,0,0-2.7,3.6c-.3.5-.6,1-.8,1.4l-1.2,2.4a26.71,26.71,0,0,0-1.3,4,23.25,23.25,0,0,0-.8,3.6v.7c-.1,1.2-.2,2.4-.2,3.6v.7a28.5,28.5,0,0,0,.3,2.9c9.5-36.2,48.4-31.4,69.5-19.4,6.2,3.6,9.1,8.4,10.1,13.4v-1.3c-.2-1.9-.4-3.9-.8-6.2a27.59,27.59,0,0,0-.8-2.7c0-.1-.1-.1-.2-.2a21.4,21.4,0,0,0-7-9.2c-.3-.2-.7-.5-1-.7a16.44,16.44,0,0,0-2.2-1.4c-.8-.4-1.5-.9-2.3-1.3l-1.2-.6a6.37,6.37,0,0,0-.7-.2,61.78,61.78,0,0,0-10.3-3.3c-2.4-.6-4.7-1-6.8-1.4s-4.1-.8-6-1.1c-1.4-.2-2.9-.3-4.3-.4a13.06,13.06,0,0,1-3.3.3Zm-1.5,23.3c-5.5.2-7.1,1.7-6.6,4.4.7,4.3,3.3,8.1,17.5,9.2s17.3-3.5,16-6.7-12-5.8-12-5.8a107.84,107.84,0,0,0-14.9-1.1Z" transform="translate(0 0.1)"/><path id="path18339" class="cls-13" d="M419.2,115.8c-13.9-1.5-19.6.4-15.2,5.1s24.1,6,26.7,2.5-7.2-7.6-11.5-7.6Z" transform="translate(0 0.1)"/><path id="path18341" class="cls-15" d="M439.2,155.5c-1.4-1.4-4.4-2.7-7.3-4-4.2,0-19.3.1-21.5.5a6.73,6.73,0,0,1-2,.1c-10.6,3.6-18.3,1.4-17.5,3.6,1.2,3.4,10.2,13,13.2,24.6s-14.2,29.6-12.5,35S403,232.4,411.7,234a8.67,8.67,0,0,0,5.6-1.5c-.6-.2-1.1-.4-1.7-.6-4.5-2-12.4-11.2-14.7-17.3s9.6-22.7,11.3-30.4,3.6-12.6,10.8-14c2.5-.5,3.5,1,4.1,3.5,5.5-7.7,13.6-14.9,13-16.9a3.81,3.81,0,0,0-.9-1.3Z" transform="translate(0 0.1)"/></g><g id="g18343"><path id="path18345" class="cls-13" d="M603.6,212.4c26,.7,49.8,9,60.2-11,4.7-9,4.3-20,9.6-27.8,4.6-6.8,14.8-15.3,25.8-16.4,23.5-2.4,46.1,54.3,43.2,88.7-.8,9.7-2.1,16.8-6.6,20.1-5.3,3.9-14.2,5.6-20.8,4.9-7.7-.8-14.9-6-18.5-6-9.5,0-33-.1-50.6,12.7s-42.5,24-54.7,11.1c-11-14.1-7.6-71.8,6.9-77.1Z" transform="translate(0 0.1)"/><path id="path18347" class="cls-14" d="M597.6,231.5c6,0,32.2,5.1,52.2-1,26.1-8,27-16,30.7-25,1.6-9.5,6.4-19.2,8.9-21.7,1-1,8.1-8,13.7-3.8,3,2.3,6.6,8.4,10.8,15.6,14.7,25,12.9,53.4,8.4,54.5-5.6,1.1-6.3,2.9-16-1.5-10.9-5-10.6-3.9-17.7-4.1-13.8-.5-37.6,10.2-48.3,17.5-10.5,7.1-41.9,19-52.9,13-20.8-14-1.4-42.7,10.2-43.5Z" transform="translate(0 0.1)"/><path id="path18349" class="cls-15" d="M723.4,220c.5,4.3.7,8.6.8,12.9,0,6-2.8,11.7-7,11.7s-13-6.5-19.6-8.5c-5.7-.2-23.4.3-31.9,4.8s-37.2,20-54.6,21.8c-15.4,1.5-29.3-4.1-32.7-7.4v1.2a41.85,41.85,0,0,0,4.8,14.6,21.59,21.59,0,0,0,4.3,3.7c11,6,42.4-5.9,53-12.9,10.8-7.2,34.5-18,48.3-17.5,7,.3,6.8-.9,17.7,4.1,9.7,4.4,10.4,2.5,16,1.4C725.5,249.2,727,236.1,723.4,220Z" transform="translate(0 0.1)"/><path id="path18351" class="cls-16" d="M698.9,178.7c-4.4.2-8.7,4.4-9.4,5.1-2.5,2.5-7.3,12.1-8.9,21.6-3.7,9-4.6,17.1-30.7,25-20.1,6.1-46.3,1-52.2,1-5.5.4-12.7,6.9-16.6,15.2,2.5-1.6,11.7-10.4,14.2-9.9,2.8.5,25,8.4,56.7-.3s36-32.2,37.6-37.9c1.4-9.2,10.5-14.3,13.7-11.6,0,0,9.2,6.5,15.8,20.5a25.29,25.29,0,0,1,1.3,2.2,82.29,82.29,0,0,0-6.4-14.2c-4.2-7.2-7.8-13.4-10.7-15.6A7.61,7.61,0,0,0,698.9,178.7Z" transform="translate(0 0.1)"/></g><g id="g18353"><path id="path18355" class="cls-13" d="M543.1,98.9c-64.5,9.8-60,74-16.7,93.6,50.8,19.2,74.2-3.3,80.6-45.7s-20.3-37.9-32.5-44C564.6,97.9,548.1,97.4,543.1,98.9Z" transform="translate(0 0.1)"/><path id="path18357" class="cls-17" d="M546.2,94.5c-43.8,5.7-47.4,59.6-23.1,76.8s49.8,8.5,60.5-5.3,9-47.9-2.6-60.6S553.4,94.1,546.2,94.5Z" transform="translate(0 0.1)"/><path id="path18359" class="cls-15" d="M521,106.4c-18.7,18.3-16.4,52,2,65,24.3,17.2,49.8,8.4,60.5-5.4,5.7-7.4,8-20.5,7-33.1-.1,13.4-4.2,33.9-30.6,36.8C522.8,173.5,501.3,147,521,106.4Z" transform="translate(0 0.1)"/><path id="path18361" class="cls-16" d="M553,94.3c-2.7,0-5,.1-6.8.2-29.8,3.9-41,30-37.5,51.8,4.5-34.6,27.9-50.2,60.1-40.2,20.8,6.5,21.6,32.2,18.8,52,5.8-16.1,3-42.1-6.8-52.7-8.7-9.5-19.7-11.1-27.8-11.1Zm-13.4,35c-12.7,2.9-7.3,22.4,10.6,23.2,16.9.4,20.9-11.1,15.4-18C564.6,130.4,539.6,129.3,539.6,129.3Z" transform="translate(0 0.1)"/><g id="g18363"><path id="path18365" class="cls-13" d="M557.5,127.3c-20-4.5-25.1,6.1-15.8,14.2s21.3,1.6,24.1-4.5-8.3-9.7-8.3-9.7Z" transform="translate(0 0.1)"/></g></g><g id="g18367"><path id="path18369" class="cls-13" d="M662.9,115.3c-38.9-41.8-77.2-9.9-76.8,20.4s41.3,62.3,62.2,63c19.8,4.1,39.4-1.1,43.6-22.6,4.5-23-12.8-44.9-24.9-57.6Z" transform="translate(0 0.1)"/><path id="path18371" class="cls-13" d="M591,118.3c-13.7,31.6-2.7,56.9-5.2,65.1s-11.9,9.2-15.6,14.4-13.8,17.4-.7,37.6,35.8,27.2,48.2,21.7c14.8-6.6,4-19.9,10.4-34.1,23.7-11.5,52.3-21.1,59.2-35.7S591,118.3,591,118.3Z" transform="translate(0 0.1)"/><path id="path18373" class="cls-14" d="M653.4,133.8c-27.5-29.6-56.4-10-54.1,10.9,2.8,24.3,31.5,47.6,46.2,48s21.1-3.1,26-20.9C674.7,155.6,662,142.8,653.4,133.8Z" transform="translate(0 0.1)"/><path id="path18375" class="cls-16" d="M623.1,118.7a23.18,23.18,0,0,0-3.8.6,21.7,21.7,0,0,0-4.2,1.1c-.6.2-1.1.5-1.7.7a11.33,11.33,0,0,0-2,.9l-.2.2c-.4.2-.8.5-1.2.7a25.64,25.64,0,0,0-10.3,14.2c23.4-26.6,53.8.8,66.3,24.1,3.8,7.1,4.2,13.1,2.8,18.3a64.37,64.37,0,0,0,2.5-7.4,27.8,27.8,0,0,0-1.5-15.6c-.2-.4-.3-.9-.5-1.3l-.3-.6a34.82,34.82,0,0,0-2.2-4.3c0-.1-.1-.1-.2-.2l-.7-1.1c-.2-.3-.5-.6-.7-.9a74,74,0,0,0-7-8.7c-1.8-1.9-3.5-3.8-5.2-5.4-1.2-1.3-2.5-2.5-3.7-3.6a1.38,1.38,0,0,1-.3-.4c-.4-.4-.8-.7-1.2-1.1-.9-.8-1.8-1.5-2.7-2.2a30.4,30.4,0,0,0-2.5-1.8l-1.5-.9a5.74,5.74,0,0,1-.7-.4c-1.1-.6-2.1-1.1-3.2-1.6a13.36,13.36,0,0,0-1.8-.7c-1-.4-1.9-.8-2.8-1.1a30.92,30.92,0,0,0-9.5-1.5Zm3.5,23.6a3.55,3.55,0,0,0-1,.2,2.66,2.66,0,0,0-1.7,2c-1.2,4.2-.7,9,10.6,18.5s16.1,7.3,16.3,3.6-7.7-12.5-7.7-12.5c-9-8.2-13.9-11.7-16.5-11.8Z" transform="translate(0 0.1)"/><path id="path18377" class="cls-14" d="M636.7,178.6c-23.3,5.3-35.2-11.4-35.6-7.7s3,17.7.5,29.8-24.3,17.8-25.2,23.6,2.2,22,8.8,28.6,24.2-3.7,27.6-8.2-3.1-20.1,1.9-29.4,26.5-11.2,27-14.5-7.1-12.4-8-16S636.7,178.6,636.7,178.6Z" transform="translate(0 0.1)"/><path id="path18379" class="cls-13" d="M641.7,152c-11-9.6-16.5-11.3-14.9-4.5s17.6,19.7,21.3,18.1-2.8-11-6.4-13.6Z" transform="translate(0 0.1)"/><path id="path18381" class="cls-15" d="M641.6,199.4c-.6-2.1-2.6-5.1-4.4-7.9-3.5-2.5-16.2-11.4-18.2-12.3a8.71,8.71,0,0,1-1.8-1.1c-10.4-3.1-15.9-9.7-16.2-7.2-.5,3.7,3,17.7.5,29.8s-24.5,17.9-25.3,23.8,2.2,22,8.9,28.6a8.13,8.13,0,0,0,5.3,2,9.06,9.06,0,0,1-1.1-1.6c-2.9-4.5-5.6-17.4-5-24.1S602,214.8,606.7,209s8.4-9.1,15-6c2.3,1.1,2.5,3,1.9,5.5,7.9-3.6,17.7-5.2,18.1-7.4a4.58,4.58,0,0,0-.1-1.7Z" transform="translate(0 0.1)"/></g><g id="g18383"><path id="path18385" class="cls-13" d="M596.2,224.2c-64.5,9-60,68.3-16.7,86.4,50.8,17.7,74.2-3,80.6-42.2s-20.3-34.9-32.5-40.6C617.6,223.3,601.1,222.9,596.2,224.2Z" transform="translate(0 0.1)"/><path id="path18387" class="cls-17" d="M599.2,220.2c-43.8,5.3-47.4,55-23.1,70.9s49.8,7.8,60.5-4.9,9-44.2-2.6-55.9-27.6-10.5-34.8-10.1Z" transform="translate(0 0.1)"/><path id="path18389" class="cls-15" d="M574,231.1c-18.7,16.9-16.4,48,2,60,24.3,15.9,49.8,7.7,60.5-5,5.7-6.8,8-18.9,7-30.5-.1,12.3-4.2,31.3-30.6,34C575.9,293.1,554.3,268.6,574,231.1Z" transform="translate(0 0.1)"/><path id="path18391" class="cls-16" d="M606.1,220c-2.7,0-5,.1-6.8.2-29.8,3.6-41,27.7-37.5,47.8,4.5-31.9,27.9-46.4,60.1-37.1,20.8,6,21.6,29.7,18.8,48,5.8-14.9,3-38.8-6.8-48.6-8.8-8.8-19.8-10.3-27.8-10.3Zm-13.5,32.3c-12.7,2.6-7.3,20.6,10.6,21.4,16.9.4,20.9-10.2,15.4-16.6C617.6,253.3,592.6,252.3,592.6,252.3Z" transform="translate(0 0.1)"/><g id="g18393"><path id="path18395" class="cls-13" d="M610.5,250.4c-20-4.1-25.1,5.6-15.8,13.1s21.3,1.5,24.1-4.1-8.3-9-8.3-9Z" transform="translate(0 0.1)"/></g></g><g id="g18397"><path id="path18399" class="cls-13" d="M386,173.1c-51.9-36.2-101.1-3.1-106.7,2.7-4.9,5.1-4.1,49,3.5,55.8s38.2-20.9,53-14.5,22,21.5,39.4,18.4,22.8-37.2,19.6-46.3-6.1-14.2-8.8-16.1Z" transform="translate(0 0.1)"/><path id="path18401" class="cls-17" d="M268.7,199.3c33.9-26.9,56-38.7,93.9-23.9s33.9,29.4,34.6,40.4S383.5,237,378.8,229c-7-7.2-21.3-21.6-40.3-26.7-14.9-4-27.8,10.5-31.3,11.7S268.7,199.3,268.7,199.3Z" transform="translate(0 0.1)"/><path id="path18403" class="cls-16" d="M325.2,169.3c-18.7,2.2-35.3,13.1-56.5,29.9l7.4,3.4c24.8-23.9,50.4-33.8,84.6-20.5,30.1,11.7,34.9,30.4,35.7,37.8a9.59,9.59,0,0,0,.7-4.1c-.7-11,3.4-25.6-34.5-40.4C348.4,169.8,336.4,168,325.2,169.3Z" transform="translate(0 0.1)"/><path id="path18405" class="cls-15" d="M328.7,191.6c-12.5,1.4-25.6,6.7-37.5,17.4,7.5,3,14.7,5.6,16.1,5.1,3.5-1.2,16.3-15.8,31.2-11.8,19,5.1,33.3,19.4,40.3,26.6a5.69,5.69,0,0,0,3.2,2.5c.8-9.9-.6-20.2-8-26.8C363.7,195.4,346.8,189.4,328.7,191.6Z" transform="translate(0 0.1)"/><path id="path18407" class="cls-13" d="M332.5,206.3c10,61.9-50.4,68.2-74.7,31.7-26-43.5-16.9-69.6,9.9-83.8s45.9,5.3,53.2,15.4C326.8,177.9,332.2,201.4,332.5,206.3Z" transform="translate(0 0.1)"/><path id="path18409" class="cls-17" d="M318.6,200.7c7.4,41.9-27.8,55.6-45.6,36.3s-18.5-44.7-12-57.3,29.9-17.7,41.4-9.3S317,193.9,318.6,200.7Z" transform="translate(0 0.1)"/><path id="path18411" class="cls-16" d="M285.8,166.5c-10.2.5-20.7,5.3-24.8,13.2-3.9,7.6-5.3,20-1.8,32.8-2.6-28.9,16.4-39.2,33.9-35.3,20.3,4.5,24.1,21.5,26.3,29.5-.2-1.9-.5-3.9-.8-6-1.6-6.8-4.8-22-16.3-30.4C297.9,167.2,291.9,166.2,285.8,166.5Zm-6.6,27c-8,18.2,1.6,31.3,10.8,27.3s7.9-14.3,6.3-18.8-11.1-6.5-11.1-6.5l-4-1.8-2-.2Z" transform="translate(0 0.1)"/><g id="g18413"><path id="path18415" class="cls-13" d="M292,195.6c8.1,17.7-1.7,26.8-9.6,19.8s-6.6-19.5-3.2-23.3S291.1,192.3,292,195.6Z" transform="translate(0 0.1)"/></g><path id="path18417" class="cls-15" d="M315.9,190.5s9.1,35-9.5,44.6c-16.8,8.6-37.5,5.7-48.4-28.5A58.36,58.36,0,0,0,273,237c17.8,19.3,53,5.7,45.6-36.2-.7-3.5-1.7-7-2.7-10.3Z" transform="translate(0 0.1)"/></g><g id="g18419"><path id="path18421" class="cls-13" d="M389.3,175.3c-62.5,19.2-51.9,76.1-7.5,86.7,51.8,9,72.6-14.9,74.9-54s-23.6-30.7-36.2-34.2c-10.1-2.9-26.4-.6-31.2,1.5Z" transform="translate(0 0.1)"/><path id="path18423" class="cls-17" d="M391.9,170.9c-42.5,12.2-41,61.1-15.4,72.7s49.8-.4,59-14.5,4.3-44.5-8.4-54S399,169.4,391.9,170.9Z" transform="translate(0 0.1)"/><path id="path18425" class="cls-15" d="M368.3,185.6c-16.7,19.4-11.1,49.3,8.2,58,25.6,11.5,49.8-.5,59-14.6,4.9-7.5,5.9-19.7,3.7-30.8,1.2,12-.8,31.1-26.6,38-36,9.4-59.8-11-44.3-50.6Z" transform="translate(0 0.1)"/><path id="path18427" class="cls-16" d="M398.7,169.6c-2.6.4-4.9.9-6.7,1.3-29,8.3-37.5,33.6-31.9,52.5,1.1-31.8,22.6-49.6,55.2-45.8,21.1,2.5,24.3,25.4,23.5,43.6,4.2-15.4-1-38.2-11.8-46.2-9.4-7-20.4-6.7-28.3-5.4Zm-9.9,33.6c-12.2,4.6-5,21.2,12.7,19.1,16.6-2.4,19.5-13.3,13.5-18.6-1.5-3.6-26.2-.5-26.2-.5Z" transform="translate(0 0.1)"/><g id="g18429"><path id="path18431" class="cls-13" d="M406.2,198.5c-20.1-.8-24.1,9.5-14.2,15.3s21.1-2,23.3-7.9-9.1-7.4-9.1-7.4Z" transform="translate(0 0.1)"/></g></g><g id="g18433"><path id="path18435" class="cls-13" d="M475.8,145.7c-64.9,9.1-60.4,68.8-16.8,86.9,51.1,17.8,74.6-3,81.1-42.4s-20.5-35.1-32.7-40.8c-10-4.6-26.6-5-31.6-3.7Z" transform="translate(0 0.1)"/><path id="path18437" class="cls-17" d="M478.8,141.6c-44.1,5.3-47.7,55.3-23.2,71.3s50.1,7.9,60.9-5,9.1-44.5-2.7-56.2S486.1,141.3,478.8,141.6Z" transform="translate(0 0.1)"/><path id="path18439" class="cls-15" d="M453.5,152.7c-18.8,17-16.5,48.3,2,60.4,24.5,16,50.1,7.8,60.9-5,5.8-6.8,8-19,7-30.7-.1,12.4-4.2,31.5-30.8,34.2-37.3,3.4-59-21.1-39.1-58.9Z" transform="translate(0 0.1)"/><path id="path18441" class="cls-16" d="M485.8,141.5c-2.7,0-5,.1-6.9.2-30,3.6-41.2,27.9-37.7,48.1,4.5-32.1,28.1-46.6,60.4-37.3,21,6,21.7,29.9,18.9,48.3,5.9-15,3.1-39-6.8-48.9-8.8-8.9-19.8-10.4-27.9-10.4Zm-13.6,32.4c-12.8,2.7-7.3,20.8,10.7,21.5,17,.4,21.1-10.3,15.5-16.7C497.5,175,472.2,173.9,472.2,173.9Z" transform="translate(0 0.1)"/><g id="g18443"><path id="path18445" class="cls-13" d="M490.2,172.1c-20.1-4.1-25.3,5.6-15.9,13.2s21.5,1.5,24.2-4.1S490.2,172.1,490.2,172.1Z" transform="translate(0 0.1)"/></g></g></g><g id="g18447"><path id="path18449" class="cls-2" d="M558.9,501.8c-7.7,11.6-1.7,27.9,3.1,26.8s62.3-10.3,49.5-20.6C602.8,501,558.9,502.8,558.9,501.8Z" transform="translate(0 0.1)"/><path id="path18451" class="cls-5" d="M565,511.8c-1.7,7.5,1.4,7.5,1.4,7.5s38.9-5.6,35.4-7.5S565,511.8,565,511.8Z" transform="translate(0 0.1)"/></g><g id="g18453"><path id="path18455" class="cls-2" d="M560.4,369.6c-10.8,8.2-10.1,25.7-5.2,26.5s61.9,12.6,53-1.7C602.1,384.6,560,370.6,560.4,369.6Z" transform="translate(0 0.1)"/><path id="path18457" class="cls-5" d="M563,381.2c-3.9,6.4-.9,7.6-.9,7.6s38.4,8.6,35.7,5.6S563,381.2,563,381.2Z" transform="translate(0 0.1)"/></g><g id="g18459"><path id="path18461" class="cls-2" d="M587.4,616c-2.1,14.1,9.9,25.8,13.8,22.5s51.4-39.6,35.8-42.6C626.4,593.9,587.9,617,587.4,616Z" transform="translate(0 0.1)"/><path id="path18463" class="cls-5" d="M596.9,622c1.5,7.5,4.4,6,4.4,6s32.4-24,28.6-24S596.9,622,596.9,622Z" transform="translate(0 0.1)"/></g></g></svg>