<svg id="Layer_1" data-name="Layer 1" xmlns="http://www.w3.org/2000/svg" viewBox="0 0 861.38 1111.74"><defs><style>.cls-1{fill:#04a;}.cls-1,.cls-8{fill-opacity:0;}.cls-2{fill:#01130e;}.cls-3{fill:#1eefba;}.cls-4{fill:#10dca8;}.cls-5{fill:#4fffd2;}.cls-6{fill:#be0000;}.cls-7{fill:#9d0000;}.cls-8{fill:#450;}.cls-9{fill:#f3f3f3;}.cls-10{fill:#fff;}.cls-11{opacity:0.29;}.cls-11,.cls-23,.cls-25,.cls-26,.cls-32{isolation:isolate;}.cls-12{fill:#140000;}.cls-13{fill:#fc0;}.cls-14{fill:#ff0;}.cls-15{fill:#ff8a8a;}.cls-16{fill:#9c2222;}.cls-17{fill:#ff2a2a;}.cls-18{fill:#0b070d;}.cls-19{fill:#9165a8;}.cls-20{fill:#daaaf3;}.cls-21{fill:#070d0c;}.cls-22{fill:#8fd5d7;}.cls-23{fill:#108e93;opacity:0.48;}.cls-24{fill:#76ecf0;}.cls-25{fill:#20a5a9;opacity:0.84;}.cls-26{opacity:0.33;}.cls-27{fill:#614370;}.cls-28{fill:#110505;}.cls-29{fill:#a02c2c;}.cls-30{fill:#c43636;}.cls-31{fill:#752020;}.cls-32{fill:#0d0d07;opacity:0.32;}.cls-33{fill:#a0a000;}</style></defs><path id="rect11304" class="cls-1" d="M0,870.9H440.4" transform="translate(0 -1.36)"/><g id="g17915"><g id="g17917"><g id="g17919"><g id="g17921"><path id="path17925" class="cls-2" d="M558.8,685.7c57.1-25.4,56.7,55.1,83.1,91.9s62.7,35.8,92.2,69.9c19.5,22.6,30.8,54.4,15.1,88.7-14,30.4-46.1,34.1-67.7,19.6-19.5-13.1-5.3-28-27.4-53.6-21.7-25.2-44.4-13.8-69.7-41.7-30.1-33.2-55.1-84-62.9-115.3-3.8-15.2-2.4-24,1.4-29.6,12.3-18.2,35.9-29.9,35.9-29.9Z" transform="translate(0 -1.36)"/><path id="path17927" class="cls-3" d="M596.7,724.1c15,32.3,21.3,77.6,59.7,97.9,24.1,14,47,22.2,61.8,36.7,17.9,16.4,28.2,53.6,11,73.3-13.8,14.9-43.3,11.3-43.1-21.2-12.8-25.8-24.8-35.6-74.4-55-40.3-18-61.2-73.1-76.1-107.5-18.5-29.3-10.5-50.2,10.1-61.5C575.3,669.9,588.2,703.6,596.7,724.1Z" transform="translate(0 -1.36)"/><path id="path17929" class="cls-4" d="M525.9,711c2.5,8.7,6.7,21.2,13.9,39.4,17.2,43.2,54.9,90.1,93.3,99.9,25.2,6.4,58.4,26.2,61.7,29.8s1,26.3,7.6,33.3c6,6.3,19.3,12.8,35.3-12.5,1,11.5-1.3,22.9-8.5,31.1-13.8,14.9-43.3,11.4-43.1-21.1-12.8-25.8-24.9-35.7-74.5-55.1-40.3-18-61.2-72.6-76.1-107.1C528.7,734.1,524.6,721.4,525.9,711Z" transform="translate(0 -1.36)"/><path id="path17931" class="cls-5" d="M545.8,686.8c29.5-16.8,42.4,16.8,51,37.3,15,32.3,21.3,77.5,59.6,97.8,24.1,14,47.1,22.3,61.9,36.7,16.2,14.8,26,46.5,15.2,67,2.3-10.3,3.4-33.2-22.7-57.3-32.1-29.5-56.5-20.2-92.5-58.2S580.6,701,570,692.6c-9.4-7.5-29.9-1.2-33-.6.6-.3,8.1-4.7,8.8-5.2Z" transform="translate(0 -1.36)"/></g></g></g><g id="g18027"><g id="g18029"><path id="path18031" class="cls-1" d="M387.7,763.3h228v304.9h-228Z" transform="translate(0 -1.36)"/><path id="path18033" class="cls-2" d="M508.8,776.5c-15.3.4-34.6,11.6-34.6,32.2-2.7,41.9,1.9,53.8,4.7,94.1,3.7,32.5-6.9,84.2-9.3,116.2-.5,14.8,1.5,37.5,26.5,46.1,10.9,4.6,39.5-.3,44.5-20.4,17.3-53.9,14.7-95.7,16.9-145.6.4-28.2-1.5-53.5-4-95.4-2.5-25.4-30.1-29.5-44.7-27.2Z" transform="translate(0 -1.36)"/><path id="path18035" class="cls-6" d="M511.2,773.1c-17.4,4-23,27.3-22.1,42.4.9,51.9,11.5,124.3-.8,175.3-2,19.2-5.3,54,15.5,58.1,15.4,2.9,21.7-13.5,23.4-29a492,492,0,0,0,13.3-121.5c.9-33,4.2-77.1-2.5-109.4C535.9,770.3,518.6,771.3,511.2,773.1Z" transform="translate(0 -1.36)"/><path id="path18037" class="cls-7" d="M541.9,854.5c-1.7,8.1-1.7,43.2-3.8,68.5-2.5,30.4-12.6,85.9-19,96.9-5.8,10.1-20.6,27.5-30.8,10.1,2,9.5,6.4,17.2,15.4,18.9,15.4,2.9,21.7-13.6,23.4-29a491.77,491.77,0,0,0,13.3-121.4C540.8,885.2,541.6,869.9,541.9,854.5Z" transform="translate(0 -1.36)"/><path id="path18039" class="cls-7" d="M506.4,774.9c-13.6,6.8-18,27-17.2,40.6.9,51.9,11.6,124.3-.8,175.4-2,19.2-5.4,54,15.4,58.1a15.22,15.22,0,0,0,13.9-4c-2.7.3-5.9.8-9.3,1.3-10.8,1.4-13.4-9.1-15.3-27.8s17.8-69.8,14.6-103.8C504.7,882.9,488.8,816.2,506.4,774.9Z" transform="translate(0 -1.36)"/></g></g><g id="g18041"><g id="g18043"><path id="path18047" class="cls-2" d="M565.9,740.6c-12.3,4.8-18.8,15.4-22.7,28.2.3,31.1,10.4,61.2,19.9,90.4,18.2,45.8,38.6,91.4,44,141.6.1,19.6,15.5,36,33.4,33.8,18.3.5,41.5-5.3,48.3-25.2,5.1-31.6-9-61.8-17.5-91.2-17-51.8-33.5-104.2-43.1-158.3-5-21.6-29.2-27.8-47.2-23.9-5,1.1-10.3,2-15.1,4.6Z" transform="translate(0 -1.36)"/><path id="path18049" class="cls-6" d="M573.2,727.5c-16.8,8.2-15.1,32.5-11.4,47.5,11.5,66.2,60,151.8,66,219.6,1.5,9.8,7.3,24.4,29.9,16.4,21-5.8,5.6-37.3,2.9-54.7-13.5-54.9-43.7-144.7-49.3-201.8-1.8-16.5-10.2-22.4-23.3-27.7C583.2,725.9,577.7,724.7,573.2,727.5Z" transform="translate(0 -1.36)"/><path id="path18051" class="cls-7" d="M564,749.4c-4.4,10.8-2.8,25.2-.2,35.3,11.5,66.2,58.1,142.2,64.1,209.9,1.5,9.8,7.4,24.3,29.9,16.2a13.43,13.43,0,0,0,7.5-4.8,43.61,43.61,0,0,1-18.6-2.3c-10.1-3.5-7.7-15.1-12.5-36s-17-62.6-35-99.4C582,833.2,566,794.9,564,749.4Z" transform="translate(0 -1.36)"/><path id="path18053" class="cls-7" d="M620.5,807.7c-.3,49.2,25.8,127.1,34.1,151.1,7.8,22.7,9.6,40.9,7.3,50.4,14.6-8.8,1.3-36.9-1.3-52.9C650.2,914.3,631.3,857.6,620.5,807.7Z" transform="translate(0 -1.36)"/></g></g><g id="g18055"><g id="g18057"><g id="g18059"><path id="path18061" class="cls-8" d="M311.5,652.1,519,761.9,395.2,1039.3,187.8,929.5Z" transform="translate(0 -1.36)"/><path id="path18063" class="cls-2" d="M425.8,722.3c-16.4-8.5-38.3-15.1-49.6,3.5-16.4,22.8-17.7,58.5-43.5,72.7-15.3,12.6-36.5,10.2-56.1,11.7-14.8-.7-26.5,5.6-37.5,14.8-20.1,17.8-32.8,50.7-19.6,76.8,9.1,21.4,36.9,31.4,56.3,22.7,7.5-2.6,13.9-13.7,20.8-19.8,12-8.3,29.9-7,44.1-12.3,33.7-8.3,68.3-26,84.7-61,12.1-24.1,25.4-49.3,27.5-77-2.3-12.5-9.1-23.8-20.5-29.1-2.1-1.4-4.5-2-6.6-3Z" transform="translate(0 -1.36)"/><path id="path18065" class="cls-6" d="M426.5,721.3c-15.5-9.6-30.3,4.6-37.2,19.7-14.2,25-26.9,73.8-57.7,82.9-36,9.8-40.2,7.5-59.8,9.9-19.9.6-40.4,25.2-35.3,47.6,1.7,10.9,15.3,23.5,27.8,20.1,14.5-2.5,11.1-12.5,19.4-17.2,10.1-5.2,30.6-9.2,52.7-13,61.9-13.6,93.6-78.4,104.9-129.2-.4-8.2-5.6-18.7-14.8-20.8Z" transform="translate(0 -1.36)"/><path id="path18067" class="cls-7" d="M441,740.6c-2.1,4-6.2,12.4-13.6,31.1-11.2,28.6-39.5,73.9-88.7,83.2-40.5,7.7-59,9.1-60,13.5s-6.8,16.4-14.9,19.1c-7.6,2.5-23.9-1.9-23.6-31.3-4,7.7-5.8,16.6-3.9,25.1,1.7,10.9,15.3,23.5,27.7,20.2,14.5-2.5,11.2-12.5,19.5-17.2,10.1-5.3,30.6-9.2,52.6-13C398,857.7,429.7,792.8,441,742A6.55,6.55,0,0,0,441,740.6Z" transform="translate(0 -1.36)"/><path id="path18069" class="cls-6" d="M419.9,718.7c-13.1-2.9-24.7,9.4-30.7,22.3-14.2,25-27,73.7-57.8,82.8-36,9.8-40.1,7.6-59.7,9.9-19.2.6-38.8,23.3-35.7,44.9,2.4-9.4,8.9-23.1,23.4-29.8,21.2-9.8,57.3,3.4,89.7-22.6s39.3-74.7,51.7-91.3C409.8,722.8,415.8,719.2,419.9,718.7Z" transform="translate(0 -1.36)"/></g></g></g><g id="g18071"><g id="g18073"><path id="path18077" class="cls-2" d="M409.3,771.2c-14.7-.2-32,5.2-34.8,22.7-4.3,28.1-1.4,56.8-1.4,85.1-1.8,28.5-10.4,56.5-26.2,79.3-4.8,9.2-16.7,16.7-17.9,29.5-6.5,28.9,7.9,63.5,35.8,69.6,19.9,6.4,46.2,7.5,59.5-12.7,14.3-16.6,9.9-41.3,12.1-62.2,16.6-41.8,28.9-87.1,24.4-133.1-2.3-19.7-2.7-39.9-6.1-59.2-6.8-18.3-29.5-19.8-45.4-19Z" transform="translate(0 -1.36)"/><path id="path18079" class="cls-6" d="M407.9,769.4c-16.6,1.6-19.1,23.6-17,38.1-.6,50.5,6.5,104.1-17.7,149.3-5,13.4-22.3,25.4-20.5,55.4-.3,24.5,41.9,35.8,54,15.7,8.3-17.9,0-23.9,11.2-57.3,12.4-37,24-66.7,27.4-97.7,2.8-27.5-3-59.5-5.3-88.1-.1-13.8-24.9-17-32.1-15.4Z" transform="translate(0 -1.36)"/><path id="path18081" class="cls-7" d="M442.6,811.9c.6,15.3-.4,45-4.2,63.3-4.5,21.5-34.3,85.1-36.9,99.6s5.7,51.3-8.2,53.4c-12.8,1.9-35,1.9-40.2-28a68.82,68.82,0,0,0-.4,12c-.3,24.5,41.9,35.9,54,15.7,8.3-17.9,0-24,11.2-57.4,12.4-37,24-66.6,27.3-97.6,2-18.9-.3-40.2-2.6-61Z" transform="translate(0 -1.36)"/><path id="path18083" class="cls-7" d="M394.7,778.5c-4.5,8.1-5.1,20-3.8,29-.6,50.5,6.5,104.1-17.6,149.3-5,13.4-22.3,25.3-20.5,55.4-.1,9.3,5.9,16.7,14.1,21.2a32.66,32.66,0,0,1-4.7-4.4c-5.7-6.9-8.8-20.1,2.6-40.1s43.1-69.2,38.7-110C399.4,842.4,388,811.3,394.7,778.5Z" transform="translate(0 -1.36)"/></g></g><g id="g18085"><path id="path18087" class="cls-2" d="M362.9,862.7C222,627.3,310.5,396.6,325,335s-30.7-128.5,55-195.4,218-7.1,250.4,59.9S590,426.6,620.7,535.8s63.5,109.1,64.4,216.6c1.4,169.3-233.5,248.2-322.2,110.3Z" transform="translate(0 -1.36)"/><path id="path18089" class="cls-6" d="M382.8,841.6C263.5,642.3,326,410.8,344.9,336.7c20.4-80.4-19.5-115.9,53-172.5s182.3-11.9,208.4,45.4c33.8,74.3-48.8,197.6-8.2,342.8,25.8,92.5,63.2,104.7,63.9,195.7C663.2,891.6,457.8,958.3,382.8,841.6Z" transform="translate(0 -1.36)"/><path id="path18091" class="cls-7" d="M593.3,189.5a169.12,169.12,0,0,1,9,34.4c8,51-16.1,64.8-41.2,181.8s46,204.5,61.1,246.5c17.2,47.6,46.8,194.4-78.3,220.3-72.6,15-146.9-12.2-197.8-106.8a477.58,477.58,0,0,0,36.6,75.9c75,116.7,280.4,50,279.2-93.4-.8-91-38.2-103.3-64-195.8-40.5-145.2,42.2-268.5,8.3-342.8A85,85,0,0,0,593.3,189.5Z" transform="translate(0 -1.36)"/><path id="path18093" class="cls-7" d="M480.9,138c-33.7,4.2-77.5,27.9-98.9,40-27.6,27-30.6,49.9-30.6,77.3a64.51,64.51,0,0,0,8.5,2.7s15.4,27.3,54.2,24.6,50-31.7,50-31.7,24.3,10.6,42.1,8.9,30-34.4,30-34.4-.7,13.2,2.5,20.3,2.3,9.6,2.3,9.6-5.1,5.1-6.2,15.6a20.34,20.34,0,0,0-8,2.2c-28.6,29.9-9.1,68.5,11.5,59.8,8.1-3.4,13.6-10.5,16.8-18.8,9.6,7.5,21.1,11.8,31.2,11.8,18.6,0,21.8-28.9,21.8-33.3s2.5-39.7,2.5-39.7a233.23,233.23,0,0,0,1.2-26.4,82.59,82.59,0,0,0-5.5-16.8C589.2,171.9,536,139.7,480.9,138Z" transform="translate(0 -1.36)"/><path id="path18095" class="cls-7" d="M335.3,375.9c-9.2,39.4-19.9,94.5-22.8,157.5,37.3,9.1,61.2-11.2,61.2-11.2s24,32.2,70.8,22.3,58.3-99.5,56-113.2S389.6,384,367.9,379C360.5,377.3,348.7,376,335.3,375.9Z" transform="translate(0 -1.36)"/></g><g id="g18097"><path id="path18099" class="cls-2" d="M560.2,350.9c-27.5,11.9-24.7,58.6-8.8,64.6s27.9-21.8,28.9-39-9.1-29.9-20.1-25.6Z" transform="translate(0 -1.36)"/><path id="path18101" class="cls-7" d="M554.2,367.6c-13.1,14.3-8.6,29.9,0,28.6s14.3-19.3,10.3-29.3S554.2,367.6,554.2,367.6Z" transform="translate(0 -1.36)"/></g><g id="g18103"><path id="path18105" class="cls-2" d="M551.2,486.8c-12.7,20.7-4.4,57.8,14.1,59.4s16-32.8,13.6-45.6-11.7-21.2-19-19.6S551.2,486.8,551.2,486.8Z" transform="translate(0 -1.36)"/><path id="path18107" class="cls-7" d="M549.2,507.1c-4,13.7,5.1,29.3,11.4,26.1s6.3-26.1-1.7-32.4-9.7,6.3-9.7,6.3Z" transform="translate(0 -1.36)"/></g><g id="g18109"><path id="path18111" class="cls-2" d="M575.4,601.4c-6.4,30.1,12.8,60.7,25.2,56.4s6.9-38.7-1-51.6-15.3-13.4-19.2-10.7a12.48,12.48,0,0,0-5,5.9Z" transform="translate(0 -1.36)"/><path id="path18113" class="cls-7" d="M579.7,629.9c2.3,12.9,9.9,20.8,13.7,17.9s-.7-20-7.8-29.2S579.7,629.9,579.7,629.9Z" transform="translate(0 -1.36)"/></g><g id="g18115"><g id="g18117"><path id="path18119" class="cls-2" d="M425.2,376.2c18,46.2,21.8,95-21.1,120.1-33.6,19.7-80,6.9-98-39.3s-6.9-101.2,23.5-121.8,77.5-5.2,95.6,41Z" transform="translate(0 -1.36)"/><path id="path18121" class="cls-9" d="M422.5,377.8c12.2,31.2,10.7,79.9-19.6,101-29.4,20.5-65.6,6.3-80.5-31.9s-8.9-76.1,20.7-96.1,64.9-10.2,79.4,27Z" transform="translate(0 -1.36)"/><path id="path18123" class="cls-10" d="M353.2,345.2a62.48,62.48,0,0,0-10.2,5.5c-29.6,20.1-35.5,57.9-20.6,96.1,12.5,32.1,40,47.3,66,39.1-7.4-.4-16.6-1.9-28.8-5.8C324.9,469.3,308.9,387.6,353.2,345.2Z" transform="translate(0 -1.36)"/></g><g id="g18125"><path id="path18127" class="cls-2" d="M390.7,408.4c0,62.3,36.2,105.5,80.8,105.5s80.8-43.3,80.8-105.5-24.8-112.8-69.5-112.8-92.1,50.5-92.1,112.8Z" transform="translate(0 -1.36)"/><path id="path18129" class="cls-9" d="M408.7,409.3c0,40.7,25.2,87,66.4,87,42.1,0,77.8-34.6,77.8-84.5s-28.6-90.2-70.6-90.2S408.7,360.8,408.7,409.3Z" transform="translate(0 -1.36)"/><path id="path18131" class="cls-11" d="M552.3,400.7c-1.9,17.2-6.9,35-15,50.2-9.2,17.2-24.9,35.4-43.7,42.9,33.5-8.5,59.2-39.8,59.2-82,0-3.8-.2-7.5-.5-11.1ZM422.5,461.5c1.3,2.2,2.5,4.4,4,6.5l.3.3c.7,1,1.4,1.9,2.2,2.9s1.5,2.1,2.3,3.1,1.9,2.1,2.8,3.1,2.1,2.1,3.2,3.1a26.22,26.22,0,0,0,2.5,2.2l2.8,2.2c.6.4,1.1,1,1.7,1.5,1,.7,2,1.4,3,2,.2.1.3.3.5.4,1.2.7,2.6,1.2,3.8,1.8-9.7-5.7-19.4-15-29.1-29.1Z" transform="translate(0 -1.36)"/><path id="path18133" class="cls-10" d="M424.8,353.7c-10.2,15.1-16,34.5-16,55.6,0,40.7,25.1,86.9,66.3,86.9a78.79,78.79,0,0,0,10.9-.8c-10.7-.8-24-4.4-37.9-14.7C424.8,463.6,400.2,408.9,424.8,353.7Z" transform="translate(0 -1.36)"/></g><g id="g18135"><path id="path18137" d="M500.5,419c0,12.8-9.5,23.2-21.3,23.2s-21.3-10.4-21.3-23.2,9.5-23.2,21.3-23.2S500.5,406.3,500.5,419Z" transform="translate(0 -1.36)"/><path id="path18139" class="cls-10" d="M478.3,405.5c0,5.9-4.4,10.6-9.8,10.6s-9.8-4.8-9.8-10.6,4.4-10.6,9.8-10.6S478.3,399.6,478.3,405.5Z" transform="translate(0 -1.36)"/></g><path id="path18141" class="cls-2" d="M501.7,239c-79.7,27-113,118.2-108.5,128.8s7.1,16.4,13.3,22.2,71.7-51.1,93.9-69.5,34.5-26.1,39-38.6S516.4,230.9,501.7,239Z" transform="translate(0 -1.36)"/><path id="path18143" class="cls-2" d="M322.4,270.5c61.7,20.9,90.5,86.6,87.1,94.9s-5.5,12.7-10.3,17.2-55.5-39.6-72.7-53.8-22.7-16.6-26.1-26.4,12.9-31.9,22-31.9Z" transform="translate(0 -1.36)"/><g id="g18145"><path id="path18147" d="M364.4,425.7c0,11.3-8.4,20.4-18.8,20.4s-18.8-9.1-18.8-20.4,8.4-20.4,18.8-20.4S364.4,414.4,364.4,425.7Z" transform="translate(0 -1.36)"/><path id="path18149" class="cls-10" d="M344.9,413.8c0,5.2-3.9,9.4-8.6,9.4s-8.6-4.2-8.6-9.4,3.9-9.4,8.6-9.4S344.9,408.6,344.9,413.8Z" transform="translate(0 -1.36)"/></g></g><g id="g18151"><g id="g18153"><g id="g18155"><path id="path18159" class="cls-2" d="M401,788.1c-18.3-3.3-41.4-3.2-47.7,18.5-10.2,27.4-2.4,62.8-24,84.4-11.8,16.9-33.1,21.1-51.9,28.5-14.7,3.8-24.5,13.6-33,25.9-15.1,23.5-19.1,59.6.5,81.2,14.4,18.2,44.2,19.6,61,5.1,6.7-4.8,10.1-17.6,15.3-25.7,9.6-11.8,27.5-15.9,40-25.4,30.9-18.3,60.3-46.2,67.3-85.5,5.7-27.2,6.2-48.1,1.2-75.8-3.8-12.8-9-28.4-21.5-30.2-2.3-.8-4.8-.7-7.2-1Z" transform="translate(0 -1.36)"/><path id="path18161" class="cls-6" d="M402.5,783.4c-20.2-.3-34.9,2.5-33.5,29.7-7.5,28.8-6.5,84.8-34.4,103.1-32.8,20.6-37.5,19.6-56.1,27.9-19.4,6.6-33.1,37-22.4,57.3,4.5,10.2,21,18.4,32.4,11.3,13.6-6.9,7.7-15.6,14.6-22.7,8.6-8.2,27.6-18.3,48.3-28.8,57.2-32.1,74.7-107.3,72.8-160.5,4.9-8.9-9.5-15-21.7-17.3Z" transform="translate(0 -1.36)"/><path id="path18163" class="cls-7" d="M420.5,801.4c-1,4.5-2.9,14-5.4,34.6-3.7,31.4-19.8,84.5-65.6,108.5-37.8,19.8-55.5,26.9-55.3,31.4s-2.5,18.2-9.7,23.3c-6.8,4.8-23.9,5.4-31.1-23.5-2,8.8-1.4,18,2.6,25.8,4.5,10.2,21,18.4,32.3,11.3,13.6-6.9,7.8-15.6,14.7-22.7,8.6-8.2,27.6-18.4,48.2-28.8,57.2-32.1,71.6-105.3,69.7-158.6A3.26,3.26,0,0,0,420.5,801.4Z" transform="translate(0 -1.36)"/><path id="path18165" class="cls-6" d="M390,785.2c-12.6-.1-22.1,6.7-21,27.8-7.3,28-6.6,81.4-32,101.3a23.48,23.48,0,0,1-2.5,1.9c-8.1,5.1-14.5,8.9-19.9,11.8-2.7,1.5-5.1,2.8-7.4,3.9s-4.1,2-6,2.8c-3.9,1.7-7.2,3-10.8,4.4s-7.3,3-12,5.1a34.54,34.54,0,0,0-3.4,1.4s-.1-.1-.1,0c-1.1.6-2.1,1.3-3.2,2-.1.1-.2,0-.3.1a31.55,31.55,0,0,0-2.9,2.2l-.4.3c-.9.8-1.6,1.6-2.4,2.4a28.58,28.58,0,0,0-2.7,3.1,34.33,34.33,0,0,0-2.4,3.3c-.8,1.2-1.5,2.5-2.2,3.7-.5.9-1,1.8-1.4,2.7-.3.6-.6,1.1-.9,1.7l-.3.6c-.4.9-.6,1.8-.9,2.7-.4,1.2-.7,2.4-1,3.6-.1.3-.2.5-.3.8-.3,1.3-.6,2.5-.8,3.8-.1,1-.2,1.9-.3,2.9s-.2,2.3-.2,3.4,0,2.2.1,3.3c.1.9.1,1.8.2,2.6,0,.2.2.5.2.7.2,1.1.5,2.2.7,3.2.1.4.3.8.4,1.3.3,1,.6,2,.9,2.9-.1-9.9,2.9-25.2,15.3-36.1,18.3-16.1,57.1-14.2,82.2-49.5s19.3-85.1,27.1-105.2c5.8-14.7,10.8-20.1,14.7-21.8-1.1-.4-2.6-.7-4.1-1.1Z" transform="translate(0 -1.36)"/></g></g></g><g id="g18167"><g id="g18169"><path id="path18173" class="cls-2" d="M602.5,823.3c-10.1,11.2-13.2,23-13.5,34.8,8.5,22.7,25.8,38.7,42.2,54.3,28.9,22.4,59.8,43.4,78,77,5.3,14.4,33.5,25.7,49.5,12.9,17.1-11,32-26.1,28.3-57.5-3.6-26.4-24.6-39.9-40.2-56.4-29.3-27.7-58.4-56-81.6-89.9-10.3-12.8-34.2-2.4-49.9,11.7-4.4,4.2-9,8.1-12.8,13.1Z" transform="translate(0 -1.36)"/><path id="path18175" class="cls-6" d="M605.8,809.1c-13.4,16.5-5.4,33.3,2,42.1,28.1,41.6,95.6,74.6,119,120.8,4,6.3,13.2,13.4,31.9-6.5,17.9-17.4-4.7-31-11.8-42.1-27-32.1-78.6-79.5-98.9-118.1-6-11-15.3-10.2-28.8-5.9C614.6,801.8,609.2,804.3,605.8,809.1Z" transform="translate(0 -1.36)"/><path id="path18177" class="cls-7" d="M603.2,831c-1.2,10.7,4.1,20.3,9.1,26.2,28.1,41.6,91.2,68.7,114.6,114.9,4,6.3,13.2,13.3,31.9-6.6a23.32,23.32,0,0,0,5.7-8.2,67.54,67.54,0,0,1-17.8,9.9c-10.3,3.7-11.1-6.3-21-18.8s-32.3-35.6-58.6-51.5C641.8,881.6,617,863.3,603.2,831Z" transform="translate(0 -1.36)"/><path id="path18179" class="cls-6" d="M670.6,838.9c12.7,36.5,57.4,77.7,71.4,90.2,13.2,11.8,19.7,24.2,20.1,32.7,11.1-15.5-8.6-28-15.2-38.2C726.3,899,693.8,868.9,670.6,838.9Z" transform="translate(0 -1.36)"/></g></g><g id="g18181"><g id="g18183"><path id="path18187" class="cls-2" d="M591.4,719.9c-11.1,17.2-2.4,47.5,10.5,60.6,25,36.9,41.7,64.7,83,77.3,22.1,3.2,46.8-3.2,68,5.4,11.3,11.4,14.6,31.3,28.5,40.4,17.3,15,42.9,1.9,59.9-14.5,17.8-16.1,28-46.8,12.4-65.7-14.5-23.6-34.2-44.2-60-50.5-28.6-7.3-60.6.4-87-12.2-27-15.6-32.4-42.2-53.1-65.1-16.7-12.4-45.4-3.4-60,12.8-3.3,3.6-.2,3.5-2.9,7.8Z" transform="translate(0 -1.36)"/><path id="path18189" class="cls-6" d="M599.6,761.3c25.6,31.4,58.1,68.3,96.7,72.4,25.6,5.6,42.5,1.9,62.8,5.6,15.6-2.3,25.5,72.8,72,28.5,19.7-20.6-3.3-43.5-9.3-51.2-27.2-26.6-52.7-25.2-76.4-25.9-16.6-3.4-39.1-1.1-53.2-13.1-25.8-17.4-37-69.8-59.5-91C591.2,673.8,561.9,733.4,599.6,761.3Z" transform="translate(0 -1.36)"/><path id="path18191" class="cls-6" d="M614.4,685.4a38.3,38.3,0,0,0-20.9,12.5l9.7.5c43.5,1.8,46.8,66.2,73.4,88.3,30.4,25.3,69.3,7,105,15.1,13.9,3.1,22.7,4.8,29.5,5.7a82.72,82.72,0,0,0-9.3-6.1c-1.2-.7-2.4-1.2-3.5-1.8l-1.5-.6c-1.6-.7-3-1.4-4.6-2-.1,0-.1-.1-.2-.1-2.2-.8-4.4-1.5-6.5-2.1s-4.2-1.1-6.4-1.6l-1.8-.3c-1.5-.3-3-.5-4.5-.7a.9.9,0,0,1-.5-.1c-3-.4-5.9-.7-8.8-.8-6.1-.4-12.2-.5-18.1-.7-10.4-2.1-23-1.9-34.6-4.5a49.73,49.73,0,0,1-9.9-3.2,35.06,35.06,0,0,1-6-3.3,26.93,26.93,0,0,1-2.7-2v-.2a40.56,40.56,0,0,1-4.6-3.6c-22.6-20.1-33.8-67.5-54.9-87.4a40.26,40.26,0,0,0-18.3-1Z" transform="translate(0 -1.36)"/><path id="path18193" class="cls-7" d="M625,781.9c20.1,25,42.4,48.7,71.4,51.7,25.6,5.7,42.5,1.8,62.8,5.5,15.6-2.3,25.5,72.8,72,28.6,8.5-8.9,9-18.2,6.4-26.6-1.3.9-3.1,2.8-2,6.7,1.6,5.7-6.4,32.1-30.4,16s-19.8-38.6-39.5-45.5C749.2,812.6,690.4,839.4,625,781.9Z" transform="translate(0 -1.36)"/></g></g><g id="g18195"><g id="g18197"><path id="path18201" class="cls-2" d="M533.5,814.8c-14.2,6.3-19.7,27.7-12.8,47,6.3,27.9,15.2,46.7,19.5,58.2,10.2,34.3,11.8,67.2-.9,103.4-12.2,24.6,10,66.4,36.9,70.2,11.4,3,52.7-1,63.3-28.3,12.3-30.3-6.6-52.2-7.7-70.5,4-100.7-21-127.7-42.2-178.1-10.7-22.9-43.2-9.8-56.1-1.9Z" transform="translate(0 -1.36)"/><path id="path18203" class="cls-6" d="M532.2,805.7c-15,8-5.5,33.2,1.2,45.8,16.1,47.6,40.3,94.9,32.5,146.7-.2,14.5-12.5,32.5-.9,59.9,7.7,23,51,17.2,55.7-6.4,1.9-20-7.9-22.4-8.4-58.1-.5-39.5.5-71.8-6.5-102.2-6.5-26.9-15.4-61.5-26.9-87.4-7-21.2-36.5-7.3-42.8-2.9Z" transform="translate(0 -1.36)"/><path id="path18205" class="cls-7" d="M583.3,835.5c5.6,14.1,14.5,42.3,16.9,60.9,2.9,21.8-4.1,93.1-1.7,107.7s22.3,45.8,9.9,53.2c-11.3,6.8-32.1,15.5-46.9-10.5a55.1,55.1,0,0,0,3.6,11.3c7.7,23,51,17.2,55.7-6.4,1.9-20-7.8-22.4-8.4-58.1-.5-39.5.5-71.8-6.6-102.1-4.5-18.6-13.6-37.5-22.5-56Z" transform="translate(0 -1.36)"/><path id="path18207" class="cls-6" d="M527.4,822.9c-1.6,9.4,1.8,20.8,6,28.7,16.1,47.6,40.4,94.9,32.6,146.7-.2,14.4-12.6,32.4-1,59.8,2.9,8.8,11,13.3,20.2,14.3a26.71,26.71,0,0,1-5.9-2.3c-7.6-4.2-14.9-15.3-10.8-38.6s17.6-81.6,0-118.1C552.9,880.8,532,856.3,527.4,822.9Z" transform="translate(0 -1.36)"/></g></g><g id="g18209"><g id="g18211"><g id="g18213"><path id="path18217" class="cls-2" d="M456.2,795.2c-36.5,33.8-14.1,81.3-21.5,121.9-8,44.1-32.7,65.1-39.6,109.6-4.6,29.5,2,61.5,31.4,79.8,26.1,16.2,53.6.4,63.8-23.7,9.2-21.9-9.4-25.5-4.3-58.9,5-32.7,28.8-36.8,35.4-73.9,7.8-44,3-99.3-6.1-129-4.4-14.3-9.8-20.6-15.6-22.9-18.9-7.3-43.5-3-43.5-2.9Z" transform="translate(0 -1.36)"/><path id="path18219" class="cls-6" d="M444.6,848c3.8,34.6,20.9,74.5.2,113.1-12.4,25.2-26.8,45.1-31.5,65.3-6.3,23.6,3.7,59.3,27.1,65.1,18.4,3.9,40.2-16.1,24.2-42-2.4-28.1,2.4-43,32.6-87.3,23.5-37.8,13.2-94.2,8.2-130.4.4-34.2-16.2-46.3-38.2-43.4C435.2,792.2,441.4,826.6,444.6,848Z" transform="translate(0 -1.36)"/><path id="path18221" class="cls-7" d="M495,796.3c2.3,8.4,5,20.8,8.2,39.6,7.4,44.6.2,104-25.7,134.2-17,19.8-33.9,55-34.8,59.7s12,21.6,10.2,31.1c-1.7,8.5-9.2,21.5-34.4,10.6,4.9,9.8,12.2,17.6,22,20,18.4,3.9,40.2-16.1,24.1-42-2.4-28.1,2.4-43.1,32.6-87.4,23.5-37.8,13.4-93.8,8.5-130-1.7-15.7-4.6-28.2-10.7-35.8Z" transform="translate(0 -1.36)"/><path id="path18223" class="cls-6" d="M467.2,788.5c-31.9,3.7-25.8,38.1-22.5,59.5,3.8,34.6,20.9,74.4.2,113-12.4,25.2-26.8,45.2-31.5,65.4-5.7,21.3,2,52.4,20.7,62.5-6.9-6.9-19-24.6-9.9-59.1,11.2-42.2,35.3-49.1,45.5-100.4s-23.2-109.3-18.9-122.2c3.9-11.4,23.3-18.4,26.1-19.7-.7.1-9,1-9.7,1Z" transform="translate(0 -1.36)"/></g></g></g><path id="path18243" class="cls-7" d="M502.7,254.8c-44.6,22.4-88.6,85.9-92,100.9s4,13.7,8,8.1,80-62.3,94.9-76.6,5.7-13.7,1.7-21.2-12.6-11.2-12.6-11.2Z" transform="translate(0 -1.36)"/><path id="path18245" class="cls-7" d="M318.6,302.1c29.7,14.9,70.9,63.5,71.4,59.1s4.6-10,4.6-10-32-39.2-50.9-49.8-18.3-13.1-21.7-8.7A17.61,17.61,0,0,0,318.6,302.1Z" transform="translate(0 -1.36)"/><path id="path18247" class="cls-2" d="M614.2,374.3c16.2-1.8,38.8,8.8,29.1,12.3s-34,7-34,7Z" transform="translate(0 -1.36)"/><path id="path18249" class="cls-2" d="M602,495.8c19.4-3.5,38.8-6.2,33.9-1.8s-25,22.9-25,22.9Z" transform="translate(0 -1.36)"/><path id="path18251" class="cls-2" d="M625.5,581.2c16.2-8.8,27.5-14.1,25.1-7.9s-13.7,27.3-13.7,27.3Z" transform="translate(0 -1.36)"/><g id="g18447"><path id="path18449" class="cls-2" d="M558.9,501.8c-7.7,11.6-1.7,27.9,3.1,26.8s62.3-10.3,49.5-20.6C602.8,501,558.9,502.8,558.9,501.8Z" transform="translate(0 -1.36)"/><path id="path18451" class="cls-6" d="M565,511.8c-1.7,7.5,1.4,7.5,1.4,7.5s38.9-5.6,35.4-7.5S565,511.8,565,511.8Z" transform="translate(0 -1.36)"/></g><g id="g18453"><path id="path18455" class="cls-2" d="M560.4,369.6c-10.8,8.2-10.1,25.7-5.2,26.5s61.9,12.6,53-1.7C602.1,384.6,560,370.6,560.4,369.6Z" transform="translate(0 -1.36)"/><path id="path18457" class="cls-6" d="M563,381.2c-3.9,6.4-.9,7.6-.9,7.6s38.4,8.6,35.7,5.6S563,381.2,563,381.2Z" transform="translate(0 -1.36)"/></g><g id="g18459"><path id="path18461" class="cls-2" d="M587.4,616c-2.1,14.1,9.9,25.8,13.8,22.5s51.4-39.6,35.8-42.6C626.4,593.9,587.9,617,587.4,616Z" transform="translate(0 -1.36)"/><path id="path18463" class="cls-6" d="M596.9,622c1.5,7.5,4.4,6,4.4,6s32.4-24,28.6-24S596.9,622,596.9,622Z" transform="translate(0 -1.36)"/></g></g><g id="g30006"><g id="g30008"><path id="path30010" class="cls-12" d="M498.72,162.77c-11.07-27.89-28.14-49.81-14.05-68.55,6.21-8.44,16.54-12.54,22.75-21,4.15-7.62,7.9-22.26,4.42-34-6.74-26-69.88-28.45-100.26-11.61-8.88,4.72-14.67,8.21-15.72,14.61-2.08,6.8,1,17.54,3.45,23.74,4.31,7.85,11.31,13.44,12.95,17.57,4.1,10.33,12.91,35.53,8.93,58.63-5,23.52-5.72,54.88,12,63.39,17.94,6,70-19.42,69-37Z" transform="translate(0 -1.36)"/><path id="path30012" class="cls-13" d="M482.59,176.35c-2.46-6.2-17.66-32.45-20.07-56.6-2.81-31.17,4-35.07,10.63-42.48,8.48-5.76,15.73-14.61,16.56-18.53.63-1.44,3.54-12.17-1.61-16.1-3.29-2.28-11.13-4-19-5.62-29.9-6.07-55.53,7.69-54.92,12.23,1.43,6.61-.23,8.46,7.59,16.12,8.64,9.72,7.61,10.13,10.48,17.36,5.74,14.46,5.66,44.38,2.94,58.62s-.55,52.82,9.12,62.13c23.89,18,42.14-14.33,38.25-27.13Z" transform="translate(0 -1.36)"/><path id="path30014" class="cls-14" d="M442.72,36.74c-3.1,1.23-8.67,2.25-12.8,3.89-5.17,2-10.14,7.61-8.5,11.74s11.53,11,15.43,17.79c2.46,6.19,8.81,25.19,8.37,36.13s-3.64,48.07,1.68,67.48c4.49,17.35,15.39,29.76,20.13,32.66l-1,.41c-3.1,1.23-7.64,1.84-15.48.17-1.44-.62-3.29-2.28-4.74-2.9-9.67-9.32-11.84-47.91-9.12-62.14s2.8-44.16-2.94-58.62c-2.87-7.23-1.83-7.64-10.48-17.36-8.23-8.69-6.57-10.54-7.59-16.11C414.42,46.78,426,39.79,442.72,36.74Z" transform="translate(0 -1.36)"/><path id="path30016" class="cls-14" d="M491.19,47.39c2.05,5.17-.44,10.94-1.07,12.38-.83,3.92-8.08,12.78-17,17.5-6.62,7.41-14.47,11.72-10.63,42.48,2.41,24.15,17.61,50.4,20.07,56.6s-1.9,16.29-7.49,23.29c.83-3.91,5.41-16.49,3.14-19.18-1.23-3.1-17.88-24-22.74-60.32-4.23-37.77,15.41-51.55,20.16-54.63,7.44-5.34,8.92-16.69,5.62-19a65.1,65.1,0,0,0-25.15-9.14c-1,.41-1.44-.63-2.47-.22,4.95.43,10.93.44,15.88.87,7.84,1.67,15.68,3.34,19,5.62C490,44.3,490.37,45.33,491.19,47.39Z" transform="translate(0 -1.36)"/></g><g id="g30018"><path id="path30020" class="cls-12" d="M379.12,163.93c-1.74-30,3.36-58.36-17.61-67.53-9.37-4.68-20.33-2.52-28.71-8.42-7.16-4.9-17.07-15.12-19.44-28.29C308.61,33.35,362.5,1.42,398.22,1.36c10.06.16,16.8.63,20.65,5.85s7.11,16.06,6.75,23.91c-.27,9-3.95,17.12-3.53,21.55,1.05,11.06,3.59,37.61,17.66,56.36,15.17,18.65,29,46.36,17.07,62-13.22,13.55-71.06,15.71-78.17-.35Z" transform="translate(0 -1.36)"/><path id="path30022" class="cls-14" d="M398.56,168.78c-.63-6.64,2.05-37-6.81-59.63C381.16,80,373.31,79.65,364,76.07c-10.17-1.27-19.55-5.95-23.08-7.85-1.21-1-8.58-8.11-4.79-15.17,1.89-3.53,8.11-8.59,14.33-13.65,23.86-19,51.62-20.55,53.25-15.12,1.74,6.53,3.95,6.32.69,18.91-4.37,12.7-3.26,12.59-2.53,20.33.38,15.6,14.08,42.2,23,53.63,7.8,11.53,23.34,45.77,19.08,59.58-12.17,24.6-43,5.22-45.41-7.95Z" transform="translate(0 -1.36)"/><path id="path30024" class="cls-13" d="M374.78,24.81c3.32-.32,8.74-1.95,13.17-2.37,5.53-.53,12.48,2.15,12.91,6.58s-5.27,15-6.74,23c.63,6.64,2.53,26.55,7.9,36.08s23.93,40.14,28.14,61c2.8,17.59-1.26,33.61-4.15,38.35l1.1-.11c3.32-.31,7.64-1.84,13.86-6.9a24.45,24.45,0,0,0,2.79-5.85c4.37-12.69-10.18-48.14-18-59.68-8.91-11.43-21.5-38.14-23-53.62-.74-7.75-1.85-7.64,2.53-20.34,3.36-11.48,1.05-12.38-.69-18.91C403.33,19.85,389.84,18.91,374.78,24.81Z" transform="translate(0 -1.36)"/><path id="path30026" class="cls-15" d="M335.48,57.58c.53,5.53,5.38,9.54,6.59,10.54C344.6,71.22,355,74.7,365.15,76c9.27,3.58,17.12,4,28.82,33,7.74,22.71,6.17,53,6.8,59.64s8,13.75,17.28,17.33c-1.42-3.22-11.22-12.33-11.54-15.65s6.11-29.6-6.22-65.27-36-37.87-41.73-39.55C349.6,65.16,343,54.63,346,51a51,51,0,0,1,19.33-19.7c1.11-.11,1-1.21,2.11-1.32-4.22,2.64-9.54,5.38-13.65,9.12-7.32,5.16-12.43,10.11-14.32,13.64C335.17,54.26,335.27,55.37,335.48,57.58Z" transform="translate(0 -1.36)"/></g><g id="g30028"><path id="path30030" class="cls-12" d="M507.77,160.32c24.86-14.72,51.77-21.62,50.58-45.45-.32-11.44-6-21-5.17-30.53,1.39-8.56,5.85-22.83,15.8-30,21.25-16.46,71.35,22.33,85.64,55.19,4.14,9.17,7.15,16.43,4.07,22.13-2.52,6.66-10,13.67-17.25,16.67-8.22,3.58-17.17,3.72-20,5.42-9.56,5.66-42.18,9.48-61.69,22.32-16.25,9.63-30.35,42.52-45.79,42.62C496,212.47,490.52,177,502,163.72Z" transform="translate(0 -1.36)"/><path id="path30032" class="cls-13" d="M500.12,164.85c5.74-3.4,45,1.78,61.65-15.85,20.33-22.37,16.76-30.59,16.05-40.5-3.18-9.74-3.5-21.18-3.28-25.18.39-1.52,3.11-12.18,11.12-11.75,4,.21,10.26,4.25,18.44,7.16,26.41,14.06,39.79,41,35.58,44.8-5.17,4.35-4,6.26-15.87,8.1C611,134,611.59,135,604.9,139c-13.38,7.93-42.78,15-49.33,27.92s-29.4,42-43.31,42.45C486,210.7,489.21,172.6,500.12,164.85Z" transform="translate(0 -1.36)"/><path id="path30034" class="cls-16" d="M625.34,97.15c1.7,2.86,5.49,7.08,6.8,11.47,3.4,5.74,3.36,12.22-.47,14.48s-15.82,1.63-22.69,3.11c-5.74,3.4-21.43,14-27.77,22.9s-45.86,20.71-61,32.24c-13.21,10.41-29.43,13.56-35,13l.56,1c1.7,2.87,4.92,6.13,11.76,11.12,1.52.39,4,.22,5.52.61,13.35-1.45,37.72-30.09,43.32-42.45,6.55-12.92,44.12-17.09,57.51-25,6.69-4,6.12-4.92,18.9-7.32,11.83-1.84,10.7-3.75,15.87-8.11C642.54,121.83,636.71,109.79,625.34,97.15Z" transform="translate(0 -1.36)"/><path id="path30036" class="cls-15" d="M580.31,73.45c-3.82,2.26-6.34,8.92-6.73,10.44-1.74,3.61-.85,16,2.72,24.22,1.27,10.87,4.28,18.13-16,40.5-15.73,17.06-42.85,28-48.59,31.36-4.78,2.83-8.47,14.06-7.76,24,1.74-3.61,5.81-16.36,7.72-17.49,2.87-1.7,27.87-7.46,53.37-34.19s17.83-50.59,16-55.94c-3.18-9.74,2.59-19.62,7.16-18.45,0,0,12,.64,25.1,9.68.57,1,1.52.39,2.09,1.34-4.18-2.69-8-6.9-13.1-9-7.79-4.43-13.49-7.51-17.49-7.72C583.74,72.7,582.22,72.31,580.31,73.45Z" transform="translate(0 -1.36)"/></g><g id="g30038"><path id="path30040" class="cls-12" d="M553.27,164.78c1.75-30-3.36-58.37,17.61-67.53,9.38-4.69,20.33-2.53,28.71-8.43,7.17-4.9,17.07-15.11,19.44-28.28,4.75-26.34-49.14-58.27-84.85-58.33-10.07.15-16.81.63-20.66,5.84S506.41,24.12,506.78,32c.26,9,4,17.12,3.52,21.54-1.05,11.07-3.58,37.62-17.65,56.37-15.18,18.65-29,46.35-17.08,62,13.22,13.54,71.06,15.71,78.18-.36Z" transform="translate(0 -1.36)"/><path id="path30042" class="cls-14" d="M532.73,169.52c.63-6.64-2.05-37,6.8-59.63,10.6-29.13,18.45-29.5,27.72-33.08,10.16-1.27,19.54-6,23.07-7.85,1.21-1,8.59-8.11,4.8-15.17-1.9-3.53-8.11-8.59-14.33-13.65-23.86-19-51.62-20.55-53.26-15.12-1.73,6.53-3.95,6.32-.68,18.91,4.37,12.7,3.26,12.59,2.52,20.33-.37,15.6-14.07,42.2-23,53.63-7.8,11.53-23.35,45.77-19.08,59.58,13.27,24.71,44.14,5.32,45.41-7.95Z" transform="translate(0 -1.36)"/><path id="path30044" class="cls-13" d="M557.61,25.65c-3.31-.31-8.74-1.95-13.16-2.37-5.54-.53-12.49,2.16-12.91,6.58s5.26,15,6.74,23c-.64,6.64-2.54,26.55-7.91,36.09s-23.92,40.14-28.14,60.94c-2.79,17.6,1.26,33.61,4.16,38.36l-1.11-.11c-3.32-.32-7.64-1.84-13.85-6.9-1-1.21-1.9-3.53-2.8-5.85-4.37-12.7,10.18-48.15,18-59.68,8.9-11.43,21.5-38.14,23-53.63.74-7.74,1.85-7.64-2.52-20.33-3.37-11.49-1-12.38.69-18.92C529.06,20.7,541.34,20.75,557.61,25.65Z" transform="translate(0 -1.36)"/><path id="path30046" class="cls-14" d="M596.91,58.43C596.38,64,591.53,68,590.32,69c-2.53,3.11-12.91,6.58-23.07,7.85-9.27,3.58-17.12,4-28.82,33-7.75,22.7-6.17,53-6.81,59.63s-8,13.75-17.28,17.33c1.42-3.21,11.22-12.32,11.54-15.64s-6.11-29.61,6.23-65.27,36-37.87,41.72-39.56c9-.26,15.55-10.79,12.54-14.43A51,51,0,0,0,567,32.13c-1.1-.1-1-1.21-2.1-1.31,4.21,2.63,9.53,5.37,13.64,9.11C585.9,45.1,591,50.05,592.91,53.58,596.12,55,597,57.32,596.91,58.43Z" transform="translate(0 -1.36)"/></g><g id="g30048"><path id="path30050" class="cls-12" d="M477.32,42c-55.84-2.87-65.7,48.38-46.32,70.67s70.89,16.32,87.59,2c17.46-11.43,29.69-29.87,19.39-48.63-10.68-20.2-38.12-23.73-56.05-24.63Z" transform="translate(0 -1.36)"/><path id="path30052" class="cls-12" d="M423.53,97c9.44,33.82,38.31,45.49,41.82,53.8s-3.38,15.81-3.15,22-4,21.44,19.24,27,44.83-5.54,50.23-18.84c7.55-15.5-9.48-18.22-13.23-32.69,11.18-25.15,27-53.25,22.91-69.16S423.53,97,423.53,97Z" transform="translate(0 -1.36)"/><path id="path30054" class="cls-14" d="M482.13,63.21c-40-2.13-49.83,33.52-34.78,47,17.06,16,54.31,12.68,65.89,2.23s13.87-17.38,6.84-34C512.17,63.63,493.8,63.63,482.13,63.21Z" transform="translate(0 -1.36)"/><path id="path30056" class="cls-17" d="M497.91,108.39c-14.38,20.65-34.32,17.22-32.31,19.74s13,10.93,19.38,22.29c5.53,10.83-7.59,31.1-4.38,35.6s15.42,14.9,25,15.16,16.47-20.48,15.79-25.74c-.24-6.16-15.5-12.53-16.86-23-2.17-11,13.33-27.34,11.76-30.77-2-2.52-13.24-3.86-16.52-6S497.91,108.39,497.91,108.39Z" transform="translate(0 -1.36)"/><path id="path30058" class="cls-13" d="M474.62,63.11c-1.27.37-3.35.21-4.61.59-.82-.54-1.27.37-2.09-.16l-1.26.37c-1.26.38-2.08-.16-2.53.76l-2.52.75-1.27.37c-1.26.38-1.7,1.29-3,1.67A4.62,4.62,0,0,0,454,70c-1.27.38-2.15,2.2-3.42,2.57l-.44.92a8.77,8.77,0,0,0-3,4l-1.78,3.64-.44.91-.45.92-1.33,2.73a8.61,8.61,0,0,0-1,4.18c-.44.91-.07,2.36-.51,3.27s.37,1.45-.07,2.36.37,1.45-.07,2.36h0c.37,1.45-.07,2.36.75,2.89h0l-.45.92c.38,1.44,1.2,2,.75,2.89.67-36.83,41.64-38.88,66.42-29.89,7.44,2.47,11.09,6.06,13.85,11.47a1.14,1.14,0,0,0-.37-1.45h0a3.94,3.94,0,0,0-1.2-2c-.37-1.45-1.19-2-1.56-3.43h0a4,4,0,0,1-1.2-2h0c-2-2.52-3.2-4.51-5.66-6.11a11.43,11.43,0,0,0-5.36-2.31,11.42,11.42,0,0,1-5.36-2.3l-.82-.53c-.82-.54-2.9-.7-3.72-1.24h0a.84.84,0,0,0-1.26.38c-1.27.38-2.9-.69-4.17-.32a2.92,2.92,0,0,0-2.08-.16c-2.08-.16-5.43.06-7.51-.1-3.27-2.15-5.8-1.39-7.88-1.55ZM487.3,85.83c-18.81.92-23,3-20.65,6.92,1.57,3.43,5.22,7,19.86,5.78s16.87-5.79,15.3-9.22C499,86.25,487.3,85.83,487.3,85.83Z" transform="translate(0 -1.36)"/><path id="path30060" class="cls-12" d="M484.4,85.13c-14.64,1.24-20.14,3.66-14.41,7.41s26.25,1.54,28-2.11-9-5.89-13.62-5.3Z" transform="translate(0 -1.36)"/><path id="path30062" class="cls-13" d="M514.67,120.55a32.6,32.6,0,0,0-8.26-3c-4.61.59-19.7,2.74-21.41,4-.45.91-1.26.37-2.53.75-10.17,5.36-18.5,4.72-17.31,6.7,2,2.52,13,10.93,19.38,22.3,5.52,10.82-7.59,31.09-4.39,35.59s15.42,14.9,25,15.16c2.08.16,3.79-1.13,5.5-2.41-.82-.54-1.27.37-2.09-.16-5-.86-15.18-8.73-18.77-14.68-4-5,4-23.81,4.25-30.88-.61-7.61.79-12.71,7.56-15.5q3.78-1.12,4.91,3.22c4-8.21,10.08-16.25,8.89-18.23.06-2.36-.75-2.9-.75-2.9Z" transform="translate(0 -1.36)"/></g><g id="g30064"><path id="path30066" class="cls-12" d="M300,62c-51,28.88-38.51,75.09-11.55,81.83s70.27-26,78.93-47.17c11.55-19.26,14.44-39.47-2.89-49.1C346.16,37,320.17,49.53,304.77,58.19Z" transform="translate(0 -1.36)"/><path id="path30068" class="cls-12" d="M274.93,135.2c22.14,21.18,52.95,15.4,59.68,19.25,5.78,4.82,3.85,14.44,6.74,19.26s4.82,19.25,27.92,11.55c23.1-8.67,37.54-28.88,37.54-43.32,0-16.36-15.4-8.66-26-18.29-1-26.95,1.92-57.76-8.66-68.35s-97.23,79.9-97.23,79.9Z" transform="translate(0 -1.36)"/><path id="path30070" class="cls-14" d="M312.47,76.48c-36.58,20.22-30.8,53.91-11.55,56.8,22.14,2.88,53.91-20.22,59.68-34.66s5.78-22.14-7.7-30.8C339.43,60.12,323.06,69.74,312.47,76.48Z" transform="translate(0 -1.36)"/><path id="path30072" class="cls-13" d="M344.24,104.4c-4.81,25-23.1,32.73-20.22,33.69s16.37,1,26,6.74,5.77,28.88,10.58,30.8,20.22,2.89,27.92-1.92c8.66-4.82,5.78-25,3.85-29.84-2.89-4.82-18.29-1.93-25-9.63-5.77-7.7,0-28.88-1.92-30.81-2.89-1-13.48,3.86-17.33,3.86S344.24,104.4,344.24,104.4Z" transform="translate(0 -1.36)"/><path id="path30074" class="cls-14" d="M342.31,64.93a12.22,12.22,0,0,0-5.77,1h-2.89c-1,0-1.92,1-2.89,1-2.88,1-5.77,2.88-8.66,3.85h-1c-2.89,1.92-5.78,2.88-8.67,4.81a20,20,0,0,0-5.77,3.85l-1,1a21,21,0,0,0-4.81,3.85h0c-1.92,1-2.89,2.89-3.85,3.85L295.15,90c-1,1-1,1.92-1.93,1.92-1,1.93-1.93,2.89-2.89,4.82s-1.92,2.88-1.92,4.81a28,28,0,0,0-1.93,8.66V115c0,1,0,2.88,1,3.85v1c0,1,1,1.92,1,2.89,1,1,1,1.92,1.92,2.89s1,1.92,1.93,2.88,1.92,1,2.89,1.93c-14.44-29.84,21.17-53.91,46.2-60.65,7.7-1.92,12.52-1,16.37,1a1,1,0,0,0-1-1c-1-1-2.88-1.92-4.81-3.85-1.92-1-2.89-1.92-4.81-1.92a8.72,8.72,0,0,1-4.82,1Zm-3.85,22.14c-3.85,0-12.51,4.81-12.51,4.81-16.37,10.59-19.25,14.44-15.4,17.33,2.89,1.93,7.7,2.89,20.21-5.78S343.28,89,340.39,88A3,3,0,0,0,338.46,87.07Z" transform="translate(0 -1.36)"/><path id="path30076" class="cls-12" d="M323.06,92.85c-12.51,8.66-16.36,13.47-9.62,13.47S337.5,93.81,337.5,89c0-3.86-10.59,1-14.44,3.85Z" transform="translate(0 -1.36)"/><path id="path30078" class="cls-13" d="M364.45,104.4a18.24,18.24,0,0,0-8.66,2.89c-3.85,2.88-16.36,13.47-17.33,15.4,0,1-1,1-1.92,1.92-6.74,9.63-14.44,13.48-12.52,14.44,2.89,1,16.37,1,26,6.74s5.77,28.88,10.58,30.8,20.22,2.89,27.92-1.92c1.93-1,2.89-2.89,3.85-4.81-1,0-1,1-1.92,1-4.82,1.92-17.33,1-23.11-1s-5.77-21.18-8.66-27.92-4.81-10.59,1-16.36a4.54,4.54,0,0,1,5.78-1c0-8.66,1.92-19.25,1-20.21Z" transform="translate(0 -1.36)"/></g><g id="g30080"><path id="path30082" class="cls-12" d="M420.34,73.31c-54.3-12-75.4,37-61.46,62.61,13.28,25,65.58,27.59,84.75,15.33,19.85-8.64,35.71-24.17,30.38-44.28-6-22.25-31.82-29.91-48.37-32.88Z" transform="translate(0 -1.36)"/><path id="path30084" class="cls-12" d="M355.54,117.78c1.38,34,26.56,51.45,27.9,58.71,1.34,8.75-7.26,15.12-8.57,21.24s-9.24,20.59,12,29.63,45,1.35,54.26-10.31c11.23-14.16-5.32-18.62-5.35-35,16.51-23.81,39-49.16,38.95-65.52,0-14.87-119.15,1.23-119.15,1.23Z" transform="translate(0 -1.36)"/><path id="path30086" class="cls-14" d="M420.37,94.14c-38.4-8.2-56.22,24.71-44.94,41.78,13.27,19,49.68,20.81,63.56,12.23S456.84,133.1,453.5,115C448.85,100,431.63,96.34,420.37,94.14Z" transform="translate(0 -1.36)"/><path id="path30088" class="cls-13" d="M424.42,141.2c-19.17,18.21-37.05,11-36.38,14.59,1.33,2.79,10.61,13.44,13.28,25s-14.52,28.74-13.19,34.51,11.28,17.07,20.55,18.8,20.5-16.91,21.81-23-11.94-14.75-11.29-26,19.81-25,18.49-27.79-11.93-5.83-14.58-8.45C421.78,146,424.42,141.2,424.42,141.2Z" transform="translate(0 -1.36)"/><path id="path30090" class="cls-13" d="M405.81,93.13l-5.29.72a19.46,19.46,0,0,0-6,1.55c-2,1-3.31,1.19-5.29,2.2s-2.65,1.84-4.63,2.86a8.49,8.49,0,0,0-3.3,2.67c-.67.84-2,2.5-3.31,2.68l-.66.84L374.73,110l-1.32,1.66c-.67.84-1.33,1.67-.66,2.33-.66.83-.66,2.32-1.32,4.64,0,1.48-.66,2.32-.65,3.8h0c0,1.49-.66,2.32-.66,3.81h0v3C380,92.9,419.72,98,442.24,109.78c6.63,3.57,9.95,8.32,10.62,13.44v-1.49c0-1.48-.66-3.63-.67-6.6-.66-.65-.66-2.14-1.33-2.8h0a14.27,14.27,0,0,0-7.29-8.68l-.67-.65a2.85,2.85,0,0,0-2.65-1.13,2.85,2.85,0,0,0-2.64-1.13l-.67-.66-.66-.65a28.34,28.34,0,0,0-10.6-3c-2-.48-5.29-.77-7.28-1.25l-6-1.43c-1.32.18-3.31-.29-4.63-.11.66-.84-.67-.66-2-.48Zm-1.29,22.49c-5.95.06-7.28,1.73-6.61,3.87.67,3.63,3.32,7.73,17.89,8.74s17.86-3.16,15.87-6.61c-1.33-2.79-11.92-5.83-11.92-5.83A125.28,125.28,0,0,1,404.52,115.62Z" transform="translate(0 -1.36)"/><path id="path30092" class="cls-12" d="M417.1,116.15c-14.56-1-20.52.54-15.88,5.12s24.5,6.36,27.81,2.2c2.64-3.34-7.3-7.2-11.93-7.32Z" transform="translate(0 -1.36)"/><path id="path30094" class="cls-13" d="M437.68,155.77c-1.32-1.31-4.64-3.09-7.29-4.22-4.63-.12-19.85-.29-21.84.72-.66.83-1.32.18-2-.48-11.25,3.76-18.54,1-17.87,3.16,1.33,2.8,10.61,13.45,13.28,25s-15.18,29.57-13.19,34.51,11.28,17.07,20.55,18.79c2,.48,4-.53,6-1.55-.66-.65-1.33.18-2-.47-4.63-1.61-12.59-10.94-15.25-16.54s9.89-22.91,11.87-29.87,3.95-12.43,11.23-14.16c2.65-.36,4,.95,4,3.92,5.94-7.49,13.87-14.52,13.21-16.66,0-1.49,0-1.49-.67-2.14Z" transform="translate(0 -1.36)"/></g><g id="g30096"><path id="path30098" class="cls-12" d="M607.32,211.87c27.2,1,51.26,9.41,61.72-10.47,5.23-9.41,4.19-19.87,9.42-27.19,5.23-6.28,15.69-15.7,26.15-16.74,24.06-2.09,48.12,54.4,45,87.87-1,9.42-2.09,16.74-6.27,19.88-5.23,4.18-14.65,5.23-22,5.23-8.37-1.05-15.69-6.28-18.83-6.28-9.42,0-34.52,0-52.31,12.55s-43.93,24.07-56.49,11.51c-11.51-13.6-7.32-71.13,7.32-76.36Z" transform="translate(0 -1.36)"/><path id="path30100" class="cls-13" d="M601.05,231.74c6.27,0,33.47,5.23,54.39-1,27.2-8.37,28.25-15.7,31.39-25.11,2.09-9.42,6.27-18.83,9.41-22,1-1.05,8.37-8.37,14.65-4.18,3.14,2.09,7.32,8.37,11.5,15.69,14.65,25.1,13.6,53.35,8.37,54.4-6.27,1-6.27,3.13-16.73-1.05-11.51-5.23-10.47-4.18-17.79-4.18-14.64,0-38.71,10.46-50.21,17.78-10.46,7.32-42.89,18.83-54.4,12.55-22-13.6-2.09-42.89,9.42-42.89Z" transform="translate(0 -1.36)"/><path id="path30102" class="cls-13" d="M731.81,220.23c0,3.14,1.05,8.37,1.05,12.56,0,6.28-3.14,11.51-7.33,11.51s-13.6-6.28-19.87-8.37c-6.28,0-24.06,0-32.43,5.23-8.37,4.18-38.71,19.87-56.49,22-15.69,1-30.34-4.19-33.48-7.33v1.05c0,3.14,1,7.32,5.23,14.64,1,1.05,3.14,2.1,4.19,4.19,11.5,6.28,43.93-6.28,54.39-12.55,11.51-7.33,35.57-17.79,50.22-17.79,7.32,0,7.32-1,17.78,4.19,10.46,4.18,10.46,2.09,16.74,1C733.9,249.53,735,235.93,731.81,220.23Z" transform="translate(0 -1.36)"/><path id="path30104" class="cls-14" d="M705.66,178.39c-4.19,0-9.42,4.18-9.42,5.23-2.09,2.09-7.32,12.55-9.41,22-4.19,9.41-5.23,16.74-31.39,25.11-20.92,6.27-48.12,1-54.39,1-5.24,0-13.6,7.33-16.74,14.65,2.09-2.09,12.55-10.46,14.64-9.42,3.14,0,26.16,8.37,58.59,0s37.66-32.43,38.7-37.66c1-9.41,10.46-14.64,14.65-11.5,0,0,9.41,6.27,16.74,20.92,0,1,1,1,1,2.09-2.09-4.18-4.18-9.42-6.28-13.6-4.18-7.32-8.36-13.6-11.5-15.69C708.79,179.44,707.75,178.39,705.66,178.39Z" transform="translate(0 -1.36)"/></g><g id="g30106"><path id="path30108" class="cls-12" d="M545.25,99.29C478.57,108.92,483,172.74,527.47,192c52.23,19.27,76.67-3.61,83.34-45.75s-21.11-37.33-33.34-43.35C567.47,98.08,550.8,98.08,545.25,99.29Z" transform="translate(0 -1.36)"/><path id="path30110" class="cls-13" d="M548.58,94.47c-45.56,6-48.9,59-23.34,77.06,25.56,16.86,51.12,8.43,62.24-4.81s8.89-48.17-2.23-60.21c-13.33-13.24-28.89-12-36.67-12Z" transform="translate(0 -1.36)"/><path id="path30112" class="cls-13" d="M521.91,106.51c-18.89,18.06-16.67,51.78,2.22,65,25.56,16.86,51.12,8.43,62.23-4.81,5.56-7.23,7.78-20.47,7.78-32.51,0,13.24-4.44,33.71-31.11,36.12C524.13,173.94,501.91,147.45,521.91,106.51Z" transform="translate(0 -1.36)"/><path id="path30114" class="cls-14" d="M555.25,94.47h-6.67c-31.12,3.61-42.23,30.1-38.89,51.78,4.44-34.92,28.89-50.58,62.23-39.74,21.11,6,22.22,32.51,18.89,51.78,5.56-15.66,3.33-42.15-6.67-53-8.89-8.43-20-10.84-28.89-10.84Zm-13.34,34.92c-13.33,2.41-7.78,21.67,11.12,22.88,17.78,0,21.11-10.84,15.55-18.06C567.47,130.59,541.91,129.39,541.91,129.39Z" transform="translate(0 -1.36)"/><g id="g30116"><path id="path30118" class="cls-12" d="M559.91,127.85c-21.11-4.82-25.56,6-16.67,14.44,10,8.43,22.23,1.21,24.45-4.81,3.33-6-7.78-9.63-7.78-9.63Z" transform="translate(0 -1.36)"/></g></g><g id="g30120"><path id="path30122" class="cls-12" d="M668.91,115.59c-40.15-41.33-79.59-9.59-78.86,20.51s42.62,62.33,64.61,62.83c20.87,4.1,40.42-.7,45-22.48,4.36-22.74-13-45-25.76-57.66Z" transform="translate(0 -1.36)"/><path id="path30124" class="cls-12" d="M594.73,118.48c-14.38,32-2.63,56.61-5.56,65.14s-12.15,9.12-16.09,13.87-14.14,17.27-.58,36.92,37.31,26.76,49.52,21.8c15-6.11,4.18-19.52,10.8-33.74,24.18-10.86,53.8-20.8,61.37-35.41C700.81,172.84,594.73,118.48,594.73,118.48Z" transform="translate(0 -1.36)"/><path id="path30126" class="cls-14" d="M659.28,134.17c-28.61-29.25-57.84-10-55.37,11,3.22,23.84,32.45,47.6,48.05,47.55,14.66.33,22.18-2.72,26.86-20.34C680.68,155.87,667.94,143.23,659.28,134.17Z" transform="translate(0 -1.36)"/><path id="path30128" class="cls-14" d="M628.06,118.56c-.94.38-3.07.2-4,.58s-3.07.2-4,.58l-1.88.76-1.88.77h0l-.94.38c-1.88.76-3.5,2.47-5.13,4.18-2.31,3-4.63,6.07-5.75,9.67,24.15-26.58,55.33.58,68.7,23.44,3.89,6.81,4.47,12.86,2.91,18.74.43-2.28,1.81-4.93,2.24-7.2,1.56-5.88.3-10.61-1.89-15l-.26-.95-.25-.95c-.5-1.89-1.69-2.45-2.2-4.34h0l-.25-1-.25-.94a30.94,30.94,0,0,0-7.47-8.5c-1.69-2.45-4.07-3.58-5.52-5.09s-2.63-2.08-4.07-3.59h0a.86.86,0,0,0-1.2-.56c-1.19-.56-1.44-1.51-2.63-2.07s-1.44-1.51-2.63-2.08a.86.86,0,0,0-1.2-.56l-1.19-.57-3.57-1.69c-1.19-.56-1.19-.56-2.13-.18-1.19-.57-2.38-1.13-3.32-.75a46.11,46.11,0,0,0-10.22-3.18Zm3.22,23.84-.93.38c-.94.38-1.88.77-1.63,1.71-.87,4.55-.81,8.71,11.17,18.52s16.43,7,16.61,3.73S649,154.08,649,154.08c-9.35-7.73-14.62-11.88-17.69-11.68Z" transform="translate(0 -1.36)"/><path id="path30130" class="cls-13" d="M642,178.9c-23.55,5.38-36.35-11.43-36.54-8.21s2.66,17.79.73,30.1c-2.87,12.69-25.48,17.69-26.1,23.18s2.72,21.95,8.74,28.94c7,6.6,25-3.87,28.94-8.62s-3.15-19.67,1.66-29S646.71,204.26,646.9,201s-7.54-12.66-8.29-15.5C637.6,181.76,642,178.9,642,178.9Z" transform="translate(0 -1.36)"/><path id="path30132" class="cls-12" d="M647.27,151.63c-11-10.19-17.43-10.74-15.67-4.12s17.82,20,22.52,18.1c3.76-1.52-3-11.35-6.85-14Z" transform="translate(0 -1.36)"/><path id="path30134" class="cls-14" d="M647.33,198.76a32.59,32.59,0,0,0-4.14-7.74c-3.83-2.64-16.5-11.12-18.88-12.25-.94.38-1.19-.56-1.44-1.51-11.16-2.8-16.24-10.17-16.43-6.95s3.6,17.4.73,30.1-25.48,17.69-26.1,23.18,2.72,21.95,9.68,28.55c1.45,1.51,3.58,1.69,5.71,1.88-.25-1-1.19-.57-1.45-1.51-3.13-4-5.72-17.59-5.35-24s18-14.63,22.85-19.76,9.07-8.93,15-6.11q3.57,1.69,1.51,5.68c8.45-3.44,18.35-5.36,18.79-7.63-.94.38-.26-.95-.51-1.9Z" transform="translate(0 -1.36)"/></g><g id="g30136"><path id="path30138" class="cls-12" d="M599.59,224.73c-66.68,8.89-62.24,67.78-17.78,85.56,52.23,17.79,76.67-3.33,83.34-42.22s-21.11-34.45-33.34-40C621.81,223.61,605.14,222.5,599.59,224.73Z" transform="translate(0 -1.36)"/><path id="path30140" class="cls-13" d="M602.92,220.28c-45.56,5.56-48.9,54.45-23.34,71.12,25.56,15.56,51.12,7.78,62.23-4.44s8.89-44.45-2.22-55.57c-12.22-13.33-28.89-11.11-36.67-11.11Z" transform="translate(0 -1.36)"/><path id="path30142" class="cls-13" d="M577.36,231.39c-18.89,16.67-16.67,47.79,2.22,60,25.56,15.56,51.12,7.78,62.24-4.44,5.55-6.67,7.77-18.89,7.77-30,0,12.23-4.44,31.12-31.11,33.34C579.58,292.51,557.36,268.07,577.36,231.39Z" transform="translate(0 -1.36)"/><path id="path30144" class="cls-14" d="M610.7,220.28H604c-31.11,3.33-42.23,27.78-38.89,47.79,4.44-32.23,28.89-46.68,62.23-36.68,21.11,5.56,22.22,30,18.89,47.79,5.56-14.45,3.33-38.9-6.67-48.9-10-8.89-21.11-10-28.89-10Zm-14.45,32.23c-13.33,2.22-7.78,20,11.12,21.11,17.78,0,21.11-10,15.55-16.67C621.81,253.62,596.25,252.51,596.25,252.51Z" transform="translate(0 -1.36)"/><g id="g30146"><path id="path30148" class="cls-12" d="M615.36,250c-21.11-4.44-25.56,5.56-16.67,13.34,10,7.78,22.23,1.11,24.45-4.45,3.34-5.55-7.78-8.89-7.78-8.89Z" transform="translate(0 -1.36)"/></g></g><g id="g30150"><path id="path30152" class="cls-12" d="M383.49,173.43c-53.17-36.29-104.71-3.52-110.61,2.77-4.91,5.23-4,48.65,3.82,55.09s39.69-21.18,54.94-14.2c15.19,6,22.59,21.35,40.32,18.3s23.81-37,20.05-45.68c-2.79-9.71-6.28-14.44-8.52-16.28Z" transform="translate(0 -1.36)"/><path id="path30154" class="cls-13" d="M261.84,199.59c35.07-26.83,57.51-38.07,96.5-23.65s34.76,29.51,35.51,40.33-14.33,21.62-19.15,13c-6.85-7.49-21.53-21.41-41.91-26.11-15.05-4-28.81,10.65-31.89,11.82C297.74,215.19,261.84,199.59,261.84,199.59Z" transform="translate(0 -1.36)"/><path id="path30156" class="cls-14" d="M319.9,169.39c-18.85,2.13-36,13.05-58.06,30.2,0,0,5.46,2.63,7.63,3.49C295.22,178.79,322,169.26,356.72,183c31.43,11.92,35.87,30.42,36.35,37.31,1-1.05.85-3,.78-4-.75-10.82,3.48-25.9-35.51-40.33Q337.13,166.86,319.9,169.39Z" transform="translate(0 -1.36)"/><path id="path30158" class="cls-13" d="M323.57,191.89a76.65,76.65,0,0,0-38.91,17.18c7.63,3.49,15.19,6,16.17,5,4.13-1.24,16.84-15.85,31.89-11.82,19.33,4.75,34.08,19.67,41.91,26.11l3.36,2.76c.37-9.91-.31-19.74-8.21-27.17C359.7,195.62,342.41,189.76,323.57,191.89Z" transform="translate(0 -1.36)"/><path id="path30160" class="cls-12" d="M327.74,206.46c10.6,61.6-52.24,68.38-77,31.35-27.31-43.79-17.45-69.09,10-83.61s47.84,5,54.89,15.44c5.87,8.54,11.71,31.9,12.05,36.82Z" transform="translate(0 -1.36)"/><path id="path30162" class="cls-13" d="M313.6,200.4c8.19,42-28.89,55.11-47.07,36.45-18.24-19.64-18.9-44.3-12.43-57.54s30.44-17.65,42.61-9.5c12.24,9.13,15.36,23.76,16.89,30.59Z" transform="translate(0 -1.36)"/><path id="path30164" class="cls-14" d="M279.62,166.89c-10.51.64-21.79,5.28-25.45,13.41-3.73,7.14-6,20.12-1.95,32.72-3-28.47,17.3-39.58,34.53-34.7,21.42,4.62,24.68,21.22,27.33,29l-.41-5.91c-1.53-6.82-4.65-21.45-16.89-30.59C292.3,167.11,285.93,166.51,279.62,166.89ZM273.06,194c-8.23,18.28,1.13,31.55,11.36,27,9.26-3.52,8.51-14.35,6.06-19.14-1.39-4.85-11-6.25-11-6.25l-4.34-1.71-2.1.13Z" transform="translate(0 -1.36)"/><g id="g30166"><path id="path30168" class="cls-12" d="M286.12,195.7c8.08,17.33-1.37,27-10.11,20.09-7.85-7.15-6.88-19.7-3.05-22.76,3.25-5,12.3-.18,13.16,2.67Z" transform="translate(0 -1.36)"/></g><path id="path30170" class="cls-14" d="M310.82,190.69s9.81,35-9.61,44.05c-17.32,9-38.68,5.32-50.52-28.54a59.89,59.89,0,0,0,15.84,30.65c18.25,19.64,55.26,5.54,47.07-36.45-1.18-1.91-1.46-5.84-2.78-9.71Z" transform="translate(0 -1.36)"/></g><g id="g30172"><path id="path30174" class="cls-12" d="M386.54,175.74c-64.45,19.59-53.42,76.22-7.69,86.93,53.38,9.56,75-14.59,77.21-53.41s-24.67-30.38-37.32-34c-10.46-3.92-27-2.54-32.2.45Z" transform="translate(0 -1.36)"/><path id="path30176" class="cls-13" d="M389.32,170.92c-44.19,12.15-41.82,61.28-16,72.79s51.16,0,60.58-14.62c9.55-13.53,4.82-44.71-8.46-53.71C412,165.3,397,169.77,389.32,170.92Z" transform="translate(0 -1.36)"/><path id="path30178" class="cls-13" d="M364.34,185.68c-16.7,19-11,48.94,9,58,26.9,11.35,51.16,0,60.58-14.62,4.71-7.3,6.61-19.69,4.26-30.33,1.38,11.89-.85,30.92-27.8,38.28-36.79,8.83-61.41-11.66-46-51.36Z" transform="translate(0 -1.36)"/><path id="path30180" class="cls-14" d="M395.88,169.93l-6.56,1c-30.23,7.85-38.4,33.27-32.86,52.23.73-32,23.15-49.67,56.94-46,21.4,2.28,25.13,24.81,24,43.68,3.83-14.87-1.12-38.32-12.09-46.57-9.62-6.25-20.68-5.68-29.42-4.37Zm-9.48,33.32c-12.86,4.14-5.26,21.69,13.32,18.89,17.49-2.63,20.73-13,13.42-18.51-1.47-3.08-26.74-.38-26.74-.38Z" transform="translate(0 -1.36)"/><g id="g30182"><path id="path30184" class="cls-12" d="M403.39,198.56c-21.27-1.2-24.51,9.18-14.89,15.43,10.72,6.09,22-2.21,23.55-7.94,3.74-6.06-8.66-7.49-8.66-7.49Z" transform="translate(0 -1.36)"/></g></g><g id="g30186"><path id="path30188" class="cls-12" d="M475.94,146.33c-67.08,8.95-62.6,68.2-17.88,86.09,52.54,17.89,77.14-3.35,83.85-42.48s-21.25-34.66-33.54-40.25c-10.07-4.47-27.95-5.59-32.43-3.36Z" transform="translate(0 -1.36)"/><path id="path30190" class="cls-13" d="M479.3,141.86c-45.84,5.59-49.19,54.78-23.48,71.55s51.43,7.83,62.61-4.47,8.94-44.72-2.24-55.9S486,141.86,479.3,141.86Z" transform="translate(0 -1.36)"/><path id="path30192" class="cls-14" d="M452.47,153c-19,16.77-16.77,48.08,2.23,60.37,25.72,15.66,51.43,7.83,62.61-4.47,5.59-6.71,7.83-19,7.83-30.18,0,12.29-4.48,31.3-31.31,33.54-39.13,2.23-61.49-22.36-41.36-59.26Z" transform="translate(0 -1.36)"/><path id="path30194" class="cls-14" d="M486,141.86H479.3c-31.31,3.36-42.49,27.95-39.13,48.08,4.47-32.43,29.07-47,62.61-36.9,21.24,5.59,22.36,30.19,19,48.08,5.59-14.54,3.36-39.13-6.71-49.2C506.13,143,495,141.86,486,141.86Zm-13.42,32.42c-13.42,2.24-7.83,20.13,11.18,21.25,17.89,0,21.24-10.07,15.65-16.77-1.12-3.36-26.83-4.48-26.83-4.48Z" transform="translate(0 -1.36)"/><g id="g30196"><path id="path30198" class="cls-12" d="M490.22,172.11c-21.24-4.47-25.72,5.59-16.77,13.42,10.06,7.82,22.36,1.12,24.59-4.47s-7.82-8.95-7.82-8.95Z" transform="translate(0 -1.36)"/></g></g></g><g id="g17933"><path id="path17935" class="cls-2" d="M304,563.76c-15.65,42.32-64.68,50.92-87.65,49.46-24.51-1.55-26.4,61.93.61,69.07,41.46,10.93,68.81,9.72,93-8.69,27.53-21,44.81-53.33,48.43-70.7,9.29-43.61-36.9-85-54.37-39.14Z" transform="translate(0 -1.36)"/><path id="path17937" class="cls-6" d="M231.68,626.9c-18.75-1.29-22.53,22.88-14.88,35,5.77,9.54,37.94,12,67.7,3.78s52.81-48.34,63.91-69.93,6.28-39.4-1-47-23,3.18-29.33,19.09-28.81,45.76-47.05,56.6S231.68,626.9,231.68,626.9Z" transform="translate(0 -1.36)"/></g><g id="g17939"><g id="g17941"><g id="g17943"><path id="path17945" class="cls-18" d="M196,503.19c27.82-15.67,31.25-40.05,36.18-42.78s32,4.13,33.37,7.83,7.65,47.89,7,53.44-43.84.88-52.11,0S196,503.19,196,503.19Z" transform="translate(0 -1.36)"/><path id="path17947" class="cls-19" d="M210.58,507.77c20.87-7.4,23.33-33.63,25.36-34.51s22.62,4.58,23.33,6.43,3.78,29,3.78,29Z" transform="translate(0 -1.36)"/><path id="path17949" class="cls-20" d="M235.94,473.17c-1.85.79-4,21.48-19,31.34,17.08-5.28,20.43-23.5,22.45-23.06s15,3.25,15,3.25,4.75,11,8.09,19c-.79-6.6-2.64-22.63-3.25-24.12C258.47,477.84,238.05,472.29,235.94,473.17Z" transform="translate(0 -1.36)"/></g><g id="g17951"><path id="path17953" class="cls-21" d="M43.36,602.19c-5.7.22-15.11-1.14-14.09-11.13a124.67,124.67,0,0,1,1-25.26c13.29-2.91,26.75-.69,40.1-1.66,3.65-9.18,3.19-22.81,9.92-27.89,9.47-.68,21.5-1.65,28,8.5,1.59,11.75-6.62,19.85-9.36,30-4.33,9.69-9.41,20.41-17.39,24.69-12.55,3.25-25.44,3.42-38.16,2.8Z" transform="translate(0 -1.36)"/><path id="path17955" class="cls-22" d="M39.88,590c-1.77-5.93-1.25-11.81-.34-12.44s34.22-.39,36-1.48S86,541.73,87,539.85s14.32.85,14.66,2.11-19.56,42.83-22.13,46-37.93,3.36-38.73,3.13a1.36,1.36,0,0,1-.91-1Z" transform="translate(0 -1.36)"/><path id="path17957" class="cls-23" d="M38.74,583.59c-.17-3.19.29-5.59.86-6,1-.62,34.22-.39,36-1.48s10.49-34.33,11.46-36.27c.17-.35.91-.52,1.77-.63-.86,4.33-9.64,38.38-10.55,39.18s-36.11,1.89-37.19,1.89C40.34,580.4,39.48,580.91,38.74,583.59Z" transform="translate(0 -1.36)"/><path id="path17959" class="cls-10" d="M40.85,591.12a1.3,1.3,0,0,1-.91-1c-1.43-4.85-1.37-9.7-.8-11.64.51,3.82,2.11,9.35,3,10.15s35-.85,36.62-3.36c1.31-2.06,15.28-28.41,21-38.62-4.8,11-18.2,38.73-20.25,41.3C77,591.12,41.65,591.35,40.85,591.12Z" transform="translate(0 -1.36)"/></g><g id="g17961"><path id="path17963" class="cls-21" d="M42.07,499.79C36.36,499.56,27,500.93,28,510.91a124.77,124.77,0,0,0,1,25.27c13.29,2.91,26.75.68,40.09,1.65,3.65,9.19,3.2,22.82,9.93,27.89,9.47.69,21.5,1.66,28-8.49,1.6-11.75-6.61-19.85-9.35-30-4.34-9.69-9.41-20.42-17.4-24.7-12.54-3.25-25.49-3.42-38.15-2.79Z" transform="translate(0 -1.36)"/><path id="path17965" class="cls-22" d="M38.59,511.94c-1.77,5.93-1.26,11.81-.34,12.43s34.22.4,36,1.49,10.5,34.39,11.47,36.27,14.31-.86,14.66-2.11-19.57-42.83-22.13-46-37.93-3.37-38.73-3.14a1.37,1.37,0,0,0-.91,1Z" transform="translate(0 -1.36)"/><path id="path17967" class="cls-23" d="M37.45,518.38c-.17,3.2.28,5.59.85,6,1,.63,34.22.4,36,1.49s10.5,34.33,11.47,36.27c.17.34.91.51,1.76.63-.85-4.34-9.64-38.39-10.55-39.19s-36.1-1.88-37.18-1.88C39,521.58,38.19,521.06,37.45,518.38Z" transform="translate(0 -1.36)"/><path id="path17969" class="cls-10" d="M39.5,510.85a1.31,1.31,0,0,0-.91,1c-1.43,4.85-1.37,9.7-.8,11.64.51-3.82,2.11-9.36,3-10.16s35,.86,36.62,3.37c1.31,2,15.28,28.4,21,38.61-4.79-11-18.19-38.72-20.24-41.29C75.72,510.85,40.3,510.63,39.5,510.85Z" transform="translate(0 -1.36)"/></g><g id="g17971"><path id="path17973" class="cls-21" d="M127.91,502.07c-17.34-1.58-40,3-42.43,8.19C81.34,519,79,584.73,89.62,595.65c9.42,8.19,39.79,9,39.79,9Z" transform="translate(0 -1.36)"/><path id="path17975" class="cls-24" d="M123.25,514.48c-12.06-.08-25.27,3-26.94,6.43-3.17,6.51-4.93,56.08,3,64.26,7.13,6.17,29.93,6.87,29.93,6.87l-.17-17.17H102.82c-1.93,0-3.52-2-3.52-4.57s1.59-4.67,3.52-4.67h26l-.08-6.87h-30c-2.2,0-4-2.37-4-5.37,0-2.55,1.41-4.75,3.25-5.19a2.39,2.39,0,0,1,.8,0h29.93l-.09-7.13H102.47c-1.94,0-3.43-2.11-3.43-4.67s1.49-4.57,3.43-4.57h25.88l-.17-17.17c-1.59,0-3.17-.09-4.93-.18ZM110,521.79h15.23c1.06,0,1.94,1.15,1.94,2.55s-.88,2.56-1.94,2.56H110c-1.05,0-1.93-1.15-1.93-2.56S109,521.79,110,521.79Zm0,59.42h15.23c1.06,0,1.94,1.15,1.94,2.56a2.14,2.14,0,0,1-1.94,2.37H110a2.14,2.14,0,0,1-1.93-2.37C108.11,582.36,109,581.21,110,581.21Z" transform="translate(0 -1.36)"/><path id="path17977" class="cls-10" d="M123.25,514.48c-12.06-.08-25.27,3-26.94,6.43-1.85,3.87-3.17,22.8-2.29,39.35.09-24.56,4.49-37.76,4.49-37.76,9.86-5.55,24.39-4,24.39-4a24.22,24.22,0,0,1,.79,3.25h1.49c1.06,0,1.94,1.15,1.94,2.56s-.88,2.55-1.94,2.55H110c-1,0-1.93-1.15-1.93-2.55a2.43,2.43,0,0,1,.09-.8c-1.24,2.91.7,5.81,2.46,5.46s12.5-.7,12.5-.7.44,1.93.79,3.61h2.47c.88-7,1.67-13.56,1.76-17.17-1.59,0-3.08-.09-4.84-.18ZM99.3,535a.49.49,0,0,0-.17.44c-.71,2.9.44,6.86,2.64,7.21s21.83,0,23.15,0c.09-.52.09-1,.18-1.49H102.56c-1.94,0-3.43-2.11-3.43-4.67A7.53,7.53,0,0,1,99.3,535Zm25.62,7.65c-.26,2-.53,3.79-.79,5.64h.61l.88-5.64Zm-30,11.89c-.09,2.55,1.15,5.28,2.73,6,1.94,1,24.56,0,24.56,0s.26-1.4.26-1.76H98.77c-1.93.09-3.52-1.76-3.87-4.22Z" transform="translate(0 -1.36)"/><path id="path17979" class="cls-25" d="M94,561.41c.62,10.91,2.2,20.59,5.37,23.85,7.13,6.16,29.93,6.87,29.93,6.87L129.15,575H102.91c-1.93,0-3.52-2-3.52-4.58s1.59-4.66,3.52-4.66h26v-2C115.76,563,101,561.67,94,561.41Zm16,19.8h15.23c1.06,0,1.94,1.15,1.94,2.56a2.14,2.14,0,0,1-1.94,2.37H110a2.14,2.14,0,0,1-1.93-2.37C108.11,582.36,109,581.21,110,581.21Z" transform="translate(0 -1.36)"/></g><g id="g17981"><path id="path17983" class="cls-18" d="M204.18,607.13c17.7,58.63,8,101.67,17.43,109.69,7.57,6.33,34.34,3.87,47.72.61,10.74-1.58,11.09-21.3,6.16-28.61-3.7-8.19-8.1-20.07-9.6-24.47-8.18-24.56-13.29-37.33-12.58-46.75,1-13-18.67-40.31-37.33-33.89s-11.8,23.42-11.8,23.42Z" transform="translate(0 -1.36)"/><path id="path17985" class="cls-19" d="M214,611.88c11.18,36.89,9.24,88.91,15.14,93.93,4.75,4.05,23.06,3.08,31.51,1.06,4.58-.35,9.86-4.14,5.28-14.35-4.57-11.36-6.25-15.67-7.21-18.49-5.11-15.49-14.09-49.56-13.56-55.55.61-8.18-12-25.44-23.77-21.3s-7.39,14.7-7.39,14.7Z" transform="translate(0 -1.36)"/><path id="path17987" class="cls-26" d="M223.55,596.56a9.6,9.6,0,0,0-2.11.53c-11.8,4.14-7.48,14.7-7.48,14.7a142.32,142.32,0,0,1,5.45,23.6c8.63-1.76,22.72-1.06,23.42-.36.53.53,4.75,7.4,8.45,13.12-3.52-13.29-6.43-26.41-6.16-29.84.61-7.57-10.48-23.15-21.57-21.75Z" transform="translate(0 -1.36)"/><path id="path17989" class="cls-27" d="M219.94,628.7s-.61.52-1.58,1.23c6.42,33.89,5.81,71.66,10.82,75.88,4.76,4.05,23.07,3,31.52,1,4.58-.35,9.77-4.14,5.28-14.35-2.46-6.07-4.05-9.95-5.19-12.85,1,5.63,3.34,15.23,1.94,17.78-1.77,3.26-26.15,1.85-29.94,0S228.57,670.6,219.94,628.7Z" transform="translate(0 -1.36)"/></g><g id="g17991"><path id="path17993" class="cls-28" d="M270.83,504.94c39.5,13.22,36.15,60.33,26.91,77.83-9.24,17.66-35.35,25.08-35.35,25.08V503.48Z" transform="translate(0 -1.36)"/><path id="path17995" class="cls-29" d="M271.23,522.28c27.85,8.28,25.44,39.17,18.88,50.78s-24.91,16.85-24.91,16.85V521.47Z" transform="translate(0 -1.36)"/><path id="path17997" class="cls-30" d="M265.34,521.45v16.1a21.24,21.24,0,0,0,6.42-1.19c4.42-1.9,20.62.79,21.56,27.49,2.95-14.05,0-35-22.09-41.57Z" transform="translate(0 -1.36)"/><path id="path17999" class="cls-31" d="M265.34,561.28v28.61s18.21-5.21,24.77-16.83c1.74-3,2.94-7.38,3.75-12.21C292.52,562,278.73,567.12,265.34,561.28Z" transform="translate(0 -1.36)"/></g><g id="g18001"><path id="path18003" class="cls-18" d="M145.39,608.35c0,20.86,5.37,47.19,10.3,48.51s52.91,12.67,68.14,13.64c4.93.35,5.37-24.12-3.43-26.67s-50.45-8.1-50.45-8.1l-5.37-26.68c.27-5-19.72-6.6-19.19-.7Z" transform="translate(0 -1.36)"/><path id="path18005" class="cls-19" d="M151.2,607.56c2,25.7,6.6,39.79,8.28,41.46,1.93,1.94,60.3,13.65,60.3,13.65,4.14-1.94,1.94-8.46.7-9.78s-55.9-8.45-55.9-8.45-4.93-28.34-5.37-37.41c.36-6.25-9.06-6.34-8,.53Z" transform="translate(0 -1.36)"/><path id="path18007" class="cls-20" d="M156.84,602.8c2.73,20.87,5,42.79,6.78,43.93,1.93,1.23,55.81,8.89,58.27,9.25a7.76,7.76,0,0,0-1.41-3.09c-1.23-1.32-55.9-8.45-55.9-8.45s-4.84-28.25-5.37-37.32A4.13,4.13,0,0,0,156.84,602.8Z" transform="translate(0 -1.36)"/></g><path id="path18009" class="cls-18" d="M130.59,483.82,262,495.8c27.11,0,28.61,114.17,0,114.17L130.59,621C106.12,621,102.07,483.82,130.59,483.82Z" transform="translate(0 -1.36)"/><path id="path18011" class="cls-19" d="M137.28,500.37l116.82,9.86c22.36,0,23.6,85,0,85l-116.82,9.16C117,604.43,113.69,500.37,137.28,500.37Z" transform="translate(0 -1.36)"/><path id="path18013" class="cls-20" d="M137.2,500.37c-14.62,0-18.84,39.79-15.15,70.16,1.33-16.19,5.64-54.4,12.33-60,21.21-2.29,116.11,0,125.88,13.29,8,11,10.66,33.28,10,45.25,3.61-25-2-58.81-16.2-58.81Z" transform="translate(0 -1.36)"/><path id="path18015" class="cls-32" d="M123.11,577c2.64,15.58,7.4,27.47,14.17,27.47l116.82-9.07c6.25,0,10.74-6.16,13.56-15-9.42-.17-141.73-2.11-143.4-2.55a4.19,4.19,0,0,1-1.15-.88Z" transform="translate(0 -1.36)"/><path id="path18017" class="cls-20" d="M120.91,553.72c.18,5.9.53,11.89,1.23,17.43.09-.17.09-.26.09-.7,0-4.14,1.41-5.64,1.41-5.64l102.82,1.5s7.31,17,17.7,13.82A21.88,21.88,0,0,0,257.8,568.6l12.68-1.23c.35-2.91.61-5.9.7-9-9.68.35-119.11-3.52-150.27-4.67Z" transform="translate(0 -1.36)"/><g id="g18019"><path id="path18021" class="cls-18" d="M116.3,551.52c3.79,0,158.55,6,158.55,6l-.71,6.42L116,559.8Z" transform="translate(0 -1.36)"/><path id="path18023" class="cls-18" d="M256.1,556.27c0,10.57-6.43,19.11-14.44,19.11s-14.44-8.54-14.44-19.11,6.43-19.1,14.44-19.1S256.1,545.8,256.1,556.27Z" transform="translate(0 -1.36)"/><path id="path18025" class="cls-33" d="M249.67,556.1c0,5.81-3.61,10.56-8,10.56s-8-4.75-8-10.56,3.61-10.57,8-10.57S249.67,550.2,249.67,556.1Z" transform="translate(0 -1.36)"/></g></g></g></svg>