<svg id="Layer_1" data-name="Layer 1" xmlns="http://www.w3.org/2000/svg" viewBox="0 0 880.18 1133.28"><defs><style>.cls-1{fill:#04a;}.cls-1,.cls-7{fill-opacity:0;}.cls-2{fill:#01130e;}.cls-3{fill:#1eefba;}.cls-4{fill:#10dca8;}.cls-5{fill:#4fffd2;}.cls-13,.cls-6{fill:#10daa7;}.cls-6{fill-opacity:1;}.cls-7{fill:#450;}.cls-8{fill:#0ec093;}.cls-9{fill:#0a8667;}.cls-10{fill:#f3f3f3;}.cls-11{fill:#fff;}.cls-12{opacity:0.29;isolation:isolate;}.cls-14{fill:#0a8b6a;}.cls-15{fill:#130113;}.cls-16{fill:#ffa5ff;}.cls-17{fill:#d34ad3;}.cls-18{fill:#ffceff;}.cls-19{fill:#f472f4;}.cls-20{fill:#17d9a8;}</style></defs><path id="rect11304" class="cls-1" d="M22.82,928.61H463.19" transform="translate(-22.82 -57.72)"/><g id="g17915"><g id="g17917"><g id="g17919"><g id="g17921"><path id="path17923" class="cls-1" d="M697.26,662.62,464.13,793.55l147.58,311.81L844.84,974.43Z" transform="translate(-22.82 -57.72)"/><path id="path17925" class="cls-2" d="M581.58,743.41c57.06-25.42,56.68,55.14,83.1,91.9s62.72,35.77,92.25,69.89c19.55,22.58,30.8,54.39,15.06,88.7-14,30.38-46.14,34.05-67.67,19.59-19.55-13.13-5.35-28-27.43-53.6-21.66-25.16-44.38-13.76-69.67-41.65-30.07-33.15-55.14-84-62.94-115.33-3.77-15.18-2.41-24,1.39-29.6,12.38-18.18,35.91-29.9,35.91-29.9Z" transform="translate(-22.82 -57.72)"/><path id="path17927" class="cls-3" d="M619.56,781.81c15,32.33,21.34,77.56,59.68,97.91,24.07,14,47,22.2,61.82,36.66,17.89,16.43,28.15,53.63,11,73.31-13.8,14.89-43.31,11.35-43.12-21.16-12.81-25.76-24.83-35.62-74.38-55-40.31-18-61.19-73.13-76.06-107.55-18.47-29.3-10.5-50.18,10.1-61.48C598.14,727.66,611,761.27,619.56,781.81Z" transform="translate(-22.82 -57.72)"/><path id="path17929" class="cls-4" d="M548.71,768.73c2.45,8.65,6.67,21.17,13.9,39.36,17.16,43.22,54.9,90.07,93.26,99.88,25.24,6.45,58.41,26.25,61.72,29.77s1,26.27,7.64,33.3c6,6.33,19.35,12.76,35.3-12.46,1,11.55-1.29,22.88-8.45,31.1-13.81,14.89-43.28,11.38-43.08-21.13-12.81-25.77-24.91-35.72-74.46-55.1-40.31-18-61.25-72.64-76.12-107.06-6.9-14.58-11-27.22-9.71-37.66Z" transform="translate(-22.82 -57.72)"/><path id="path17931" class="cls-5" d="M568.6,744.53c29.54-16.83,42.44,16.78,51,37.32,15,32.33,21.28,77.49,59.62,97.84,24.07,14,47.09,22.28,61.88,36.74,16.15,14.83,26,46.53,15.15,67,2.32-10.28,3.43-33.22-22.7-57.26C701.49,896.72,677.09,906,641,868S603.3,758.9,592.74,750.5c-9.37-7.46-29.91-1.25-33-.61.64-.51,8.18-4.88,8.89-5.37Z" transform="translate(-22.82 -57.72)"/></g></g></g><g id="g18027"><g id="g18029"><path id="path18031" class="cls-1" d="M410.54,821h228v304.9h-228Z" transform="translate(-22.82 -57.72)"/><path id="path18033" class="cls-2" d="M531.62,834.26c-15.28.37-34.64,11.58-34.58,32.2-2.67,41.9,1.86,53.77,4.66,94.1,3.72,32.51-6.92,84.21-9.33,116.18-.47,14.78,1.46,37.53,26.55,46.1,10.93,4.56,39.49-.33,44.45-20.45,17.34-53.9,14.65-95.71,16.93-145.59.37-28.15-1.54-53.52-4-95.36-2.51-25.41-30.1-29.57-44.68-27.18Z" transform="translate(-22.82 -57.72)"/><path id="path18035" class="cls-3" d="M534,830.86c-17.36,4-23,27.34-22.1,42.37.93,51.91,11.52,124.3-.84,175.34-2,19.21-5.33,54,15.49,58.07,15.36,2.94,21.73-13.54,23.43-29a493,493,0,0,0,13.31-121.45c.88-33,4.16-77.08-2.47-109.45C558.72,828,541.47,829,534,830.86Z" transform="translate(-22.82 -57.72)"/><path id="path18037" class="cls-6" d="M564.73,912.24c-1.72,8.14-1.68,43.22-3.79,68.47-2.54,30.45-12.59,85.86-19,96.94-5.79,10.1-20.57,27.54-30.83,10.1,2,9.52,6.4,17.16,15.41,18.94,15.37,2.94,21.7-13.55,23.39-29a492.35,492.35,0,0,0,13.33-121.42C563.65,942.92,564.4,927.67,564.73,912.24Z" transform="translate(-22.82 -57.72)"/><path id="path18039" class="cls-5" d="M529.19,832.67c-13.58,6.82-18.05,27-17.25,40.57.93,51.9,11.58,124.33-.78,175.37-2,19.21-5.4,54,15.41,58.08a14.88,14.88,0,0,0,13.86-4c-2.73.28-5.88.85-9.28,1.28-10.8,1.38-13.38-9.07-15.29-27.76s17.81-69.85,14.63-103.76C527.51,940.59,511.59,873.91,529.19,832.67Z" transform="translate(-22.82 -57.72)"/></g></g><g id="g18041"><g id="g18043"><path id="path18045" class="cls-1" d="M471.34,814.8,702.15,761l60.65,308.69L532,1123.49Z" transform="translate(-22.82 -57.72)"/><path id="path18047" class="cls-2" d="M588.76,798.28c-12.35,4.79-18.75,15.36-22.65,28.16.3,31.07,10.36,61.25,19.9,90.39,18.17,45.75,38.57,91.44,44,141.59.11,19.57,15.5,36,33.44,33.84,18.34.51,41.45-5.26,48.32-25.22,5.11-31.56-9-61.77-17.48-91.2C677.32,924,660.79,871.66,651.18,817.56,646.17,796,622,789.74,604,793.61c-5.2,1.22-10.45,2.08-15.27,4.67Z" transform="translate(-22.82 -57.72)"/><path id="path18049" class="cls-3" d="M596.07,785.23c-16.83,8.15-15.12,32.46-11.41,47.52,11.5,66.18,60.05,151.85,66.05,219.61,1.53,9.79,7.35,24.41,29.86,16.37,21-5.81,5.63-37.32,2.87-54.68-13.55-54.93-43.73-144.69-49.32-201.82-1.78-16.47-10.17-22.4-23.32-27.65C606,783.67,600.54,782.43,596.07,785.23Z" transform="translate(-22.82 -57.72)"/><path id="path18051" class="cls-6" d="M586.87,807.17c-4.38,10.77-2.75,25.17-.25,35.32,11.5,66.18,58.07,142.17,64.07,209.93,1.53,9.79,7.39,24.28,29.89,16.24a13.94,13.94,0,0,0,7.51-4.76,43.75,43.75,0,0,1-18.58-2.3c-10.11-3.51-7.69-15.11-12.46-36s-17-62.6-35-99.44C604.78,890.91,588.84,852.65,586.87,807.17Z" transform="translate(-22.82 -57.72)"/><path id="path18053" class="cls-5" d="M643.29,865.45c-.3,49.19,25.84,127.12,34.1,151.06,7.82,22.65,9.62,40.93,7.29,50.45,14.57-8.77,1.28-36.87-1.27-52.91C673,972,654.14,915.36,643.29,865.45Z" transform="translate(-22.82 -57.72)"/></g></g><g id="g18055"><g id="g18057"><g id="g18059"><path id="path18061" class="cls-7" d="M334.35,709.79,541.78,819.58,418,1097,210.59,987.22Z" transform="translate(-22.82 -57.72)"/><path id="path18063" class="cls-2" d="M448.6,780c-16.43-8.49-38.32-15.14-49.6,3.54-16.35,22.85-17.72,58.54-43.54,72.66C340.18,868.75,319,866.4,299.4,867.93c-14.81-.73-26.51,5.64-37.55,14.78-20.09,17.76-32.76,50.69-19.56,76.79,9.07,21.39,36.94,31.43,56.28,22.67,7.48-2.56,13.87-13.68,20.81-19.81,11.95-8.35,29.93-7,44.08-12.26,33.68-8.26,68.34-26,84.66-61,12.09-24.05,25.38-49.29,27.52-77-2.33-12.48-9.14-23.75-20.51-29.12-2-1.36-4.38-1.94-6.53-3Z" transform="translate(-22.82 -57.72)"/><path id="path18065" class="cls-3" d="M449.28,779c-15.54-9.62-30.32,4.62-37.25,19.71-14.22,25-26.9,73.77-57.73,82.92-36,9.81-40.22,7.53-59.83,9.9-19.92.58-40.36,25.25-35.27,47.56,1.71,10.9,15.31,23.48,27.77,20.12,14.52-2.53,11.12-12.49,19.38-17.17,10.14-5.25,30.61-9.21,52.67-13,61.92-13.59,93.62-78.38,104.93-129.2-.26-8.25-5.39-18.73-14.67-20.8Z" transform="translate(-22.82 -57.72)"/><path id="path18067" class="cls-4" d="M463.78,798.36c-2.1,4-6.21,12.38-13.58,31.08C439,858,410.68,903.36,361.52,912.65c-40.54,7.65-59,9.14-59.95,13.49s-6.78,16.42-14.91,19.12c-7.62,2.53-23.88-1.89-23.61-31.32-4,7.73-5.79,16.6-3.85,25.1,1.71,10.9,15.26,23.52,27.72,20.16,14.52-2.53,11.2-12.47,19.45-17.15C316.51,936.79,337,932.8,359,929c61.92-13.58,93.61-78.47,104.91-129.29C463.9,799.25,463.82,798.8,463.78,798.36Z" transform="translate(-22.82 -57.72)"/><path id="path18069" class="cls-5" d="M442.76,776.41c-13.06-2.9-24.74,9.36-30.7,22.33-14.22,25-27,73.7-57.84,82.85-36,9.82-40.11,7.57-59.72,9.95-19.17.55-38.82,23.31-35.74,44.92,2.35-9.37,8.92-23.13,23.38-29.82,21.21-9.8,57.33,3.37,89.71-22.62s39.31-74.65,51.68-91.28C432.58,780.56,438.58,776.89,442.76,776.41Z" transform="translate(-22.82 -57.72)"/></g></g></g><g id="g18071"><g id="g18073"><path id="path18075" class="cls-1" d="M309.92,817.56h228v304.91h-228Z" transform="translate(-22.82 -57.72)"/><path id="path18077" class="cls-2" d="M432.1,828.87c-14.69-.24-32,5.2-34.84,22.68-4.33,28.11-1.36,56.82-1.35,85.14-1.78,28.48-10.42,56.51-26.22,79.28-4.77,9.22-16.74,16.65-17.9,29.52-6.54,28.94,7.85,63.5,35.8,69.63,19.85,6.36,46.22,7.49,59.51-12.71,14.28-16.57,9.9-41.32,12.1-62.19,16.57-41.84,28.89-87.08,24.41-133.13-2.28-19.67-2.68-39.86-6.15-59.21-6.71-18.26-29.4-19.75-45.36-19Z" transform="translate(-22.82 -57.72)"/><path id="path18079" class="cls-3" d="M430.69,827.17c-16.61,1.58-19.13,23.59-17,38.05-.62,50.55,6.45,104.07-17.73,149.29-5,13.37-22.29,25.37-20.49,55.44-.32,24.47,41.9,35.85,54,15.65,8.32-17.89,0-23.94,11.21-57.35,12.42-37,24-66.71,27.37-97.72,2.78-27.53-3-59.5-5.31-88.13,0-13.72-24.81-16.9-32.1-15.23Z" transform="translate(-22.82 -57.72)"/><path id="path18081" class="cls-4" d="M465.44,869.67c.57,15.26-.39,45-4.18,63.35-4.45,21.45-34.31,85.1-36.85,99.64s5.74,51.3-8.24,53.37c-12.75,1.9-35,1.94-40.24-28a64.35,64.35,0,0,0-.39,12c-.33,24.47,41.86,35.86,54,15.66,8.32-17.89,0-24,11.24-57.37,12.42-37,24-66.63,27.31-97.64,1.92-19-.33-40.22-2.61-60.93Z" transform="translate(-22.82 -57.72)"/><path id="path18083" class="cls-5" d="M417.48,836.22c-4.55,8.1-5.14,20-3.79,29-.61,50.55,6.54,104.09-17.64,149.32-5,13.36-22.32,25.3-20.52,55.37-.12,9.31,5.92,16.71,14.12,21.21a31.31,31.31,0,0,1-4.71-4.41c-5.71-6.92-8.82-20.07,2.62-40.14s43.12-69.2,38.68-110C422.26,900.09,410.84,869.06,417.48,836.22Z" transform="translate(-22.82 -57.72)"/></g></g><g id="g18085"><path id="path18087" class="cls-2" d="M385.7,920.43C244.85,685,333.28,454.32,347.83,392.69s-30.71-128.54,55-195.45,218-7.05,250.36,59.87-40.42,227.15-9.7,336.32S707,702.55,707.91,810c1.43,169.46-233.52,248.28-322.21,110.42Z" transform="translate(-22.82 -57.72)"/><path id="path18089" class="cls-3" d="M405.57,899.3C286.33,700,348.87,468.54,367.69,394.41c20.4-80.35-19.53-115.87,53-172.52S603,210,629.08,267.29c33.84,74.26-48.76,197.59-8.21,342.84,25.82,92.49,63.18,104.71,63.94,195.69C686,949.28,480.66,1016,405.57,899.3Z" transform="translate(-22.82 -57.72)"/><path id="path18091" class="cls-8" d="M616.14,247.21a169.56,169.56,0,0,1,9,34.4c8,51.05-16.08,64.77-41.22,181.81s46,204.52,61.14,246.49c17.18,47.57,46.78,194.39-78.26,220.31-72.57,15-146.93-12.16-197.82-106.81a473.47,473.47,0,0,0,36.57,75.87C480.6,1016,686,949.31,684.79,805.84c-.76-91-38.18-103.26-64-195.75-40.55-145.25,42.15-268.53,8.31-342.78A88.57,88.57,0,0,0,616.14,247.21Z" transform="translate(-22.82 -57.72)"/><path id="path18093" class="cls-8" d="M503.76,195.72c-33.72,4.16-77.45,27.89-98.91,40-27.62,26.95-30.57,49.89-30.59,77.32a61.63,61.63,0,0,0,8.48,2.72s15.4,27.27,54.19,24.63,50-31.69,50-31.69,24.27,10.63,42.06,8.87S559,283.19,559,283.19s-.74,13.23,2.49,20.28,2.33,9.59,2.33,9.59-5.14,5.13-6.15,15.58a21.91,21.91,0,0,0-8,2.17c-28.58,29.88-9.11,68.47,11.47,59.76,8.08-3.42,13.64-10.53,16.79-18.84,9.62,7.48,21.14,11.78,31.25,11.78,18.59,0,21.78-28.92,21.78-33.32s2.49-39.66,2.49-39.66a223,223,0,0,0,1.16-26.44,85.93,85.93,0,0,0-5.48-16.84C612,229.62,558.77,197.4,503.76,195.72Z" transform="translate(-22.82 -57.72)"/><path id="path18095" class="cls-8" d="M358.1,433.66c-9.2,39.44-19.89,94.49-22.77,157.54C372.63,600.28,396.5,580,396.5,580s24,32.23,70.82,22.27,58.31-99.48,56-113.17S412.4,441.72,390.69,436.74C383.35,435.06,371.53,433.72,358.1,433.66Z" transform="translate(-22.82 -57.72)"/></g><g id="g18097"><path id="path18099" class="cls-2" d="M583.06,408.64c-27.46,11.92-24.67,58.57-8.84,64.65s27.93-21.8,28.86-39-9.08-29.92-20-25.61Z" transform="translate(-22.82 -57.72)"/><path id="path18101" class="cls-9" d="M577.07,425.36c-13.14,14.31-8.57,29.88,0,28.63s14.29-19.3,10.29-29.26S577.07,425.36,577.07,425.36Z" transform="translate(-22.82 -57.72)"/></g><g id="g18103"><path id="path18105" class="cls-2" d="M574,544.53c-12.65,20.67-4.38,57.76,14.11,59.35s16.05-32.85,13.62-45.57-11.68-21.2-19-19.61S574,544.53,574,544.53Z" transform="translate(-22.82 -57.72)"/><path id="path18107" class="cls-9" d="M572,564.78c-4,13.69,5.14,29.26,11.43,26.14s6.28-26.14-1.72-32.37-9.71,6.22-9.71,6.22Z" transform="translate(-22.82 -57.72)"/></g><g id="g18109"><path id="path18111" class="cls-2" d="M598.22,659.12c-6.41,30.08,12.82,60.69,25.15,56.39s6.9-38.67-1-51.56-15.28-13.43-19.23-10.74a12.44,12.44,0,0,0-4.93,5.91Z" transform="translate(-22.82 -57.72)"/><path id="path18113" class="cls-9" d="M602.54,687.59c2.32,12.89,9.94,20.82,13.69,17.91s-.67-20-7.83-29.18S602.54,687.59,602.54,687.59Z" transform="translate(-22.82 -57.72)"/></g><g id="g18115"><g id="g18117"><path id="path18119" class="cls-2" d="M448,433.93C466,480.1,469.76,528.88,426.9,554c-33.65,19.69-80,6.88-98-39.29S322,413.55,352.41,392.92s77.49-5.16,95.54,41Z" transform="translate(-22.82 -57.72)"/><path id="path18121" class="cls-10" d="M445.28,435.49c12.19,31.18,10.73,79.86-19.65,101-29.43,20.52-65.57,6.27-80.49-31.87s-8.9-76.07,20.72-96.15,64.91-10.11,79.42,27Z" transform="translate(-22.82 -57.72)"/><path id="path18123" class="cls-11" d="M376,402.92a62.62,62.62,0,0,0-10.21,5.55c-29.62,20.08-35.51,57.94-20.59,96.09,12.54,32.07,40,47.28,66,39.11-7.42-.36-16.63-1.93-28.8-5.76C347.69,527,331.72,445.29,376,402.92Z" transform="translate(-22.82 -57.72)"/></g><g id="g18125"><path id="path18127" class="cls-2" d="M413.56,466.12c0,62.27,36.19,105.55,80.83,105.55s80.83-43.28,80.83-105.55-24.85-112.77-69.49-112.77-92.17,50.49-92.17,112.77Z" transform="translate(-22.82 -57.72)"/><path id="path18129" class="cls-10" d="M431.49,467c0,40.74,25.25,87,66.44,87,42.08,0,77.79-34.63,77.79-84.47s-28.56-90.23-70.64-90.23S431.49,418.51,431.49,467Z" transform="translate(-22.82 -57.72)"/><path id="path18131" class="cls-12" d="M575.16,458.41c-1.9,17.22-6.86,35-15,50.16-9.2,17.24-24.87,35.4-43.71,42.92,33.49-8.53,59.17-39.75,59.17-82,0-3.75-.18-7.42-.49-11ZM445.33,519.26c1.28,2.24,2.54,4.42,4,6.52.09.13.23.22.33.35.69,1,1.43,1.94,2.16,2.9s1.5,2.1,2.33,3.08,1.86,2.06,2.82,3.08,2.09,2.07,3.16,3.08c.82.76,1.65,1.45,2.5,2.17s1.87,1.45,2.82,2.17c.59.44,1.06,1,1.66,1.45,1,.69,2,1.37,3,2,.16.11.33.26.49.36,1.2.72,2.58,1.19,3.83,1.81-9.66-5.59-19.42-14.87-29.09-29Z" transform="translate(-22.82 -57.72)"/><path id="path18133" class="cls-11" d="M447.62,411.45c-10.17,15.12-16,34.55-16,55.59,0,40.74,25.14,86.95,66.33,86.95a75.32,75.32,0,0,0,10.94-.79c-10.69-.78-24-4.43-37.91-14.69C447.63,521.35,423,466.63,447.62,411.45Z" transform="translate(-22.82 -57.72)"/></g><g id="g18135"><path id="path18137" d="M523.29,476.75c0,12.79-9.52,23.16-21.27,23.16s-21.26-10.37-21.26-23.16,9.52-23.17,21.26-23.17S523.29,464,523.29,476.75Z" transform="translate(-22.82 -57.72)"/><path id="path18139" class="cls-11" d="M501.14,463.23c0,5.87-4.37,10.62-9.75,10.62s-9.75-4.76-9.75-10.62,4.37-10.62,9.75-10.62S501.14,457.37,501.14,463.23Z" transform="translate(-22.82 -57.72)"/></g><path id="path18141" class="cls-2" d="M524.5,296.75c-79.74,27-113,118.19-108.53,128.8s7.09,16.41,13.29,22.2S501,396.6,523.19,378.26s34.55-26.06,39-38.61S539.22,288.65,524.5,296.75Z" transform="translate(-22.82 -57.72)"/><path id="path18143" class="cls-2" d="M345.18,328.19c61.72,20.91,90.52,86.65,87.1,94.87s-5.49,12.7-10.29,17.18-55.55-39.59-72.69-53.78-22.71-16.65-26.14-26.36,12.93-31.91,22-31.91Z" transform="translate(-22.82 -57.72)"/><g id="g18145"><path id="path18147" d="M387.26,483.42c0,11.28-8.4,20.43-18.76,20.43s-18.76-9.15-18.76-20.43S358.14,463,368.5,463,387.26,472.14,387.26,483.42Z" transform="translate(-22.82 -57.72)"/><path id="path18149" class="cls-11" d="M367.72,471.5c0,5.17-3.85,9.36-8.6,9.36s-8.6-4.19-8.6-9.36,3.85-9.37,8.6-9.37S367.72,466.33,367.72,471.5Z" transform="translate(-22.82 -57.72)"/></g></g><g id="g18151"><g id="g18153"><g id="g18155"><path id="path18157" class="cls-7" d="M293.82,811.67l231.4,44.56L475,1165.72,243.6,1121.15Z" transform="translate(-22.82 -57.72)"/><path id="path18159" class="cls-2" d="M423.78,845.78c-18.28-3.33-41.43-3.19-47.71,18.54-10.17,27.36-2.37,62.76-24.05,84.43-11.77,16.93-33.12,21.06-51.94,28.52-14.71,3.78-24.54,13.58-33,25.9-15.14,23.51-19.13,59.62.49,81.19,14.37,18.21,44.25,19.58,61,5.12,6.67-4.79,10.09-17.63,15.32-25.74,9.57-11.81,27.54-15.93,40.05-25.42,30.89-18.32,60.32-46.23,67.34-85.52,5.69-27.24,6.18-48.07,1.19-75.84-3.77-12.81-9-28.44-21.49-30.25-2.31-.72-4.78-.57-7.15-.93Z" transform="translate(-22.82 -57.72)"/><path id="path18161" class="cls-3" d="M425.31,841.16c-20.2-.3-34.88,2.54-33.52,29.69-7.54,28.82-6.55,84.77-34.42,103.11-32.8,20.57-37.48,19.6-56.1,27.89-19.37,6.61-33.08,37-22.38,57.32,4.47,10.17,21,18.36,32.37,11.28,13.58-6.89,7.7-15.62,14.6-22.71,8.58-8.24,27.63-18.34,48.27-28.79,57.2-32.13,74.7-107.29,72.76-160.53,5-8.94-9.36-15-21.58-17.26Z" transform="translate(-22.82 -57.72)"/><path id="path18163" class="cls-4" d="M443.35,859.13c-1,4.54-2.91,14-5.35,34.59-3.71,31.4-19.8,84.45-65.59,108.49-37.77,19.82-55.48,26.89-55.29,31.44s-2.45,18.15-9.73,23.27c-6.81,4.8-23.88,5.41-31.15-23.51-2,8.79-1.43,18,2.65,25.76,4.47,10.16,21,18.41,32.33,11.34,13.58-6.89,7.78-15.63,14.67-22.72,8.59-8.24,27.59-18.36,48.23-28.81,57.2-32.13,71.63-105.35,69.69-158.59C443.69,860,443.5,859.56,443.35,859.13Z" transform="translate(-22.82 -57.72)"/><path id="path18165" class="cls-5" d="M412.87,842.94c-12.59-.13-22.1,6.71-21,27.84-7.31,28-6.64,81.39-32,101.32a26.46,26.46,0,0,1-2.52,1.91c-8.11,5.09-14.55,8.86-19.85,11.78-2.73,1.51-5.15,2.77-7.4,3.89s-4.06,2-6,2.8c-3.86,1.72-7.18,3-10.79,4.43s-7.34,3-12,5.06a27.31,27.31,0,0,0-3.37,1.41s-.11-.07-.15,0a31.85,31.85,0,0,0-3.16,2c-.09.06-.23,0-.33.1-1,.66-1.95,1.42-2.87,2.19l-.36.27c-.88.76-1.61,1.59-2.44,2.44s-1.85,2-2.7,3.08-1.66,2.15-2.43,3.31-1.49,2.46-2.17,3.69c-.48.87-.95,1.75-1.38,2.65-.28.59-.65,1.12-.9,1.72-.09.2-.18.42-.26.63-.37.89-.61,1.83-.92,2.74-.41,1.18-.73,2.36-1.05,3.57-.08.28-.22.52-.29.8-.31,1.27-.57,2.51-.77,3.79-.15,1-.22,1.9-.31,2.86-.1,1.12-.22,2.27-.23,3.38s0,2.2.1,3.28c.06.87.08,1.75.2,2.61,0,.25.16.48.2.72.17,1.09.46,2.17.73,3.23.12.44.29.85.43,1.28a30.26,30.26,0,0,0,.94,2.93c-.07-9.9,2.91-25.25,15.3-36.14,18.27-16.05,57.08-14.18,82.16-49.5s19.28-85.11,27.14-105.17c5.76-14.69,10.75-20.11,14.72-21.85-1.33-.41-2.82-.65-4.25-1Z" transform="translate(-22.82 -57.72)"/></g></g></g><g id="g18167"><g id="g18169"><path id="path18171" class="cls-1" d="M521.3,966.23,720.2,783,857.75,972.84l-198.9,183.24Z" transform="translate(-22.82 -57.72)"/><path id="path18173" class="cls-2" d="M625.35,881c-10.14,11.21-13.25,23-13.47,34.84,8.49,22.72,25.75,38.71,42.25,54.26,28.87,22.43,59.78,43.42,78,77,5.27,14.36,33.53,25.71,49.51,12.95,17.07-11,32-26.14,28.26-57.46-3.62-26.45-24.64-39.94-40.23-56.36-29.35-27.71-58.43-56-81.6-89.9-10.33-12.81-34.25-2.38-49.87,11.68-4.48,4.14-9.09,8-12.86,12.95Z" transform="translate(-22.82 -57.72)"/><path id="path18175" class="cls-3" d="M628.65,866.84c-13.38,16.48-5.38,33.34,2,42.14,28.1,41.63,95.57,74.59,119,120.81,4,6.27,13.23,13.42,31.89-6.5,17.9-17.37-4.66-31-11.79-42.1-27-32.07-78.6-79.47-98.86-118.11-6-11-15.3-10.19-28.84-5.88C637.42,859.5,632,862,628.65,866.84Z" transform="translate(-22.82 -57.72)"/><path id="path18177" class="cls-6" d="M626,888.74c-1.19,10.67,4.12,20.27,9.1,26.2,28.11,41.63,91.18,68.68,114.63,114.91,4,6.26,13.23,13.31,31.89-6.62a22.76,22.76,0,0,0,5.67-8.18,66.81,66.81,0,0,1-17.76,9.86c-10.26,3.7-11.1-6.35-21-18.77s-32.26-35.56-58.62-51.52C664.62,939.34,639.79,921.05,626,888.74Z" transform="translate(-22.82 -57.72)"/><path id="path18179" class="cls-5" d="M693.45,896.61c12.71,36.46,57.44,77.65,71.39,90.15,13.21,11.84,19.7,24.2,20.06,32.66,11.14-15.52-8.56-28-15.15-38.22C749.08,956.68,716.65,926.65,693.45,896.61Z" transform="translate(-22.82 -57.72)"/></g></g><g id="g18181"><g id="g18183"><path id="path18185" class="cls-1" d="M503.47,867.09l196-205.71L903,914.7l-196,205.71Z" transform="translate(-22.82 -57.72)"/><path id="path18187" class="cls-2" d="M614.18,777.63c-11.07,17.25-2.38,47.52,10.46,60.56,25,36.93,41.7,64.67,83,77.31,22.08,3.17,46.79-3.16,68,5.37,11.32,11.36,14.59,31.3,28.51,40.36,17.33,15,42.94,1.87,59.89-14.5,17.8-16.1,27.95-46.84,12.43-65.68-14.53-23.63-34.17-44.19-60-50.49-28.59-7.3-60.63.41-87-12.18-27-15.6-32.42-42.25-53.12-65.12-16.67-12.38-45.44-3.43-60,12.8-3.32,3.64-.17,3.53-2.93,7.76Z" transform="translate(-22.82 -57.72)"/><path id="path18189" class="cls-3" d="M622.44,819c25.58,31.45,58.14,68.34,96.73,72.37C744.79,897,761.64,893.24,782,897c15.57-2.29,25.51,72.8,72,28.54,19.7-20.56-3.29-43.49-9.29-51.2-27.2-26.56-52.72-25.15-76.39-25.9-16.6-3.36-39.07-1.06-53.21-13.09-25.84-17.36-37-69.82-59.5-91C614,731.52,584.73,791.12,622.44,819Z" transform="translate(-22.82 -57.72)"/><path id="path18191" class="cls-5" d="M637.25,743.17a38,38,0,0,0-20.92,12.51l9.74.46c43.45,1.79,46.84,66.23,73.39,88.32,30.41,25.32,69.31,7,105,15.12,13.86,3.14,22.66,4.77,29.54,5.74a85.09,85.09,0,0,0-9.26-6.1c-1.18-.65-2.38-1.25-3.55-1.81-.48-.24-1-.39-1.47-.61-1.56-.71-3.05-1.36-4.6-1.95-.07,0-.12-.11-.19-.14-2.15-.81-4.37-1.48-6.49-2.09s-4.24-1.13-6.39-1.56l-1.76-.35c-1.52-.27-3-.48-4.53-.68-.18,0-.35,0-.53-.06-3-.39-5.9-.67-8.8-.85-6.14-.39-12.17-.48-18.09-.67-10.37-2.1-23-1.94-34.56-4.46a52.85,52.85,0,0,1-9.91-3.19,35.73,35.73,0,0,1-6-3.3,32.77,32.77,0,0,1-2.73-2s0-.15,0-.17a30.07,30.07,0,0,1-4.56-3.62c-22.61-20.14-33.85-67.52-54.9-87.38a37.24,37.24,0,0,0-18.36-1.16Z" transform="translate(-22.82 -57.72)"/><path id="path18193" class="cls-13" d="M647.81,839.65c20.13,25,42.44,48.7,71.39,51.73,25.63,5.67,42.46,1.75,62.85,5.54,15.56-2.29,25.53,72.84,72,28.58,8.51-8.86,9-18.22,6.41-26.56-1.27.9-3.14,2.8-2,6.73,1.59,5.74-6.39,32.13-30.41,16s-19.84-38.62-39.5-45.54C772.07,870.34,713.21,897.1,647.81,839.65Z" transform="translate(-22.82 -57.72)"/></g></g><g id="g18195"><g id="g18197"><path id="path18199" class="cls-1" d="M443.33,905.15l213.45-89,100.35,285.49-213.46,89Z" transform="translate(-22.82 -57.72)"/><path id="path18201" class="cls-2" d="M556.32,872.55c-14.18,6.31-19.66,27.74-12.82,47,6.35,27.87,15.23,46.74,19.49,58.21,10.18,34.31,11.83,67.25-.93,103.38-12.15,24.63,10,66.36,36.93,70.15,11.41,3,52.73-1,63.34-28.28,12.26-30.29-6.61-52.21-7.68-70.53,4-100.72-21-127.68-42.25-178.14-10.71-22.81-43.21-9.76-56.08-1.83Z" transform="translate(-22.82 -57.72)"/><path id="path18203" class="cls-3" d="M555,863.39c-15,8-5.54,33.15,1.25,45.84,16.06,47.58,40.29,94.93,32.53,146.71-.25,14.46-12.52,32.46-.93,59.92,7.74,23,51,17.2,55.71-6.44,1.9-20-7.87-22.43-8.38-58.08-.54-39.45.54-71.85-6.54-102.19-6.46-26.86-15.36-61.48-26.92-87.39-6.95-21.24-36.49-7.27-42.77-2.86Z" transform="translate(-22.82 -57.72)"/><path id="path18205" class="cls-4" d="M606.09,893.21c5.56,14.06,14.46,42.32,16.93,60.94,2.9,21.83-4.11,93.09-1.71,107.69s22.27,45.79,9.86,53.19c-11.32,6.76-32.14,15.48-46.91-10.53a63.33,63.33,0,0,0,3.57,11.34c7.74,23,51,17.23,55.68-6.41,1.9-20-7.85-22.45-8.36-58.1-.53-39.45.51-71.76-6.56-102.1-4.47-18.57-13.54-37.52-22.5-56Z" transform="translate(-22.82 -57.72)"/><path id="path18207" class="cls-5" d="M550.18,880.61c-1.59,9.37,1.78,20.77,6,28.67,16.06,47.58,40.38,94.92,32.62,146.71-.25,14.45-12.57,32.4-1,59.85,2.94,8.77,11,13.34,20.19,14.35a29.12,29.12,0,0,1-5.86-2.29c-7.63-4.25-14.86-15.35-10.76-38.61s17.61-81.63,0-118.13C575.68,938.55,554.77,914,550.18,880.61Z" transform="translate(-22.82 -57.72)"/></g></g><g id="g18209"><g id="g18211"><g id="g18213"><path id="path18215" class="cls-1" d="M346.81,855.48l250.86-30.75,34.67,335.51L381.47,1191Z" transform="translate(-22.82 -57.72)"/><path id="path18217" class="cls-2" d="M479,852.89c-36.49,33.81-14.07,81.28-21.5,121.92-8,44.05-32.68,65.13-39.61,109.62-4.58,29.46,2,61.48,31.43,79.79,26.06,16.22,53.63.44,63.79-23.67,9.21-21.89-9.43-25.49-4.32-58.88,5-32.74,28.8-36.83,35.38-73.87,7.82-44,3-99.32-6.14-129-4.42-14.35-9.84-20.64-15.62-22.9-18.82-7.36-43.41-3.05-43.41-3.05Z" transform="translate(-22.82 -57.72)"/><path id="path18219" class="cls-3" d="M467.45,905.73c3.83,34.62,20.93,74.52.21,113.11-12.41,25.22-26.78,45.13-31.53,65.32-6.28,23.56,3.74,59.31,27.12,65.1,18.35,3.89,40.25-16.1,24.16-42-2.37-28.09,2.42-43,32.59-87.32,23.47-37.83,13.15-94.15,8.19-130.36.43-34.2-16.19-46.29-38.23-43.36C458.06,849.91,464.23,884.31,467.45,905.73Z" transform="translate(-22.82 -57.72)"/><path id="path18221" class="cls-4" d="M517.77,854c2.28,8.36,5,20.83,8.17,39.61,7.44,44.59.18,104.05-25.73,134.22-17,19.85-33.9,55-34.82,59.74s12.05,21.63,10.2,31.11c-1.67,8.53-9.23,21.47-34.37,10.56,4.89,9.8,12.24,17.56,22,20,18.36,3.89,40.23-16.06,24.14-42-2.37-28.08,2.44-43.09,32.61-87.43,23.47-37.84,13.44-93.79,8.48-130-1.62-15.69-4.56-28.17-10.69-35.81Z" transform="translate(-22.82 -57.72)"/><path id="path18223" class="cls-5" d="M490,846.23c-31.9,3.71-25.75,38.13-22.53,59.55,3.82,34.62,20.94,74.43.21,113-12.4,25.21-26.78,45.22-31.53,65.41-5.67,21.26,2,52.36,20.72,62.49-6.89-6.88-19-24.61-9.89-59.06,11.21-42.25,35.28-49.05,45.54-100.44s-23.25-109.28-18.92-122.15c3.85-11.43,23.34-18.4,26.15-19.71-.76,0-9,.86-9.75.88Z" transform="translate(-22.82 -57.72)"/></g></g></g><path id="path18243" class="cls-14" d="M525.49,312.51c-44.58,22.41-88.58,85.91-92,100.85s4,13.7,8,8.1,80-62.26,94.87-76.58,5.71-13.69,1.71-21.16-12.57-11.21-12.57-11.21Z" transform="translate(-22.82 -57.72)"/><path id="path18245" class="cls-14" d="M341.47,359.82c29.71,14.94,70.86,63.5,71.43,59.15s4.58-10,4.58-10-32-39.22-50.87-49.8-18.29-13.07-21.72-8.72A16.66,16.66,0,0,0,341.47,359.82Z" transform="translate(-22.82 -57.72)"/><path id="path18247" class="cls-2" d="M637,432c16.16-1.76,38.79,8.81,29.1,12.33s-33.95,7-33.95,7Z" transform="translate(-22.82 -57.72)"/><path id="path18249" class="cls-2" d="M624.84,553.48c19.39-3.52,38.79-6.16,33.94-1.76s-25,22.89-25,22.89Z" transform="translate(-22.82 -57.72)"/><path id="path18251" class="cls-2" d="M648.27,638.88c16.17-8.8,27.48-14.09,25.06-7.92s-13.74,27.29-13.74,27.29Z" transform="translate(-22.82 -57.72)"/><g id="g18253"><g id="g18255"><path id="path18257" class="cls-15" d="M520.38,220.16c-10.84-27.71-27.68-50-13.65-69.07,6.3-8.57,16.47-12.51,21.43-21.18,4.32-7.56,8-22,4.77-34.17-7-26.24-67.28-28.31-97.33-11.66C427.14,88.77,421.16,93,420,99c-1.43,7.16.45,17.42,3.71,24.25,3.76,7.9,11.22,13.65,12.66,17.61,3.74,10.28,13,35.44,8.3,59.42s-5.09,55.16,11.37,63.14c17.11,6.25,68-20,67.18-37.62Z" transform="translate(-22.82 -57.72)"/><path id="path18259" class="cls-16" d="M505.42,234.06c-2.33-6.41-17.26-32.56-19.57-56.58-3-31.23,3.89-35.34,10.59-42.81,8-5.44,14.91-14.43,16.19-18.12.5-1.46,4.08-11.91-1.9-16.23-3.22-2.32-10.2-3.82-18.35-5.54-28.37-6-53.48,7-52.73,12.31,1.23,6.48-.18,7.88,7.63,16.58,8.76,9.76,7.65,9.91,10.64,17.39,5.84,14.59,5.45,44.43,3.11,58.85-2.29,14.11-.76,52.53,9,62,20.74,17,39.2-15,35.41-27.87Z" transform="translate(-22.82 -57.72)"/><path id="path18261" class="cls-17" d="M466.52,94.26a95.17,95.17,0,0,0-12,4.26c-5.43,2.35-9.49,7.66-7.87,12.09s11,11.39,15.39,17.75c2.47,6.07,8.88,25.27,8.13,36.16s-3.61,47.83,1.63,67.24C476.42,249,487,261.62,491.32,264c-.36.22-.75.28-1.11.48a34.91,34.91,0,0,1-15.07.65,23.22,23.22,0,0,1-5.05-3.22c-9.74-9.48-11.32-47.94-9-62.05,2.34-14.42,2.75-44.15-3.09-58.74-3-7.48-1.91-7.69-10.67-17.45-7.81-8.7-6.35-10.19-7.58-16.67C439.21,103.46,450.47,96.66,466.52,94.26Z" transform="translate(-22.82 -57.72)"/><path id="path18263" class="cls-18" d="M513.54,104.45c1.49,4.83-.58,11-1,12.15-1.27,3.69-8.1,12.53-16.07,18-6.71,7.46-13.66,11.64-10.67,42.86,2.31,24,17.2,50.16,19.54,56.57,1.77,6-1.31,16.37-7.27,23.8.52-3.31,4.78-16.68,3.39-19.2-1.53-2.76-17.44-23.64-21.92-61.07s15-51.31,19.61-55.29c7.83-5.1,8.89-16.9,5.14-19.27,0,0-9.48-7.29-24.75-9-.86-.21-1.7-.37-2.57-.54a71.39,71.39,0,0,1,15.36,1.34c8.15,1.72,15.14,3.12,18.36,5.45A7.78,7.78,0,0,1,513.54,104.45Z" transform="translate(-22.82 -57.72)"/></g><g id="g18265"><path id="path18267" class="cls-15" d="M405.07,220.93c-1.94-30.05,3.72-58.25-16.73-68.26-9.2-4.5-19.9-3-27.94-8.22-7-4.59-16.34-15.55-18.53-28.06-4.71-26.84,48.05-58.58,81.77-58.67,9.48,0,16.56.75,20.16,5.53,4.27,5.67,6.88,15.73,6.84,23.43-.05,8.9-4.28,17.72-3.91,22,1,11,3.26,38,17.46,57s27.6,46.57,16.28,61.85c-12.62,14.05-68.93,16-75.53-.16Z" transform="translate(-22.82 -57.72)"/><path id="path18269" class="cls-16" d="M424.19,225.89c-.6-6.87,1.75-37.56-6.24-60.09-10.39-29.28-18.24-29.53-27.33-32.85-9.37-.89-19.3-5.45-22-8.1-1.06-1-8.62-8.58-5.1-15.4,1.89-3.66,7.48-8.45,14-14,22.76-19.41,50.55-20.3,52.1-15.21,1.62,6.39,3.46,6.93.14,18.55-3.72,13-2.66,12.62-2.2,20.76.9,15.89,13.73,42.26,21.84,53.93,7.94,11.43,22.65,46.4,17.94,59.67-11.35,25.44-41.18,6.06-43.18-7.23Z" transform="translate(-22.82 -57.72)"/><path id="path18271" class="cls-17" d="M400.36,82.13A91.74,91.74,0,0,1,412.84,80c5.82-.61,11.66,2.1,12.07,6.85s-5,15.59-6.28,23.45c.33,6.62,2.66,26.9,7.88,36.21s23.22,40.79,26.67,60.68c3.06,17.6-1.07,34.13-3.91,38.42.42,0,.79-.13,1.2-.13a36.43,36.43,0,0,0,13.68-6.9,25.51,25.51,0,0,0,3.15-5.37c4.71-13.27-10-48.29-17.9-59.71-8.12-11.68-20.92-38-21.82-53.84-.46-8.14-1.52-7.79,2.2-20.82,3.32-11.63,1.4-12.22-.22-18.61C428.52,76.76,415.66,76.3,400.36,82.13Z" transform="translate(-22.82 -57.72)"/><path id="path18273" class="cls-18" d="M362.76,114.53c.7,5,5.14,9.55,5.94,10.34,2.68,2.65,12.45,7.14,21.82,8,9.1,3.31,17,3.58,27.42,32.87,8,22.53,5.67,53.19,6.27,60,.94,6.24,8,13.92,16.42,17.58-1.84-2.69-11.23-12.48-11-15.41.2-3.22,5.64-29.7-6-65.24S388.72,124.53,383,123.26c-9.1-.65-15-10.64-12.63-14.61a59.26,59.26,0,0,1,18.29-20.26c.67-.61,1.36-1.17,2.06-1.75a76.2,76.2,0,0,0-13.11,8.81c-6.54,5.58-12.18,10.3-14.07,14A8.36,8.36,0,0,0,362.76,114.53Z" transform="translate(-22.82 -57.72)"/></g><g id="g18275"><path id="path18277" class="cls-15" d="M530.11,217.86c24.13-14.7,50-21.12,49.58-45.54-.17-11-6-20.88-5.06-31,.83-8.86,6-22.73,15.42-30.21,20.3-16.06,69.12,22.44,83.54,55.64,4.06,9.34,6.43,16.64,4,22.23-2.89,6.62-10.14,13.47-16.56,16.71-7.4,3.74-16.53,3.32-19.9,5.49-8.73,5.64-40.84,9.78-60.14,22.4-15.63,10.24-29.06,42.75-44.45,42.37-17-6.46-22.4-42.07-11.81-55.45Z" transform="translate(-22.82 -57.72)"/><path id="path18279" class="cls-16" d="M522,222.68c5.45-3.52,44.07,1.88,59.39-15.58,19.9-22.7,16.77-30.55,15.66-40.92-3.25-9.62-3.69-21.35-2.63-25.12.42-1.49,3.46-12.14,10.62-11.58,3.85.31,10.21,3.78,17.62,7.84,25.81,14.17,38.38,41.19,34.81,44.89-4.62,4.31-4.29,6.35-15.35,8-12.41,1.88-11.62,2.74-18.18,6.66-12.82,7.65-41.39,15.38-47.64,28.34-6.11,12.69-28.9,42.07-41.93,43.08C508.41,268,511.81,230.3,522,222.68Z" transform="translate(-22.82 -57.72)"/><path id="path18281" class="cls-17" d="M643.41,154.15a111.18,111.18,0,0,1,7.12,11.38c3,5.48,3.21,12.38-.56,14.81s-15.08,1.69-22.15,3.79c-5.36,3.15-21.22,14.07-26.73,23.18s-44.21,21.17-59.26,33c-13.33,10.51-28.81,13.48-33.58,12.5.16.42.44.73.61,1.13a38.94,38.94,0,0,0,11.55,10.55,21.59,21.59,0,0,0,5.8.82c13-1,35.88-30.38,42-43.06,6.25-13,42.83-17.69,55.65-25.34,6.56-3.92,5.82-4.81,18.24-6.69,11.06-1.68,10.74-3.83,15.36-8.14C659.85,179.62,654.76,166.75,643.41,154.15Z" transform="translate(-22.82 -57.72)"/><path id="path18283" class="cls-18" d="M600.5,130.87c-3.9,2.83-5.75,9.14-6.07,10.26-1.06,3.76-.63,15.31,2.62,24.93,1.11,10.37,4.27,18.31-15.64,41-15.31,17.46-41.77,28.21-47.22,31.73-4.78,3.58-8.15,13.82-7.61,23.67,1.45-3,5.58-16.39,8.1-17.45,2.76-1.16,27.07-7.08,51.63-33.7s16.92-50.62,15.54-56.81c-3.33-9.25,2.46-19.29,6.76-18.67,0,0,11.59.55,24.61,9.41.79.4,1.55.84,2.33,1.28a76.9,76.9,0,0,0-12.9-9.17c-7.41-4.07-13.73-7.62-17.58-7.93A6.71,6.71,0,0,0,600.5,130.87Z" transform="translate(-22.82 -57.72)"/></g><g id="g18285"><path id="path18287" class="cls-15" d="M573.23,222c1.94-30.05-3.72-58.25,16.73-68.26,9.2-4.5,19.9-3,27.94-8.22,7-4.59,16.34-15.55,18.53-28.06,4.71-26.84-48-58.58-81.77-58.67-9.48,0-16.56.75-20.16,5.53C530.23,70,527.62,80,527.66,87.74c.05,8.9,4.28,17.72,3.91,22-1,11-3.26,38-17.46,57s-27.6,46.57-16.28,61.85c12.62,14.05,68.93,16,75.53-.16Z" transform="translate(-22.82 -57.72)"/><path id="path18289" class="cls-16" d="M554.11,227c.6-6.87-1.75-37.56,6.24-60.09,10.39-29.28,18.24-29.53,27.33-32.85,9.37-.89,19.3-5.45,22-8.1,1.06-1,8.62-8.58,5.1-15.4-1.89-3.66-7.48-8.45-14-14C578,77.07,550.2,76.18,548.65,81.27c-1.62,6.39-3.46,6.93-.14,18.55,3.71,13,2.66,12.62,2.2,20.76-.9,15.89-13.73,42.26-21.84,53.93-7.94,11.43-22.65,46.4-17.94,59.67,11.35,25.44,41.18,6.06,43.18-7.23Z" transform="translate(-22.82 -57.72)"/><path id="path18291" class="cls-17" d="M577.94,83.19A91.62,91.62,0,0,0,565.45,81c-5.81-.61-11.65,2.1-12.06,6.85s5,15.59,6.28,23.45c-.33,6.62-2.66,26.9-7.89,36.21s-23.21,40.79-26.66,60.68c-3.06,17.6,1.07,34.13,3.91,38.42-.42,0-.79-.13-1.2-.13a36.27,36.27,0,0,1-13.68-6.9,25.09,25.09,0,0,1-3.15-5.37c-4.71-13.27,10-48.29,17.9-59.71,8.12-11.68,20.91-38,21.82-53.84.46-8.13,1.51-7.79-2.2-20.82-3.32-11.63-1.4-12.22.22-18.61C549.78,77.82,562.64,77.36,577.94,83.19Z" transform="translate(-22.82 -57.72)"/><path id="path18293" class="cls-18" d="M615.54,115.59c-.7,5-5.14,9.55-5.94,10.34-2.68,2.65-12.45,7.14-21.82,8-9.1,3.32-17,3.58-27.43,32.87-8,22.53-5.66,53.19-6.26,60-.94,6.24-8,13.92-16.43,17.58,1.85-2.69,11.24-12.48,11.05-15.41-.2-3.22-5.64-29.7,6-65.24s34.84-38.22,40.58-39.49c9.1-.65,15-10.64,12.63-14.61a59.26,59.26,0,0,0-18.29-20.26c-.67-.61-1.36-1.17-2.06-1.75a75.7,75.7,0,0,1,13.11,8.82c6.54,5.57,12.18,10.29,14.07,14A8.36,8.36,0,0,1,615.54,115.59Z" transform="translate(-22.82 -57.72)"/></g><g id="g18295"><path id="path18297" class="cls-15" d="M500.27,99.58c-54.62-2.82-63.48,48.78-44.69,71.1s69,16.28,84.88,1.66c17.29-11.35,28.67-29.5,18.62-48.55C548.32,103.4,522,99.7,505.22,99.09Z" transform="translate(-22.82 -57.72)"/><path id="path18299" class="cls-15" d="M448.62,154.16c9.15,33.48,37.35,45.54,40.43,53.47s-3.16,15.53-2.79,22.1S482.2,251.5,504.36,257s43.29-5.8,49.15-18.9c7-15.66-9.21-17.74-13.19-32.92,10.57-25.74,26-53.78,22.18-69.67s-113.88,18.68-113.88,18.68Z" transform="translate(-22.82 -57.72)"/><path id="path18301" class="cls-16" d="M504.61,120.28c-38.59-2-48.12,33.61-33.53,47.46,16.93,16.07,52.56,12.51,63.8,2.18s13.82-17.66,6.56-34.49C533.83,121,516.48,120.71,504.61,120.28Z" transform="translate(-22.82 -57.72)"/><path id="path18303" class="cls-16" d="M519.63,165.74c-14.1,20.93-33.2,17.08-31.27,20.17s13.05,11,18.61,21.86-7.24,31-4.27,36,15.15,14.81,24.1,14.88,15.73-20.34,15.53-26.23-14.66-12.73-16.56-23.27S538.58,181.54,537,178.7s-12.87-4-15.74-6S519.63,165.74,519.63,165.74Z" transform="translate(-22.82 -57.72)"/><path id="path18305" class="cls-18" d="M497.8,120.32c-1.55.11-3.05.3-4.49.54-.63.11-1.22.24-1.83.37s-.86.25-1.33.36c-.9.21-1.8.45-2.66.72s-1.8.56-2.66.91c-.5.19-1,.33-1.49.54a32.75,32.75,0,0,0-3,1.63,34.49,34.49,0,0,0-3.5,2.17,32.25,32.25,0,0,0-3,2.54c-.22.21-.45.5-.66.72a25.39,25.39,0,0,0-5,6.7c-.2.38-.48.71-.66,1.09-.08.16-.09.38-.17.55a28.56,28.56,0,0,0-1.16,2.89,28.26,28.26,0,0,0-1,3.62,29.26,29.26,0,0,0-.5,3.45c-.07.8-.17,1.55-.17,2.35s.1,1.57.17,2.35c0,.18,0,.37,0,.55a23.24,23.24,0,0,0,.67,3.44c0,.06,0,.12,0,.18.06.24.09.49.16.72a23.69,23.69,0,0,0,1.16,2.9c1.08-36.85,40.54-38.4,64.17-30.24,7.06,2.44,11,6.66,13.13,11.41-.1-.37,0-.71-.16-1.09,0-.12-.13-.24-.17-.36-.2-.6-.43-1.36-.66-2-.48-1.23-1.07-2.43-1.67-3.8,0-.06,0-.14,0-.18a23.08,23.08,0,0,0-1.49-2.36c0-.05,0-.14,0-.17a23.14,23.14,0,0,0-5.65-5.8,27.63,27.63,0,0,0-4.66-2.53,34.51,34.51,0,0,0-5-1.81c-.39-.11-.77-.27-1.16-.37-1.26-.32-2.54-.68-3.82-.9h-.17c-.39-.07-.77-.13-1.16-.18-1.33-.19-2.68-.25-4-.37-.88-.08-1.63-.12-2.49-.18-2.52-.16-4.93-.27-7.15-.36a57.44,57.44,0,0,0-6.82,0Zm11.64,22.45c-17.93.81-22,2.83-20.28,6.88s5,7.18,19.28,6,16.35-6.36,14.3-9.24S509.44,142.77,509.44,142.77Z" transform="translate(-22.82 -57.72)"/><path id="path18307" class="cls-15" d="M507.05,142.29c-14.11.85-19.26,3.64-13.87,7.47s25.18,1.88,26.93-2-8.75-6.09-13.06-5.44Z" transform="translate(-22.82 -57.72)"/><path id="path18309" class="cls-17" d="M536,177.66c-1.73-1.14-5-1.91-8.12-2.72-4.12.7-19.08,3.26-21.1,4.08a7.74,7.74,0,0,1-2,.49c-9.67,5.26-17.78,4.35-16.5,6.41,1.93,3.1,13.11,11,18.67,21.8s-7.26,31.13-4.29,36.11,15.17,14.76,24.12,14.83c1.84,0,3.58-1,5.19-2.45a16.87,16.87,0,0,1-1.8-.33c-4.91-1.2-14.8-8.86-18.49-14.36s4.22-23.69,4.16-31.48.65-12.84,7.49-15.43c2.36-.9,3.75.41,4.81,2.72,3.68-8.43,10-16.75,8.93-18.65a3.54,3.54,0,0,0-1.1-1Z" transform="translate(-22.82 -57.72)"/></g><g id="g18311"><path id="path18313" class="cls-15" d="M328,119.59c-49.8,28.91-37.12,75.29-11.48,82.43s68-26.31,76.31-47.1c10.88-18.95,13.78-40-2.76-49.5-17.73-10.19-42.64,1.86-57.85,11Z" transform="translate(-22.82 -57.72)"/><path id="path18315" class="cls-15" d="M303.71,192.77c21.5,21.59,51.44,15.15,57.35,19.75s3.37,14.24,6.32,19.29,5.06,19.76,27,11.49,36.27-29.35,36.27-43.18c0-16.54-15.28-9-24.88-18.84-.84-26.64,1.69-57.88-8-68.44s-94,79.93-94,79.93Z" transform="translate(-22.82 -57.72)"/><path id="path18317" class="cls-16" d="M340.1,133.69c-35.19,20.42-29.49,54.37-11,57.14,21.49,3.21,51.83-20,57.73-34.66s5.26-22-7.92-31.35C366.43,117.62,350.84,127.26,340.1,133.69Z" transform="translate(-22.82 -57.72)"/><path id="path18319" class="cls-16" d="M371.6,161.53c-4.22,24.81-22.77,32.62-19.82,34s16,1.38,25.3,6.89,5.91,28.94,10.55,31.24S407,236.87,415,231.81s5.9-25.26,3.37-29.86-18.13-1.83-24-9.18.43-29.41-2.11-30.78-13.07,4.13-16.44,4.13S371.6,161.53,371.6,161.53Z" transform="translate(-22.82 -57.72)"/><path id="path18321" class="cls-18" d="M369.14,122.31a27.66,27.66,0,0,0-5.16.54c-.44.09-.88.26-1.33.36-.66.16-1.33.17-2,.36-1,.3-2,.72-3,1.09a72.08,72.08,0,0,0-8.65,4c-.16.09-.34.1-.5.18-3,1.62-5.93,3.37-8.47,4.89-1.93,1.12-3.81,2.25-5.49,3.44-.22.16-.45.38-.67.55a60.7,60.7,0,0,0-5,4c-.12.11-.22.26-.33.36a52.6,52.6,0,0,0-4.16,4.35c-.62.71-1.27,1.44-1.83,2.17s-1.14,1.59-1.66,2.35a41.06,41.06,0,0,0-2.66,4.53,38,38,0,0,0-2,4.53,33,33,0,0,0-1.82,8.33c0,.17,0,.37,0,.54a27.3,27.3,0,0,0,.16,4.17,26.3,26.3,0,0,0,.5,3.62c.06.25.1.48.17.72a21.29,21.29,0,0,0,1.16,3.08,18.52,18.52,0,0,0,1.66,3.08,19.27,19.27,0,0,0,2.16,2.72,17.06,17.06,0,0,0,2.5,2c-13.54-30.05,20.78-53.73,45.05-60.66,7.1-2,12.3-1,16.12,1.45-.25-.24-.4-.49-.67-.73a49.81,49.81,0,0,0-4.32-3.44,18.83,18.83,0,0,0-4.82-2,20.84,20.84,0,0,0-5-.55Zm-3.83,21.91c-4,.36-12,4.71-12,4.71-15.65,10.88-18.42,14.74-15.29,17s7.39,2.94,19.62-6.16,11.95-14.43,9-15.57A2.81,2.81,0,0,0,365.31,144.22Z" transform="translate(-22.82 -57.72)"/><path id="path18323" class="cls-15" d="M351,149.93c-12.23,8.73-15.71,13.89-9.38,13.89s23.19-12.86,23.19-17-10.22.11-13.81,3.1Z" transform="translate(-22.82 -57.72)"/><path id="path18325" class="cls-17" d="M391,161.73c-2,.08-5.22,1.33-8.33,2.46-3.39,2.91-15.69,13.49-17.17,15.3a9.88,9.88,0,0,1-1.56,1.52c-6.53,9.73-14.11,13.63-12.15,14.55,3,1.38,16.05,1.29,25.33,6.8s5.94,29.07,10.58,31.37,19.4,3.16,27.41-1.89a10.5,10.5,0,0,0,3.64-4.92c-.58.29-1.16.54-1.73.76-4.85,1.84-16.72,1.35-22.21-.94s-5.68-21.39-8.84-27.59-4.54-10.66.52-16.63c1.75-2.07,3.51-1.81,5.38-.57-.09-8.85,2.21-19.11.52-20a3,3,0,0,0-1.39-.19Z" transform="translate(-22.82 -57.72)"/></g><g id="g18327"><path id="path18329" class="cls-15" d="M445.19,130.15c-52.51-11.85-73,37.68-59.84,62.85s63.38,27.54,82.23,15.73c19.43-8.34,34.67-24.39,29.28-44.89-5.79-21.94-30.54-30-46.74-33.35Z" transform="translate(-22.82 -57.72)"/><path id="path18331" class="cls-15" d="M382.37,175.52c1.22,34.61,25.89,51.21,27.06,59.56s-6.65,14.82-7.8,21.38-9,20.84,11.35,29.92,43.47,1.45,52.18-10.52c10.42-14.31-4.88-19.06-5.27-34.72,16.21-23.68,37.63-48.85,37.61-65.17s-115.13-.45-115.13-.45Z" transform="translate(-22.82 -57.72)"/><path id="path18333" class="cls-16" d="M444.65,151.33c-37.09-8.37-54.56,25.23-43.54,41.34,12.78,18.69,48.28,21.09,61.59,12.75s17.51-15.17,14.31-33C472.91,156.92,456.1,153.73,444.65,151.33Z" transform="translate(-22.82 -57.72)"/><path id="path18335" class="cls-16" d="M448.81,198.75c-18.53,18.35-36.23,11.37-35.06,14.75s10.17,13.06,13.08,24.7S412.67,267.62,414.42,273s11.33,17.14,20,18.7,20-17.49,21.13-23.34-11.33-15-10.76-25.75,18.81-25.14,17.94-28.2-11.61-6.1-13.94-8.6S448.81,198.75,448.81,198.75Z" transform="translate(-22.82 -57.72)"/><path id="path18337" class="cls-18" d="M431,150a40.85,40.85,0,0,0-5,.73,37.93,37.93,0,0,0-5.32,1.27,35,35,0,0,0-4.82,2,35.33,35.33,0,0,0-10.64,8.33c-.13.15-.21.38-.33.54a32.29,32.29,0,0,0-2.66,3.62c-.29.49-.57,1-.83,1.45-.42.78-.82,1.56-1.17,2.36a29.5,29.5,0,0,0-1.33,4,29.94,29.94,0,0,0-.83,3.62c0,.23,0,.49,0,.73a27.66,27.66,0,0,0-.17,3.62c0,.24,0,.48,0,.72a19.64,19.64,0,0,0,.34,2.9c9.52-36.24,48.36-31.36,69.48-19.38,6.25,3.55,9.09,8.4,10.14,13.4,0-.44,0-.8,0-1.26-.16-1.91-.43-3.93-.83-6.16a24.65,24.65,0,0,0-.83-2.72c0-.07-.14-.1-.17-.17a21.65,21.65,0,0,0-7-9.24c-.32-.25-.66-.49-1-.72-.69-.49-1.44-1-2.17-1.45s-1.54-.89-2.32-1.27l-1.17-.55c-.22-.1-.44-.08-.66-.17a64.4,64.4,0,0,0-10.31-3.26c-2.41-.57-4.67-1-6.81-1.45s-4.07-.84-6-1.09a41,41,0,0,0-4.32-.36c-1.11,0-2.26-.05-3.32,0Zm-1.49,23.36c-5.53.22-7.1,1.67-6.65,4.35.72,4.29,3.3,8.05,17.45,9.23s17.3-3.5,16-6.7-12-5.79-12-5.79A101.05,101.05,0,0,0,429.48,173.37Z" transform="translate(-22.82 -57.72)"/><path id="path18339" class="cls-15" d="M442,173.49c-13.92-1.5-19.57.4-15.21,5.08s24.07,6,26.68,2.46-7.12-7.47-11.47-7.54Z" transform="translate(-22.82 -57.72)"/><path id="path18341" class="cls-17" d="M462,213.25c-1.42-1.41-4.43-2.71-7.28-4-4.17,0-19.31.06-21.47.54a8.15,8.15,0,0,1-2,.15c-10.62,3.6-18.3,1.35-17.53,3.6,1.17,3.38,10.24,13,13.16,24.64s-14.22,29.56-12.48,35,11.37,17.1,20.07,18.66c1.78.32,3.72-.44,5.61-1.55-.59-.19-1.14-.4-1.67-.63-4.5-2-12.37-11.21-14.7-17.26s9.56-22.72,11.29-30.43,3.58-12.58,10.83-14c2.5-.49,3.55,1,4.06,3.49,5.51-7.72,13.56-14.89,13-16.95a3.23,3.23,0,0,0-.84-1.19Z" transform="translate(-22.82 -57.72)"/></g><g id="g18343"><path id="path18345" class="cls-15" d="M626.4,270.11c26,.7,49.77,9,60.21-11,4.7-9,4.33-20,9.57-27.78,4.57-6.75,14.84-15.29,25.79-16.41,23.52-2.41,46.11,54.29,43.17,88.71-.83,9.69-2.12,16.84-6.56,20.09-5.26,3.85-14.15,5.62-20.77,4.89-7.65-.84-14.86-5.95-18.54-5.95-9.55,0-33-.08-50.61,12.72s-42.53,24-54.66,11.09c-11-14.14-7.59-71.79,6.89-77.09Z" transform="translate(-22.82 -57.72)"/><path id="path18347" class="cls-16" d="M620.42,289.19c6,0,32.15,5.14,52.25-1,26.12-8,27-16,30.7-25,1.61-9.49,6.42-19.22,8.94-21.72,1-1,8.14-8,13.7-3.83,3,2.26,6.6,8.39,10.82,15.56,14.66,25,12.94,53.42,8.42,54.54-5.63,1.08-6.27,2.91-16-1.51-10.88-5-10.62-3.85-17.66-4.11-13.75-.5-37.58,10.24-48.35,17.48-10.54,7.08-41.93,19-52.93,13-20.87-13.86-1.54-42.58,10.08-43.43Z" transform="translate(-22.82 -57.72)"/><path id="path18349" class="cls-17" d="M746.22,277.71a112.26,112.26,0,0,1,.75,12.94c0,6-2.85,11.7-7,11.7s-13-6.51-19.61-8.51c-5.73-.25-23.38.32-31.86,4.82s-37.16,20-54.58,21.79c-15.42,1.55-29.26-4.13-32.7-7.42,0,.42,0,.82,0,1.23A41,41,0,0,0,606,328.84a22,22,0,0,0,4.34,3.7c11,6,42.43-5.85,53-12.94,10.77-7.23,34.51-18,48.26-17.45,7.05.26,6.84-.85,17.72,4.11,9.7,4.42,10.39,2.51,16,1.43C748.32,306.94,749.87,293.85,746.22,277.71Z" transform="translate(-22.82 -57.72)"/><path id="path18351" class="cls-18" d="M721.71,236.44c-4.4.25-8.68,4.39-9.42,5.13-2.52,2.5-7.26,12.08-8.86,21.56-3.67,9-4.61,17.07-30.73,25.05-20.1,6.15-46.26,1-52.22,1-5.46.4-12.69,6.93-16.59,15.2,2.48-1.65,11.74-10.36,14.24-9.9,2.75.5,25,8.41,56.66-.32s36-32.16,37.6-37.9c1.38-9.23,10.49-14.33,13.7-11.59,0,0,9.15,6.51,15.79,20.49.47.74.89,1.49,1.32,2.25a81.48,81.48,0,0,0-6.41-14.17c-4.21-7.17-7.76-13.35-10.74-15.6A6.26,6.26,0,0,0,721.71,236.44Z" transform="translate(-22.82 -57.72)"/></g><g id="g18353"><path id="path18355" class="cls-15" d="M565.91,156.61c-64.49,9.79-60,74-16.68,93.63,50.79,19.19,74.16-3.27,80.61-45.68s-20.35-37.86-32.53-44C587.41,155.6,570.9,155.14,565.91,156.61Z" transform="translate(-22.82 -57.72)"/><path id="path18357" class="cls-19" d="M569,152.22c-43.81,5.74-47.42,59.56-23.08,76.8s49.78,8.46,60.49-5.33,9-47.94-2.63-60.58-27.55-11.3-34.78-10.89Z" transform="translate(-22.82 -57.72)"/><path id="path18359" class="cls-17" d="M543.8,164.08c-18.71,18.29-16.36,52,2,65,24.34,17.24,49.77,8.35,60.48-5.44,5.71-7.36,8-20.5,7-33.09-.07,13.35-4.16,33.93-30.64,36.8C545.65,231.22,524.1,204.7,543.8,164.08Z" transform="translate(-22.82 -57.72)"/><path id="path18361" class="cls-18" d="M575.85,152c-2.69,0-5,.15-6.81.23-29.81,3.91-41,30-37.45,51.77,4.49-34.58,27.89-50.24,60.08-40.19,20.84,6.52,21.59,32.19,18.82,52,5.82-16.15,3-42.05-6.81-52.71-8.76-9.49-19.77-11.07-27.83-11.11Zm-13.42,35c-12.69,2.86-7.28,22.35,10.61,23.16,16.87.41,20.93-11.06,15.42-18C587.43,188.14,562.43,187,562.43,187Z" transform="translate(-22.82 -57.72)"/><g id="g18363"><path id="path18365" class="cls-15" d="M580.29,185c-20-4.47-25.13,6.09-15.84,14.22s21.35,1.62,24.1-4.47-8.26-9.75-8.26-9.75Z" transform="translate(-22.82 -57.72)"/></g></g><g id="g18367"><path id="path18369" class="cls-15" d="M685.7,173c-38.92-41.83-77.16-9.87-76.85,20.4s41.34,62.3,62.15,63c19.83,4.13,39.42-1.1,43.63-22.58,4.49-23-12.82-44.9-24.94-57.57Z" transform="translate(-22.82 -57.72)"/><path id="path18371" class="cls-15" d="M613.79,176c-13.71,31.57-2.66,56.92-5.23,65.06s-11.87,9.25-15.63,14.42-13.83,17.39-.69,37.58,35.78,27.18,48.17,21.7c14.82-6.56,4-19.91,10.37-34.1C674.43,269.21,703.07,259.54,710,245S613.79,176,613.79,176Z" transform="translate(-22.82 -57.72)"/><path id="path18373" class="cls-16" d="M676.24,191.54c-27.5-29.56-56.42-10-54.06,10.92,2.75,24.28,31.45,47.56,46.15,48s21.11-3.1,26-20.9C697.52,213.35,684.8,200.49,676.24,191.54Z" transform="translate(-22.82 -57.72)"/><path id="path18375" class="cls-18" d="M645.91,176.45a28.11,28.11,0,0,0-3.82.55,26.58,26.58,0,0,0-4.15,1.08c-.58.22-1.12.47-1.67.73s-1.35.54-2,.9c-.07.06-.11.15-.17.18-.39.23-.78.48-1.16.73a25.36,25.36,0,0,0-4.82,4.16,23.17,23.17,0,0,0-5.49,10c23.4-26.64,53.75.82,66.33,24.08,3.82,7.06,4.19,13.12,2.82,18.29a59.31,59.31,0,0,0,2.5-7.42,27.59,27.59,0,0,0-1.5-15.57c-.16-.43-.31-.85-.5-1.27-.08-.19-.24-.35-.33-.55A43.83,43.83,0,0,0,689.8,208c0-.07-.12-.11-.17-.18l-.66-1.09c-.2-.31-.46-.6-.67-.9a77.92,77.92,0,0,0-7-8.7c-1.77-1.94-3.54-3.75-5.15-5.43-1.2-1.29-2.46-2.51-3.66-3.62-.12-.11-.21-.25-.33-.36-.41-.38-.75-.73-1.16-1.09-.91-.77-1.76-1.49-2.66-2.17s-1.67-1.26-2.5-1.81c-.51-.34-1-.59-1.49-.9-.23-.14-.44-.23-.67-.36-1.07-.63-2.1-1.13-3.16-1.63-.6-.29-1.22-.48-1.82-.73-1-.38-1.9-.8-2.83-1.08a30.31,30.31,0,0,0-9.48-1.45h-.5Zm3.5,23.54a3,3,0,0,0-1,.18,2.69,2.69,0,0,0-1.66,2c-1.22,4.25-.71,9,10.63,18.47s16.06,7.27,16.3,3.62S666,211.76,666,211.76c-9.09-8.17-14-11.59-16.62-11.77Z" transform="translate(-22.82 -57.72)"/><path id="path18377" class="cls-16" d="M659.54,236.29c-23.33,5.32-35.18-11.44-35.64-7.73s3,17.69.45,29.81S600,276.16,599.12,282s2.19,22,8.81,28.61,24.18-3.7,27.64-8.23-3.1-20.14,1.94-29.37,26.45-11.21,27-14.46-7.12-12.35-8-16S659.54,236.29,659.54,236.29Z" transform="translate(-22.82 -57.72)"/><path id="path18379" class="cls-15" d="M664.55,209.69c-11-9.63-16.55-11.3-14.9-4.53s17.59,19.72,21.29,18.08-2.77-10.9-6.39-13.55Z" transform="translate(-22.82 -57.72)"/><path id="path18381" class="cls-17" d="M664.42,257.08c-.59-2.1-2.56-5.06-4.38-7.94-3.5-2.47-16.2-11.44-18.21-12.31a7.72,7.72,0,0,1-1.76-1.07c-10.43-3.12-15.9-9.69-16.21-7.23-.46,3.71,3,17.69.53,29.8s-24.49,17.89-25.33,23.77,2.23,22,8.86,28.58a8.05,8.05,0,0,0,5.35,1.95c-.4-.51-.78-1-1.13-1.56-2.91-4.46-5.58-17.36-5-24.13s17.67-14.57,22.4-20.41,8.36-9.08,15-6c2.3,1.06,2.53,3,1.91,5.53,7.9-3.59,17.7-5.2,18.08-7.38a4,4,0,0,0-.19-1.56Z" transform="translate(-22.82 -57.72)"/></g><g id="g18383"><path id="path18385" class="cls-15" d="M619,281.94c-64.5,9-60,68.34-16.69,86.41,50.8,17.71,74.16-3,80.61-42.16s-20.34-34.94-32.52-40.59C640.45,281,623.94,280.58,619,281.94Z" transform="translate(-22.82 -57.72)"/><path id="path18387" class="cls-19" d="M622,277.89c-43.82,5.3-47.42,55-23.08,70.88s49.78,7.81,60.49-4.92,9.05-44.25-2.63-55.92-27.55-10.42-34.78-10Z" transform="translate(-22.82 -57.72)"/><path id="path18389" class="cls-17" d="M596.84,288.83c-18.72,16.89-16.36,48,2,60,24.34,15.91,49.76,7.71,60.47-5,5.72-6.8,8-18.92,7-30.55-.07,12.33-4.16,31.32-30.64,34C598.68,350.79,577.14,326.32,596.84,288.83Z" transform="translate(-22.82 -57.72)"/><path id="path18391" class="cls-18" d="M628.88,277.71c-2.68,0-5,.13-6.8.21-29.81,3.61-41,27.69-37.45,47.77,4.49-31.91,27.89-46.36,60.08-37.08,20.84,6,21.59,29.7,18.82,48,5.82-14.9,3.05-38.8-6.81-48.65-8.76-8.75-19.78-10.21-27.83-10.25ZM615.47,310c-12.7,2.64-7.28,20.63,10.61,21.38,16.87.38,20.93-10.2,15.42-16.58C640.47,311,615.47,310,615.47,310Z" transform="translate(-22.82 -57.72)"/><g id="g18393"><path id="path18395" class="cls-15" d="M633.33,308.12c-20-4.12-25.13,5.62-15.84,13.13s21.35,1.5,24.1-4.13-8.26-9-8.26-9Z" transform="translate(-22.82 -57.72)"/></g></g><g id="g18397"><path id="path18399" class="cls-15" d="M408.82,230.86c-51.87-36.24-101.1-3.14-106.72,2.73-4.93,5.15-4.08,49,3.55,55.78s38.23-20.87,53-14.51,22,21.55,39.42,18.39,22.81-37.18,19.61-46.31-6.14-14.26-8.87-16.08Z" transform="translate(-22.82 -57.72)"/><path id="path18401" class="cls-19" d="M291.49,257c33.92-26.91,56.05-38.72,93.94-23.88s33.9,29.42,34.6,40.38-13.68,21.24-18.44,13.22c-7-7.2-21.32-21.59-40.27-26.67-14.9-4-27.78,10.51-31.29,11.74S291.49,257,291.49,257Z" transform="translate(-22.82 -57.72)"/><path id="path18403" class="cls-18" d="M348,227c-18.71,2.2-35.28,13.1-56.48,29.92,0,0,5,2.3,7.44,3.39,24.78-23.91,50.39-33.82,84.65-20.54,30.15,11.68,34.94,30.4,35.69,37.79a9.52,9.52,0,0,0,.68-4.12c-.69-11,3.37-25.55-34.51-40.38C371.23,227.51,359.2,225.69,348,227Z" transform="translate(-22.82 -57.72)"/><path id="path18405" class="cls-17" d="M351.48,249.28C339,250.73,325.92,256,314,266.69c7.53,3,14.66,5.65,16.11,5.14,3.52-1.23,16.31-15.75,31.2-11.76,19,5.08,33.3,19.42,40.3,26.62a5.55,5.55,0,0,0,3.2,2.5c.8-9.94-.59-20.19-8-26.81C386.48,253.12,369.59,247.16,351.48,249.28Z" transform="translate(-22.82 -57.72)"/><path id="path18407" class="cls-15" d="M355.36,264.05c10,61.88-50.4,68.18-74.7,31.69-26-43.54-16.9-69.61,9.91-83.81s45.94,5.26,53.19,15.41c5.89,8.24,11.31,31.78,11.6,36.71Z" transform="translate(-22.82 -57.72)"/><path id="path18409" class="cls-19" d="M341.39,258.44c7.42,41.86-27.78,55.62-45.62,36.32s-18.5-44.67-12-57.3,29.86-17.68,41.36-9.26,14.67,23.44,16.26,30.24Z" transform="translate(-22.82 -57.72)"/><path id="path18411" class="cls-18" d="M308.63,224.26c-10.22.53-20.71,5.33-24.77,13.22-3.93,7.62-5.33,20-1.83,32.77-2.64-28.95,16.41-39.22,33.91-35.31,20.27,4.53,24.14,21.53,26.27,29.52-.17-1.94-.46-3.9-.84-6-1.58-6.8-4.79-22-16.29-30.42C320.77,224.9,314.76,223.93,308.63,224.26Zm-6.65,27c-8,18.2,1.57,31.29,10.8,27.34s7.92-14.27,6.32-18.83S308,253.23,308,253.23l-4-1.81-2-.18Z" transform="translate(-22.82 -57.72)"/><g id="g18413"><path id="path18415" class="cls-15" d="M314.79,253.34c8.14,17.71-1.73,26.82-9.58,19.75s-6.58-19.54-3.2-23.28,11.91.25,12.78,3.53Z" transform="translate(-22.82 -57.72)"/></g><path id="path18417" class="cls-17" d="M338.67,248.19s9.15,35-9.53,44.58c-16.84,8.63-37.46,5.69-48.4-28.53a58.65,58.65,0,0,0,15.05,30.42c17.84,19.31,53,5.68,45.62-36.18a98.3,98.3,0,0,0-2.74-10.29Z" transform="translate(-22.82 -57.72)"/></g><g id="g18419"><path id="path18421" class="cls-15" d="M412.16,233c-62.5,19.19-51.92,76.14-7.45,86.73,51.81,9,72.63-14.89,74.92-54s-23.64-30.7-36.21-34.23c-10.21-2.87-26.49-.63-31.26,1.5Z" transform="translate(-22.82 -57.72)"/><path id="path18423" class="cls-19" d="M414.73,228.61c-42.55,12.22-41,61.11-15.35,72.65s49.78-.43,59-14.53,4.31-44.49-8.39-54S421.8,227.08,414.73,228.61Z" transform="translate(-22.82 -57.72)"/><path id="path18425" class="cls-17" d="M391.13,243.31c-16.66,19.44-11.12,49.31,8.19,58,25.6,11.55,49.76-.53,59-14.63,4.92-7.53,5.89-19.69,3.72-30.84,1.21,12-.84,31.13-26.61,38-36,9.44-59.76-10.89-44.27-50.52Z" transform="translate(-22.82 -57.72)"/><path id="path18427" class="cls-18" d="M421.49,227.32c-2.64.43-4.9.94-6.67,1.3-28.95,8.32-37.46,33.55-31.88,52.51,1.11-31.76,22.63-49.59,55.24-45.76,21.13,2.49,24.33,25.41,23.5,43.64,4.18-15.43-1-38.23-11.75-46.21-9.52-7.1-20.51-6.75-28.44-5.49Zm-9.85,33.56c-12.21,4.62-5,21.24,12.66,19.08,16.63-2.35,19.53-13.3,13.45-18.61-1.41-3.48-26.11-.47-26.11-.47Z" transform="translate(-22.82 -57.72)"/><g id="g18429"><path id="path18431" class="cls-15" d="M429,256.18c-20.07-.79-24.14,9.53-14.22,15.32s21.15-2,23.28-7.89-9.06-7.42-9.06-7.42Z" transform="translate(-22.82 -57.72)"/></g></g><g id="g18433"><path id="path18435" class="cls-15" d="M498.58,203.45c-64.89,9.09-60.35,68.75-16.79,86.93,51.11,17.82,74.61-3,81.1-42.41s-20.47-35.15-32.73-40.84c-9.95-4.62-26.56-5-31.58-3.68Z" transform="translate(-22.82 -57.72)"/><path id="path18437" class="cls-19" d="M501.64,199.37c-44.08,5.33-47.71,55.3-23.23,71.31s50.09,7.86,60.87-4.95,9.1-44.51-2.66-56.25S508.91,199,501.64,199.37Z" transform="translate(-22.82 -57.72)"/><path id="path18439" class="cls-17" d="M476.34,210.38c-18.83,17-16.46,48.28,2,60.35,24.49,16,50.07,7.76,60.85-5,5.75-6.84,8-19,7-30.73-.08,12.4-4.19,31.51-30.83,34.17-37.23,3.59-58.9-21-39.08-58.75Z" transform="translate(-22.82 -57.72)"/><path id="path18441" class="cls-18" d="M508.57,199.19c-2.7,0-5,.13-6.85.21-30,3.63-41.25,27.87-37.67,48.06,4.52-32.1,28.06-46.64,60.44-37.31,21,6,21.73,29.89,18.94,48.29,5.86-15,3.07-39-6.85-48.94-8.82-8.81-19.9-10.28-28-10.32Zm-13.5,32.48c-12.76,2.66-7.32,20.76,10.68,21.51,17,.38,21.06-10.27,15.52-16.68-1-3.77-26.2-4.83-26.2-4.83Z" transform="translate(-22.82 -57.72)"/><g id="g18443"><path id="path18445" class="cls-15" d="M513,229.79c-20.08-4.15-25.28,5.65-15.93,13.2s21.47,1.51,24.24-4.15-8.31-9.05-8.31-9.05Z" transform="translate(-22.82 -57.72)"/></g></g></g><g id="g18447"><path id="path18449" class="cls-2" d="M581.73,559.51C574,571.09,580,587.4,584.8,586.35s62.27-10.26,49.51-20.58C625.63,558.76,581.73,560.56,581.73,559.51Z" transform="translate(-22.82 -57.72)"/><path id="path18451" class="cls-20" d="M587.77,569.51c-1.72,7.47,1.42,7.47,1.42,7.47s38.87-5.6,35.44-7.47S587.77,569.51,587.77,569.51Z" transform="translate(-22.82 -57.72)"/></g><g id="g18453"><path id="path18455" class="cls-2" d="M583.19,427.29c-10.8,8.17-10.08,25.71-5.2,26.45s61.91,12.6,53-1.71C624.88,442.3,582.87,428.28,583.19,427.29Z" transform="translate(-22.82 -57.72)"/><path id="path18457" class="cls-20" d="M585.87,438.9c-3.87,6.44-.9,7.57-.9,7.57s38.4,8.62,35.72,5.62S585.87,438.9,585.87,438.9Z" transform="translate(-22.82 -57.72)"/></g><g id="g18459"><path id="path18461" class="cls-2" d="M610.25,673.76c-2.14,14.13,9.9,25.8,13.79,22.49s51.43-39.59,35.78-42.57C649.18,651.65,610.68,674.7,610.25,673.76Z" transform="translate(-22.82 -57.72)"/><path id="path18463" class="cls-20" d="M619.76,679.76c1.55,7.51,4.36,6,4.36,6s32.43-24,28.59-24S619.76,679.76,619.76,679.76Z" transform="translate(-22.82 -57.72)"/></g></g></svg>