<svg id="Layer_1" data-name="Layer 1" xmlns="http://www.w3.org/2000/svg" viewBox="0 0 265.13 306.04"><defs><style>.cls-1{fill:#3c002f;}.cls-2,.cls-6,.cls-7{fill:#f5d;}.cls-3{fill:#ffabee;}.cls-4{opacity:0.16;}.cls-4,.cls-5,.cls-6,.cls-7{isolation:isolate;}.cls-5,.cls-7{opacity:0.22;}.cls-6{opacity:0.18;}</style></defs><g id="g16846"><g id="g16848"><path id="path16850" class="cls-1" d="M357.17,858.58c19.28-1.24,35.33,12.08,45.58,27.1a177.49,177.49,0,0,1,21.95,45.86c-.2,3.38,1.12,9.49-3.38,10.44-4.46-.36-10,3.57-13.91.47-3.63-7.5-4.35-16.57-9.07-23.81-7.7-14.34-21.18-26.42-37.57-29.3-9.36-2.56-19.35-11.94-16.14-22.42C346.22,861.49,351.69,858.51,357.17,858.58Z" transform="translate(-316.72 -646.89)"/><path id="path16852" class="cls-2" d="M422.54,942.05c-10.67-41.77-33.35-69-52.59-74.48s-20.53,5-13.87,10.75,24.09,7.93,36.05,22.81,16.28,36.56,19.39,42.83S422.6,942.48,422.54,942.05Z" transform="translate(-316.72 -646.89)"/><path id="path16854" class="cls-3" d="M358.7,866.14c2.72-.31,6.45.05,11.26,1.41,19,5.38,41.31,32.07,52.15,72.94l-.26-.12c-13.31-44.53-33.31-62.39-53.14-65.53-10.36-1.65-11.3,1.82-9.82,5.46a17.84,17.84,0,0,1-2.83-2c-5-4.34-5.53-11.26,2.64-12.16Z" transform="translate(-316.72 -646.89)"/></g><g id="g16856"><path id="path16858" class="cls-1" d="M484.16,711.33c11,1.31,14.26,14.16,13.82,23.51-1.09,20.14-11.5,38.11-18,56.93-13.79,36.51-28.09,73.61-31.07,112.79-.66,12.15,0,24.69,4.68,36-5.85,2.66-12.38,5.44-18.76,3-4.67-1-9.55-3.52-9.65-8.79-2.63-20.88,1.17-41.93,3.66-62.66,6.37-42.19,13.43-84.6,26.57-125.23,4.85-12.3,8.69-27.33,21.13-34a13.81,13.81,0,0,1,7.62-1.51Z" transform="translate(-316.72 -646.89)"/><path id="path16860" class="cls-2" d="M450,941.1c-10.1-12.49-8.33-41.44-5.9-57,3.44-22,29.1-94.76,39.34-119.86,10.42-25.53,10.67-34.79,3.19-43.28s-18,6.38-26.44,35.83c-6.95,24.2-23.72,97.64-27.75,129.36s-1.58,49,.56,55.61,14.25,4.17,16.07,2,.93-2.63.93-2.63Z" transform="translate(-316.72 -646.89)"/><path id="path16862" class="cls-3" d="M482.12,718.6A6,6,0,0,1,486.6,721c7.49,8.49,7.24,17.73-3.18,43.27-.29.71-.72,1.8-1,2.58,4.28-18.25,5.71-32.56.93-34.43C474,728.72,460,764.72,453,786.69c-.47,1.47-1,3-1.55,4.49,3.38-14.33,6.51-26.89,8.67-34.42C467,732.83,475.27,718.57,482.12,718.6Z" transform="translate(-316.72 -646.89)"/><path id="path16864" class="cls-1" d="M484.31,739.5a15.07,15.07,0,0,1,6.57,2.39c.62,3.43-1.25,13-5.08,22.37-.64,1.58-3.89,3.79-4.65,5.72-3.62-1-7.63-5.35-8.62-11.44S474.79,738.79,484.31,739.5Zm-23.6,15.36c10.67,6.44.91,19.1-3,15.14-.32-.33-.57-.63-.83-.94,1.23-4.8.52-8.49,1.45-11.74.19-.66,2.18-1.82,2.37-2.47Zm10.73,27.92a7.89,7.89,0,0,1,4.09,2c.73,3.7-.93,7.76-4.18,11.5-2.92.91-6.5-.79-6.77-5.43-.23-3.87,2.34-7.88,6-8.05A5.92,5.92,0,0,1,471.44,782.78Zm-15.11,22.43a7.28,7.28,0,0,1,3.2,1.09c10.55,13.09-6.34,17.62-8.79,12.68-2.72-3.76-1.91-10.15,1.5-12.46a6.59,6.59,0,0,1,4.09-1.31Z" transform="translate(-316.72 -646.89)"/><path id="path16866" class="cls-3" d="M483.72,742.63A5.75,5.75,0,0,1,489,746c-2.29,7.42-5.77,18.59-7,18.57s-6,0-6.4-7.48c-.41-8.48,1.07-12.68,6.25-14.17A7.44,7.44,0,0,1,483.72,742.63Zm-24.09,15,1.18,1c3.1,5.14.07,9.06-1.91,8.25s-1.58-.61-1.58-.61C458.46,759.09,458.87,760.34,459.63,757.58Zm10.42,28.27a7,7,0,0,1,3.9,1.77s-1.46,5.07-2.86,5.64-4.47.09-4-3.63c.28-2.33,1.27-3.8,3-3.78Zm-15,22.08a3.26,3.26,0,0,1,1.93.47c4.91,4,3,7.63-.18,9.36s-4.76-.26-5.31-3.41.06-4.75,1.67-5.9a5,5,0,0,1,1.89-.52Z" transform="translate(-316.72 -646.89)"/><path id="path16868" class="cls-4" d="M452.65,851.6c-4.26,13.79-7.52,25.63-8.59,32.51-2.43,15.57-4.21,44.52,5.9,57,0,0,.89.45-.93,2.64s-13.92,4.66-16.06-2-4.58-23.89-.56-55.61c.27-2.15.61-4.55,1-7-.56,13.16.07,31,2.9,16.79,2.54-12.79,9.72-34.06,16.35-44.31Z" transform="translate(-316.72 -646.89)"/></g><g id="g16870"><g id="g16872"><path id="path16874" class="cls-1" d="M451.88,934.08C474.75,895.5,472,831.35,462.06,809.84s-29.48-17.07-26.24,3.78c3,19.52,9.48,52,7.78,73.34s-11,37.89-14.08,47.67-1.18,15,.62,15l14.82.2s1.14-4.83,6.92-15.73Z" transform="translate(-316.72 -646.89)"/><path id="path16876" class="cls-2" d="M441.38,950.17c-3.25-11.73,13.18-26.88,18.54-58.15,4.61-26.94,4.86-63.19-1.57-77.81s-16.9-13.62-17.81-5.09c-1.06,9.11,8.62,35.45,8.41,60.53s-4.5,43-11.1,56.83c-5.29,11.12-6.21,19.58-5.42,22.44s6.74,2.34,6.74,2.34Z" transform="translate(-316.72 -646.89)"/><path id="path16878" class="cls-3" d="M446.71,802.92c3.66.16,8.22,3.52,11.64,11.29,2.9,6.59,4.41,17.6,4.8,30.15-2.39-15.28-6.71-27-10.2-31.36-6.87-8.64-9.77-3-8.27,6.72s6.12,25.44,7.34,41.7-3,30.17-4.49,33.28c-.07.15-.22,0-.39-.23a181.84,181.84,0,0,0,1.79-24.84c.22-25.07-9.43-51.4-8.38-60.5.43-4,2.94-6.36,6.16-6.21Z" transform="translate(-316.72 -646.89)"/><path id="path16880" class="cls-5" d="M461.55,879.11a.27.27,0,0,1,.15,0c-.5,4.43-1.1,8.77-1.8,12.88-5.36,31.27-21.88,46.17-18.63,57.9l-7.27.75s-.76-.57-1.55-3.43.13-9.63,5.41-20.75a103,103,0,0,0,7.3-21.23c2.46.64,3.79-4.26,4.39-1.14.65,3.43-.6,5.41,3.44.62s6.47-14.43,7.82-23.52c.22-1.43.45-2.07.74-2.11Z" transform="translate(-316.72 -646.89)"/></g><path id="path16882" class="cls-1" d="M452.79,806.36c-2,0-2.57,2.1-2.19,6.37.52,5.7,9.48,7.42,9.29-.44a9,9,0,0,0-4.72-5.19,5.63,5.63,0,0,0-2.38-.74Zm-6.85,14.75c-1.93-.15-3,1.87-3.62,5.58-1,5.95,2.08,22,2.08,22,16.5-2.49,11.08-20.16,6.06-24.84C448.57,822.1,447.1,821.2,445.94,821.11ZM459.44,865c-3.69-.32-6.64,5.61-4,9.55,3.81,5.74,6.85,5,8.39,2.31s.69-6.76.69-6.76C463,866.6,461.12,865.14,459.44,865Z" transform="translate(-316.72 -646.89)"/><path id="path16884" class="cls-3" d="M454.43,808.39a2.66,2.66,0,0,0-.74.05c-2.11.52-1.27,3.25.19,5.44s4.22.32,3.68-3.48a5.17,5.17,0,0,0-3.13-2Zm-7.74,18a4.67,4.67,0,0,0-2.88,1.91s1.27,16.84,4.27,16.61,5.49-7,3.77-12.69C450.67,828.32,448.76,826.16,446.69,826.42ZM458,867.72c-1.2.15-1.91,1.59-1.63,3.08.55,3,.23,4.88,3.22,5.2s3.08-3.78,3.08-3.78C460.92,868.68,459.2,867.56,458,867.72Z" transform="translate(-316.72 -646.89)"/></g><g id="g16886"><path id="path16888" class="cls-1" d="M371.53,707.39c-10.82,1.59-15.2,13.71-16.15,23.05-2.55,28.81,4.63,57.45,12.23,84.95,11.69,39.36,29.79,77.3,55.77,109.3,4.89,7,9.67,14,13.3,21.64,7-.14,14.61,1.49,21.25-.29,4.26-9.78-2.31-19.89-8.15-27.45-20.51-28-38.82-58.77-45-93.19-6.82-32.11-5.28-59.73-9.73-92.15-2.24-13-11.82-26.54-23.54-25.86Z" transform="translate(-316.72 -646.89)"/><path id="path16890" class="cls-2" d="M441.24,948.19c.26-18.09-31.12-44.56-51.45-93.38-17.52-42.06-32.15-98.4-28.26-120.86s20-20.46,24.69-7.16c5.17,14.19,1,54.73,11.21,93.71s23.65,67,39,88.79c12.3,17.5,20.94,29.9,20.24,34.25-1,6.21,1.43,4.14,1.43,4.14Z" transform="translate(-316.72 -646.89)"/><path id="path16892" class="cls-3" d="M374.52,716.89c-5.41.1-10.93,5.14-13,17.07-1.76,10.12.31,27.16,4.65,46.65-2.42-23.64-.54-41.63,3-48.31,6.9-13.15,13.47-4.24,15,10.78s.84,39.29,5.4,64.5,16.32,47,19.83,51.91c.17.24.34.06.5-.34a342.37,342.37,0,0,1-12.47-38.67c-10.18-39-6.07-79.49-11.24-93.68-2.22-6.24-6.9-10-11.68-9.91Z" transform="translate(-316.72 -646.89)"/><path id="path16894" class="cls-1" d="M383.73,739.75c-6.4.59-10.9,10-4.85,16.78,7.32,8.2,11.36,4.08,12.3,1s-.68-15-.68-15a8.59,8.59,0,0,0-6.77-2.78Zm-8.55,50.59c-2.32-.09-4.73,1.82-7,6.81,0,0,3.7,11.9,5,17.21s4.89,15.6,9.34,17,7.43-7.23,5.61-17.9C386.49,804,381.1,790.56,375.18,790.34Zm28.62,54.52c-14.36,4.22-1,21.89,4.86,18.44s2.83-9.31,1.18-13.36C409.84,849.94,407.64,844.92,403.8,844.86Z" transform="translate(-316.72 -646.89)"/><path id="path16896" class="cls-3" d="M385.22,743.2c-9.76,1.68-3.48,14.4.55,14s4.09-1.27,4.09-1.27l-.29-11A7.59,7.59,0,0,0,385.22,743.2Zm-10.41,52.52c-1.27,0-2.37,1-3,3.54-.62,2,5.91,21,5.91,21s2.38,7.33,5.53,5.61,2.72-9.61-.32-19.36C381.25,800.84,377.59,795.75,374.81,795.72Zm30,52.24c-9.32,3.15-2.44,11.09.73,11.92s4.18-1.64,4.08-4.26S407.23,848.52,404.85,848Z" transform="translate(-316.72 -646.89)"/><path id="path16898" class="cls-5" d="M382.25,834.67a.37.37,0,0,0-.2.05c2.49,6.9,5.09,13.68,7.76,20.09,20.34,48.82,51.67,75.31,51.41,93.4l14.51-.54s-.9,0-.83-4.42-6.19-16.46-18.49-34A225.07,225.07,0,0,1,417.12,876c-3.44.88-7.36-6.79-7-2,.37,5.3,3,8.43-4.93.81s-15.36-22.68-21-36.88c-.87-2.22-1.48-3.23-1.94-3.31Z" transform="translate(-316.72 -646.89)"/></g><g id="g16900"><g id="g16902"><path id="path16904" class="cls-1" d="M326.18,730c-10.42,3.72-10.67,17-8.11,26,5.87,20,20.76,35.66,31.93,53,21.56,31.6,44,63.63,55.17,100.49a81.28,81.28,0,0,1,3.07,34.76c1.31,4.27,7.36,3.29,10.9,3.77,5.65-1,12-3.61,15-8.62,1.5-11.74-3.41-23.41-6.51-34.64a953.52,953.52,0,0,0-50.84-120.61c-9.07-17-18-34.83-32-48.53-4.85-4.21-11.91-7.77-18.56-5.59Z" transform="translate(-316.72 -646.89)"/><path id="path16906" class="cls-2" d="M411.82,946.3c7-14.42-1.31-42.23-7.22-56.86-8.37-20.69-49.94-85.89-65.63-108.07-16-22.57-18.32-31.53-13-41.46s19,2.22,33.91,29c12.29,22,45.36,89.88,56.5,119.9s21,51,20.41,58-21.23,3.57-23.5,1.85-1.51-2.36-1.51-2.36Z" transform="translate(-316.72 -646.89)"/><path id="path16908" class="cls-3" d="M329.82,736.62a6,6,0,0,0-3.83,3.3c-5.36,9.93-3,18.88,13,41.45l1.59,2.29c-8.32-16.84-13-30.46-8.74-33.34,8.26-5.64,30.05,26.35,41.89,46.2q1.19,2,2.53,4c-6.56-13.22-12.47-24.76-16.29-31.62C347.78,747.14,336.49,735.07,329.82,736.62Z" transform="translate(-316.72 -646.89)"/><path id="path16910" class="cls-1" d="M332.45,757.47a15.06,15.06,0,0,0-5.86,3.79c.18,3.48,4.17,12.37,10,20.67,1,1.39,4.66,2.83,5.84,4.54,3.3-1.74,6.22-6.9,5.8-13.05S341.57,754.67,332.45,757.47Zm26.49,9.73c-8.93,8.65,3.46,18.82,6.36,14.1.25-.4.41-.75.6-1.11-2.29-4.4-2.44-8.16-4.09-11.11-.34-.6-2.54-1.29-2.87-1.88Zm-4.1,29.59a7.89,7.89,0,0,0-3.54,2.83c.14,3.76,2.68,7.35,6.7,10.28,3.06.24,6.16-2.22,5.36-6.8-.66-3.81-4.08-7.16-7.7-6.51A6.51,6.51,0,0,0,354.84,796.79Zm19.83,18.5a7.3,7.3,0,0,0-2.86,1.78c-7.3,15.09,10.18,15.76,11.44,10.41,1.81-4.28-.44-10.32-4.29-11.81a6.61,6.61,0,0,0-4.29-.38Z" transform="translate(-316.72 -646.89)"/><path id="path16912" class="cls-3" d="M333.74,760.39a5.71,5.71,0,0,0-4.4,4.49c3.92,6.73,9.85,16.84,11,16.55s5.89-1.3,4.53-8.71c-1.54-8.35-3.92-12.11-9.32-12.42A7.07,7.07,0,0,0,333.74,760.39Zm26.88,9.23-.92,1.23c-1.86,5.7,2,8.85,3.73,7.62s1.4-.94,1.4-.94C362.1,770.82,362,772.14,360.62,769.62Zm-3.73,29.85a7,7,0,0,0-3.39,2.59s2.58,4.62,4.07,4.86,4.38-.9,3.09-4.43c-.8-2.2-2.1-3.42-3.77-3Zm19.65,18.2a3.17,3.17,0,0,0-1.77.88c-3.88,5-1.21,8.11,2.31,9.08s4.58-1.31,4.4-4.5-1.15-4.61-3-5.38a5,5,0,0,0-2-.08Z" transform="translate(-316.72 -646.89)"/><path id="path16914" class="cls-4" d="M388.82,859.69c7.3,12.48,13.17,23.3,15.78,29.77,5.91,14.63,14.24,42.44,7.23,56.86,0,0-.76.64,1.51,2.36s18.18,2.68,18.75-4.27-4.54-25.53-15.68-55.54c-.75-2-1.63-4.29-2.57-6.64,3.55,12.7,7,30.21,1,17-5.39-11.91-17.23-31-26-39.55Z" transform="translate(-316.72 -646.89)"/></g></g><g id="g16916"><path id="path16918" class="cls-1" d="M478.6,938.64c22.18-50.67-18-134-22.39-156.52s15.28-37.52,33.59-4.18c18.43,33.57,23.66,114.18,22.75,131.38s-3.77,29.73-2.5,34.38-8.8,5.84-20.82,2.37-10.63-7.43-10.63-7.43Z" transform="translate(-316.72 -646.89)"/><path id="path16920" class="cls-2" d="M483.64,942.41c16.81-19.19,5.09-83.9-.84-100.19-6.45-17.74-23.69-63.87-19.1-72.19s15.69-2.88,26.47,25.07c8.93,23.13,16.22,86.72,16.29,113.64s1.41,36.48-1.79,39.07C495,951.09,483.64,942.41,483.64,942.41Z" transform="translate(-316.72 -646.89)"/><path id="path16922" class="cls-3" d="M469,766.47c-2.17,0-4,1.22-5.26,3.56-3.94,7.15,8.24,42.19,15.84,63.17-5.32-28.31-12.33-50.78-9.26-54.71,4.1-5.24,12.92,5.48,26.59,51.12,1.42,4.74,2.7,9.83,4,15-2.86-20-6.56-39-10.63-49.58C482.44,775,474.5,766.55,469,766.47Z" transform="translate(-316.72 -646.89)"/><path id="path16924" class="cls-1" d="M478,769.34c-6.8,6.53-4.29,18.46,3.33,17.24s7.7-7.38,2.86-13.19c-7.09-4.51-6.19-4-6.19-4Zm6.19,4C491.29,777.9,479.36,767.59,484.19,773.39Zm-13.81,22a6.1,6.1,0,0,0-2.43.41c-4.5,1.7.92,19.36.92,19.36,6.93,15.54,13,.51,10.38-7.79S473.78,795.45,470.38,795.35Zm29.44,49.29c-8.86-.23-8.11,11.53-2.46,12.81,6.24,1.41,9.44-3.89,8.6-7.87l-3.06-4.45a13.31,13.31,0,0,0-3.08-.49Z" transform="translate(-316.72 -646.89)"/><path id="path16926" class="cls-3" d="M478.42,774.2c-2.47,6.63-2.11,9.37.67,9.41a7.16,7.16,0,0,0,4.79-2.09s-.93-3.93-2.7-5.72S478.42,774.2,478.42,774.2Zm-8,24.68a2.79,2.79,0,0,0-1.69.71c2.26,8.66,5.1,18.29,5.9,18.11s2-3.3,1.9-8-1.47-8.45-3.83-10.05A3.7,3.7,0,0,0,470.43,798.88Zm30.45,48.57c-5.38,1.1-6,5-3.46,6a5.6,5.6,0,0,0,4.57-.13Z" transform="translate(-316.72 -646.89)"/></g><g id="g16928"><path id="path16930" class="cls-1" d="M445.21,947.18c2.54-85.36,47.7-148.95,50.1-176.72s-11.27-57.08-7.09-68.28,19.55-7,31.84,24.93,3.11,64.91-9.59,109.75-19.87,77.84-20.8,96.36,7.86,13.35-2.24,16.52-42.22-2.56-42.22-2.56Z" transform="translate(-316.72 -646.89)"/><path id="path16932" class="cls-2" d="M450.58,947c2.54-85.36,49.27-151.15,52-177.72,3.79-36.74-11.94-55.56-9.06-63.26s12.76-.25,20.5,22c10.58,30.39,2.41,66.17-11.86,111.21s-19.53,69.23-20.46,87.75,5.38,22.34-.55,23.61c-10.28,2.19-30.36,2-30.58-3.58Z" transform="translate(-316.72 -646.89)"/><path id="path16934" class="cls-3" d="M496.84,703.06c-1.45,0-2.6,1-3.32,2.94-2.87,7.71,12.88,26.49,9.1,63.23-.83,8-5.55,19.86-11.56,34.38,11.27-20.9,17.39-39.61,16.38-52.64-1.52-19.43-8-34.06-6.64-36.24S521,737.94,515,788.16c-.35,2.85-.72,6-1.07,9,5.87-26.19,7.18-48.86.13-69.12C508.21,711.31,501.2,703,496.84,703.06Z" transform="translate(-316.72 -646.89)"/><path id="path16936" class="cls-6" d="M510,812.79a275.58,275.58,0,0,1-26.88,44.65c-8,10.67-18.47,29.29-25.67,49.77-1.3,7.33-3.93,16.57-6,25.74-.4,4.61-.7,9.26-.84,14,.22,5.59,20.3,5.79,30.57,3.6,5.83-1.25-.1-5,.57-22.68v-.19c0-.26-.05-.51,0-.74.06-1.11.16-2.22.25-3.37v-.45q.42-5.29,1.35-11.39c.21-1.41.44-2.82.7-4.3.05-.24.12-.5.16-.74.49-2.71,1-5.58,1.66-8.6.7-3.25,1.54-6.84,2.43-10.5.46-1.84.92-3.75,1.42-5.71v0c1-3.94,2.14-8.1,3.4-12.54,2.52-8.89,5.54-18.85,9.11-30.11.9-2.84,1.75-5.57,2.6-8.34.53-1.72,1.05-3.42,1.56-5.12.3-1,.59-2,.88-3,1-3.33,1.9-6.67,2.77-9.9Z" transform="translate(-316.72 -646.89)"/><path id="path16938" class="cls-1" d="M505.05,741.09c-2.84.53-3.85,9.06-3.85,9.06.74,10.31,7,11.86,8.27,4.53s.75-10.87-3.09-13.27A1.83,1.83,0,0,0,505.05,741.09Zm5.09,43.82c-7,.25-10.39,10-7.57,15.58,3.78,7.4,11.89,1.63,14.32-1.28s1.34-10.86,1.34-10.86C515.21,785.81,512.47,784.83,510.14,784.91Zm-21,34.89a6.33,6.33,0,0,0-1.7.52c-4.79,2-12.1,9.82-13.34,13.34s-2.87,13.77-2.87,13.77c-1,26.76,19.33,5.57,21.93-10C495.4,823.83,493,819.36,489.1,819.8Z" transform="translate(-316.72 -646.89)"/><path id="path16940" class="cls-3" d="M505.69,744.73c-.95-.1-1.91,1.34-2.43,6.63l.27,2.35c.27,1.77,2.93,3.28,3.56.64s.71-7.93-.46-9.12A1.56,1.56,0,0,0,505.69,744.73Zm3.84,44.63c-3.13,0-4.16,2.55-4.2,5.58-.06,4.41,1.21,5.33,4.69,5.65,4.63.42,5.5-8,5.19-9.34A12.71,12.71,0,0,0,509.53,789.36Zm-22.08,34.39a2,2,0,0,0-.39.09c-2.4.56-4.85,2.28-7.3,7a83.53,83.53,0,0,0-4.64,12c-2.29,15,2.5,13.27,5.52,10.37s8-12.23,9.26-19.57c1.21-6.88-.29-9.94-2.45-9.83Z" transform="translate(-316.72 -646.89)"/></g><g id="g16942"><path id="path16944" class="cls-1" d="M555.61,882.92c-17.07-1.36-31.61,8.29-41,19.34a126.49,126.49,0,0,0-20.52,34c.09,2.55-1.22,7.1,2.76,7.92,3.58.31,8.74,4.55,11.71,1.06,4.19-6.7,5.63-14.69,11.29-20.9A48.54,48.54,0,0,1,551.71,906c8.36-1.71,17.43-8.54,14.83-16.48-1.29-4.12-6.07-6.48-10.93-6.55Z" transform="translate(-316.72 -646.89)"/><path id="path16946" class="cls-2" d="M495.72,944.15c10.42-31.13,31.16-51.1,48.35-54.76s18.09,4.19,12,8.39-21.54,5.41-32.49,16.32-15.28,27.1-18.19,31.74S495.65,944.48,495.72,944.15Z" transform="translate(-316.72 -646.89)"/><path id="path16948" class="cls-3" d="M554.08,888.56a31.84,31.84,0,0,0-10,.82c-17,3.61-37.38,23.15-47.93,53.61l.24-.08c12.83-33.15,31-46.11,48.64-48,9.21-1,10,1.62,8.58,4.32a16.79,16.79,0,0,0,2.55-1.44c4.53-3.15,5.16-8.34-2.06-9.2Z" transform="translate(-316.72 -646.89)"/></g><g id="g16950"><path id="path16952" class="cls-1" d="M433.56,647c-10.62-1.14-18.24,8-20.79,17.21-7.49,20.54-10.3,42.62-13,64.26-4.31,51,1.92,102.46,12.22,152.35,5.22,22.61,11.49,45.3,23.72,65.2,3.5,5.12,10.75,4.46,16.25,4.46,4.5-.31,5.82-5,4.51-8.72-2.38-8.16-5.22-16-6.46-24.37-11.1-52.7-16.71-106.92-12.82-160.78,1.37-27.16,5.9-54,11.81-80.55,1.06-8.21,2.14-17.83-3.11-24.77C442.71,648,438,647,433.56,647Z" transform="translate(-316.72 -646.89)"/><path id="path16954" class="cls-2" d="M439.93,949.19c-26.26-33.9-37.67-169.25-32.32-215.22,6.41-55.07,10.68-78.7,23.48-77.43,16.16,1.61,9.58,16.7,4.21,47.67-4.7,27.15-8.58,85.63-5.07,130.22s14.5,92.9,18.52,103.56,8.61,14.59,0,14.94C442.1,953,439.93,949.19,439.93,949.19Z" transform="translate(-316.72 -646.89)"/><path id="path16956" class="cls-3" d="M431.08,656.54c-11.86-1.18-16.43,19.4-22.14,66.23,6.31-32.21,16.42-54.29,20-55.43,6.88-2.18,5,5,2.72,27.4s-12.23,68.16-7.41,113.61a363.17,363.17,0,0,0,8.12,47.32c-.87-7.07-1.61-14.18-2.17-21.22-3.51-44.59.37-103.08,5.07-130.23C440.66,673.25,447.24,658.14,431.08,656.54Z" transform="translate(-316.72 -646.89)"/><path id="path16958" class="cls-1" d="M424.15,661.7a6.81,6.81,0,0,0-4.42,1.77,12.33,12.33,0,0,0-4,6.32c.08,17.7,16.15,8.56,14.54-.4C429.25,663.8,426.75,661.75,424.15,661.7Zm9.08,27c-16.42-.11-12.1,14.47-.2,14.6,7.68-.79,8.57-7,8.34-10.09s-4.61-4.31-4.61-4.31c-.64-.07-1.25-.06-1.84-.1s-1.16-.09-1.69-.09Zm-18.31,31.8c-3.27.19-7,3.63-10.58,11.9,0,0-4.94,6.7-5.7,11.07s5.2,15.41,11.76,17.64,14.39-4.88,14.25-21.7c-.1-10.52-4.29-19.23-9.73-18.91Z" transform="translate(-316.72 -646.89)"/><path id="path16960" class="cls-3" d="M423.46,664.67c-2.19.16-4.83,2.78-5.21,4.89-.53,2.88,2.22,8.05,5.06,7.21,5.41-1.61,5-9.71,1.54-11.76A2.27,2.27,0,0,0,423.46,664.67Zm8.78,26.79c-2.6.2-6.6,2-6.3,4.56.39,3.29,6.26,5.38,9.28,3.92,1.91-.93,2.5-4.21,1.64-6.13C436.16,692.25,434,691.33,432.24,691.46Zm-17.67,34.15c-4.46-.31-6.8,11.31-6.8,11.31-1.4,19.66.2,18,4.62,18.91s7.54-9.47,7.49-17.14S419,725.92,414.57,725.61Z" transform="translate(-316.72 -646.89)"/></g><g id="g16962"><path id="path16964" class="cls-1" d="M564.16,735.53c11.28.8,16.11,11.8,17.25,20.21,2.16,22-4,44-10.25,64.87-12.8,39-32.74,76.7-62.9,107.56-5.39,6.09-10.31,12.76-15,19.14-6.74,2.19-14.8,1.48-21.73.14-4.26-6.72,0-15.2,4.64-21.06,21.23-24.06,41.42-49.89,49.75-79.78,8.87-29.78,11.33-60.61,16.37-91,2.23-9.25,9.43-20.28,21.86-20.12Z" transform="translate(-316.72 -646.89)"/><path id="path16966" class="cls-2" d="M488.58,948.84c.23-16.11,32.49-38.85,54.23-81.78,18.74-37,35-86.75,31.64-106.83s-19.53-18.74-24.64-7c-5.58,12.5-2.49,48.69-13.77,83.11s-25.57,59-41.58,78a216,216,0,0,0-21.26,30c-1.05,1.69-1.29,3.37-1,3.92,2.57,6.18,16,1.86,16.41.62Z" transform="translate(-316.72 -646.89)"/><path id="path16968" class="cls-3" d="M561.83,744.7c5.45.23,10.86,4.86,12.62,15.53,1.5,9.06-1,24.17-5.92,41.4,3.06-21,1.65-37-1.7-43.07-6.58-11.88-13.42-4.12-15.41,9.21s-1.88,34.94-7.14,57.26S526.62,866.45,523,870.72c-.18.21-.35,0-.5-.31A281.28,281.28,0,0,0,536,836.31c11.28-34.43,8.22-70.59,13.8-83.09,2.39-5.49,7.2-8.72,12-8.52Z" transform="translate(-316.72 -646.89)"/><path id="path16970" class="cls-1" d="M552,764.81c6.43.69,10.7,9.19,4.44,15.07-7.58,7.1-11.54,3.33-12.4.57s1.09-13.34,1.09-13.34a9.25,9.25,0,0,1,6.87-2.3Zm7.26,45.25c2.33,0,4.71,1.74,6.85,6.24,0,0-4,10.5-5.45,15.19s-5.34,13.76-9.85,14.88-7.29-6.64-5.17-16.08C547.48,821.9,553.26,810.11,559.22,810.06ZM529,857.85c14.34,4.12.43,19.5-5.37,16.28s-2.6-8.36-.83-11.92C522.78,862.21,525.12,857.79,529,857.85Z" transform="translate(-316.72 -646.89)"/><path id="path16972" class="cls-3" d="M550.37,767.84c9.77,1.75,3.12,12.91-.92,12.46s-4.08-1.23-4.08-1.23l.59-9.81A8.17,8.17,0,0,1,550.37,767.84Zm9.08,47c1.27,0,2.36,1,2.9,3.22.58,1.76-6.5,18.5-6.5,18.5s-2.59,6.46-5.71,4.85-2.48-8.62.84-17.22C552.84,819.25,556.65,814.81,559.45,814.86Zm-31.6,45.72c9.28,3,2.16,9.93-1.05,10.58s-4.16-1.56-4-3.89S525.44,861,527.85,860.58Z" transform="translate(-316.72 -646.89)"/><path id="path16974" class="cls-7" d="M550.92,849.35c-.45.07-1.08.91-2,2.87-6,12.49-13.91,25.71-22.1,32.27s-5.42,3.86-4.9-.85c.47-4.28-3.69,2.44-7.12,1.57-.13.22-.28.42-.41.63q-2.67,4.62-5.43,8.89c-.93,1.43-1.85,2.85-2.79,4.23s-1.93,2.74-2.89,4.07c-.3.43-.61.85-.91,1.27-.65.89-1.32,1.75-2,2.61-1,1.28-1.95,2.55-2.94,3.79s-2,2.44-3,3.63a216.24,216.24,0,0,0-21.27,30c-1.05,1.68-1.26,3.36-1,3.9,2.57,6.18,15.94,1.86,16.38.62.2-14.6,26.74-34.66,47.89-70.24.73-1.21,1.43-2.44,2.14-3.69v0c.72-1.27,1.44-2.54,2.14-3.84s1.36-2.6,2-3.94c1.43-2.82,2.85-5.76,4.24-8.72s2.76-6,4.1-9a.33.33,0,0,0-.2,0Z" transform="translate(-316.72 -646.89)"/></g></g></svg>